<?xml version="1.0" encoding="utf-8"?>
<!-- Generator: Adobe Illustrator 26.3.1, SVG Export Plug-In . SVG Version: 6.00 Build 0)  -->
<svg version="1.1" id="Logo" xmlns="http://www.w3.org/2000/svg" xmlns:xlink="http://www.w3.org/1999/xlink" x="0px" y="0px"
	 viewBox="0 0 153.9 63" style="enable-background:new 0 0 153.9 63;" xml:space="preserve">
<style type="text/css">
	.st0{fill:#FFFFFF;}
</style>
<g>
	<path class="st0" d="M68.3,45.1h22.5c0.2,0,0.4,0.2,0.4,0.4v4.2c0,0.2-0.2,0.4-0.4,0.4H68.3c-0.2,0-0.4-0.2-0.4-0.4v-4.2
		C67.9,45.3,68.1,45.1,68.3,45.1z"/>
	<path class="st0" d="M68.3,30h22.5c0.2,0,0.4,0.2,0.4,0.4v4.2c0,0.2-0.2,0.4-0.4,0.4H68.3c-0.2,0-0.4-0.2-0.4-0.4v-4.2
		C67.9,30.2,68.1,30,68.3,30z"/>
	<path class="st0" d="M68.3,15h22.5c0.2,0,0.4,0.2,0.4,0.4v4.2c0,0.2-0.2,0.4-0.4,0.4H68.3c-0.2,0-0.4-0.2-0.4-0.4v-4.2
		C67.9,15.2,68.1,15,68.3,15z"/>
	<path class="st0" d="M37.5,15.2l9.6,21.9c0.1,0.2,0.3,0.3,0.5,0.2c0.1,0,0.2-0.1,0.2-0.2l9.4-21.9c0.1-0.1,0.2-0.2,0.4-0.2h4.6
		c0.2,0,0.4,0.2,0.4,0.4c0,0.1,0,0.1,0,0.2L47.8,49.8c-0.1,0.2-0.3,0.3-0.5,0.2c-0.1,0-0.2-0.1-0.2-0.2L32.2,15.6
		c-0.1-0.2,0-0.4,0.2-0.5c0,0,0.1,0,0.2,0h4.6C37.3,15,37.4,15.1,37.5,15.2z"/>
	<path class="st0" d="M35.4,49.5L20.5,15.2C20.4,15,20.2,14.9,20,15c-0.1,0-0.2,0.1-0.2,0.2l-9.6,22.3H0.3c-0.2,0-0.3,0.2-0.3,0.4
		V38l1.9,4.3c0,0.1,0.2,0.2,0.3,0.2h6l-3,7c-0.1,0.2,0,0.4,0.2,0.5c0,0,0.1,0,0.2,0h4.6c0.2,0,0.3-0.1,0.4-0.2l3.1-7.3h13.4l3.2,7.3
		c0.1,0.1,0.2,0.2,0.4,0.2h4.6c0.2,0,0.4-0.2,0.4-0.4C35.4,49.6,35.4,49.6,35.4,49.5z M15.6,37.6l4.2-9.6c0.1-0.2,0.3-0.3,0.5-0.2
		c0.1,0,0.2,0.1,0.2,0.2l4.2,9.6H15.6z"/>
	<path class="st0" d="M101.5,15.2l9.6,21.9c0.1,0.2,0.3,0.3,0.5,0.2c0.1,0,0.2-0.1,0.2-0.2l9.4-21.9c0.1-0.1,0.2-0.2,0.4-0.3h4.6
		c0.2,0,0.4,0.2,0.4,0.4v0.1l-14.8,34.3c-0.1,0.2-0.3,0.3-0.5,0.2c-0.1,0-0.2-0.1-0.2-0.2L96.2,15.4c-0.1-0.2,0-0.4,0.2-0.5
		c0,0,0.1,0,0.2,0h4.6C101.3,15,101.4,15.1,101.5,15.2z"/>
	<path class="st0" d="M153.8,49.5l-14.9-34.3c-0.1-0.2-0.3-0.3-0.5-0.2c-0.1,0-0.2,0.1-0.2,0.2l-14.8,34.3c-0.1,0.2,0,0.4,0.2,0.5
		c0.1,0,0.1,0,0.2,0h4.6c0.2,0,0.3-0.1,0.4-0.2l3.1-7.3h13.4l3.2,7.3c0.1,0.1,0.2,0.2,0.4,0.2h4.6C153.7,50,153.9,49.8,153.8,49.5
		C153.9,49.6,153.8,49.5,153.8,49.5z M134.1,37.6l4.2-9.6c0.1-0.2,0.3-0.3,0.5-0.2c0.1,0,0.2,0.1,0.2,0.2l4.2,9.6H134.1z"/>
</g>
</svg>
