<?xml version="1.0" encoding="utf-8"?>
<!-- Generator: Adobe Illustrator 26.3.1, SVG Export Plug-In . SVG Version: 6.00 Build 0)  -->
<svg version="1.1" id="Layer_1" xmlns="http://www.w3.org/2000/svg" xmlns:xlink="http://www.w3.org/1999/xlink" x="0px" y="0px"
	 viewBox="0 0 29.2 19.7" style="enable-background:new 0 0 29.2 19.7;" xml:space="preserve">
<style type="text/css">
	.st0{fill:#FFFFFF;}
</style>
<path id="ibm--ix_1_" class="st0" d="M24.1,19.7c-0.1,0-0.2,0-0.3-0.1l-4.5-4.5l-4.5,4.5c-0.1,0.1-0.4,0.1-0.5,0l-4.5-4.5l-4.5,4.5
	c-0.1,0.1-0.4,0.1-0.5,0l-4.8-4.8c-0.1-0.1-0.1-0.4,0-0.5l4.5-4.5L0.1,5.4C0,5.2,0,5,0.1,4.9l4.8-4.8C5,0,5.2,0,5.4,0.1l4.5,4.5
	l4.5-4.5c0.1-0.1,0.4-0.1,0.5,0l4.5,4.5l4.5-4.5C24,0,24.2,0,24.4,0.1l4.8,4.8c0.1,0.1,0.1,0.4,0,0.5l-4.5,4.5l4.5,4.5
	c0.1,0.1,0.1,0.4,0,0.5l-4.8,4.8C24.3,19.7,24.2,19.7,24.1,19.7z M19.4,14.3c0.1,0,0.2,0,0.3,0.1l4.5,4.5l4.2-4.2l-4.5-4.5
	c-0.1-0.1-0.1-0.4,0-0.5l4.5-4.5l-4.2-4.2l-4.5,4.5c-0.1,0.1-0.4,0.1-0.5,0l-4.5-4.5l-4.2,4.2l4.5,4.5C14.9,9.7,15,9.8,15,9.9
	c0,0.1,0,0.2-0.1,0.3l-4.5,4.5l4.2,4.2l4.5-4.5C19.2,14.3,19.3,14.3,19.4,14.3z M0.9,14.6l4.2,4.2l4.2-4.2l-4.2-4.2L0.9,14.6z
	 M5.6,9.9l4.2,4.2l4.2-4.2L9.9,5.6L5.6,9.9z M0.9,5.1l4.2,4.2l4.2-4.2L5.1,0.9L0.9,5.1z"/>
</svg>
