<?xml version="1.0" encoding="utf-8"?>
<!-- Generator: Adobe Illustrator 26.3.1, SVG Export Plug-In . SVG Version: 6.00 Build 0)  -->
<svg version="1.1"
	 id="Layer_1" xmlns:dc="http://purl.org/dc/elements/1.1/" xmlns:rdf="http://www.w3.org/1999/02/22-rdf-syntax-ns#" xmlns:cc="http://creativecommons.org/ns#"
	 xmlns="http://www.w3.org/2000/svg" xmlns:xlink="http://www.w3.org/1999/xlink" x="0px" y="0px" viewBox="0 0 273 191"
	 style="enable-background:new 0 0 273 191;" xml:space="preserve">
<style type="text/css">
	.st0{filter:url(#Adobe_OpacityMaskFilter);}
	.st1{fill-rule:evenodd;clip-rule:evenodd;fill:#FFFFFF;}
	.st2{mask:url(#b_00000031166481090211595390000008806918776179218358_);fill-rule:evenodd;clip-rule:evenodd;fill:#00A1E0;}
	.st3{fill-rule:evenodd;clip-rule:evenodd;fill:#FFFFFE;}
</style>
<g>
	<defs>
		<filter id="Adobe_OpacityMaskFilter" filterUnits="userSpaceOnUse" x="-0.2" y="0.6" width="272.1" height="190.5">
			<feColorMatrix  type="matrix" values="1 0 0 0 0  0 1 0 0 0  0 0 1 0 0  0 0 0 1 0"/>
		</filter>
	</defs>
	
		<mask maskUnits="userSpaceOnUse" x="-0.2" y="0.6" width="272.1" height="190.5" id="b_00000031166481090211595390000008806918776179218358_">
		<g class="st0">
			<path id="a_00000025431020217257450830000010301922634050029735_" class="st1" d="M0.1,0.5h272v190H0.1L0.1,0.5z"/>
		</g>
	</mask>
	<path class="st2" d="M113,21.3c8.8-9.1,21-14.8,34.5-14.8c18,0,33.6,10,42,24.9c7.5-3.3,15.5-5.1,23.7-5
		c32.4,0,58.7,26.5,58.7,59.2s-26.3,59.2-58.7,59.2c-4,0-7.8-0.4-11.6-1.1c-7.4,13.1-21.4,22-37.4,22c-6.5,0-12.9-1.5-18.8-4.3
		c-7.4,17.5-24.8,29.8-45,29.8c-21.1,0-39-13.3-45.9-32c-3.1,0.6-6.2,1-9.3,1c-25.1,0-45.4-20.6-45.4-45.9c0-17,9.1-31.8,22.7-39.8
		c-2.9-6.6-4.4-13.8-4.4-21C18.1,24.2,41.8,0.6,71,0.6C88.1,0.6,103.4,8.7,113,21.3"/>
	<path class="st3" d="M39.4,99.3c-0.2,0.4,0.1,0.5,0.1,0.6c0.5,0.4,1,0.6,1.5,0.9c2.8,1.5,5.4,1.9,8.1,1.9c5.6,0,9-3,9-7.8v-0.1
		c0-4.4-3.9-6-7.6-7.2l-0.5-0.2c-2.8-0.9-5.2-1.7-5.2-3.5V84c0-1.6,1.4-2.7,3.6-2.7c2.4,0,5.3,0.8,7.1,1.8c0,0,0.5,0.3,0.7-0.2
		c0.1-0.3,1-2.8,1.1-3.1c0.1-0.3-0.1-0.5-0.3-0.6c-2.1-1.3-5-2.2-8-2.2l-0.6,0c-5.1,0-8.7,3.1-8.7,7.5v0.1c0,4.7,3.9,6.2,7.6,7.2
		l0.6,0.2c2.7,0.8,5,1.5,5,3.4v0.1c0,1.7-1.5,3-3.9,3c-0.9,0-3.9,0-7.2-2.1c-0.4-0.2-0.6-0.4-0.9-0.6c-0.2-0.1-0.6-0.3-0.7,0.3
		L39.4,99.3 M121.1,99.3c-0.2,0.4,0.1,0.5,0.1,0.6c0.5,0.4,1,0.6,1.6,0.9c2.8,1.5,5.4,1.9,8.1,1.9c5.6,0,9.1-3,9.1-7.8v-0.1
		c0-4.4-3.9-6-7.6-7.2l-0.5-0.2c-2.8-0.9-5.2-1.7-5.2-3.5V84c0-1.6,1.4-2.7,3.6-2.7c2.4,0,5.2,0.8,7.1,1.8c0,0,0.5,0.3,0.7-0.2
		c0.1-0.3,1-2.8,1.1-3.1c0.1-0.3-0.1-0.5-0.3-0.6c-2.1-1.3-5-2.2-8-2.2l-0.6,0c-5.1,0-8.7,3.1-8.7,7.5v0.1c0,4.7,3.9,6.2,7.6,7.2
		l0.6,0.2c2.7,0.8,5,1.5,5,3.4v0.1c0,1.7-1.5,3-3.9,3c-0.9,0-3.9,0-7.2-2.1c-0.4-0.2-0.6-0.4-0.9-0.6c-0.1-0.1-0.6-0.2-0.7,0.3
		L121.1,99.3 M176.9,89.9c0,2.7-0.5,4.8-1.5,6.3c-1,1.5-2.5,2.2-4.5,2.2s-3.6-0.7-4.5-2.2c-1-1.5-1.5-3.6-1.5-6.3
		c0-2.7,0.5-4.8,1.5-6.3c1-1.5,2.4-2.2,4.5-2.2s3.6,0.7,4.5,2.2C176.4,85.1,176.9,87.2,176.9,89.9 M181.5,84.9
		c-0.5-1.6-1.2-2.9-2.1-4.1c-1-1.1-2.1-2.1-3.6-2.7c-1.4-0.7-3.1-1-5-1s-3.6,0.3-5,1c-1.4,0.7-2.6,1.6-3.6,2.7
		c-0.9,1.1-1.7,2.5-2.1,4.1c-0.5,1.5-0.7,3.2-0.7,5s0.2,3.5,0.7,5c0.5,1.6,1.2,2.9,2.1,4.1c1,1.1,2.2,2.1,3.6,2.7c1.4,0.6,3.1,1,5,1
		s3.6-0.3,5-1c1.4-0.6,2.6-1.6,3.6-2.7c0.9-1.1,1.7-2.5,2.1-4.1c0.5-1.5,0.7-3.2,0.7-5C182.2,88.2,182,86.5,181.5,84.9 M219.8,97.7
		c-0.2-0.5-0.6-0.3-0.6-0.3c-0.7,0.3-1.4,0.5-2.2,0.6c-0.8,0.1-1.6,0.2-2.6,0.2c-2.2,0-4.1-0.7-5.3-2c-1.3-1.3-2-3.5-2-6.4
		c0-2.6,0.6-4.6,1.8-6.1c1.1-1.5,2.9-2.3,5.2-2.3c1.9,0,3.4,0.2,4.9,0.7c0,0,0.4,0.2,0.5-0.3c0.4-1.1,0.7-1.9,1.1-3.2
		c0.1-0.4-0.2-0.5-0.3-0.5c-0.6-0.2-2-0.6-3.1-0.8c-1-0.2-2.2-0.2-3.5-0.2c-2,0-3.7,0.3-5.2,1c-1.5,0.7-2.8,1.6-3.8,2.7
		s-1.8,2.5-2.3,4.1c-0.5,1.5-0.8,3.2-0.8,5c0,3.9,1,7,3.1,9.3c2.1,2.3,5.2,3.5,9.2,3.5c2.4,0,4.8-0.5,6.6-1.2c0,0,0.3-0.2,0.2-0.6
		L219.8,97.7 M228,87.3c0.2-1.5,0.6-2.8,1.3-3.7c1-1.5,2.4-2.3,4.5-2.3c2.1,0,3.4,0.8,4.4,2.3c0.6,1,0.9,2.3,1,3.7H228L228,87.3z
		 M243.7,84c-0.4-1.5-1.4-3-2-3.7c-1-1.1-2-1.9-3-2.3c-1.4-0.6-3-0.9-4.5-0.9c-2,0-3.8,0.3-5.2,1c-1.4,0.7-2.7,1.6-3.6,2.8
		c-1,1.2-1.7,2.5-2.1,4.1c-0.5,1.6-0.7,3.2-0.7,5c0,1.8,0.2,3.5,0.7,5c0.5,1.5,1.2,2.9,2.3,4c1,1.1,2.4,2,4,2.6
		c1.6,0.6,3.5,0.9,5.7,0.9c4.6,0,7-1,7.9-1.6c0.2-0.1,0.3-0.3,0.1-0.8l-1-2.9c-0.2-0.4-0.6-0.3-0.6-0.3c-1.1,0.4-2.7,1.2-6.5,1.2
		c-2.4,0-4.3-0.7-5.4-1.9c-1.2-1.2-1.7-2.8-1.8-5.2l15.8,0c0,0,0.4,0,0.5-0.4C244.2,90.6,244.7,87.6,243.7,84L243.7,84z M101.7,87.3
		c0.2-1.5,0.6-2.8,1.3-3.7c1-1.5,2.4-2.3,4.5-2.3s3.4,0.8,4.4,2.3c0.6,1,0.9,2.3,1,3.7H101.7L101.7,87.3z M117.4,84
		c-0.4-1.5-1.4-3-2-3.7c-1-1.1-2-1.9-3-2.3c-1.4-0.6-3-0.9-4.5-0.9c-2,0-3.8,0.3-5.2,1c-1.4,0.7-2.7,1.6-3.6,2.8
		c-1,1.2-1.7,2.5-2.1,4.1c-0.5,1.6-0.7,3.2-0.7,5c0,1.8,0.2,3.5,0.7,5c0.5,1.5,1.2,2.9,2.3,4c1,1.1,2.4,2,4,2.6
		c1.6,0.6,3.5,0.9,5.7,0.9c4.6,0,7-1,7.9-1.6c0.2-0.1,0.3-0.3,0.1-0.8l-1-2.9c-0.2-0.4-0.6-0.3-0.6-0.3c-1.1,0.4-2.7,1.2-6.5,1.2
		c-2.4,0-4.3-0.7-5.4-1.9c-1.2-1.2-1.7-2.8-1.8-5.2l15.8,0c0,0,0.4,0,0.5-0.4C117.9,90.6,118.4,87.6,117.4,84L117.4,84z M67.6,97.6
		c-0.6-0.5-0.7-0.6-0.9-0.9c-0.3-0.5-0.5-1.2-0.5-2.1c0-1.4,0.5-2.4,1.4-3.1c0,0,1.4-1.2,4.6-1.1c1.4,0,2.9,0.1,4.3,0.4V98h0
		c0,0-2,0.4-4.3,0.6C69,98.7,67.6,97.6,67.6,97.6L67.6,97.6z M73.9,86.5c-0.6,0-1.5-0.1-2.5-0.1c-1.3,0-2.7,0.2-3.9,0.5
		c-1.2,0.3-2.3,0.8-3.3,1.5c-1,0.7-1.7,1.6-2.3,2.6c-0.6,1-0.8,2.3-0.8,3.6c0,1.4,0.2,2.6,0.7,3.6c0.5,1,1.2,1.8,2.1,2.5
		c0.9,0.6,2,1.1,3.2,1.4c1.2,0.3,2.6,0.4,4.2,0.4c1.6,0,3.2-0.1,4.8-0.4c1.3-0.2,2.7-0.5,4-0.8c0.5-0.1,1.1-0.3,1.1-0.3
		c0.4-0.1,0.4-0.5,0.4-0.5l0-14.4c0-3.2-0.8-5.5-2.5-7c-1.7-1.4-4.1-2.2-7.2-2.2c-1.2,0-3.1,0.2-4.2,0.4c0,0-3.4,0.7-4.9,1.8
		c0,0-0.3,0.2-0.1,0.6l1.1,3c0.1,0.4,0.5,0.3,0.5,0.3s0.1,0,0.3-0.1c3-1.7,6.9-1.6,6.9-1.6c1.7,0,3,0.3,3.9,1
		c0.9,0.7,1.3,1.7,1.3,3.8v0.7C75.1,86.7,73.9,86.6,73.9,86.5L73.9,86.5z M200.9,78.4c0.1-0.2,0-0.5-0.2-0.6c0,0,0,0,0,0
		c-0.3-0.1-1.6-0.4-2.6-0.4c-2-0.1-3.1,0.2-4.1,0.7c-1,0.4-2.1,1.2-2.7,2l0-1.9c0-0.3-0.2-0.5-0.5-0.5h-4c-0.3,0-0.5,0.2-0.5,0.5
		v23.5c0,0.3,0.2,0.5,0.5,0.5h4.1c0.3,0,0.5-0.2,0.5-0.5V89.8c0-1.6,0.2-3.2,0.5-4.1c0.3-1,0.8-1.8,1.4-2.3c0.5-0.5,1.2-0.9,1.9-1.2
		c0.7-0.2,1.4-0.3,2.1-0.3c0.8,0,1.7,0.2,1.7,0.2c0.3,0,0.5-0.2,0.6-0.4C200,80.9,200.7,78.8,200.9,78.4"/>
	<path class="st3" d="M162.2,67.5c-0.5-0.2-1-0.3-1.6-0.4c-0.7-0.1-1.4-0.2-2.1-0.2c-2.9,0-5.1,0.8-6.7,2.4c-1.6,1.6-2.6,4-3.2,7.2
		l-0.2,1.1h-3.6c0,0-0.4,0-0.5,0.5l-0.6,3.3c0,0.3,0.1,0.5,0.5,0.5h3.5l-3.5,19.7c-0.3,1.6-0.6,2.9-0.9,3.9c-0.3,1-0.7,1.7-1.1,2.2
		c-0.4,0.5-0.8,0.9-1.4,1.1c-0.5,0.2-1.2,0.3-1.9,0.3c-0.4,0-0.9-0.1-1.3-0.1c-0.4-0.1-0.6-0.2-0.9-0.3c0,0-0.4-0.2-0.6,0.3
		c-0.1,0.3-1.1,2.9-1.2,3.2c-0.1,0.3,0,0.6,0.2,0.6c0.5,0.2,0.8,0.3,1.4,0.4c0.9,0.2,1.6,0.2,2.3,0.2c1.5,0,2.8-0.2,3.9-0.6
		c1.1-0.4,2.1-1.1,2.9-2c0.9-1,1.5-2.1,2.1-3.5c0.5-1.4,1-3.2,1.4-5.3l3.6-20.1h5.2c0,0,0.4,0,0.5-0.5l0.6-3.3
		c0-0.3-0.1-0.5-0.5-0.5h-5c0-0.1,0.3-1.9,0.8-3.6c0.2-0.7,0.7-1.3,1.1-1.7c0.4-0.4,0.8-0.7,1.3-0.8c0.5-0.2,1.1-0.3,1.7-0.2
		c0.5,0,0.9,0.1,1.3,0.1c0.5,0.1,0.7,0.2,0.8,0.2c0.5,0.2,0.6,0,0.7-0.2l1.2-3.3C162.6,67.7,162.3,67.6,162.2,67.5 M91.7,101.7
		c0,0.3-0.2,0.5-0.5,0.5h-4.2c-0.3,0-0.5-0.2-0.5-0.5V68c0-0.3,0.2-0.5,0.5-0.5h4.2c0.3,0,0.5,0.2,0.5,0.5V101.7"/>
</g>
</svg>
