<?xml version="1.0" encoding="utf-8"?>
<!-- Generator: Adobe Illustrator 26.3.1, SVG Export Plug-In . SVG Version: 6.00 Build 0)  -->
<svg version="1.1"
	 id="Layer_1" xmlns:dc="http://purl.org/dc/elements/1.1/" xmlns:rdf="http://www.w3.org/1999/02/22-rdf-syntax-ns#" xmlns:cc="http://creativecommons.org/ns#"
	 xmlns="http://www.w3.org/2000/svg" xmlns:xlink="http://www.w3.org/1999/xlink" x="0px" y="0px" viewBox="0 0 273 191"
	 style="enable-background:new 0 0 273 191;" xml:space="preserve">
<style type="text/css">
	.st0{filter:url(#Adobe_OpacityMaskFilter);}
	.st1{fill-rule:evenodd;clip-rule:evenodd;fill:#FFFFFF;}
	.st2{mask:url(#b_00000022552661432075307870000014019413032530498736_);fill-rule:evenodd;clip-rule:evenodd;fill:#FFFFFF;}
	.st3{fill:#FFFFFF;}
</style>
<g>
	<defs>
		<filter id="Adobe_OpacityMaskFilter" filterUnits="userSpaceOnUse" x="-0.2" y="0.6" width="272.1" height="190.5">
			<feColorMatrix  type="matrix" values="1 0 0 0 0  0 1 0 0 0  0 0 1 0 0  0 0 0 1 0"/>
		</filter>
	</defs>
	
		<mask maskUnits="userSpaceOnUse" x="-0.2" y="0.6" width="272.1" height="190.5" id="b_00000022552661432075307870000014019413032530498736_">
		<g class="st0">
			<path id="a_00000011009184259972297190000015188558414031604140_" class="st1" d="M0.1,0.5h272v190H0.1L0.1,0.5z"/>
		</g>
	</mask>
	<path class="st2" d="M213.2,26.3c-8.2,0-16.2,1.7-23.7,5c-8.4-14.9-24-24.9-42-24.9c-13.5,0-25.7,5.7-34.5,14.8l0,0.1
		C103.4,8.7,88.1,0.6,71,0.6c-29.2,0-52.9,23.6-52.9,52.8c0,7.2,1.5,14.4,4.3,21c-13.6,8-22.7,22.8-22.7,39.8
		c0,25.3,20.3,45.9,45.4,45.9c3.1,0,6.3-0.3,9.3-1c6.9,18.7,24.8,32,45.9,32c20.2,0,37.6-12.3,45-29.8c5.9,2.9,12.3,4.3,18.8,4.3
		c16,0,30-8.9,37.4-22c3.8,0.8,7.6,1.2,11.6,1.2c32.4,0,58.7-26.5,58.7-59.2S245.6,26.3,213.2,26.3z M58.3,95c0,4.8-3.5,7.8-9,7.8
		c-2.7,0-5.4-0.4-8.1-1.9c-0.5-0.3-1-0.6-1.5-0.9c-0.1-0.1-0.3-0.2-0.1-0.6l0,0l1.1-3.1c0.2-0.5,0.6-0.3,0.7-0.3
		c0.3,0.2,0.5,0.4,0.9,0.6c3.2,2.1,6.2,2.1,7.2,2.1c2.4,0,3.9-1.3,3.9-3v-0.1c0-1.9-2.3-2.6-5-3.4l-0.6-0.2c-3.7-1-7.6-2.6-7.6-7.2
		v-0.1c0-4.4,3.6-7.5,8.7-7.5l0.6,0c3,0,5.9,0.9,8,2.2c0.2,0.1,0.4,0.3,0.3,0.6c-0.1,0.3-1,2.8-1.1,3.1c-0.2,0.5-0.7,0.2-0.7,0.2
		c-1.8-1-4.7-1.8-7.1-1.8c-2.2,0-3.6,1.2-3.6,2.7v0.1c0,1.8,2.4,2.6,5.2,3.5l0.5,0.2C54.3,88.9,58.3,90.5,58.3,95L58.3,95z
		 M81.1,101.2c0,0-0.6,0.2-1.1,0.3c-1.3,0.3-2.6,0.5-4,0.8c-1.6,0.3-3.2,0.4-4.8,0.4c-1.5,0-2.9-0.1-4.2-0.4
		c-1.2-0.3-2.3-0.8-3.2-1.4c-0.9-0.6-1.6-1.5-2.1-2.5c-0.5-1-0.7-2.2-0.7-3.6c0-1.4,0.3-2.6,0.8-3.6c0.6-1,1.3-1.9,2.3-2.6
		c1-0.7,2.1-1.2,3.3-1.5c1.2-0.3,2.5-0.5,3.9-0.5c1,0,1.8,0,2.5,0.1l0,0c0,0,1.2,0.1,2.6,0.3v-0.7c0-2.1-0.4-3.1-1.3-3.8
		c-0.9-0.7-2.2-1-3.9-1c0,0-3.8,0-6.9,1.6c-0.1,0.1-0.3,0.1-0.3,0.1s-0.4,0.1-0.5-0.3l-1.1-3c-0.2-0.4,0.1-0.6,0.1-0.6
		c1.4-1.1,4.9-1.8,4.9-1.8c1.1-0.2,3-0.4,4.2-0.4c3.2,0,5.6,0.7,7.2,2.2c1.7,1.5,2.5,3.8,2.5,7l0,14.4
		C81.5,100.6,81.5,101.1,81.1,101.2z M91.7,101.7c0,0.3-0.2,0.5-0.5,0.5h-4.2c-0.3,0-0.5-0.2-0.5-0.5V68c0-0.3,0.2-0.5,0.5-0.5h4.2
		c0.3,0,0.5,0.2,0.5,0.5V101.7z M117.9,90.8c0,0.4-0.5,0.4-0.5,0.4l-15.8,0c0.1,2.4,0.7,4.1,1.8,5.2c1.1,1.1,3,1.9,5.4,1.9
		c3.8,0,5.3-0.7,6.5-1.2c0,0,0.4-0.2,0.6,0.3l1,2.9c0.2,0.5,0,0.7-0.1,0.8c-1,0.5-3.4,1.6-7.9,1.6c-2.2,0-4.1-0.3-5.7-0.9
		c-1.6-0.6-2.9-1.5-4-2.6c-1-1.1-1.8-2.5-2.3-4c-0.5-1.5-0.7-3.2-0.7-5c0-1.8,0.2-3.5,0.7-5c0.5-1.6,1.2-2.9,2.1-4.1
		c1-1.2,2.2-2.1,3.6-2.8c1.5-0.7,3.2-1,5.2-1c1.6,0,3.1,0.3,4.5,0.9c1,0.4,2,1.2,3,2.3c0.6,0.7,1.6,2.2,2,3.7l0,0
		C118.4,87.6,117.9,90.6,117.9,90.8z M130.9,102.7c-2.7,0-5.4-0.4-8.1-1.9c-0.5-0.3-1-0.6-1.5-0.9c-0.1-0.1-0.3-0.2-0.1-0.6l0,0
		l1.1-3.1c0.2-0.5,0.6-0.3,0.7-0.3c0.3,0.2,0.5,0.4,0.9,0.6c3.2,2.1,6.2,2.1,7.2,2.1c2.4,0,3.9-1.3,3.9-3v-0.1c0-1.9-2.3-2.6-5-3.4
		l-0.6-0.2c-3.7-1.1-7.6-2.6-7.6-7.2v-0.1c0-4.4,3.6-7.5,8.7-7.5l0.6,0c3,0,5.9,0.9,8,2.2c0.2,0.1,0.4,0.3,0.3,0.6
		c-0.1,0.3-1,2.8-1.1,3.1c-0.2,0.5-0.7,0.2-0.7,0.2c-1.8-1-4.7-1.8-7.1-1.8c-2.2,0-3.6,1.2-3.6,2.7v0.1c0,1.8,2.4,2.6,5.2,3.5
		l0.5,0.2c3.7,1.2,7.6,2.8,7.6,7.2V95C140,99.8,136.5,102.7,130.9,102.7z M158.5,81.4c-0.1,0.5-0.5,0.5-0.5,0.5h-5.2l-3.6,20.1
		c-0.4,2.1-0.8,3.9-1.4,5.3c-0.6,1.4-1.1,2.5-2,3.5c-0.8,0.9-1.8,1.6-2.9,2c-1.1,0.4-2.4,0.6-3.9,0.6c-0.7,0-1.4,0-2.3-0.2
		c-0.6-0.1-1-0.3-1.4-0.4c-0.2-0.1-0.4-0.3-0.2-0.6c0.1-0.3,1-2.9,1.2-3.2c0.2-0.4,0.6-0.3,0.6-0.3c0.3,0.1,0.5,0.2,0.9,0.3
		c0.4,0.1,0.9,0.1,1.3,0.1c0.7,0,1.3-0.1,1.9-0.3c0.7-0.2,1-0.6,1.4-1.1c0.4-0.5,0.8-1.3,1.1-2.2c0.4-1,0.7-2.3,0.9-3.9l3.5-19.7
		h-3.5c-0.4,0-0.6-0.2-0.5-0.5l0.6-3.3c0.1-0.5,0.5-0.5,0.5-0.5h3.6l0.2-1.1c0.5-3.2,1.6-5.6,3.2-7.2c1.6-1.6,3.8-2.4,6.7-2.4
		c0.7,0,1.4,0,2.1,0.2c0.5,0.1,1,0.2,1.6,0.4c0.1,0,0.4,0.2,0.3,0.5l-1.2,3.3c-0.1,0.2-0.2,0.4-0.7,0.2c-0.1,0-0.3-0.1-0.8-0.2
		c-0.4-0.1-0.8-0.1-1.3-0.1c-0.6,0-1.1,0.1-1.7,0.2c-0.5,0.2-1,0.4-1.3,0.8c-0.4,0.4-0.9,1-1.1,1.7c-0.6,1.7-0.8,3.4-0.8,3.6h5
		c0.4,0,0.6,0.2,0.5,0.5L158.5,81.4z M181.5,94.9c-0.5,1.5-1.2,2.9-2.1,4c-1,1.1-2.2,2.1-3.6,2.7s-3.1,1-5,1c-1.9,0-3.6-0.3-5-1
		c-1.4-0.6-2.6-1.6-3.6-2.7c-1-1.1-1.7-2.5-2.1-4c-0.5-1.5-0.7-3.2-0.7-5c0-1.8,0.2-3.5,0.7-5c0.5-1.5,1.2-2.9,2.1-4
		c1-1.1,2.2-2.1,3.6-2.7c1.4-0.7,3.1-1,5-1c1.9,0,3.6,0.3,5,1c1.4,0.7,2.6,1.6,3.6,2.7c1,1.1,1.7,2.5,2.1,4h0c0.5,1.5,0.7,3.2,0.7,5
		C182.2,91.7,182,93.4,181.5,94.9z M200.9,78.4L200.9,78.4c-0.1,0.4-0.9,2.5-1.2,3.2c-0.1,0.3-0.3,0.5-0.6,0.4c0,0-0.9-0.2-1.7-0.2
		c-0.7,0-1.4,0.1-2.1,0.3c-0.7,0.2-1.4,0.6-2,1.2c-0.6,0.6-1,1.3-1.4,2.3c-0.3,1-0.5,2.6-0.5,4.1v11.8c0,0.3-0.2,0.5-0.5,0.5h-4.1
		c-0.3,0-0.5-0.2-0.5-0.5V78.1c0-0.3,0.2-0.5,0.5-0.5h4c0.3,0,0.5,0.2,0.5,0.5l0,1.9c0.6-0.8,1.7-1.5,2.7-2c1-0.4,2.1-0.8,4.1-0.7
		c1,0.1,2.4,0.3,2.6,0.4c0,0,0,0,0,0C200.9,77.9,201,78.2,200.9,78.4z M220.8,101.4c-1.8,0.7-4.2,1.2-6.6,1.2c-4,0-7.1-1.2-9.2-3.5
		c-2.1-2.3-3.1-5.4-3.1-9.3c0-1.8,0.3-3.5,0.8-5c0.5-1.5,1.3-2.9,2.3-4s2.3-2.1,3.8-2.7c1.5-0.7,3.2-1,5.2-1c1.3,0,2.5,0.1,3.5,0.2
		c1.1,0.2,2.5,0.5,3.1,0.8c0.1,0,0.4,0.2,0.3,0.5c-0.4,1.2-0.7,2-1.1,3.2c-0.2,0.5-0.5,0.3-0.5,0.3c-1.5-0.5-3-0.7-4.9-0.7
		c-2.3,0-4,0.8-5.2,2.3c-1.1,1.5-1.8,3.5-1.8,6.1c0,2.9,0.7,5,2,6.4c1.3,1.3,3.1,2,5.3,2c0.9,0,1.8-0.1,2.5-0.2
		c0.8-0.1,1.5-0.4,2.2-0.6c0,0,0.4-0.2,0.6,0.3h0l1.2,3.2C221.1,101.3,220.8,101.4,220.8,101.4z M244.2,90.8c0,0.4-0.5,0.4-0.5,0.4
		l-15.8,0c0.1,2.4,0.7,4.1,1.8,5.2c1.1,1.1,3,1.9,5.4,1.9c3.8,0,5.3-0.7,6.5-1.2c0,0,0.4-0.2,0.6,0.3l1,2.9c0.2,0.5,0,0.7-0.1,0.8
		c-1,0.5-3.4,1.6-7.9,1.6c-2.2,0-4.1-0.3-5.7-0.9c-1.6-0.6-2.9-1.5-4-2.6c-1-1.1-1.8-2.5-2.3-4c-0.5-1.5-0.7-3.2-0.7-5
		c0-1.8,0.2-3.5,0.7-5c0.5-1.6,1.2-2.9,2.1-4.1c1-1.2,2.2-2.1,3.6-2.8c1.5-0.7,3.2-1,5.2-1c1.6,0,3.1,0.3,4.5,0.9c1,0.4,2,1.2,3,2.3
		c0.6,0.7,1.6,2.2,2,3.7l0,0C244.7,87.6,244.2,90.6,244.2,90.8z"/>
	<path class="st3" d="M76.5,90.8c-1.4-0.2-2.8-0.3-4.3-0.4c-3.2,0-4.6,1.1-4.6,1.1c-1,0.7-1.4,1.7-1.4,3.1c0,0.9,0.2,1.6,0.5,2
		c0.2,0.3,0.3,0.4,0.9,0.9l0,0c0,0,1.4,1.1,4.6,0.9c2.3-0.1,4.3-0.6,4.3-0.6h0V90.8z"/>
	<path class="st3" d="M107.5,81.3c-2.1,0-3.5,0.8-4.5,2.3c-0.6,1-1.1,2.2-1.3,3.7l11.2,0c-0.1-1.5-0.4-2.7-1-3.7
		C110.9,82.1,109.5,81.3,107.5,81.3z"/>
	<polygon points="101.7,87.3 101.7,87.3 101.6,87.3 	"/>
	<polygon points="228,87.3 228,87.3 227.9,87.3 	"/>
	<path class="st3" d="M233.8,81.3c-2.1,0-3.5,0.8-4.5,2.3c-0.6,1-1.1,2.2-1.3,3.7l11.2,0c-0.1-1.5-0.4-2.7-1-3.7
		C237.2,82.1,235.8,81.3,233.8,81.3z"/>
	<path class="st3" d="M170.9,81.4c-2.1,0-3.6,0.7-4.5,2.2c-1,1.5-1.5,3.6-1.5,6.3c0,2.7,0.5,4.8,1.5,6.3c1,1.5,2.5,2.2,4.5,2.2
		c2.1,0,3.6-0.7,4.5-2.2c1-1.5,1.5-3.6,1.5-6.3c0-2.7-0.5-4.8-1.5-6.3C174.4,82.2,172.9,81.4,170.9,81.4z"/>
	<polygon points="176.9,89.9 176.9,89.9 176.9,89.9 	"/>
</g>
</svg>
