<svg width="292" height="292" viewBox="0 0 292 292" fill="none" xmlns="http://www.w3.org/2000/svg">
<g filter="url(#filter0_di_528_99)">
<path d="M24 79C24 56.5979 24 45.3968 28.3597 36.8404C32.1947 29.3139 38.3139 23.1947 45.8404 19.3597C54.3968 15 65.5979 15 88 15H204C226.402 15 237.603 15 246.16 19.3597C253.686 23.1947 259.805 29.3139 263.64 36.8404C268 45.3968 268 56.5979 268 79V195C268 217.402 268 228.603 263.64 237.16C259.805 244.686 253.686 250.805 246.16 254.64C237.603 259 226.402 259 204 259H88C65.5979 259 54.3968 259 45.8404 254.64C38.3139 250.805 32.1947 244.686 28.3597 237.16C24 228.603 24 217.402 24 195V79Z" fill="url(#paint0_linear_528_99)"/>
<path d="M28 79C28 67.7329 28.0031 59.5232 28.5317 53.0538C29.0564 46.6311 30.0791 42.2767 31.9238 38.6563C35.3752 31.8825 40.8825 26.3752 47.6563 22.9238C51.2767 21.0791 55.6311 20.0564 62.0538 19.5317C68.5232 19.0031 76.7329 19 88 19H204C215.267 19 223.477 19.0031 229.946 19.5317C236.369 20.0564 240.723 21.0791 244.344 22.9238C251.117 26.3752 256.625 31.8825 260.076 38.6563C261.921 42.2767 262.944 46.6311 263.468 53.0538C263.997 59.5232 264 67.7329 264 79V195C264 206.267 263.997 214.477 263.468 220.946C262.944 227.369 261.921 231.723 260.076 235.344C256.625 242.117 251.117 247.625 244.344 251.076C240.723 252.921 236.369 253.944 229.946 254.468C223.477 254.997 215.267 255 204 255H88C76.7329 255 68.5232 254.997 62.0538 254.468C55.6311 253.944 51.2767 252.921 47.6563 251.076C40.8825 247.625 35.3752 242.117 31.9238 235.344C30.0791 231.723 29.0564 227.369 28.5317 220.946C28.0031 214.477 28 206.267 28 195V79Z" stroke="#7289DA" stroke-opacity="0.5" stroke-width="8"/>
</g>
<path d="M199.477 98.6295C182.079 85.6579 165.407 86.0201 165.407 86.0201L163.705 87.9644C184.393 94.1499 194.006 103.242 194.006 103.242C181.352 96.4564 168.937 93.0539 157.382 91.7196C148.621 90.7474 140.223 90.9952 132.8 91.9578C132.074 91.9578 131.461 92.0817 130.734 92.1961C126.478 92.6822 116.129 94.1404 103.111 99.8304C98.6061 101.775 95.9279 103.223 95.9279 103.223C95.9279 103.223 105.904 93.6448 127.808 87.4592L126.593 86.001C126.593 86.001 110.046 85.6388 92.5228 98.6104C92.5228 98.6104 75 130.015 75 168.691C75 168.691 85.2248 186.152 112.112 187C112.112 187 116.617 181.663 120.261 177.059C104.804 172.456 98.9696 162.877 98.9696 162.877C98.9696 162.877 100.184 163.726 102.375 164.936C102.499 164.936 102.614 165.06 102.862 165.174C103.226 165.413 103.589 165.536 103.953 165.784C106.994 167.481 110.036 168.815 112.839 169.911C117.831 171.97 123.79 173.79 130.725 175.125C139.85 176.821 150.562 177.431 162.241 175.248C167.961 174.162 173.805 172.58 179.888 170.035C184.145 168.462 188.889 166.156 193.882 162.877C193.882 162.877 187.798 172.694 171.854 177.183C175.508 181.672 179.888 186.886 179.888 186.886C206.775 186.037 217 168.577 217 168.701C217 130.024 199.477 98.6199 199.477 98.6199V98.6295ZM123.303 157.435C116.492 157.435 110.887 151.497 110.887 144.101C110.887 136.705 116.358 130.768 123.303 130.768C130.247 130.768 135.833 136.705 135.718 144.101C135.718 151.497 130.247 157.435 123.303 157.435ZM167.712 157.435C160.902 157.435 155.297 151.497 155.297 144.101C155.297 136.705 160.768 130.768 167.712 130.768C174.656 130.768 180.127 136.705 180.127 144.101C180.127 151.497 174.656 157.435 167.712 157.435Z" fill="#7289DA"/>
<defs>
<filter id="filter0_di_528_99" x="0" y="0" width="292" height="292" filterUnits="userSpaceOnUse" color-interpolation-filters="sRGB">
<feFlood flood-opacity="0" result="BackgroundImageFix"/>
<feColorMatrix in="SourceAlpha" type="matrix" values="0 0 0 0 0 0 0 0 0 0 0 0 0 0 0 0 0 0 127 0" result="hardAlpha"/>
<feOffset dy="9"/>
<feGaussianBlur stdDeviation="12"/>
<feComposite in2="hardAlpha" operator="out"/>
<feColorMatrix type="matrix" values="0 0 0 0 0 0 0 0 0 0 0 0 0 0 0 0 0 0 0.25 0"/>
<feBlend mode="normal" in2="BackgroundImageFix" result="effect1_dropShadow_528_99"/>
<feBlend mode="normal" in="SourceGraphic" in2="effect1_dropShadow_528_99" result="shape"/>
<feColorMatrix in="SourceAlpha" type="matrix" values="0 0 0 0 0 0 0 0 0 0 0 0 0 0 0 0 0 0 127 0" result="hardAlpha"/>
<feOffset dy="-2"/>
<feGaussianBlur stdDeviation="1"/>
<feComposite in2="hardAlpha" operator="arithmetic" k2="-1" k3="1"/>
<feColorMatrix type="matrix" values="0 0 0 0 0 0 0 0 0 0 0 0 0 0 0 0 0 0 0.11 0"/>
<feBlend mode="normal" in2="shape" result="effect2_innerShadow_528_99"/>
</filter>
<linearGradient id="paint0_linear_528_99" x1="133.901" y1="25.0375" x2="210.716" y2="257.544" gradientUnits="userSpaceOnUse">
<stop stop-color="white"/>
<stop offset="1" stop-color="#D7D7D7"/>
</linearGradient>
</defs>
</svg>
