<svg width="292" height="292" viewBox="0 0 292 292" fill="none" xmlns="http://www.w3.org/2000/svg">
<g filter="url(#filter0_di_528_96)">
<path d="M24 79C24 56.5979 24 45.3968 28.3597 36.8404C32.1947 29.3139 38.3139 23.1947 45.8404 19.3597C54.3968 15 65.5979 15 88 15H204C226.402 15 237.603 15 246.16 19.3597C253.686 23.1947 259.805 29.3139 263.64 36.8404C268 45.3968 268 56.5979 268 79V195C268 217.402 268 228.603 263.64 237.16C259.805 244.686 253.686 250.805 246.16 254.64C237.603 259 226.402 259 204 259H88C65.5979 259 54.3968 259 45.8404 254.64C38.3139 250.805 32.1947 244.686 28.3597 237.16C24 228.603 24 217.402 24 195V79Z" fill="url(#paint0_linear_528_96)"/>
<path d="M28 79C28 67.7329 28.0031 59.5232 28.5317 53.0538C29.0564 46.6311 30.0791 42.2767 31.9238 38.6563C35.3752 31.8825 40.8825 26.3752 47.6563 22.9238C51.2767 21.0791 55.6311 20.0564 62.0538 19.5317C68.5232 19.0031 76.7329 19 88 19H204C215.267 19 223.477 19.0031 229.946 19.5317C236.369 20.0564 240.723 21.0791 244.344 22.9238C251.117 26.3752 256.625 31.8825 260.076 38.6563C261.921 42.2767 262.944 46.6311 263.468 53.0538C263.997 59.5232 264 67.7329 264 79V195C264 206.267 263.997 214.477 263.468 220.946C262.944 227.369 261.921 231.723 260.076 235.344C256.625 242.117 251.117 247.625 244.344 251.076C240.723 252.921 236.369 253.944 229.946 254.468C223.477 254.997 215.267 255 204 255H88C76.7329 255 68.5232 254.997 62.0538 254.468C55.6311 253.944 51.2767 252.921 47.6563 251.076C40.8825 247.625 35.3752 242.117 31.9238 235.344C30.0791 231.723 29.0564 227.369 28.5317 220.946C28.0031 214.477 28 206.267 28 195V79Z" stroke="url(#paint1_angular_528_96)" stroke-opacity="0.5" stroke-width="8"/>
</g>
<g clip-path="url(#clip0_528_96)">
<path d="M146.021 73C119.302 73 111.488 73.0282 109.968 73.1536C104.485 73.6093 101.073 74.4733 97.355 76.3242C94.4904 77.7475 92.2312 79.3962 90.0014 81.7091C85.9413 85.9254 83.4798 91.112 82.5889 97.279C82.1563 100.272 82.0296 100.882 82.004 116.173C81.995 121.27 82.004 127.977 82.004 136.974C82.004 163.679 82.0334 171.488 82.1614 173.005C82.6043 178.343 83.4414 181.7 85.2129 185.372C88.5998 192.404 95.0677 197.681 102.686 199.651C105.324 200.331 108.239 200.704 111.979 200.882C113.564 200.951 129.719 201 145.882 201C162.046 201 178.211 200.981 179.756 200.901C184.088 200.698 186.603 200.36 189.384 199.641C197.053 197.662 203.403 192.462 206.858 185.333C208.595 181.749 209.477 178.262 209.875 173.205C209.962 172.101 209.998 154.518 209.998 136.958C209.998 119.397 209.958 101.844 209.872 100.74C209.469 95.5997 208.587 92.1437 206.794 88.4906C205.322 85.5005 203.688 83.2669 201.315 80.9834C197.081 76.9386 191.904 74.4758 185.733 73.5862C182.743 73.1536 182.147 73.0256 166.849 73H146.018L146.021 73Z" fill="url(#paint2_radial_528_96)"/>
<path d="M146.021 73C119.302 73 111.488 73.0282 109.968 73.1536C104.485 73.6093 101.073 74.4733 97.355 76.3242C94.4904 77.7475 92.2312 79.3962 90.0014 81.7091C85.9413 85.9254 83.4798 91.112 82.5889 97.279C82.1563 100.272 82.0296 100.882 82.004 116.173C81.995 121.27 82.004 127.977 82.004 136.974C82.004 163.679 82.0334 171.488 82.1614 173.005C82.6043 178.343 83.4414 181.7 85.2129 185.372C88.5998 192.404 95.0677 197.681 102.686 199.651C105.324 200.331 108.239 200.704 111.979 200.882C113.564 200.951 129.719 201 145.882 201C162.046 201 178.211 200.981 179.756 200.901C184.088 200.698 186.603 200.36 189.384 199.641C197.053 197.662 203.403 192.462 206.858 185.333C208.595 181.749 209.477 178.262 209.875 173.205C209.962 172.101 209.998 154.518 209.998 136.958C209.998 119.397 209.958 101.844 209.872 100.74C209.469 95.5997 208.587 92.1437 206.794 88.4906C205.322 85.5005 203.688 83.2669 201.315 80.9834C197.081 76.9386 191.904 74.4758 185.733 73.5862C182.743 73.1536 182.147 73.0256 166.849 73H146.018L146.021 73Z" fill="url(#paint3_radial_528_96)"/>
<path d="M146.021 73C119.302 73 111.488 73.0282 109.968 73.1536C104.485 73.6093 101.073 74.4733 97.355 76.3242C94.4904 77.7475 92.2312 79.3962 90.0014 81.7091C85.9413 85.9254 83.4798 91.112 82.5889 97.279C82.1563 100.272 82.0296 100.882 82.004 116.173C81.995 121.27 82.004 127.977 82.004 136.974C82.004 163.679 82.0334 171.488 82.1614 173.005C82.6043 178.343 83.4414 181.7 85.2129 185.372C88.5998 192.404 95.0677 197.681 102.686 199.651C105.324 200.331 108.239 200.704 111.979 200.882C113.564 200.951 129.719 201 145.882 201C162.046 201 178.211 200.981 179.756 200.901C184.088 200.698 186.603 200.36 189.384 199.641C197.053 197.662 203.403 192.462 206.858 185.333C208.595 181.749 209.477 178.262 209.875 173.205C209.962 172.101 209.998 154.518 209.998 136.958C209.998 119.397 209.958 101.844 209.872 100.74C209.469 95.5997 208.587 92.1437 206.794 88.4906C205.322 85.5005 203.688 83.2669 201.315 80.9834C197.081 76.9386 191.904 74.4758 185.733 73.5862C182.743 73.1536 182.147 73.0256 166.849 73H146.018L146.021 73Z" fill="url(#paint4_radial_528_96)"/>
<path d="M146.021 73C119.302 73 111.488 73.0282 109.968 73.1536C104.485 73.6093 101.073 74.4733 97.355 76.3242C94.4904 77.7475 92.2312 79.3962 90.0014 81.7091C85.9413 85.9254 83.4798 91.112 82.5889 97.279C82.1563 100.272 82.0296 100.882 82.004 116.173C81.995 121.27 82.004 127.977 82.004 136.974C82.004 163.679 82.0334 171.488 82.1614 173.005C82.6043 178.343 83.4414 181.7 85.2129 185.372C88.5998 192.404 95.0677 197.681 102.686 199.651C105.324 200.331 108.239 200.704 111.979 200.882C113.564 200.951 129.719 201 145.882 201C162.046 201 178.211 200.981 179.756 200.901C184.088 200.698 186.603 200.36 189.384 199.641C197.053 197.662 203.403 192.462 206.858 185.333C208.595 181.749 209.477 178.262 209.875 173.205C209.962 172.101 209.998 154.518 209.998 136.958C209.998 119.397 209.958 101.844 209.872 100.74C209.469 95.5997 208.587 92.1437 206.794 88.4906C205.322 85.5005 203.688 83.2669 201.315 80.9834C197.081 76.9386 191.904 74.4758 185.733 73.5862C182.743 73.1536 182.147 73.0256 166.849 73H146.018L146.021 73Z" fill="url(#paint5_radial_528_96)"/>
<path d="M146.024 89.4355C133.098 89.4355 131.477 89.4919 126.4 89.7223C121.334 89.9539 117.875 90.7552 114.85 91.9315C111.72 93.1463 109.064 94.7706 106.419 97.4151C103.772 100.058 102.146 102.712 100.927 105.839C99.7468 108.863 98.9442 112.321 98.7164 117.381C98.4898 122.453 98.4297 124.075 98.4297 136.99C98.4297 149.905 98.4873 151.522 98.7177 156.595C98.9506 161.657 99.7532 165.113 100.928 168.136C102.144 171.265 103.771 173.917 106.417 176.561C109.061 179.207 111.716 180.835 114.844 182.05C117.873 183.226 121.331 184.028 126.398 184.259C131.474 184.49 133.095 184.546 146.019 184.546C158.943 184.546 160.562 184.49 165.639 184.259C170.705 184.028 174.167 183.226 177.196 182.05C180.325 180.835 182.976 179.207 185.621 176.561C188.268 173.918 189.895 171.265 191.113 168.138C192.283 165.113 193.086 161.656 193.324 156.596C193.552 151.523 193.612 149.907 193.612 136.991C193.612 124.076 193.553 122.456 193.324 117.383C193.086 112.321 192.283 108.865 191.113 105.841C189.893 102.713 188.268 100.061 185.621 97.4163C182.974 94.7706 180.327 93.1463 177.193 91.9328C174.16 90.7565 170.698 89.9552 165.632 89.7235C160.556 89.4931 158.939 89.4368 146.011 89.4368H146.026L146.024 89.4355ZM141.755 98.0051C143.022 98.0026 144.437 98.0051 146.024 98.0051C158.73 98.0051 160.237 98.0512 165.255 98.2791C169.895 98.4915 172.414 99.2659 174.09 99.9162C176.311 100.778 177.895 101.808 179.56 103.473C181.225 105.137 182.257 106.723 183.121 108.943C183.772 110.617 184.548 113.133 184.759 117.771C184.987 122.785 185.037 124.29 185.037 136.981C185.037 149.672 184.987 151.179 184.759 156.191C184.547 160.828 183.772 163.344 183.121 165.02C182.258 167.239 181.225 168.819 179.56 170.483C177.895 172.147 176.313 173.177 174.09 174.04C172.415 174.694 169.895 175.467 165.255 175.678C160.238 175.906 158.73 175.956 146.024 175.956C133.317 175.956 131.81 175.906 126.793 175.678C122.153 175.464 119.634 174.69 117.956 174.038C115.735 173.177 114.149 172.147 112.483 170.481C110.818 168.817 109.786 167.235 108.922 165.016C108.27 163.341 107.495 160.825 107.283 156.188C107.056 151.174 107.01 149.669 107.01 136.968C107.01 124.268 107.056 122.771 107.283 117.758C107.496 113.122 108.27 110.605 108.922 108.929C109.785 106.709 110.818 105.125 112.483 103.459C114.148 101.795 115.735 100.765 117.956 99.9008C119.634 99.2467 122.153 98.4736 126.793 98.2611C131.184 98.0627 132.885 98.0039 141.755 97.9936V98.0051ZM171.428 105.901C168.275 105.901 165.717 108.455 165.717 111.606C165.717 114.758 168.275 117.313 171.428 117.313C174.581 117.313 177.139 114.757 177.139 111.606C177.139 108.456 174.581 105.9 171.428 105.9V105.903V105.901ZM146.024 112.569C132.526 112.569 121.584 123.504 121.584 136.991C121.584 150.479 132.526 161.409 146.024 161.409C159.522 161.409 170.46 150.479 170.46 136.991C170.46 123.504 159.52 112.569 146.023 112.569H146.024ZM146.024 121.139C154.784 121.139 161.888 128.235 161.888 136.99C161.888 145.745 154.786 152.842 146.024 152.842C137.262 152.842 130.16 145.744 130.16 136.99C130.16 128.236 137.261 121.139 146.024 121.139Z" fill="white"/>
</g>
<defs>
<filter id="filter0_di_528_96" x="0" y="0" width="292" height="292" filterUnits="userSpaceOnUse" color-interpolation-filters="sRGB">
<feFlood flood-opacity="0" result="BackgroundImageFix"/>
<feColorMatrix in="SourceAlpha" type="matrix" values="0 0 0 0 0 0 0 0 0 0 0 0 0 0 0 0 0 0 127 0" result="hardAlpha"/>
<feOffset dy="9"/>
<feGaussianBlur stdDeviation="12"/>
<feComposite in2="hardAlpha" operator="out"/>
<feColorMatrix type="matrix" values="0 0 0 0 0 0 0 0 0 0 0 0 0 0 0 0 0 0 0.25 0"/>
<feBlend mode="normal" in2="BackgroundImageFix" result="effect1_dropShadow_528_96"/>
<feBlend mode="normal" in="SourceGraphic" in2="effect1_dropShadow_528_96" result="shape"/>
<feColorMatrix in="SourceAlpha" type="matrix" values="0 0 0 0 0 0 0 0 0 0 0 0 0 0 0 0 0 0 127 0" result="hardAlpha"/>
<feOffset dy="-2"/>
<feGaussianBlur stdDeviation="1"/>
<feComposite in2="hardAlpha" operator="arithmetic" k2="-1" k3="1"/>
<feColorMatrix type="matrix" values="0 0 0 0 0 0 0 0 0 0 0 0 0 0 0 0 0 0 0.11 0"/>
<feBlend mode="normal" in2="shape" result="effect2_innerShadow_528_96"/>
</filter>
<linearGradient id="paint0_linear_528_96" x1="133.901" y1="25.0375" x2="210.716" y2="257.544" gradientUnits="userSpaceOnUse">
<stop stop-color="white"/>
<stop offset="1" stop-color="#D7D7D7"/>
</linearGradient>
<radialGradient id="paint1_angular_528_96" cx="0" cy="0" r="1" gradientUnits="userSpaceOnUse" gradientTransform="translate(146 137) rotate(101.222) scale(128.456)">
<stop stop-color="#FFC201"/>
<stop offset="0.334082" stop-color="#7F0CFD"/>
<stop offset="0.606456" stop-color="#FD01C4"/>
<stop offset="0.858001" stop-color="#FE0586"/>
<stop offset="1" stop-color="#FFC201"/>
</radialGradient>
<radialGradient id="paint2_radial_528_96" cx="0" cy="0" r="1" gradientUnits="userSpaceOnUse" gradientTransform="translate(206.094 132.825) rotate(164.25) scale(81.7498 58.9)">
<stop stop-color="#FF005F"/>
<stop offset="1" stop-color="#FC01D8"/>
</radialGradient>
<radialGradient id="paint3_radial_528_96" cx="0" cy="0" r="1" gradientUnits="userSpaceOnUse" gradientTransform="translate(115.864 210.741) rotate(-90) scale(102.187 108.419)">
<stop stop-color="#FFCC00"/>
<stop offset="0.12" stop-color="#FFCC00"/>
<stop offset="0.57" stop-color="#FE4A05"/>
<stop offset="0.69" stop-color="#FF0F3F"/>
<stop offset="1" stop-color="#FE0657" stop-opacity="0"/>
</radialGradient>
<radialGradient id="paint4_radial_528_96" cx="0" cy="0" r="1" gradientUnits="userSpaceOnUse" gradientTransform="translate(149.319 199.136) rotate(-59.87) scale(42.2656 54.9952)">
<stop stop-color="#FFCC00"/>
<stop offset="1" stop-color="#FFCC00" stop-opacity="0"/>
</radialGradient>
<radialGradient id="paint5_radial_528_96" cx="0" cy="0" r="1" gradientUnits="userSpaceOnUse" gradientTransform="translate(99.4138 78.3239) rotate(164.27) scale(80.8824 27.5618)">
<stop stop-color="#780CFF"/>
<stop offset="1" stop-color="#820BFF" stop-opacity="0"/>
</radialGradient>
<clipPath id="clip0_528_96">
<rect width="128" height="128" fill="white" transform="translate(82 73)"/>
</clipPath>
</defs>
</svg>
