<svg width="292" height="292" viewBox="0 0 292 292" fill="none" xmlns="http://www.w3.org/2000/svg">
<g filter="url(#filter0_di_528_95)">
<path d="M24 79C24 56.5979 24 45.3968 28.3597 36.8404C32.1947 29.3139 38.3139 23.1947 45.8404 19.3597C54.3968 15 65.5979 15 88 15H204C226.402 15 237.603 15 246.16 19.3597C253.686 23.1947 259.805 29.3139 263.64 36.8404C268 45.3968 268 56.5979 268 79V195C268 217.402 268 228.603 263.64 237.16C259.805 244.686 253.686 250.805 246.16 254.64C237.603 259 226.402 259 204 259H88C65.5979 259 54.3968 259 45.8404 254.64C38.3139 250.805 32.1947 244.686 28.3597 237.16C24 228.603 24 217.402 24 195V79Z" fill="url(#paint0_linear_528_95)"/>
<path d="M28 79C28 67.7329 28.0031 59.5232 28.5317 53.0538C29.0564 46.6311 30.0791 42.2767 31.9238 38.6563C35.3752 31.8825 40.8825 26.3752 47.6563 22.9238C51.2767 21.0791 55.6311 20.0564 62.0538 19.5317C68.5232 19.0031 76.7329 19 88 19H204C215.267 19 223.477 19.0031 229.946 19.5317C236.369 20.0564 240.723 21.0791 244.344 22.9238C251.117 26.3752 256.625 31.8825 260.076 38.6563C261.921 42.2767 262.944 46.6311 263.468 53.0538C263.997 59.5232 264 67.7329 264 79V195C264 206.267 263.997 214.477 263.468 220.946C262.944 227.369 261.921 231.723 260.076 235.344C256.625 242.117 251.117 247.625 244.344 251.076C240.723 252.921 236.369 253.944 229.946 254.468C223.477 254.997 215.267 255 204 255H88C76.7329 255 68.5232 254.997 62.0538 254.468C55.6311 253.944 51.2767 252.921 47.6563 251.076C40.8825 247.625 35.3752 242.117 31.9238 235.344C30.0791 231.723 29.0564 227.369 28.5317 220.946C28.0031 214.477 28 206.267 28 195V79Z" stroke="#006699" stroke-opacity="0.5" stroke-width="8"/>
</g>
<path d="M83 83.0796C83 78.0575 87.1739 74 92.3124 74H199.688C204.826 74 209 78.0742 209 83.0796V191.702C209 196.724 204.826 200.782 199.688 200.782H92.3124C87.1739 200.782 83 196.707 83 191.702V83.0796Z" fill="#006699"/>
<path fill-rule="evenodd" clip-rule="evenodd" d="M121.186 180.143V122.889H102.162V180.143H121.186ZM111.674 115.073C118.309 115.073 122.433 110.683 122.433 105.179C122.317 99.5579 118.309 95.2842 111.79 95.2842C105.272 95.2842 101.031 99.5579 101.031 105.179C101.031 110.799 105.155 115.073 111.541 115.073H111.657H111.674Z" fill="white"/>
<path fill-rule="evenodd" clip-rule="evenodd" d="M131.727 180.145H150.75V148.166C150.75 146.454 150.867 144.741 151.382 143.527C152.763 140.101 155.889 136.559 161.144 136.559C168.028 136.559 170.789 141.814 170.789 149.513V180.145H189.813V147.318C189.813 129.725 180.417 121.543 167.895 121.543C157.635 121.543 153.128 127.28 150.617 131.188H150.75V122.89H131.727C131.976 128.261 131.727 180.145 131.727 180.145Z" fill="white"/>
<defs>
<filter id="filter0_di_528_95" x="0" y="0" width="292" height="292" filterUnits="userSpaceOnUse" color-interpolation-filters="sRGB">
<feFlood flood-opacity="0" result="BackgroundImageFix"/>
<feColorMatrix in="SourceAlpha" type="matrix" values="0 0 0 0 0 0 0 0 0 0 0 0 0 0 0 0 0 0 127 0" result="hardAlpha"/>
<feOffset dy="9"/>
<feGaussianBlur stdDeviation="12"/>
<feComposite in2="hardAlpha" operator="out"/>
<feColorMatrix type="matrix" values="0 0 0 0 0 0 0 0 0 0 0 0 0 0 0 0 0 0 0.25 0"/>
<feBlend mode="normal" in2="BackgroundImageFix" result="effect1_dropShadow_528_95"/>
<feBlend mode="normal" in="SourceGraphic" in2="effect1_dropShadow_528_95" result="shape"/>
<feColorMatrix in="SourceAlpha" type="matrix" values="0 0 0 0 0 0 0 0 0 0 0 0 0 0 0 0 0 0 127 0" result="hardAlpha"/>
<feOffset dy="-2"/>
<feGaussianBlur stdDeviation="1"/>
<feComposite in2="hardAlpha" operator="arithmetic" k2="-1" k3="1"/>
<feColorMatrix type="matrix" values="0 0 0 0 0 0 0 0 0 0 0 0 0 0 0 0 0 0 0.11 0"/>
<feBlend mode="normal" in2="shape" result="effect2_innerShadow_528_95"/>
</filter>
<linearGradient id="paint0_linear_528_95" x1="133.901" y1="25.0375" x2="210.716" y2="257.544" gradientUnits="userSpaceOnUse">
<stop stop-color="white"/>
<stop offset="1" stop-color="#D7D7D7"/>
</linearGradient>
</defs>
</svg>
