<svg width="292" height="292" viewBox="0 0 292 292" fill="none" xmlns="http://www.w3.org/2000/svg">
<g filter="url(#filter0_di_528_103)">
<path d="M24 79C24 56.5979 24 45.3968 28.3597 36.8404C32.1947 29.3139 38.3139 23.1947 45.8404 19.3597C54.3968 15 65.5979 15 88 15H204C226.402 15 237.603 15 246.16 19.3597C253.686 23.1947 259.805 29.3139 263.64 36.8404C268 45.3968 268 56.5979 268 79V195C268 217.402 268 228.603 263.64 237.16C259.805 244.686 253.686 250.805 246.16 254.64C237.603 259 226.402 259 204 259H88C65.5979 259 54.3968 259 45.8404 254.64C38.3139 250.805 32.1947 244.686 28.3597 237.16C24 228.603 24 217.402 24 195V79Z" fill="url(#paint0_linear_528_103)"/>
<path d="M28 79C28 67.7329 28.0031 59.5232 28.5317 53.0538C29.0564 46.6311 30.0791 42.2767 31.9238 38.6563C35.3752 31.8825 40.8825 26.3752 47.6563 22.9238C51.2767 21.0791 55.6311 20.0564 62.0538 19.5317C68.5232 19.0031 76.7329 19 88 19H204C215.267 19 223.477 19.0031 229.946 19.5317C236.369 20.0564 240.723 21.0791 244.344 22.9238C251.117 26.3752 256.625 31.8825 260.076 38.6563C261.921 42.2767 262.944 46.6311 263.468 53.0538C263.997 59.5232 264 67.7329 264 79V195C264 206.267 263.997 214.477 263.468 220.946C262.944 227.369 261.921 231.723 260.076 235.344C256.625 242.117 251.117 247.625 244.344 251.076C240.723 252.921 236.369 253.944 229.946 254.468C223.477 254.997 215.267 255 204 255H88C76.7329 255 68.5232 254.997 62.0538 254.468C55.6311 253.944 51.2767 252.921 47.6563 251.076C40.8825 247.625 35.3752 242.117 31.9238 235.344C30.0791 231.723 29.0564 227.369 28.5317 220.946C28.0031 214.477 28 206.267 28 195V79Z" stroke="#FF4500" stroke-opacity="0.5" stroke-width="8"/>
</g>
<path d="M146.302 208.4C185.9 208.4 218.002 176.299 218.002 136.7C218.002 97.1012 185.9 65 146.302 65C106.703 65 74.6016 97.1012 74.6016 136.7C74.6016 176.299 106.703 208.4 146.302 208.4Z" fill="#FF4500"/>
<path d="M194.117 136.7C193.904 130.925 189.056 126.416 183.264 126.612C180.697 126.702 178.255 127.753 176.402 129.518C168.239 123.957 158.651 120.909 148.795 120.695L153.446 98.3281L168.792 101.554C169.219 105.493 172.748 108.344 176.687 107.917C180.626 107.489 183.477 103.96 183.05 100.021C182.622 96.0825 179.093 93.2308 175.154 93.6586C172.891 93.8903 170.859 95.2091 169.736 97.1696L152.163 93.6586C150.969 93.3912 149.775 94.1398 149.508 95.3517V95.3874L144.214 120.268C134.234 120.428 124.521 123.493 116.251 129.09C112.045 125.133 105.415 125.329 101.458 129.553C97.5016 133.759 97.6976 140.389 101.922 144.346C102.741 145.112 103.686 145.772 104.738 146.235C104.666 147.287 104.666 148.338 104.738 149.39C104.738 165.448 123.451 178.512 146.531 178.512C169.612 178.512 188.325 165.466 188.325 149.39C188.396 148.338 188.396 147.287 188.325 146.235C191.925 144.435 194.189 140.728 194.117 136.7ZM122.417 143.882C122.417 139.926 125.643 136.7 129.6 136.7C133.557 136.7 136.782 139.926 136.782 143.882C136.782 147.839 133.557 151.065 129.6 151.065C125.626 151.029 122.417 147.839 122.417 143.882ZM164.069 163.594C158.971 167.426 152.734 169.386 146.353 169.119C139.973 169.386 133.735 167.426 128.638 163.594C127.96 162.774 128.085 161.545 128.905 160.867C129.618 160.279 130.634 160.279 131.364 160.867C135.677 164.022 140.935 165.626 146.282 165.376C151.629 165.662 156.904 164.129 161.271 161.01C162.055 160.244 163.338 160.261 164.104 161.046C164.871 161.83 164.853 163.113 164.069 163.879V163.594ZM162.785 151.314C158.829 151.314 155.603 148.089 155.603 144.132C155.603 140.175 158.829 136.95 162.785 136.95C166.742 136.95 169.968 140.175 169.968 144.132C170.128 148.089 167.045 151.421 163.088 151.582H162.732L162.785 151.314Z" fill="white"/>
<defs>
<filter id="filter0_di_528_103" x="0" y="0" width="292" height="292" filterUnits="userSpaceOnUse" color-interpolation-filters="sRGB">
<feFlood flood-opacity="0" result="BackgroundImageFix"/>
<feColorMatrix in="SourceAlpha" type="matrix" values="0 0 0 0 0 0 0 0 0 0 0 0 0 0 0 0 0 0 127 0" result="hardAlpha"/>
<feOffset dy="9"/>
<feGaussianBlur stdDeviation="12"/>
<feComposite in2="hardAlpha" operator="out"/>
<feColorMatrix type="matrix" values="0 0 0 0 0 0 0 0 0 0 0 0 0 0 0 0 0 0 0.25 0"/>
<feBlend mode="normal" in2="BackgroundImageFix" result="effect1_dropShadow_528_103"/>
<feBlend mode="normal" in="SourceGraphic" in2="effect1_dropShadow_528_103" result="shape"/>
<feColorMatrix in="SourceAlpha" type="matrix" values="0 0 0 0 0 0 0 0 0 0 0 0 0 0 0 0 0 0 127 0" result="hardAlpha"/>
<feOffset dy="-2"/>
<feGaussianBlur stdDeviation="1"/>
<feComposite in2="hardAlpha" operator="arithmetic" k2="-1" k3="1"/>
<feColorMatrix type="matrix" values="0 0 0 0 0 0 0 0 0 0 0 0 0 0 0 0 0 0 0.11 0"/>
<feBlend mode="normal" in2="shape" result="effect2_innerShadow_528_103"/>
</filter>
<linearGradient id="paint0_linear_528_103" x1="133.901" y1="25.0375" x2="210.716" y2="257.544" gradientUnits="userSpaceOnUse">
<stop stop-color="white"/>
<stop offset="1" stop-color="#D7D7D7"/>
</linearGradient>
</defs>
</svg>
