<svg width="292" height="292" viewBox="0 0 292 292" fill="none" xmlns="http://www.w3.org/2000/svg">
<g filter="url(#filter0_di_528_97)">
<path d="M24 79C24 56.5979 24 45.3968 28.3597 36.8404C32.1947 29.3139 38.3139 23.1947 45.8404 19.3597C54.3968 15 65.5979 15 88 15H204C226.402 15 237.603 15 246.16 19.3597C253.686 23.1947 259.805 29.3139 263.64 36.8404C268 45.3968 268 56.5979 268 79V195C268 217.402 268 228.603 263.64 237.16C259.805 244.686 253.686 250.805 246.16 254.64C237.603 259 226.402 259 204 259H88C65.5979 259 54.3968 259 45.8404 254.64C38.3139 250.805 32.1947 244.686 28.3597 237.16C24 228.603 24 217.402 24 195V79Z" fill="url(#paint0_linear_528_97)"/>
<path d="M28 79C28 67.7329 28.0031 59.5232 28.5317 53.0538C29.0564 46.6311 30.0791 42.2767 31.9238 38.6563C35.3752 31.8825 40.8825 26.3752 47.6563 22.9238C51.2767 21.0791 55.6311 20.0564 62.0538 19.5317C68.5232 19.0031 76.7329 19 88 19H204C215.267 19 223.477 19.0031 229.946 19.5317C236.369 20.0564 240.723 21.0791 244.344 22.9238C251.117 26.3752 256.625 31.8825 260.076 38.6563C261.921 42.2767 262.944 46.6311 263.468 53.0538C263.997 59.5232 264 67.7329 264 79V195C264 206.267 263.997 214.477 263.468 220.946C262.944 227.369 261.921 231.723 260.076 235.344C256.625 242.117 251.117 247.625 244.344 251.076C240.723 252.921 236.369 253.944 229.946 254.468C223.477 254.997 215.267 255 204 255H88C76.7329 255 68.5232 254.997 62.0538 254.468C55.6311 253.944 51.2767 252.921 47.6563 251.076C40.8825 247.625 35.3752 242.117 31.9238 235.344C30.0791 231.723 29.0564 227.369 28.5317 220.946C28.0031 214.477 28 206.267 28 195V79Z" stroke="black" stroke-opacity="0.5" stroke-width="8"/>
</g>
<path d="M178.225 132.659C177.645 132.373 177.064 132.112 176.458 131.878C175.429 112.956 164.929 102.129 147.332 102.025H147.095C136.569 102.025 127.81 106.449 122.428 114.518L132.11 121.077C136.146 115.064 142.452 113.763 147.095 113.763H147.253C153.057 113.789 157.41 115.455 160.259 118.708C162.317 121.077 163.689 124.33 164.375 128.442C159.23 127.584 153.69 127.323 147.754 127.662C131.028 128.625 120.265 138.229 121.003 151.607C121.373 158.4 124.802 164.23 130.659 168.03C135.619 171.258 141.977 172.819 148.599 172.481C157.357 172.012 164.217 168.707 168.992 162.695C172.632 158.114 174.927 152.205 175.956 144.736C180.125 147.208 183.211 150.488 184.926 154.418C187.828 161.081 187.986 172.064 178.937 181.018C170.997 188.852 161.446 192.236 146.989 192.34C130.976 192.236 118.866 187.16 110.978 177.27C103.592 168.03 99.7926 154.652 99.6607 137.552C99.7926 120.452 103.618 107.1 110.978 97.8342C118.866 87.9438 130.976 82.8945 146.989 82.7644C163.135 82.8945 175.455 87.9699 183.633 97.9123C187.643 102.779 190.677 108.896 192.656 116.027L204 113.034C201.573 104.237 197.774 96.689 192.603 90.3904C182.13 77.663 166.776 71.1562 147.042 71H146.963C127.256 71.1301 112.086 77.689 101.903 90.4425C92.8278 101.816 88.1583 117.615 88 137.448V137.552C88.1583 157.385 92.8278 173.184 101.903 184.558C112.086 197.337 127.256 203.87 146.963 204H147.042C164.559 203.87 176.932 199.341 187.116 189.321C200.438 176.203 200.043 159.753 195.637 149.655C192.445 142.445 186.43 136.563 178.225 132.659ZM147.965 160.742C140.631 161.159 133.007 157.905 132.638 150.956C132.348 145.803 136.358 140.051 148.414 139.374C149.786 139.296 151.158 139.27 152.477 139.27C156.856 139.27 160.945 139.686 164.665 140.493C163.293 157.567 155.141 160.352 147.965 160.742Z" fill="black"/>
<defs>
<filter id="filter0_di_528_97" x="0" y="0" width="292" height="292" filterUnits="userSpaceOnUse" color-interpolation-filters="sRGB">
<feFlood flood-opacity="0" result="BackgroundImageFix"/>
<feColorMatrix in="SourceAlpha" type="matrix" values="0 0 0 0 0 0 0 0 0 0 0 0 0 0 0 0 0 0 127 0" result="hardAlpha"/>
<feOffset dy="9"/>
<feGaussianBlur stdDeviation="12"/>
<feComposite in2="hardAlpha" operator="out"/>
<feColorMatrix type="matrix" values="0 0 0 0 0 0 0 0 0 0 0 0 0 0 0 0 0 0 0.25 0"/>
<feBlend mode="normal" in2="BackgroundImageFix" result="effect1_dropShadow_528_97"/>
<feBlend mode="normal" in="SourceGraphic" in2="effect1_dropShadow_528_97" result="shape"/>
<feColorMatrix in="SourceAlpha" type="matrix" values="0 0 0 0 0 0 0 0 0 0 0 0 0 0 0 0 0 0 127 0" result="hardAlpha"/>
<feOffset dy="-2"/>
<feGaussianBlur stdDeviation="1"/>
<feComposite in2="hardAlpha" operator="arithmetic" k2="-1" k3="1"/>
<feColorMatrix type="matrix" values="0 0 0 0 0 0 0 0 0 0 0 0 0 0 0 0 0 0 0.11 0"/>
<feBlend mode="normal" in2="shape" result="effect2_innerShadow_528_97"/>
</filter>
<linearGradient id="paint0_linear_528_97" x1="133.901" y1="25.0375" x2="210.716" y2="257.544" gradientUnits="userSpaceOnUse">
<stop stop-color="white"/>
<stop offset="1" stop-color="#D7D7D7"/>
</linearGradient>
</defs>
</svg>
