<?xml version="1.0" encoding="utf-8"?>
<!-- Generator: Adobe Illustrator 26.3.1, SVG Export Plug-In . SVG Version: 6.00 Build 0)  -->
<svg version="1.1" id="Layer_1" xmlns="http://www.w3.org/2000/svg" xmlns:xlink="http://www.w3.org/1999/xlink" x="0px" y="0px"
	 viewBox="0 0 244 244" style="enable-background:new 0 0 244 244;" xml:space="preserve">
<style type="text/css">
	.st0{fill:url(#SVGID_1_);}
	.st1{fill:url(#SVGID_00000014621565630163766850000014299909461915714697_);}
	.st2{fill:none;stroke:#00599C;stroke-width:8;stroke-opacity:0.5;}
	.st3{fill-rule:evenodd;clip-rule:evenodd;fill:#004482;}
	.st4{fill-rule:evenodd;clip-rule:evenodd;fill:#659AD2;}
	.st5{fill-rule:evenodd;clip-rule:evenodd;fill:#FFFFFF;}
	.st6{fill-rule:evenodd;clip-rule:evenodd;fill:#00599C;}
</style>
<g>
	
		<linearGradient id="SVGID_1_" gradientUnits="userSpaceOnUse" x1="87.4594" y1="246.5483" x2="164.2744" y2="14.0418" gradientTransform="matrix(1 0 0 -1 0 264)">
		<stop  offset="0" style="stop-color:#FFFFFF"/>
		<stop  offset="1" style="stop-color:#D7D7D7"/>
	</linearGradient>
	<path class="st0" d="M0,64c0-22.4,0-33.6,4.4-42.2c3.8-7.5,10-13.6,17.5-17.5C30.4,0,41.6,0,64,0h116c22.4,0,33.6,0,42.2,4.4
		c7.5,3.8,13.6,10,17.5,17.5C244,30.4,244,41.6,244,64v116c0,22.4,0,33.6-4.4,42.2c-3.8,7.5-10,13.6-17.5,17.5
		c-8.6,4.4-19.8,4.4-42.2,4.4H64c-22.4,0-33.6,0-42.2-4.4c-7.5-3.8-13.6-10-17.5-17.5C0,213.6,0,202.4,0,180V64z"/>
	
		<linearGradient id="SVGID_00000150071764337541668260000001976514723156840893_" gradientUnits="userSpaceOnUse" x1="82.1508" y1="253.5031" x2="170.9188" y2="5.1179" gradientTransform="matrix(1 0 0 -1 0 264)">
		<stop  offset="0" style="stop-color:#322D37"/>
		<stop  offset="1" style="stop-color:#18151B"/>
	</linearGradient>
	<path style="fill:url(#SVGID_00000150071764337541668260000001976514723156840893_);" d="M0,64c0-22.4,0-33.6,4.4-42.2
		c3.8-7.5,10-13.6,17.5-17.5C30.4,0,41.6,0,64,0h116c22.4,0,33.6,0,42.2,4.4c7.5,3.8,13.6,10,17.5,17.5C244,30.4,244,41.6,244,64
		v116c0,22.4,0,33.6-4.4,42.2c-3.8,7.5-10,13.6-17.5,17.5c-8.6,4.4-19.8,4.4-42.2,4.4H64c-22.4,0-33.6,0-42.2-4.4
		c-7.5-3.8-13.6-10-17.5-17.5C0,213.6,0,202.4,0,180V64z"/>
	<path class="st2" d="M4,64c0-11.3,0-19.5,0.5-25.9c0.5-6.4,1.5-10.8,3.4-14.4c3.5-6.8,9-12.3,15.7-15.7c3.6-1.8,8-2.9,14.4-3.4
		C44.5,4,52.7,4,64,4h116c11.3,0,19.5,0,25.9,0.5c6.4,0.5,10.8,1.5,14.4,3.4c6.8,3.5,12.3,9,15.7,15.7c1.8,3.6,2.9,8,3.4,14.4
		C240,44.5,240,52.7,240,64v116c0,11.3,0,19.5-0.5,25.9c-0.5,6.4-1.5,10.8-3.4,14.4c-3.5,6.8-9,12.3-15.7,15.7
		c-3.6,1.8-8,2.9-14.4,3.4c-6.5,0.5-14.7,0.5-25.9,0.5H64c-11.3,0-19.5,0-25.9-0.5c-6.4-0.5-10.8-1.5-14.4-3.4
		c-6.8-3.5-12.3-9-15.7-15.7c-1.8-3.6-2.9-8-3.4-14.4C4,199.5,4,191.3,4,180V64z"/>
</g>
<path class="st3" d="M118.2,51.1c2.3-1.3,5.2-1.3,7.5,0c11.5,6.4,46,25.8,57.5,32.3c2.3,1.3,3.8,3.7,3.8,6.3v64.5
	c0,2.6-1.4,5-3.8,6.3c-11.5,6.4-46,25.8-57.5,32.3c-2.3,1.3-5.2,1.3-7.5,0c-11.5-6.4-46-25.8-57.5-32.3c-2.3-1.3-3.7-3.7-3.7-6.3
	V89.7c0-2.6,1.4-5,3.8-6.3C72.2,77,106.8,57.6,118.2,51.1z"/>
<path class="st4" d="M58,157.6c-0.9-1.2-1-2.4-1-3.9V89.5c0-2.6,1.4-5,3.7-6.3c11.4-6.4,45.9-25.7,57.3-32.1c2.3-1.3,5.5-1.3,7.8,0
	c11.4,6.4,45.7,25.5,57.2,31.9c0.9,0.5,1.6,1.1,2.3,2L58,157.6z"/>
<path class="st5" d="M122,74.1c26.4,0,47.9,21.5,47.9,47.9s-21.5,47.9-47.9,47.9S74.1,148.4,74.1,122S95.6,74.1,122,74.1z M122,98.1
	c13.2,0,23.9,10.7,23.9,23.9c0,13.2-10.7,23.9-23.9,23.9S98,135.2,98,122C98,108.8,108.8,98.1,122,98.1z"/>
<path class="st6" d="M185.2,85.1c1.8,1.7,1.7,4.1,1.7,6.1c0,13-0.1,49.9,0,62.9c0,1.4-0.4,2.8-1.1,3.9L120.6,122L185.2,85.1z"/>
</svg>
