<?xml version="1.0" encoding="utf-8"?>
<!-- Generator: Adobe Illustrator 26.3.1, SVG Export Plug-In . SVG Version: 6.00 Build 0)  -->
<svg version="1.1" id="Layer_1" xmlns="http://www.w3.org/2000/svg" xmlns:xlink="http://www.w3.org/1999/xlink" x="0px" y="0px"
	 viewBox="0 0 244 244" style="enable-background:new 0 0 244 244;" xml:space="preserve">
<style type="text/css">
	.st0{fill:url(#SVGID_1_);}
	.st1{fill:url(#SVGID_00000127725441725981464380000009368073012385363901_);}
	.st2{fill:none;stroke:#535353;stroke-width:8;stroke-opacity:0.5;}
	.st3{fill:none;}
	.st4{fill:#FFFFFF;}
	.st5{fill:#242424;}
</style>
<g>
	
		<linearGradient id="SVGID_1_" gradientUnits="userSpaceOnUse" x1="87.4594" y1="228.5483" x2="164.2744" y2="-3.9582" gradientTransform="matrix(1 0 0 -1 0 246)">
		<stop  offset="0" style="stop-color:#FFFFFF"/>
		<stop  offset="1" style="stop-color:#D7D7D7"/>
	</linearGradient>
	<path class="st0" d="M0,64c0-22.4,0-33.6,4.4-42.2c3.8-7.5,10-13.6,17.5-17.5C30.4,0,41.6,0,64,0h116c22.4,0,33.6,0,42.2,4.4
		c7.5,3.8,13.6,10,17.5,17.5C244,30.4,244,41.6,244,64v116c0,22.4,0,33.6-4.4,42.2c-3.8,7.5-10,13.6-17.5,17.5
		c-8.6,4.4-19.8,4.4-42.2,4.4H64c-22.4,0-33.6,0-42.2-4.4c-7.5-3.8-13.6-10-17.5-17.5C0,213.6,0,202.4,0,180V64z"/>
	
		<linearGradient id="SVGID_00000009549344040872833490000002491357491549405579_" gradientUnits="userSpaceOnUse" x1="82.1508" y1="235.5031" x2="170.9188" y2="-12.8821" gradientTransform="matrix(1 0 0 -1 0 246)">
		<stop  offset="0" style="stop-color:#322D37"/>
		<stop  offset="1" style="stop-color:#18151B"/>
	</linearGradient>
	<path style="fill:url(#SVGID_00000009549344040872833490000002491357491549405579_);" d="M0,64c0-22.4,0-33.6,4.4-42.2
		c3.8-7.5,10-13.6,17.5-17.5C30.4,0,41.6,0,64,0h116c22.4,0,33.6,0,42.2,4.4c7.5,3.8,13.6,10,17.5,17.5C244,30.4,244,41.6,244,64
		v116c0,22.4,0,33.6-4.4,42.2c-3.8,7.5-10,13.6-17.5,17.5c-8.6,4.4-19.8,4.4-42.2,4.4H64c-22.4,0-33.6,0-42.2-4.4
		c-7.5-3.8-13.6-10-17.5-17.5C0,213.6,0,202.4,0,180V64z"/>
	<path class="st2" d="M4,64c0-11.3,0-19.5,0.5-25.9c0.5-6.4,1.5-10.8,3.4-14.4c3.5-6.8,9-12.3,15.7-15.7c3.6-1.8,8-2.9,14.4-3.4
		C44.5,4,52.7,4,64,4h116c11.3,0,19.5,0,25.9,0.5c6.4,0.5,10.8,1.5,14.4,3.4c6.8,3.5,12.3,9,15.7,15.7c1.8,3.6,2.9,8,3.4,14.4
		C240,44.5,240,52.7,240,64v116c0,11.3,0,19.5-0.5,25.9c-0.5,6.4-1.5,10.8-3.4,14.4c-3.5,6.8-9,12.3-15.7,15.7
		c-3.6,1.8-8,2.9-14.4,3.4c-6.5,0.5-14.7,0.5-25.9,0.5H64c-11.3,0-19.5,0-25.9-0.5c-6.4-0.5-10.8-1.5-14.4-3.4
		c-6.8-3.5-12.3-9-15.7-15.7c-1.8-3.6-2.9-8-3.4-14.4C4,199.5,4,191.3,4,180V64z"/>
</g>
<rect x="70" y="182" class="st3" width="104" height="26"/>
<g>
	<path class="st4" d="M122,59c34.8,0,63,28.2,63,63s-28.2,63-63,63s-63-28.2-63-63S87.2,59,122,59z"/>
	<path class="st5" d="M119.5,94.7c-18.3,0-32.6,11.5-32.6,25.9c0,13.5,13.1,22.2,33.4,21.8l0.6,0l2.2-0.1l-0.6,1.5l0.1,0.1
		c0.2,0.4,0.3,0.8,0.4,1.2l0,0.1l0.1,0.2l0.1,0.3l0.1,0.2l0.1,0.2l0.1,0.3l0.1,0.4l0.1,0.4l0.1,0.3l0.1,0.4l0.1,0.5l0.1,0.5l0.1,0.5
		l0.1,0.3l0.1,0.5l0.1,0.5l0.2,0.7l0.1,0.4l0.1,0.6l0.1,0.6l0.1,0.6l0.2,0.9l0.1,0.7l0.2,1l0.1,0.5l0.2,0.8l0.1,0.8l0.2,1.1l0.2,1.2
		l0.2,1.2l0.2,1.3l0.2,1.3l0.2,1.3l0.2,1.4l0.2,1.1l0.3,1.8l0.1,0.7l0.3,1.9l0.2,1.6l0.2,1.2l0.2,1.6l0.1,0.8
		c13.5-1.8,25.5-8.3,34.3-17.9l0.3-0.3l-1.3-4.7l-3.3-12.4l-2.1-7.7l-1.8-6.8l-1.1-4.1l-0.7-2.6l-0.4-1.6l-0.4-1.4l-0.1-0.6
		l-0.1-0.3l0-0.2l0-0.1c-1.9-6.2-5.6-11.6-10.7-15.6C135.9,97.1,128.3,94.7,119.5,94.7z M103.4,160.3c-1.6-0.4-3.3,0.5-3.7,2.1
		l0,0.1l-2.8,10.2c1.7,0.9,3.5,1.6,5.3,2.3l0.4,0.2l3-11.1l0-0.1C106,162.4,105.1,160.8,103.4,160.3z M120.6,152.8
		c-1.6-0.4-3.3,0.5-3.8,2.1l0,0.1l-4.2,15.5v0.1c-0.3,1.7,0.7,3.3,2.4,3.6c1.5,0.3,3.1-0.6,3.6-2l0-0.1l4.2-15.5v-0.1l0.1-0.3l0-0.1
		l-0.1-0.5l-0.1-0.7l-0.1-0.4C122.1,153.6,121.4,153.1,120.6,152.8z M91.4,136.9l-0.2,0.5l0,0.1L87,152.9l0,0.1
		c-0.4,1.7,0.6,3.3,2.3,3.7c1.6,0.4,3.2-0.5,3.7-2.1l0-0.1l3.8-14.1C94.8,139.4,93,138.2,91.4,136.9z M81.5,119
		c-1.6-0.4-3.3,0.5-3.8,2.1l0,0.1l-4.2,15.5v0.1c-0.4,1.7,0.6,3.3,2.3,3.7c1.6,0.4,3.2-0.5,3.7-2.1l0-0.1l4.2-15.5v-0.1
		C84,121.1,83.1,119.5,81.5,119z M175.3,115.5c-1.6-0.4-3.3,0.5-3.7,2.1l0,0.1l-4.2,15.5l0,0.1c-0.4,1.6,0.5,3.3,2.2,3.8
		c1.6,0.4,3.3-0.5,3.8-2.2v-0.1l4.2-15.5v-0.1C177.8,117.6,176.9,115.9,175.3,115.5z M72.3,94.8c-3.5,6.4-5.7,13.4-6.6,20.6
		c0.4,0.5,0.9,0.8,1.5,0.9c1.6,0.4,3.3-0.5,3.7-2.1l0-0.1l4.2-15.5l0-0.1c0.4-1.6-0.6-3.3-2.2-3.7C72.8,94.8,72.6,94.8,72.3,94.8z
		 M164.7,94.9c-1.6-0.4-3.3,0.5-3.8,2.1v0.1l-4.2,15.5l0,0.1c-0.4,1.7,0.6,3.3,2.3,3.7c1.6,0.4,3.2-0.5,3.7-2.1l0-0.1l4.2-15.5
		l0-0.1C167.3,97,166.3,95.3,164.7,94.9z"/>
	<path class="st4" d="M123.5,105c2.2,0,3.9,1.8,3.9,3.9c0,2.2-1.8,3.9-3.9,3.9c-2.2,0-3.9-1.8-3.9-3.9
		C119.5,106.8,121.3,105,123.5,105z"/>
	<path class="st5" d="M90.6,80.2c-1.6-0.4-3.3,0.5-3.7,2.1l0,0.1l-4.2,15.5l0,0.1c-0.4,1.7,0.6,3.3,2.3,3.7c1.6,0.4,3.2-0.5,3.7-2.1
		l0-0.1L92.7,84l0-0.1C93.1,82.3,92.2,80.6,90.6,80.2z M144.3,83.1c-1.6-0.4-3.3,0.5-3.8,2.1l0,0.1l-2.8,10.4
		c1.8,0.9,3.6,1.9,5.2,3.2l0.3,0.2l3.3-12.2v-0.1C146.9,85.2,145.9,83.5,144.3,83.1z M117,65.6c-2,0.2-3.9,0.5-5.9,0.8l-0.4,0.1
		L106.8,81l0,0.1c-0.3,1.7,0.7,3.3,2.4,3.6c1.5,0.3,3.1-0.6,3.6-2l0-0.1l4.2-15.5l0-0.1C117,66.5,117.1,66.1,117,65.6z M155.4,76.3
		l-0.8,3.1l0,0.1c-0.3,1.7,0.7,3.3,2.4,3.6c1.5,0.3,3.1-0.6,3.6-2l0-0.1l0.1-0.3c-1.5-1.4-3.2-2.8-4.8-4.1L155.4,76.3z M131.1,66.1
		l-1.5,5.5l0,0.1c-0.3,1.7,0.7,3.3,2.4,3.6c1.5,0.3,3.1-0.6,3.6-2l0-0.1l1.6-5.8c-1.8-0.5-3.7-0.9-5.6-1.2L131.1,66.1z"/>
</g>
</svg>
