<?xml version="1.0" encoding="utf-8"?>
<!-- Generator: Adobe Illustrator 26.3.1, SVG Export Plug-In . SVG Version: 6.00 Build 0)  -->
<svg version="1.1" id="Layer_1" xmlns="http://www.w3.org/2000/svg" xmlns:xlink="http://www.w3.org/1999/xlink" x="0px" y="0px"
	 viewBox="0 0 244 244" style="enable-background:new 0 0 244 244;" xml:space="preserve">
<style type="text/css">
	.st0{fill:url(#SVGID_1_);}
	.st1{fill:url(#SVGID_00000145021827039097490350000007848797301598836360_);}
	.st2{fill:none;stroke:#A90533;stroke-width:8;stroke-opacity:0.5;}
	.st3{fill:#A90533;}
	.st4{fill:#FFFFFF;}
</style>
<g>
	
		<linearGradient id="SVGID_1_" gradientUnits="userSpaceOnUse" x1="87.4594" y1="246.5483" x2="164.2744" y2="14.0418" gradientTransform="matrix(1 0 0 -1 0 264)">
		<stop  offset="0" style="stop-color:#FFFFFF"/>
		<stop  offset="1" style="stop-color:#D7D7D7"/>
	</linearGradient>
	<path class="st0" d="M0,64c0-22.4,0-33.6,4.4-42.2c3.8-7.5,10-13.6,17.5-17.5C30.4,0,41.6,0,64,0h116c22.4,0,33.6,0,42.2,4.4
		c7.5,3.8,13.6,10,17.5,17.5C244,30.4,244,41.6,244,64v116c0,22.4,0,33.6-4.4,42.2c-3.8,7.5-10,13.6-17.5,17.5
		c-8.6,4.4-19.8,4.4-42.2,4.4H64c-22.4,0-33.6,0-42.2-4.4c-7.5-3.8-13.6-10-17.5-17.5C0,213.6,0,202.4,0,180V64z"/>
	
		<linearGradient id="SVGID_00000157301094628817450070000002373540837001358986_" gradientUnits="userSpaceOnUse" x1="82.1508" y1="253.5031" x2="170.9188" y2="5.1179" gradientTransform="matrix(1 0 0 -1 0 264)">
		<stop  offset="0" style="stop-color:#322D37"/>
		<stop  offset="1" style="stop-color:#18151B"/>
	</linearGradient>
	<path style="fill:url(#SVGID_00000157301094628817450070000002373540837001358986_);" d="M0,64c0-22.4,0-33.6,4.4-42.2
		c3.8-7.5,10-13.6,17.5-17.5C30.4,0,41.6,0,64,0h116c22.4,0,33.6,0,42.2,4.4c7.5,3.8,13.6,10,17.5,17.5C244,30.4,244,41.6,244,64
		v116c0,22.4,0,33.6-4.4,42.2c-3.8,7.5-10,13.6-17.5,17.5c-8.6,4.4-19.8,4.4-42.2,4.4H64c-22.4,0-33.6,0-42.2-4.4
		c-7.5-3.8-13.6-10-17.5-17.5C0,213.6,0,202.4,0,180V64z"/>
	<path class="st2" d="M4,64c0-11.3,0-19.5,0.5-25.9c0.5-6.4,1.5-10.8,3.4-14.4c3.5-6.8,9-12.3,15.7-15.7c3.6-1.8,8-2.9,14.4-3.4
		C44.5,4,52.7,4,64,4h116c11.3,0,19.5,0,25.9,0.5c6.4,0.5,10.8,1.5,14.4,3.4c6.8,3.5,12.3,9,15.7,15.7c1.8,3.6,2.9,8,3.4,14.4
		C240,44.5,240,52.7,240,64v116c0,11.3,0,19.5-0.5,25.9c-0.5,6.4-1.5,10.8-3.4,14.4c-3.5,6.8-9,12.3-15.7,15.7
		c-3.6,1.8-8,2.9-14.4,3.4c-6.5,0.5-14.7,0.5-25.9,0.5H64c-11.3,0-19.5,0-25.9-0.5c-6.4-0.5-10.8-1.5-14.4-3.4
		c-6.8-3.5-12.3-9-15.7-15.7c-1.8-3.6-2.9-8-3.4-14.4C4,199.5,4,191.3,4,180V64z"/>
</g>
<path class="st3" d="M81,145.4c-9.3-9.8-14.7-23.5-14.7-39.7c0-14.4,4.5-26.7,12.3-36.1h0l-16.3,0v75.8L81,145.4L81,145.4z"/>
<path class="st3" d="M166.9,145.4c4-4.3,7.6-9.3,10.8-15.1l-18-9c-6.3,10.3-15.6,19.8-28.4,19.8c-18.7-0.1-26-16-25.9-36.5H175
	c0.1-2.3,0.1-3.4,0-4.5c0.5-12.2-2.8-22.5-8.7-30.5l0,0H182v75.8H166.9L166.9,145.4L166.9,145.4z"/>
<path class="st3" d="M106.5,87c0.8-9.3,8.1-15.5,16.7-15.6c8.7,0,14.9,6.3,15.1,15.6H106.5z"/>
<path class="st4" d="M72.2,158.3v-3.2h-9.7v18.7h9.7v-3.2h-6.1v-5h5.9v-3.2h-5.9v-4.3L72.2,158.3L72.2,158.3z"/>
<path class="st4" d="M88.6,165.9c2.4-0.4,3.7-2.8,3.8-5.2c-0.1-4-2.7-5.6-6.3-5.6h-5v18.7h3.6v-7.4l4.5,7.4h4.5L88.6,165.9z
	 M84.8,158h0.4c2,0.1,3.4,0.5,3.4,2.9c0.1,2.2-1.4,2.8-3.4,2.7h-0.4V158L84.8,158z"/>
<path class="st4" d="M105.1,155.1h-3.6v18.7h8.8v-3.2h-5.2V155.1z"/>
<path class="st4" d="M128.8,170l1.6,3.8h3.8l-7-19.2h-2.9l-7.4,19.2h3.8l1.6-3.8H128.8z M127.9,167.1h-4.5l2-7L127.9,167.1
	L127.9,167.1z"/>
<path class="st4" d="M141,173.8h3.8v-12.6l9.9,13.1h2.7v-19.2h-3.8v12.6l-9.9-13.1H141V173.8z"/>
<path class="st4" d="M173.2,163.9v2.9h4.1c-0.1,2.4-2,4.4-4.3,4.3c-3.6,0.1-5.4-3.4-5.4-6.5c0-3.1,1.8-6.7,5.4-6.8
	c1.9,0.1,3.5,1.4,4.3,2.9l3.2-1.6c-1.4-2.9-4.2-4.5-7.4-4.5c-5.6,0-9.2,4.6-9.2,9.9c0.1,5.2,3.6,9.9,9,9.9c5.9-0.1,8.6-4.8,8.6-10.1
	v-0.4H173.2z"/>
</svg>
