<?xml version="1.0" encoding="utf-8"?>
<!-- Generator: Adobe Illustrator 26.3.1, SVG Export Plug-In . SVG Version: 6.00 Build 0)  -->
<svg version="1.1" id="Layer_1" xmlns="http://www.w3.org/2000/svg" xmlns:xlink="http://www.w3.org/1999/xlink" x="0px" y="0px"
	 viewBox="0 0 244 244" style="enable-background:new 0 0 244 244;" xml:space="preserve">
<style type="text/css">
	.st0{fill:url(#SVGID_1_);}
	.st1{fill:url(#SVGID_00000116957170299409450180000017967651743665650837_);}
	.st2{fill:none;stroke:#00ACD7;stroke-width:8;stroke-opacity:0.5;}
	.st3{fill:#00ACD7;}
</style>
<g>
	
		<linearGradient id="SVGID_1_" gradientUnits="userSpaceOnUse" x1="87.4594" y1="246.5483" x2="164.2744" y2="14.0418" gradientTransform="matrix(1 0 0 -1 0 264)">
		<stop  offset="0" style="stop-color:#FFFFFF"/>
		<stop  offset="1" style="stop-color:#D7D7D7"/>
	</linearGradient>
	<path class="st0" d="M0,64c0-22.4,0-33.6,4.4-42.2c3.8-7.5,10-13.6,17.5-17.5C30.4,0,41.6,0,64,0h116c22.4,0,33.6,0,42.2,4.4
		c7.5,3.8,13.6,10,17.5,17.5C244,30.4,244,41.6,244,64v116c0,22.4,0,33.6-4.4,42.2c-3.8,7.5-10,13.6-17.5,17.5
		c-8.6,4.4-19.8,4.4-42.2,4.4H64c-22.4,0-33.6,0-42.2-4.4c-7.5-3.8-13.6-10-17.5-17.5C0,213.6,0,202.4,0,180V64z"/>
	
		<linearGradient id="SVGID_00000058582407387498769440000001656508795938838170_" gradientUnits="userSpaceOnUse" x1="82.1508" y1="253.5031" x2="170.9188" y2="5.1179" gradientTransform="matrix(1 0 0 -1 0 264)">
		<stop  offset="0" style="stop-color:#322D37"/>
		<stop  offset="1" style="stop-color:#18151B"/>
	</linearGradient>
	<path style="fill:url(#SVGID_00000058582407387498769440000001656508795938838170_);" d="M0,64c0-22.4,0-33.6,4.4-42.2
		c3.8-7.5,10-13.6,17.5-17.5C30.4,0,41.6,0,64,0h116c22.4,0,33.6,0,42.2,4.4c7.5,3.8,13.6,10,17.5,17.5C244,30.4,244,41.6,244,64
		v116c0,22.4,0,33.6-4.4,42.2c-3.8,7.5-10,13.6-17.5,17.5c-8.6,4.4-19.8,4.4-42.2,4.4H64c-22.4,0-33.6,0-42.2-4.4
		c-7.5-3.8-13.6-10-17.5-17.5C0,213.6,0,202.4,0,180V64z"/>
	<path class="st2" d="M4,64c0-11.3,0-19.5,0.5-25.9c0.5-6.4,1.5-10.8,3.4-14.4c3.5-6.8,9-12.3,15.7-15.7c3.6-1.8,8-2.9,14.4-3.4
		C44.5,4,52.7,4,64,4h116c11.3,0,19.5,0,25.9,0.5c6.4,0.5,10.8,1.5,14.4,3.4c6.8,3.5,12.3,9,15.7,15.7c1.8,3.6,2.9,8,3.4,14.4
		C240,44.5,240,52.7,240,64v116c0,11.3,0,19.5-0.5,25.9c-0.5,6.4-1.5,10.8-3.4,14.4c-3.5,6.8-9,12.3-15.7,15.7
		c-3.6,1.8-8,2.9-14.4,3.4c-6.5,0.5-14.7,0.5-25.9,0.5H64c-11.3,0-19.5,0-25.9-0.5c-6.4-0.5-10.8-1.5-14.4-3.4
		c-6.8-3.5-12.3-9-15.7-15.7c-1.8-3.6-2.9-8-3.4-14.4C4,199.5,4,191.3,4,180V64z"/>
</g>
<path class="st3" d="M41.4,110c-0.3,0-0.4-0.2-0.2-0.4l1.7-2.2c0.2-0.2,0.6-0.4,0.9-0.4H73c0.3,0,0.4,0.2,0.2,0.5l-1.4,2.1
	c-0.2,0.2-0.6,0.5-0.8,0.5L41.4,110z"/>
<path class="st3" d="M29.1,117.5c-0.3,0-0.4-0.2-0.2-0.4l1.7-2.2c0.2-0.2,0.6-0.4,0.9-0.4h37.3c0.3,0,0.5,0.2,0.4,0.5l-0.7,2
	c-0.1,0.3-0.4,0.5-0.7,0.5L29.1,117.5z"/>
<path class="st3" d="M48.9,125c-0.3,0-0.4-0.2-0.2-0.5l1.1-2c0.2-0.2,0.5-0.5,0.8-0.5h16.3c0.3,0,0.5,0.2,0.5,0.6l-0.2,2
	c0,0.3-0.3,0.6-0.6,0.6L48.9,125z"/>
<path class="st3" d="M133.7,108.5c-5.1,1.3-8.7,2.3-13.7,3.6c-1.2,0.3-1.3,0.4-2.4-0.8c-1.2-1.4-2.1-2.3-3.8-3.1
	c-5.2-2.5-10.1-1.8-14.8,1.2c-5.6,3.6-8.4,8.9-8.3,15.5c0.1,6.5,4.6,11.9,11,12.8c5.6,0.7,10.2-1.2,13.9-5.4c0.7-0.9,1.4-1.9,2.2-3
	H102c-1.7,0-2.1-1.1-1.6-2.5c1.1-2.5,3-6.8,4.2-8.9c0.2-0.5,0.8-1.3,2-1.3h29.8c-0.2,2.2-0.2,4.4-0.5,6.6c-0.9,5.9-3.1,11.3-6.7,16
	c-5.9,7.8-13.6,12.6-23.3,13.9c-8,1.1-15.4-0.5-22-5.4c-6-4.6-9.5-10.6-10.4-18.1c-1.1-8.9,1.6-16.9,6.9-24
	c5.8-7.6,13.5-12.4,22.9-14.1c7.7-1.4,15-0.5,21.7,4c4.3,2.9,7.4,6.8,9.5,11.5C135,107.9,134.7,108.3,133.7,108.5z"/>
<path class="st3" d="M160.8,153.7c-7.4-0.2-14.2-2.3-19.9-7.2c-4.8-4.2-7.8-9.5-8.8-15.8c-1.5-9.2,1.1-17.4,6.6-24.7
	c6-7.8,13.2-11.9,22.9-13.7c8.3-1.5,16.2-0.7,23.3,4.2c6.5,4.4,10.5,10.4,11.5,18.2c1.4,11-1.8,20-9.4,27.7
	c-5.4,5.5-12,8.9-19.6,10.5C165.1,153.4,162.9,153.5,160.8,153.7z M180.2,120.7c-0.1-1.1-0.1-1.9-0.2-2.7
	c-1.5-8.1-8.9-12.7-16.7-10.9c-7.6,1.7-12.5,6.5-14.3,14.2c-1.5,6.4,1.6,12.8,7.5,15.4c4.5,2,9,1.7,13.3-0.5
	C176.3,133,179.8,127.7,180.2,120.7z"/>
</svg>
