<?xml version="1.0" encoding="utf-8"?>
<!-- Generator: Adobe Illustrator 26.3.1, SVG Export Plug-In . SVG Version: 6.00 Build 0)  -->
<svg version="1.1" id="Layer_1" xmlns="http://www.w3.org/2000/svg" xmlns:xlink="http://www.w3.org/1999/xlink" x="0px" y="0px"
	 viewBox="0 0 244 244" style="enable-background:new 0 0 244 244;" xml:space="preserve">
<style type="text/css">
	.st0{fill:url(#SVGID_1_);}
	.st1{fill:url(#SVGID_00000129180432853291202880000006065547569297165722_);}
	.st2{fill:none;stroke:#4E7896;stroke-width:8;stroke-opacity:0.5;}
	.st3{fill:#4E7896;}
	.st4{fill:#F58219;}
</style>
<g>
	
		<linearGradient id="SVGID_1_" gradientUnits="userSpaceOnUse" x1="87.4594" y1="246.5483" x2="164.2744" y2="14.0418" gradientTransform="matrix(1 0 0 -1 0 264)">
		<stop  offset="0" style="stop-color:#FFFFFF"/>
		<stop  offset="1" style="stop-color:#D7D7D7"/>
	</linearGradient>
	<path class="st0" d="M0,64c0-22.4,0-33.6,4.4-42.2c3.8-7.5,10-13.6,17.5-17.5C30.4,0,41.6,0,64,0h116c22.4,0,33.6,0,42.2,4.4
		c7.5,3.8,13.6,10,17.5,17.5C244,30.4,244,41.6,244,64v116c0,22.4,0,33.6-4.4,42.2c-3.8,7.5-10,13.6-17.5,17.5
		c-8.6,4.4-19.8,4.4-42.2,4.4H64c-22.4,0-33.6,0-42.2-4.4c-7.5-3.8-13.6-10-17.5-17.5C0,213.6,0,202.4,0,180V64z"/>
	
		<linearGradient id="SVGID_00000102504891108065130450000011510790507742704563_" gradientUnits="userSpaceOnUse" x1="82.1508" y1="253.5031" x2="170.9188" y2="5.1179" gradientTransform="matrix(1 0 0 -1 0 264)">
		<stop  offset="0" style="stop-color:#322D37"/>
		<stop  offset="1" style="stop-color:#18151B"/>
	</linearGradient>
	<path style="fill:url(#SVGID_00000102504891108065130450000011510790507742704563_);" d="M0,64c0-22.4,0-33.6,4.4-42.2
		c3.8-7.5,10-13.6,17.5-17.5C30.4,0,41.6,0,64,0h116c22.4,0,33.6,0,42.2,4.4c7.5,3.8,13.6,10,17.5,17.5C244,30.4,244,41.6,244,64
		v116c0,22.4,0,33.6-4.4,42.2c-3.8,7.5-10,13.6-17.5,17.5c-8.6,4.4-19.8,4.4-42.2,4.4H64c-22.4,0-33.6,0-42.2-4.4
		c-7.5-3.8-13.6-10-17.5-17.5C0,213.6,0,202.4,0,180V64z"/>
	<path class="st2" d="M4,64c0-11.3,0-19.5,0.5-25.9c0.5-6.4,1.5-10.8,3.4-14.4c3.5-6.8,9-12.3,15.7-15.7c3.6-1.8,8-2.9,14.4-3.4
		C44.5,4,52.7,4,64,4h116c11.3,0,19.5,0,25.9,0.5c6.4,0.5,10.8,1.5,14.4,3.4c6.8,3.5,12.3,9,15.7,15.7c1.8,3.6,2.9,8,3.4,14.4
		C240,44.5,240,52.7,240,64v116c0,11.3,0,19.5-0.5,25.9c-0.5,6.4-1.5,10.8-3.4,14.4c-3.5,6.8-9,12.3-15.7,15.7
		c-3.6,1.8-8,2.9-14.4,3.4c-6.5,0.5-14.7,0.5-25.9,0.5H64c-11.3,0-19.5,0-25.9-0.5c-6.4-0.5-10.8-1.5-14.4-3.4
		c-6.8-3.5-12.3-9-15.7-15.7c-1.8-3.6-2.9-8-3.4-14.4C4,199.5,4,191.3,4,180V64z"/>
</g>
<path class="st3" d="M100.5,158.8c0,0-6.3,3.9,4.4,5c13,1.7,19.9,1.4,34.2-1.4c0,0,3.9,2.5,9.1,4.4
	C115.9,180.6,75.1,166,100.5,158.8L100.5,158.8z M96.3,140.9c0,0-6.9,5.2,3.9,6.4c14.1,1.4,25.1,1.7,44.2-2.2c0,0,2.5,2.8,6.6,4.1
	C112,160.8,68.4,150.3,96.3,140.9L96.3,140.9z M172.5,172.3c0,0,4.7,3.9-5.2,6.9c-18.5,5.5-77.6,7.2-94.1,0
	c-5.8-2.5,5.2-6.1,8.8-6.6c3.6-0.8,5.5-0.8,5.5-0.8c-6.3-4.4-42.2,9.1-18.2,13C135.2,195.5,189.6,180.1,172.5,172.3z M103.5,122.1
	c0,0-30.1,7.2-10.8,9.7c8.3,1.1,24.6,0.8,39.8-0.3c12.4-1.1,24.8-3.3,24.8-3.3s-4.4,1.9-7.5,3.9c-30.6,8-89.4,4.4-72.6-3.9
	C91.6,121.3,103.5,122.1,103.5,122.1z M157.3,152.2c30.9-16,16.6-31.5,6.6-29.5c-2.5,0.6-3.6,1.1-3.6,1.1s0.8-1.7,2.8-2.2
	c19.6-6.9,35.1,20.7-6.4,31.5C156.8,153,157,152.8,157.3,152.2L157.3,152.2z M106.5,195.8c29.8,1.9,75.4-1.1,76.5-15.2
	c0,0-2.2,5.5-24.6,9.7c-25.4,4.7-56.9,4.1-75.4,1.1C83.1,191.4,86.9,194.7,106.5,195.8L106.5,195.8z"/>
<path class="st4" d="M138.6,31c0,0,17.1,17.4-16.3,43.6c-26.8,21.3-6.1,33.4,0,47.2c-15.7-14.1-27.1-26.5-19.3-38.1
	C114.3,66.6,145.5,58.3,138.6,31z M129.7,110.2c8,9.1-2.2,17.4-2.2,17.4s20.4-10.5,11-23.5C130,91.7,123.4,85.7,159.3,65
	C159.3,65,102.7,79,129.7,110.2z"/>
</svg>
