<?xml version="1.0" encoding="utf-8"?>
<!-- Generator: Adobe Illustrator 26.3.1, SVG Export Plug-In . SVG Version: 6.00 Build 0)  -->
<svg version="1.1" id="Layer_1" xmlns="http://www.w3.org/2000/svg" xmlns:xlink="http://www.w3.org/1999/xlink" x="0px" y="0px"
	 viewBox="0 0 244 244" style="enable-background:new 0 0 244 244;" xml:space="preserve">
<style type="text/css">
	.st0{fill:url(#SVGID_1_);}
	.st1{fill:url(#SVGID_00000060030179834809457630000008346688986987102137_);}
	.st2{fill:none;stroke:#21A366;stroke-width:8;stroke-opacity:0.5;}
	.st3{fill:#21A366;}
</style>
<g>
	
		<linearGradient id="SVGID_1_" gradientUnits="userSpaceOnUse" x1="87.4594" y1="246.5483" x2="164.2744" y2="14.0418" gradientTransform="matrix(1 0 0 -1 0 264)">
		<stop  offset="0" style="stop-color:#FFFFFF"/>
		<stop  offset="1" style="stop-color:#D7D7D7"/>
	</linearGradient>
	<path class="st0" d="M0,64c0-22.4,0-33.6,4.4-42.2c3.8-7.5,10-13.6,17.5-17.5C30.4,0,41.6,0,64,0h116c22.4,0,33.6,0,42.2,4.4
		c7.5,3.8,13.6,10,17.5,17.5C244,30.4,244,41.6,244,64v116c0,22.4,0,33.6-4.4,42.2c-3.8,7.5-10,13.6-17.5,17.5
		c-8.6,4.4-19.8,4.4-42.2,4.4H64c-22.4,0-33.6,0-42.2-4.4c-7.5-3.8-13.6-10-17.5-17.5C0,213.6,0,202.4,0,180V64z"/>
	
		<linearGradient id="SVGID_00000158009468202381645370000006617160565342600870_" gradientUnits="userSpaceOnUse" x1="82.1508" y1="253.5031" x2="170.9188" y2="5.1179" gradientTransform="matrix(1 0 0 -1 0 264)">
		<stop  offset="0" style="stop-color:#322D37"/>
		<stop  offset="1" style="stop-color:#18151B"/>
	</linearGradient>
	<path style="fill:url(#SVGID_00000158009468202381645370000006617160565342600870_);" d="M0,64c0-22.4,0-33.6,4.4-42.2
		c3.8-7.5,10-13.6,17.5-17.5C30.4,0,41.6,0,64,0h116c22.4,0,33.6,0,42.2,4.4c7.5,3.8,13.6,10,17.5,17.5C244,30.4,244,41.6,244,64
		v116c0,22.4,0,33.6-4.4,42.2c-3.8,7.5-10,13.6-17.5,17.5c-8.6,4.4-19.8,4.4-42.2,4.4H64c-22.4,0-33.6,0-42.2-4.4
		c-7.5-3.8-13.6-10-17.5-17.5C0,213.6,0,202.4,0,180V64z"/>
	<path class="st2" d="M4,64c0-11.3,0-19.5,0.5-25.9c0.5-6.4,1.5-10.8,3.4-14.4c3.5-6.8,9-12.3,15.7-15.7c3.6-1.8,8-2.9,14.4-3.4
		C44.5,4,52.7,4,64,4h116c11.3,0,19.5,0,25.9,0.5c6.4,0.5,10.8,1.5,14.4,3.4c6.8,3.5,12.3,9,15.7,15.7c1.8,3.6,2.9,8,3.4,14.4
		C240,44.5,240,52.7,240,64v116c0,11.3,0,19.5-0.5,25.9c-0.5,6.4-1.5,10.8-3.4,14.4c-3.5,6.8-9,12.3-15.7,15.7
		c-3.6,1.8-8,2.9-14.4,3.4c-6.5,0.5-14.7,0.5-25.9,0.5H64c-11.3,0-19.5,0-25.9-0.5c-6.4-0.5-10.8-1.5-14.4-3.4
		c-6.8-3.5-12.3-9-15.7-15.7c-1.8-3.6-2.9-8-3.4-14.4C4,199.5,4,191.3,4,180V64z"/>
</g>
<path class="st3" d="M122,188c-1.8,0-3.5-0.5-5.1-1.4l-16.3-9.6c-2.4-1.4-1.2-1.8-0.4-2.1c3.2-1.1,3.9-1.4,7.4-3.4
	c0.4-0.2,0.8-0.1,1.2,0.1l12.5,7.4c0.5,0.2,1.1,0.2,1.5,0l48.7-28.1c0.5-0.3,0.7-0.8,0.7-1.3V93.4c0-0.6-0.3-1.1-0.8-1.3l-48.7-28.1
	c-0.5-0.3-1.1-0.3-1.5,0L72.6,92c-0.5,0.3-0.8,0.8-0.8,1.3v56.2c0,0.5,0.3,1.1,0.8,1.3l13.3,7.7c7.2,3.6,11.7-0.6,11.7-4.9V98.1
	c0-0.8,0.6-1.4,1.4-1.4h6.2c0.8,0,1.4,0.6,1.4,1.4v55.5c0,9.7-5.3,15.2-14.4,15.2c-2.8,0-5,0-11.2-3l-12.8-7.4
	c-3.2-1.8-5.1-5.3-5.1-8.9V93.3c0-3.7,2-7.1,5.1-8.9l48.8-28.1c3.1-1.7,7.2-1.7,10.3,0l48.7,28.2c3.1,1.8,5.1,5.2,5.1,8.9v56.2
	c0,3.6-2,7-5.1,8.9l-48.7,28.1C125.6,187.5,123.8,188,122,188"/>
<path class="st3" d="M137.1,149.3c-21.3,0-25.8-9.8-25.8-18c0-0.8,0.6-1.4,1.4-1.4h6.3c0.7,0,1.3,0.5,1.4,1.2
	c1,6.4,3.8,9.7,16.7,9.7c10.3,0,14.6-2.3,14.6-7.8c0-3.1-1.2-5.5-17.2-7c-13.3-1.3-21.6-4.3-21.6-14.9c0-9.8,8.3-15.7,22.2-15.7
	c15.6,0,23.3,5.4,24.3,17.1c0,0.4-0.1,0.8-0.4,1.1c-0.3,0.3-0.6,0.5-1,0.5h-6.3c-0.7,0-1.2-0.5-1.4-1.1c-1.5-6.8-5.2-8.9-15.2-8.9
	c-11.2,0-12.5,3.9-12.5,6.8c0,3.5,1.5,4.6,16.7,6.6c15,2,22.1,4.8,22.1,15.3C161.3,143.1,152.5,149.3,137.1,149.3"/>
</svg>
