<?xml version="1.0" encoding="utf-8"?>
<!-- Generator: Adobe Illustrator 26.3.1, SVG Export Plug-In . SVG Version: 6.00 Build 0)  -->
<svg version="1.1" id="Layer_1" xmlns="http://www.w3.org/2000/svg" xmlns:xlink="http://www.w3.org/1999/xlink" x="0px" y="0px"
	 viewBox="0 0 244 244" style="enable-background:new 0 0 244 244;" xml:space="preserve">
<style type="text/css">
	.st0{fill:url(#SVGID_1_);}
	.st1{fill:url(#SVGID_00000094587487826948146960000016539183277077140408_);}
	.st2{fill:none;stroke:#777BB3;stroke-width:8;stroke-opacity:0.5;}
	.st3{clip-path:url(#SVGID_00000147922281613920322710000013279192977619243700_);}
	.st4{fill:#FFFFFF;filter:url(#Adobe_OpacityMaskFilter);}
	.st5{mask:url(#mask0_648_103_00000124850302412124067710000015640599533035405723_);}
	.st6{fill:url(#SVGID_00000108283724002260928970000009341166868301559966_);}
	.st7{fill:#777BB3;}
	.st8{fill:#FFFFFF;}
</style>
<g>
	
		<linearGradient id="SVGID_1_" gradientUnits="userSpaceOnUse" x1="87.4594" y1="246.5483" x2="164.2744" y2="14.0418" gradientTransform="matrix(1 0 0 -1 0 264)">
		<stop  offset="0" style="stop-color:#FFFFFF"/>
		<stop  offset="1" style="stop-color:#D7D7D7"/>
	</linearGradient>
	<path class="st0" d="M0,64c0-22.4,0-33.6,4.4-42.2c3.8-7.5,10-13.6,17.5-17.5C30.4,0,41.6,0,64,0h116c22.4,0,33.6,0,42.2,4.4
		c7.5,3.8,13.6,10,17.5,17.5C244,30.4,244,41.6,244,64v116c0,22.4,0,33.6-4.4,42.2c-3.8,7.5-10,13.6-17.5,17.5
		c-8.6,4.4-19.8,4.4-42.2,4.4H64c-22.4,0-33.6,0-42.2-4.4c-7.5-3.8-13.6-10-17.5-17.5C0,213.6,0,202.4,0,180V64z"/>
	
		<linearGradient id="SVGID_00000040558179440326530220000009732033251873883320_" gradientUnits="userSpaceOnUse" x1="82.1508" y1="253.5031" x2="170.9188" y2="5.1179" gradientTransform="matrix(1 0 0 -1 0 264)">
		<stop  offset="0" style="stop-color:#322D37"/>
		<stop  offset="1" style="stop-color:#18151B"/>
	</linearGradient>
	<path style="fill:url(#SVGID_00000040558179440326530220000009732033251873883320_);" d="M0,64c0-22.4,0-33.6,4.4-42.2
		c3.8-7.5,10-13.6,17.5-17.5C30.4,0,41.6,0,64,0h116c22.4,0,33.6,0,42.2,4.4c7.5,3.8,13.6,10,17.5,17.5C244,30.4,244,41.6,244,64
		v116c0,22.4,0,33.6-4.4,42.2c-3.8,7.5-10,13.6-17.5,17.5c-8.6,4.4-19.8,4.4-42.2,4.4H64c-22.4,0-33.6,0-42.2-4.4
		c-7.5-3.8-13.6-10-17.5-17.5C0,213.6,0,202.4,0,180V64z"/>
	<path class="st2" d="M4,64c0-11.3,0-19.5,0.5-25.9c0.5-6.4,1.5-10.8,3.4-14.4c3.5-6.8,9-12.3,15.7-15.7c3.6-1.8,8-2.9,14.4-3.4
		C44.5,4,52.7,4,64,4h116c11.3,0,19.5,0,25.9,0.5c6.4,0.5,10.8,1.5,14.4,3.4c6.8,3.5,12.3,9,15.7,15.7c1.8,3.6,2.9,8,3.4,14.4
		C240,44.5,240,52.7,240,64v116c0,11.3,0,19.5-0.5,25.9c-0.5,6.4-1.5,10.8-3.4,14.4c-3.5,6.8-9,12.3-15.7,15.7
		c-3.6,1.8-8,2.9-14.4,3.4c-6.5,0.5-14.7,0.5-25.9,0.5H64c-11.3,0-19.5,0-25.9-0.5c-6.4-0.5-10.8-1.5-14.4-3.4
		c-6.8-3.5-12.3-9-15.7-15.7c-1.8-3.6-2.9-8-3.4-14.4C4,199.5,4,191.3,4,180V64z"/>
</g>
<g>
	<defs>
		<rect id="SVGID_00000164496849657101530480000011047302090993242023_" x="43.2" y="80.6" width="156.8" height="82.5"/>
	</defs>
	<clipPath id="SVGID_00000142883278507185161400000007386922915007399309_">
		<use xlink:href="#SVGID_00000164496849657101530480000011047302090993242023_"  style="overflow:visible;"/>
	</clipPath>
	<g style="clip-path:url(#SVGID_00000142883278507185161400000007386922915007399309_);">
		<defs>
			<filter id="Adobe_OpacityMaskFilter" filterUnits="userSpaceOnUse" x="43.2" y="80.6" width="156.8" height="82.5">
				<feColorMatrix  type="matrix" values="1 0 0 0 0  0 1 0 0 0  0 0 1 0 0  0 0 0 1 0"/>
			</filter>
		</defs>
		
			<mask maskUnits="userSpaceOnUse" x="43.2" y="80.6" width="156.8" height="82.5" id="mask0_648_103_00000124850302412124067710000015640599533035405723_">
			<path class="st4" d="M43.2,121.8c0,22.8,35.1,41.2,78.4,41.2c43.3,0,78.4-18.5,78.4-41.2s-35.1-41.2-78.4-41.2
				C78.3,80.6,43.2,99,43.2,121.8z"/>
		</mask>
		<g class="st5">
			
				<radialGradient id="SVGID_00000003085460857916470380000004278854739968652990_" cx="-373.5711" cy="628.5712" r="1" gradientTransform="matrix(102.95 0 0 -102.95 38549.1484 64806.2891)" gradientUnits="userSpaceOnUse">
				<stop  offset="0" style="stop-color:#AEB2D5"/>
				<stop  offset="0.3" style="stop-color:#AEB2D5"/>
				<stop  offset="0.75" style="stop-color:#484C89"/>
				<stop  offset="1" style="stop-color:#484C89"/>
			</radialGradient>
			<path style="fill:url(#SVGID_00000003085460857916470380000004278854739968652990_);" d="M43.2,121.8c0,22.8,35.1,41.2,78.4,41.2
				c43.3,0,78.4-18.5,78.4-41.2s-35.1-41.2-78.4-41.2C78.3,80.6,43.2,99,43.2,121.8z"/>
		</g>
		<path class="st7" d="M121.6,160c41.6,0,75.3-17.1,75.3-38.2s-33.7-38.2-75.3-38.2c-41.6,0-75.3,17.1-75.3,38.2S80,160,121.6,160z"
			/>
		<path d="M85.8,126.5c3.4,0,6-0.6,7.6-1.9c1.6-1.2,2.7-3.4,3.3-6.3c0.5-2.8,0.3-4.7-0.6-5.8c-1-1.1-3.1-1.6-6.2-1.6h-5.5l-3,15.6
			L85.8,126.5L85.8,126.5z M67.9,145.7c-0.3,0-0.5-0.1-0.7-0.3c-0.2-0.2-0.2-0.5-0.2-0.7l8-41.3c0.1-0.4,0.4-0.7,0.8-0.7h17.3
			c5.4,0,9.5,1.5,12,4.4c2.6,2.9,3.4,7,2.3,12.2c-0.4,2.1-1.1,4-2.1,5.8c-1,1.7-2.3,3.4-3.8,4.8c-1.9,1.8-4,3-6.3,3.8
			c-2.3,0.7-5.2,1.1-8.7,1.1h-7l-2,10.3c-0.1,0.4-0.4,0.7-0.8,0.7L67.9,145.7L67.9,145.7z"/>
		<path class="st8" d="M85.1,111.8h4.8c3.8,0,5.1,0.8,5.6,1.3c0.7,0.8,0.9,2.6,0.4,5c-0.5,2.8-1.5,4.7-3,5.8
			c-1.5,1.1-3.8,1.7-7.1,1.7h-3.4L85.1,111.8L85.1,111.8z M93.3,101.9H75.9c-0.8,0-1.5,0.6-1.7,1.4l-8,41.3c-0.1,0.5,0,1,0.4,1.4
			c0.3,0.4,0.8,0.6,1.3,0.6h9c0.8,0,1.5-0.6,1.7-1.4l1.9-9.6h6.3c3.6,0,6.6-0.4,8.9-1.2c2.4-0.8,4.6-2.1,6.6-4c1.6-1.5,3-3.2,4-5
			c1-1.8,1.7-3.9,2.2-6c1.1-5.4,0.2-9.8-2.5-12.9C103.2,103.4,99,101.9,93.3,101.9 M80.3,127.4h5.5c3.6,0,6.3-0.7,8.1-2.1
			c1.8-1.4,3-3.6,3.6-6.9c0.6-3.1,0.3-5.2-0.8-6.5c-1.1-1.3-3.4-1.9-6.8-1.9h-6.2L80.3,127.4z M93.3,103.6c5.2,0,9,1.4,11.4,4.1
			c2.4,2.7,3.1,6.5,2.2,11.4c-0.4,2-1.1,3.9-2,5.5c-0.9,1.7-2.2,3.2-3.7,4.6c-1.8,1.7-3.8,2.9-6,3.6c-2.2,0.7-5,1.1-8.4,1.1H79
			l-2.1,11h-9l8-41.3L93.3,103.6"/>
		<path d="M128.3,134.8c-0.3,0-0.5-0.1-0.7-0.3c-0.2-0.2-0.2-0.5-0.2-0.7l3.6-18.3c0.3-1.7,0.3-3-0.2-3.5c-0.3-0.3-1.2-0.9-3.9-0.9
			h-6.4l-4.5,23c-0.1,0.4-0.4,0.7-0.8,0.7h-8.9c-0.3,0-0.5-0.1-0.7-0.3c-0.2-0.2-0.2-0.5-0.2-0.7l8-41.3c0.1-0.4,0.4-0.7,0.8-0.7
			h8.9c0.3,0,0.5,0.1,0.7,0.3c0.2,0.2,0.2,0.5,0.2,0.7l-1.9,10h6.9c5.3,0,8.9,0.9,10.9,2.8c2.1,2,2.8,5.1,2,9.3l-3.7,19.2
			c-0.1,0.4-0.4,0.7-0.8,0.7L128.3,134.8L128.3,134.8z"/>
		<path class="st8" d="M123.2,90.9h-8.9c-0.8,0-1.5,0.6-1.7,1.4l-8,41.3c-0.1,0.5,0,1,0.4,1.4c0.3,0.4,0.8,0.6,1.3,0.6h8.9
			c0.8,0,1.5-0.6,1.7-1.4l4.3-22.3h5.7c2.7,0,3.2,0.6,3.2,0.6c0.2,0.2,0.4,1,0,2.8l-3.6,18.3c-0.1,0.5,0,1,0.4,1.4
			c0.3,0.4,0.8,0.6,1.3,0.6h9.1c0.8,0,1.5-0.6,1.7-1.4l3.7-19.2c0.9-4.5,0.1-7.9-2.2-10.1c-2.2-2.1-6-3.1-11.5-3.1h-5.9l1.7-9
			c0.1-0.5,0-1-0.4-1.4C124.2,91.1,123.7,90.9,123.2,90.9 M123.2,92.6l-2.1,11h8c5,0,8.5,0.9,10.4,2.6c1.9,1.7,2.5,4.6,1.7,8.5
			l-3.7,19.2h-9.1l3.6-18.3c0.4-2.1,0.3-3.5-0.4-4.3c-0.7-0.8-2.2-1.1-4.5-1.1h-7.1l-4.6,23.7h-8.9l8-41.3L123.2,92.6"/>
		<path d="M156.1,126.5c3.4,0,6-0.6,7.6-1.9c1.6-1.2,2.7-3.4,3.3-6.3c0.5-2.8,0.3-4.7-0.6-5.8c-1-1.1-3.1-1.6-6.2-1.6h-5.5l-3,15.6
			L156.1,126.5L156.1,126.5z M138.2,145.7c-0.3,0-0.5-0.1-0.7-0.3c-0.2-0.2-0.2-0.5-0.2-0.7l8-41.3c0.1-0.4,0.4-0.7,0.8-0.7h17.3
			c5.4,0,9.5,1.5,12,4.4c2.6,2.9,3.3,7,2.3,12.2c-0.4,2.1-1.1,4-2.1,5.8c-1,1.7-2.3,3.4-3.8,4.8c-1.9,1.8-4,3-6.3,3.8
			c-2.3,0.7-5.2,1.1-8.7,1.1h-7l-2,10.3c-0.1,0.4-0.4,0.7-0.8,0.7L138.2,145.7L138.2,145.7z"/>
		<path class="st8" d="M155.4,111.8h4.8c3.8,0,5.1,0.8,5.6,1.3c0.7,0.8,0.9,2.6,0.4,5c-0.5,2.8-1.5,4.7-3,5.8
			c-1.5,1.1-3.8,1.7-7.1,1.7h-3.4L155.4,111.8L155.4,111.8z M163.5,101.9h-17.3c-0.8,0-1.5,0.6-1.7,1.4l-8,41.3
			c-0.1,0.5,0,1,0.4,1.4c0.3,0.4,0.8,0.6,1.3,0.6h9c0.8,0,1.5-0.6,1.7-1.4l1.9-9.6h6.3c3.6,0,6.6-0.4,8.9-1.2c2.4-0.8,4.7-2.1,6.6-4
			c1.6-1.5,3-3.2,4-5c1-1.8,1.7-3.9,2.2-6c1.1-5.4,0.2-9.8-2.5-12.9C173.5,103.4,169.2,101.9,163.5,101.9z M150.6,127.4h5.5
			c3.6,0,6.3-0.7,8.1-2.1s3-3.6,3.6-6.9c0.6-3.1,0.3-5.2-0.8-6.5c-1.1-1.3-3.4-1.9-6.8-1.9H154L150.6,127.4z M163.5,103.6
			c5.2,0,9,1.4,11.4,4.1c2.4,2.7,3.1,6.5,2.2,11.4c-0.4,2-1.1,3.9-2,5.5s-2.2,3.2-3.7,4.6c-1.8,1.7-3.8,2.9-6,3.6
			c-2.2,0.7-5,1.1-8.4,1.1h-7.7l-2.1,11h-9l8-41.3L163.5,103.6"/>
	</g>
</g>
</svg>
