<?xml version="1.0" encoding="utf-8"?>
<!-- Generator: Adobe Illustrator 26.3.1, SVG Export Plug-In . SVG Version: 6.00 Build 0)  -->
<svg version="1.1" id="Layer_1" xmlns="http://www.w3.org/2000/svg" xmlns:xlink="http://www.w3.org/1999/xlink" x="0px" y="0px"
	 viewBox="0 0 244 244" style="enable-background:new 0 0 244 244;" xml:space="preserve">
<style type="text/css">
	.st0{fill:url(#SVGID_1_);}
	.st1{fill:none;stroke:url(#SVGID_00000082348777481754326450000015427994232173862310_);stroke-width:8;stroke-opacity:0.5;}
	.st2{fill:url(#SVGID_00000091016616510183009240000017749828964030345356_);}
	.st3{fill:none;stroke:url(#SVGID_00000070119015869529900290000006706116266652959391_);stroke-width:8;stroke-opacity:0.5;}
	.st4{fill:url(#SVGID_00000096765382014051182810000011810011414639351973_);}
	.st5{fill:url(#SVGID_00000095313710964395602450000010806503557400669827_);}
</style>
<g>
	
		<linearGradient id="SVGID_1_" gradientUnits="userSpaceOnUse" x1="82.1508" y1="253.5031" x2="170.9188" y2="5.1179" gradientTransform="matrix(1 0 0 -1 0 264)">
		<stop  offset="0" style="stop-color:#322D37"/>
		<stop  offset="1" style="stop-color:#18151B"/>
	</linearGradient>
	<path class="st0" d="M0,64c0-22.4,0-33.6,4.4-42.2c3.8-7.5,10-13.6,17.5-17.5C30.4,0,41.6,0,64,0h116c22.4,0,33.6,0,42.2,4.4
		c7.5,3.8,13.6,10,17.5,17.5C244,30.4,244,41.6,244,64v116c0,22.4,0,33.6-4.4,42.2c-3.8,7.5-10,13.6-17.5,17.5
		c-8.6,4.4-19.8,4.4-42.2,4.4H64c-22.4,0-33.6,0-42.2-4.4c-7.5-3.8-13.6-10-17.5-17.5C0,213.6,0,202.4,0,180V64z"/>
	
		<linearGradient id="SVGID_00000124162675930332197620000016241726587843035581_" gradientUnits="userSpaceOnUse" x1="122" y1="264" x2="122" y2="20" gradientTransform="matrix(1 0 0 -1 0 264)">
		<stop  offset="0" style="stop-color:#326B9B"/>
		<stop  offset="1" style="stop-color:#FFD844"/>
	</linearGradient>
	
		<path style="fill:none;stroke:url(#SVGID_00000124162675930332197620000016241726587843035581_);stroke-width:8;stroke-opacity:0.5;" d="
		M240,64v116c0,11.3,0,19.5-0.5,25.9c-0.5,6.4-1.5,10.8-3.4,14.4c-3.5,6.8-9,12.3-15.7,15.7c-3.6,1.8-8,2.9-14.4,3.4
		c-6.5,0.5-14.7,0.5-25.9,0.5H64c-11.3,0-19.5,0-25.9-0.5c-6.4-0.5-10.8-1.5-14.4-3.4c-6.8-3.5-12.3-9-15.7-15.7
		c-1.8-3.6-2.9-8-3.4-14.4C4,199.5,4,191.3,4,180V64c0-11.3,0-19.5,0.5-25.9c0.5-6.4,1.5-10.8,3.4-14.4c3.5-6.8,9-12.3,15.7-15.7
		c3.6-1.8,8-2.9,14.4-3.4C44.5,4,52.7,4,64,4h116c11.3,0,19.5,0,25.9,0.5c6.4,0.5,10.8,1.5,14.4,3.4c6.8,3.5,12.3,9,15.7,15.7
		c1.8,3.6,2.9,8,3.4,14.4C240,44.5,240,52.7,240,64z"/>
</g>
<g>
	
		<linearGradient id="SVGID_00000008120540293061947520000000784292984534561422_" gradientUnits="userSpaceOnUse" x1="82.1508" y1="253.5031" x2="170.9188" y2="5.1179" gradientTransform="matrix(1 0 0 -1 0 264)">
		<stop  offset="0" style="stop-color:#322D37"/>
		<stop  offset="1" style="stop-color:#18151B"/>
	</linearGradient>
	<path style="fill:url(#SVGID_00000008120540293061947520000000784292984534561422_);" d="M0,64c0-22.4,0-33.6,4.4-42.2
		c3.8-7.5,10-13.6,17.5-17.5C30.4,0,41.6,0,64,0h116c22.4,0,33.6,0,42.2,4.4c7.5,3.8,13.6,10,17.5,17.5C244,30.4,244,41.6,244,64
		v116c0,22.4,0,33.6-4.4,42.2c-3.8,7.5-10,13.6-17.5,17.5c-8.6,4.4-19.8,4.4-42.2,4.4H64c-22.4,0-33.6,0-42.2-4.4
		c-7.5-3.8-13.6-10-17.5-17.5C0,213.6,0,202.4,0,180V64z"/>
	
		<linearGradient id="SVGID_00000073682273225684349290000003613413137878336682_" gradientUnits="userSpaceOnUse" x1="122" y1="264" x2="122" y2="20" gradientTransform="matrix(1 0 0 -1 0 264)">
		<stop  offset="0" style="stop-color:#326B9B"/>
		<stop  offset="1" style="stop-color:#FFD844"/>
	</linearGradient>
	
		<path style="fill:none;stroke:url(#SVGID_00000073682273225684349290000003613413137878336682_);stroke-width:8;stroke-opacity:0.5;" d="
		M240,64v116c0,11.3,0,19.5-0.5,25.9c-0.5,6.4-1.5,10.8-3.4,14.4c-3.5,6.8-9,12.3-15.7,15.7c-3.6,1.8-8,2.9-14.4,3.4
		c-6.5,0.5-14.7,0.5-25.9,0.5H64c-11.3,0-19.5,0-25.9-0.5c-6.4-0.5-10.8-1.5-14.4-3.4c-6.8-3.5-12.3-9-15.7-15.7
		c-1.8-3.6-2.9-8-3.4-14.4C4,199.5,4,191.3,4,180V64c0-11.3,0-19.5,0.5-25.9c0.5-6.4,1.5-10.8,3.4-14.4c3.5-6.8,9-12.3,15.7-15.7
		c3.6-1.8,8-2.9,14.4-3.4C44.5,4,52.7,4,64,4h116c11.3,0,19.5,0,25.9,0.5c6.4,0.5,10.8,1.5,14.4,3.4c6.8,3.5,12.3,9,15.7,15.7
		c1.8,3.6,2.9,8,3.4,14.4C240,44.5,240,52.7,240,64z"/>
</g>
<linearGradient id="SVGID_00000183954808812188761430000002705061799858254735_" gradientUnits="userSpaceOnUse" x1="51.5478" y1="203.9833" x2="125.2438" y2="142.3647" gradientTransform="matrix(1 0 0 -1 0 264)">
	<stop  offset="0" style="stop-color:#5A9FD4"/>
	<stop  offset="1" style="stop-color:#306998"/>
</linearGradient>
<path style="fill:url(#SVGID_00000183954808812188761430000002705061799858254735_);" d="M120.7,55c-5.4,0-10.6,0.5-15.1,1.3
	c-13.4,2.4-15.8,7.4-15.8,16.6v12.2h31.6v4.1H78c-9.2,0-17.2,5.6-19.7,16.2c-2.9,12.2-3,19.8,0,32.5c2.3,9.5,7.6,16.2,16.8,16.2
	h10.9v-14.6c0-10.5,9-19.9,19.7-19.9h31.6c8.8,0,15.8-7.3,15.8-16.2V72.9c0-8.7-7.2-15.2-15.8-16.6C131.8,55.4,126.1,55,120.7,55z
	 M103.6,64.8c3.3,0,5.9,2.7,5.9,6.1c0,3.4-2.7,6.1-5.9,6.1c-3.3,0-5.9-2.7-5.9-6.1C97.7,67.5,100.4,64.8,103.6,64.8z"/>
<linearGradient id="SVGID_00000092417288261050309890000003873214341587821185_" gradientUnits="userSpaceOnUse" x1="154.5064" y1="104.2597" x2="128.0724" y2="140.8077" gradientTransform="matrix(1 0 0 -1 0 264)">
	<stop  offset="0" style="stop-color:#FFD43B"/>
	<stop  offset="1" style="stop-color:#FFE873"/>
</linearGradient>
<path style="fill:url(#SVGID_00000092417288261050309890000003873214341587821185_);" d="M158,89v14.1c0,10.9-9.2,20.1-19.7,20.1
	h-31.5c-8.6,0-15.8,7.4-15.8,16.1v30.2c0,8.6,7.4,13.6,15.8,16.1c10,3,19.6,3.5,31.5,0c7.9-2.3,15.8-7,15.8-16.1v-12.1h-31.5v-4
	h47.3c9.2,0,12.6-6.4,15.8-16.1c3.3-9.9,3.2-19.5,0-32.2C183.3,95.9,179,89,169.8,89H158L158,89z M140.3,165.5c3.3,0,5.9,2.7,5.9,6
	c0,3.3-2.6,6.1-5.9,6.1c-3.3,0-5.9-2.7-5.9-6.1C134.3,168.1,137,165.5,140.3,165.5z"/>
</svg>
