<?xml version="1.0" encoding="utf-8"?>
<!-- Generator: Adobe Illustrator 26.3.1, SVG Export Plug-In . SVG Version: 6.00 Build 0)  -->
<svg version="1.1" id="Layer_1" xmlns="http://www.w3.org/2000/svg" xmlns:xlink="http://www.w3.org/1999/xlink" x="0px" y="0px"
	 viewBox="0 0 244 244" style="enable-background:new 0 0 244 244;" xml:space="preserve">
<style type="text/css">
	.st0{fill:url(#SVGID_1_);}
	.st1{fill:url(#SVGID_00000176724658337731490190000009982904227299052181_);}
	.st2{fill:none;stroke:#1C62B3;stroke-width:8;stroke-opacity:0.5;}
	.st3{fill-rule:evenodd;clip-rule:evenodd;fill:url(#SVGID_00000031172524381389235480000013001664537880144262_);}
	.st4{fill-rule:evenodd;clip-rule:evenodd;fill:url(#SVGID_00000019672426713420092230000007670940342887634360_);}
</style>
<g>
	
		<linearGradient id="SVGID_1_" gradientUnits="userSpaceOnUse" x1="87.4594" y1="246.5483" x2="164.2744" y2="14.0418" gradientTransform="matrix(1 0 0 -1 0 264)">
		<stop  offset="0" style="stop-color:#FFFFFF"/>
		<stop  offset="1" style="stop-color:#D7D7D7"/>
	</linearGradient>
	<path class="st0" d="M0,64c0-22.4,0-33.6,4.4-42.2c3.8-7.5,10-13.6,17.5-17.5C30.4,0,41.6,0,64,0h116c22.4,0,33.6,0,42.2,4.4
		c7.5,3.8,13.6,10,17.5,17.5C244,30.4,244,41.6,244,64v116c0,22.4,0,33.6-4.4,42.2c-3.8,7.5-10,13.6-17.5,17.5
		c-8.6,4.4-19.8,4.4-42.2,4.4H64c-22.4,0-33.6,0-42.2-4.4c-7.5-3.8-13.6-10-17.5-17.5C0,213.6,0,202.4,0,180V64z"/>
	
		<linearGradient id="SVGID_00000128447224643713652700000002554689626916983937_" gradientUnits="userSpaceOnUse" x1="82.1508" y1="253.5031" x2="170.9188" y2="5.1179" gradientTransform="matrix(1 0 0 -1 0 264)">
		<stop  offset="0" style="stop-color:#322D37"/>
		<stop  offset="1" style="stop-color:#18151B"/>
	</linearGradient>
	<path style="fill:url(#SVGID_00000128447224643713652700000002554689626916983937_);" d="M0,64c0-22.4,0-33.6,4.4-42.2
		c3.8-7.5,10-13.6,17.5-17.5C30.4,0,41.6,0,64,0h116c22.4,0,33.6,0,42.2,4.4c7.5,3.8,13.6,10,17.5,17.5C244,30.4,244,41.6,244,64
		v116c0,22.4,0,33.6-4.4,42.2c-3.8,7.5-10,13.6-17.5,17.5c-8.6,4.4-19.8,4.4-42.2,4.4H64c-22.4,0-33.6,0-42.2-4.4
		c-7.5-3.8-13.6-10-17.5-17.5C0,213.6,0,202.4,0,180V64z"/>
	<path class="st2" d="M4,64c0-11.3,0-19.5,0.5-25.9c0.5-6.4,1.5-10.8,3.4-14.4c3.5-6.8,9-12.3,15.7-15.7c3.6-1.8,8-2.9,14.4-3.4
		C44.5,4,52.7,4,64,4h116c11.3,0,19.5,0,25.9,0.5c6.4,0.5,10.8,1.5,14.4,3.4c6.8,3.5,12.3,9,15.7,15.7c1.8,3.6,2.9,8,3.4,14.4
		C240,44.5,240,52.7,240,64v116c0,11.3,0,19.5-0.5,25.9c-0.5,6.4-1.5,10.8-3.4,14.4c-3.5,6.8-9,12.3-15.7,15.7
		c-3.6,1.8-8,2.9-14.4,3.4c-6.5,0.5-14.7,0.5-25.9,0.5H64c-11.3,0-19.5,0-25.9-0.5c-6.4-0.5-10.8-1.5-14.4-3.4
		c-6.8-3.5-12.3-9-15.7-15.7c-1.8-3.6-2.9-8-3.4-14.4C4,199.5,4,191.3,4,180V64z"/>
</g>
<linearGradient id="SVGID_00000074404646558848148870000008604855355272620435_" gradientUnits="userSpaceOnUse" x1="79.7809" y1="211.178" x2="163.3243" y2="86.438" gradientTransform="matrix(1 0 0 -1 0 264)">
	<stop  offset="0" style="stop-color:#CBCED0"/>
	<stop  offset="1" style="stop-color:#84838B"/>
</linearGradient>
<path style="fill-rule:evenodd;clip-rule:evenodd;fill:url(#SVGID_00000074404646558848148870000008604855355272620435_);" d="
	M121.6,160.4c-37.3,0-67.5-20.2-67.5-45.2c0-24.9,30.2-45.2,67.5-45.2c37.3,0,67.4,20.2,67.4,45.2
	C189,140.1,158.8,160.4,121.6,160.4z M131.9,87.7c-28.3,0-51.3,13.8-51.3,30.9c0,17.1,23,30.9,51.3,30.9s49.2-9.5,49.2-30.9
	C181.1,97.1,160.2,87.7,131.9,87.7z"/>
<linearGradient id="SVGID_00000147907937076074945960000014799177048343956377_" gradientUnits="userSpaceOnUse" x1="104.6119" y1="160.0895" x2="180.5651" y2="85.6542" gradientTransform="matrix(1 0 0 -1 0 264)">
	<stop  offset="0" style="stop-color:#276DC3"/>
	<stop  offset="1" style="stop-color:#165CAA"/>
</linearGradient>
<path style="fill-rule:evenodd;clip-rule:evenodd;fill:url(#SVGID_00000147907937076074945960000014799177048343956377_);" d="
	M156.8,140c0,0,4.1,1.2,6.5,2.4c0.8,0.4,2.2,1.2,3.3,2.3c1,1.1,1.5,2.2,1.5,2.2l16.1,27.1l-26,0L146,151.2c0,0-2.5-4.3-4-5.5
	c-1.3-1-1.8-1.4-3.1-1.4h-6.2l0,29.7l-23,0v-76h46.2c0,0,21,0.4,21,20.4S156.8,140,156.8,140z M146.8,114.5l-13.9,0l0,12.9l13.9,0
	c0,0,6.5,0,6.5-6.6C153.3,114.3,146.8,114.5,146.8,114.5L146.8,114.5z"/>
</svg>
