<?xml version="1.0" encoding="utf-8"?>
<!-- Generator: Adobe Illustrator 26.3.1, SVG Export Plug-In . SVG Version: 6.00 Build 0)  -->
<svg version="1.1" id="Layer_1" xmlns="http://www.w3.org/2000/svg" xmlns:xlink="http://www.w3.org/1999/xlink" x="0px" y="0px"
	 viewBox="0 0 244 244" style="enable-background:new 0 0 244 244;" xml:space="preserve">
<style type="text/css">
	.st0{fill:url(#SVGID_1_);}
	.st1{fill:url(#SVGID_00000118369911698241899220000010165564815091557802_);}
	.st2{fill:none;stroke:#C31904;stroke-width:8;stroke-opacity:0.5;}
	.st3{fill-rule:evenodd;clip-rule:evenodd;fill:url(#SVGID_00000119840606600657753370000000842966791239511471_);}
	.st4{fill-rule:evenodd;clip-rule:evenodd;fill:url(#SVGID_00000020384577978801402670000001061583368711336617_);}
	.st5{fill-rule:evenodd;clip-rule:evenodd;fill:url(#SVGID_00000147188307286450316510000006364742869793557399_);}
	.st6{fill-rule:evenodd;clip-rule:evenodd;fill:url(#SVGID_00000014633291594389024380000001140012974302141606_);}
	.st7{fill-rule:evenodd;clip-rule:evenodd;fill:url(#SVGID_00000115511754399588068060000001215115756995533977_);}
	.st8{fill-rule:evenodd;clip-rule:evenodd;fill:url(#SVGID_00000144301284563359660250000011786815553803019907_);}
	.st9{fill-rule:evenodd;clip-rule:evenodd;fill:url(#SVGID_00000101803645698355920580000014578808865478990997_);}
	.st10{fill-rule:evenodd;clip-rule:evenodd;fill:url(#SVGID_00000032612271560955959620000014390724062466358443_);}
	.st11{fill-rule:evenodd;clip-rule:evenodd;fill:#FFFFFF;}
	.st12{fill-rule:evenodd;clip-rule:evenodd;fill:url(#SVGID_00000095306402458599447270000009413985874711327883_);}
	.st13{fill-rule:evenodd;clip-rule:evenodd;fill:url(#SVGID_00000075877142647491346570000010842464254842743478_);}
	.st14{fill-rule:evenodd;clip-rule:evenodd;fill:url(#SVGID_00000090254083776023404420000011053053822056805295_);}
	.st15{fill-rule:evenodd;clip-rule:evenodd;fill:url(#SVGID_00000129901792693965131610000013571783555858522284_);}
	.st16{fill-rule:evenodd;clip-rule:evenodd;fill:#9E1209;}
	.st17{fill-rule:evenodd;clip-rule:evenodd;fill:url(#SVGID_00000066485985307031091290000006124710071376963232_);}
	.st18{fill-rule:evenodd;clip-rule:evenodd;fill:url(#SVGID_00000032614290653555003490000011226150542309471644_);}
	.st19{fill-rule:evenodd;clip-rule:evenodd;fill:url(#SVGID_00000168113722709189261940000007903315498719706045_);}
	.st20{fill-rule:evenodd;clip-rule:evenodd;fill:url(#SVGID_00000069358974968100680650000002614701613847373195_);}
</style>
<g>
	
		<linearGradient id="SVGID_1_" gradientUnits="userSpaceOnUse" x1="87.4594" y1="246.5483" x2="164.2744" y2="14.0418" gradientTransform="matrix(1 0 0 -1 0 264)">
		<stop  offset="0" style="stop-color:#FFFFFF"/>
		<stop  offset="1" style="stop-color:#D7D7D7"/>
	</linearGradient>
	<path class="st0" d="M0,64c0-22.4,0-33.6,4.4-42.2c3.8-7.5,10-13.6,17.5-17.5C30.4,0,41.6,0,64,0h116c22.4,0,33.6,0,42.2,4.4
		c7.5,3.8,13.6,10,17.5,17.5C244,30.4,244,41.6,244,64v116c0,22.4,0,33.6-4.4,42.2c-3.8,7.5-10,13.6-17.5,17.5
		c-8.6,4.4-19.8,4.4-42.2,4.4H64c-22.4,0-33.6,0-42.2-4.4c-7.5-3.8-13.6-10-17.5-17.5C0,213.6,0,202.4,0,180V64z"/>
	
		<linearGradient id="SVGID_00000139269428707569954510000000220115378750026419_" gradientUnits="userSpaceOnUse" x1="82.1508" y1="253.5031" x2="170.9188" y2="5.1179" gradientTransform="matrix(1 0 0 -1 0 264)">
		<stop  offset="0" style="stop-color:#322D37"/>
		<stop  offset="1" style="stop-color:#18151B"/>
	</linearGradient>
	<path style="fill:url(#SVGID_00000139269428707569954510000000220115378750026419_);" d="M0,64c0-22.4,0-33.6,4.4-42.2
		c3.8-7.5,10-13.6,17.5-17.5C30.4,0,41.6,0,64,0h116c22.4,0,33.6,0,42.2,4.4c7.5,3.8,13.6,10,17.5,17.5C244,30.4,244,41.6,244,64
		v116c0,22.4,0,33.6-4.4,42.2c-3.8,7.5-10,13.6-17.5,17.5c-8.6,4.4-19.8,4.4-42.2,4.4H64c-22.4,0-33.6,0-42.2-4.4
		c-7.5-3.8-13.6-10-17.5-17.5C0,213.6,0,202.4,0,180V64z"/>
	<path class="st2" d="M4,64c0-11.3,0-19.5,0.5-25.9c0.5-6.4,1.5-10.8,3.4-14.4c3.5-6.8,9-12.3,15.7-15.7c3.6-1.8,8-2.9,14.4-3.4
		C44.5,4,52.7,4,64,4h116c11.3,0,19.5,0,25.9,0.5c6.4,0.5,10.8,1.5,14.4,3.4c6.8,3.5,12.3,9,15.7,15.7c1.8,3.6,2.9,8,3.4,14.4
		C240,44.5,240,52.7,240,64v116c0,11.3,0,19.5-0.5,25.9c-0.5,6.4-1.5,10.8-3.4,14.4c-3.5,6.8-9,12.3-15.7,15.7
		c-3.6,1.8-8,2.9-14.4,3.4c-6.5,0.5-14.7,0.5-25.9,0.5H64c-11.3,0-19.5,0-25.9-0.5c-6.4-0.5-10.8-1.5-14.4-3.4
		c-6.8-3.5-12.3-9-15.7-15.7c-1.8-3.6-2.9-8-3.4-14.4C4,199.5,4,191.3,4,180V64z"/>
</g>
<linearGradient id="SVGID_00000024724297795099724530000006358290723455518894_" gradientUnits="userSpaceOnUse" x1="168.9575" y1="69.2124" x2="142.8315" y2="115.3504" gradientTransform="matrix(1 0 0 -1 0 264)">
	<stop  offset="0" style="stop-color:#FB7655"/>
	<stop  offset="0.41" style="stop-color:#E42B1E"/>
	<stop  offset="0.99" style="stop-color:#990000"/>
	<stop  offset="1" style="stop-color:#990000"/>
</linearGradient>
<path style="fill-rule:evenodd;clip-rule:evenodd;fill:url(#SVGID_00000024724297795099724530000006358290723455518894_);" d="
	M156.1,141.6l-70.7,42l91.6-6.2L184,85L156.1,141.6z"/>
<linearGradient id="SVGID_00000092424407648168818840000010256068636324989603_" gradientUnits="userSpaceOnUse" x1="181.9799" y1="107.9688" x2="148.3019" y2="130.5688" gradientTransform="matrix(1 0 0 -1 0 264)">
	<stop  offset="0" style="stop-color:#871101"/>
	<stop  offset="0.99" style="stop-color:#911209"/>
	<stop  offset="1" style="stop-color:#911209"/>
</linearGradient>
<path style="fill-rule:evenodd;clip-rule:evenodd;fill:url(#SVGID_00000092424407648168818840000010256068636324989603_);" d="
	M177.1,177.3l-7.9-54.3l-21.4,28.3L177.1,177.3z"/>
<linearGradient id="SVGID_00000137825974799044269880000010834284792653007261_" gradientUnits="userSpaceOnUse" x1="155.0311" y1="67.8156" x2="121.3531" y2="90.4156" gradientTransform="matrix(1 0 0 -1 0 264)">
	<stop  offset="0" style="stop-color:#871101"/>
	<stop  offset="0.99" style="stop-color:#911209"/>
	<stop  offset="1" style="stop-color:#911209"/>
</linearGradient>
<path style="fill-rule:evenodd;clip-rule:evenodd;fill:url(#SVGID_00000137825974799044269880000010834284792653007261_);" d="
	M177.2,177.3l-57.7-4.5l-33.9,10.7L177.2,177.3z"/>
<linearGradient id="SVGID_00000155856953504766092330000006634993535567430328_" gradientUnits="userSpaceOnUse" x1="84.3288" y1="124.3297" x2="89.5488" y2="90.4016" gradientTransform="matrix(1 0 0 -1 0 264)">
	<stop  offset="0" style="stop-color:#FFFFFF"/>
	<stop  offset="0.23" style="stop-color:#E57252"/>
	<stop  offset="0.46" style="stop-color:#DE3B20"/>
	<stop  offset="0.99" style="stop-color:#A60003"/>
	<stop  offset="1" style="stop-color:#A60003"/>
</linearGradient>
<path style="fill-rule:evenodd;clip-rule:evenodd;fill:url(#SVGID_00000155856953504766092330000006634993535567430328_);" d="
	M85.8,183.4l14.4-47.2L68.5,143L85.8,183.4z"/>
<linearGradient id="SVGID_00000020377851309994842800000015774812378164679057_" gradientUnits="userSpaceOnUse" x1="120.2324" y1="156.008" x2="122.1584" y2="121.386" gradientTransform="matrix(1 0 0 -1 0 264)">
	<stop  offset="0" style="stop-color:#FFFFFF"/>
	<stop  offset="0.23" style="stop-color:#E4714E"/>
	<stop  offset="0.56" style="stop-color:#BE1A0D"/>
	<stop  offset="0.99" style="stop-color:#A80D00"/>
	<stop  offset="1" style="stop-color:#A80D00"/>
</linearGradient>
<path style="fill-rule:evenodd;clip-rule:evenodd;fill:url(#SVGID_00000020377851309994842800000015774812378164679057_);" d="
	M147.8,151.4l-13.3-51.9l-37.9,35.6L147.8,151.4z"/>
<linearGradient id="SVGID_00000138555001787146243860000016057197008157630894_" gradientUnits="userSpaceOnUse" x1="152.1014" y1="188.0172" x2="157.8594" y2="163.1978" gradientTransform="matrix(1 0 0 -1 0 264)">
	<stop  offset="0" style="stop-color:#FFFFFF"/>
	<stop  offset="0.18" style="stop-color:#E46342"/>
	<stop  offset="0.4" style="stop-color:#C82410"/>
	<stop  offset="0.99" style="stop-color:#A80D00"/>
	<stop  offset="1" style="stop-color:#A80D00"/>
</linearGradient>
<path style="fill-rule:evenodd;clip-rule:evenodd;fill:url(#SVGID_00000138555001787146243860000016057197008157630894_);" d="
	M181,100.2L145.1,71l-10,32.3L181,100.2z"/>
<linearGradient id="SVGID_00000101813621099181844180000016842472326749954465_" gradientUnits="userSpaceOnUse" x1="134.5181" y1="196.7563" x2="159.332" y2="209.1597" gradientTransform="matrix(1 0 0 -1 0 264)">
	<stop  offset="0" style="stop-color:#FFFFFF"/>
	<stop  offset="0.54" style="stop-color:#C81F11"/>
	<stop  offset="0.99" style="stop-color:#BF0905"/>
	<stop  offset="1" style="stop-color:#BF0905"/>
</linearGradient>
<path style="fill-rule:evenodd;clip-rule:evenodd;fill:url(#SVGID_00000101813621099181844180000016842472326749954465_);" d="
	M164.2,60.5l-21.1,11.7l-13.3-11.8L164.2,60.5z"/>
<linearGradient id="SVGID_00000106140116289296186590000001989937346540462248_" gradientUnits="userSpaceOnUse" x1="62.5713" y1="132.982" x2="64.6156" y2="112.533" gradientTransform="matrix(1 0 0 -1 0 264)">
	<stop  offset="0" style="stop-color:#FFFFFF"/>
	<stop  offset="0.31" style="stop-color:#DE4024"/>
	<stop  offset="0.99" style="stop-color:#BF190B"/>
	<stop  offset="1" style="stop-color:#BF190B"/>
</linearGradient>
<path style="fill-rule:evenodd;clip-rule:evenodd;fill:url(#SVGID_00000106140116289296186590000001989937346540462248_);" d="
	M60.1,158.9l8.8-16.1l-7.1-19.2L60.1,158.9z"/>
<path class="st11" d="M61.3,123l7.2,20.4l31.2-7l35.7-33.1l10.1-32L129.7,60l-26.9,10.1c-8.5,7.9-25,23.5-25.6,23.8
	C76.6,94.2,66.3,113.7,61.3,123z"/>
<linearGradient id="SVGID_00000010294644390868796270000010933121380308428678_" gradientUnits="userSpaceOnUse" x1="48.5283" y1="107.0048" x2="144.5363" y2="205.7254" gradientTransform="matrix(1 0 0 -1 0 264)">
	<stop  offset="0" style="stop-color:#BD0012"/>
	<stop  offset="7.000000e-02" style="stop-color:#FFFFFF"/>
	<stop  offset="0.17" style="stop-color:#FFFFFF"/>
	<stop  offset="0.27" style="stop-color:#C82F1C"/>
	<stop  offset="0.33" style="stop-color:#820C01"/>
	<stop  offset="0.46" style="stop-color:#A31601"/>
	<stop  offset="0.72" style="stop-color:#B31301"/>
	<stop  offset="0.99" style="stop-color:#E82609"/>
	<stop  offset="1" style="stop-color:#E82609"/>
</linearGradient>
<path style="fill-rule:evenodd;clip-rule:evenodd;fill:url(#SVGID_00000010294644390868796270000010933121380308428678_);" d="
	M86.6,86.3c18.4-18.2,42.1-29,51.2-19.8c9.1,9.2-0.6,31.5-18.9,49.7c-18.4,18.2-41.8,29.6-50.9,20.4
	C58.8,127.5,68.2,104.6,86.6,86.3z"/>
<linearGradient id="SVGID_00000070104337042186687750000011849981922169602495_" gradientUnits="userSpaceOnUse" x1="122.0695" y1="97.0498" x2="93.1554" y2="104.1828" gradientTransform="matrix(1 0 0 -1 0 264)">
	<stop  offset="0" style="stop-color:#8C0C01"/>
	<stop  offset="0.54" style="stop-color:#990C00"/>
	<stop  offset="0.99" style="stop-color:#A80D0E"/>
	<stop  offset="1" style="stop-color:#A80D0E"/>
</linearGradient>
<path style="fill-rule:evenodd;clip-rule:evenodd;fill:url(#SVGID_00000070104337042186687750000011849981922169602495_);" d="
	M85.8,183.4l14.3-47.3l47.5,15.2C130.4,167.4,111.3,181,85.8,183.4z"/>
<linearGradient id="SVGID_00000091704205926214303270000005643268848976452502_" gradientUnits="userSpaceOnUse" x1="171.7471" y1="131.7549" x2="146.0521" y2="154.7798" gradientTransform="matrix(1 0 0 -1 0 264)">
	<stop  offset="0" style="stop-color:#7E110B"/>
	<stop  offset="0.99" style="stop-color:#9E0C00"/>
	<stop  offset="1" style="stop-color:#9E0C00"/>
</linearGradient>
<path style="fill-rule:evenodd;clip-rule:evenodd;fill:url(#SVGID_00000091704205926214303270000005643268848976452502_);" d="
	M135.5,103.1l12.2,48.3c14.3-15.1,27.2-31.3,33.5-51.3L135.5,103.1z"/>
<linearGradient id="SVGID_00000012454963719598521990000002256228622956570516_" gradientUnits="userSpaceOnUse" x1="181.1755" y1="173.9996" x2="168.3775" y2="187.6846" gradientTransform="matrix(1 0 0 -1 0 264)">
	<stop  offset="0" style="stop-color:#79130D"/>
	<stop  offset="0.99" style="stop-color:#9E120B"/>
	<stop  offset="1" style="stop-color:#9E120B"/>
</linearGradient>
<path style="fill-rule:evenodd;clip-rule:evenodd;fill:url(#SVGID_00000012454963719598521990000002256228622956570516_);" d="
	M181.1,100.3c4.9-14.7,6-35.8-17-39.7L145.2,71L181.1,100.3z"/>
<path class="st16" d="M60.1,158.6c0.7,24.3,18.2,24.7,25.7,24.9l-17.2-40.3L60.1,158.6z"/>
<radialGradient id="SVGID_00000008849797610769754150000015330367076544418201_" cx="-365.7878" cy="620.7878" r="1" gradientTransform="matrix(31.4837 0 0 -31.4837 11666.4043 19654.3594)" gradientUnits="userSpaceOnUse">
	<stop  offset="0" style="stop-color:#A80D00"/>
	<stop  offset="0.99" style="stop-color:#7E0E08"/>
	<stop  offset="1" style="stop-color:#7E0E08"/>
</radialGradient>
<path style="fill-rule:evenodd;clip-rule:evenodd;fill:url(#SVGID_00000008849797610769754150000015330367076544418201_);" d="
	M135.6,103.2c11,6.8,33.2,20.4,33.7,20.6c0.7,0.4,9.6-15,11.6-23.6L135.6,103.2z"/>
<radialGradient id="SVGID_00000164474533829663395380000005271867644922778026_" cx="-368.5649" cy="623.5649" r="1" gradientTransform="matrix(41.8491 0 0 -41.849 15530.5635 26246.7148)" gradientUnits="userSpaceOnUse">
	<stop  offset="0" style="stop-color:#A30C00"/>
	<stop  offset="0.99" style="stop-color:#800E08"/>
	<stop  offset="1" style="stop-color:#800E08"/>
</radialGradient>
<path style="fill-rule:evenodd;clip-rule:evenodd;fill:url(#SVGID_00000164474533829663395380000005271867644922778026_);" d="
	M100,136.1l19.1,36.9c11.3-6.1,20.1-13.6,28.2-21.6L100,136.1z"/>
<linearGradient id="SVGID_00000049929594934387169310000003380713444620976786_" gradientUnits="userSpaceOnUse" x1="76.8086" y1="80.5992" x2="66.3805" y2="115.9842" gradientTransform="matrix(1 0 0 -1 0 264)">
	<stop  offset="0" style="stop-color:#8B2114"/>
	<stop  offset="0.43" style="stop-color:#9E100A"/>
	<stop  offset="0.99" style="stop-color:#B3100C"/>
	<stop  offset="1" style="stop-color:#B3100C"/>
</linearGradient>
<path style="fill-rule:evenodd;clip-rule:evenodd;fill:url(#SVGID_00000049929594934387169310000003380713444620976786_);" d="
	M68.5,143.3l-2.7,32.2c5.1,7,12.1,7.6,19.5,7C79.9,169.3,69.3,142.8,68.5,143.3z"/>
<linearGradient id="SVGID_00000053525750584881366750000013047667621821161633_" gradientUnits="userSpaceOnUse" x1="156.8097" y1="197.8458" x2="180.1917" y2="187.5242" gradientTransform="matrix(1 0 0 -1 0 264)">
	<stop  offset="0" style="stop-color:#B31000"/>
	<stop  offset="0.44" style="stop-color:#910F08"/>
	<stop  offset="0.99" style="stop-color:#791C12"/>
	<stop  offset="1" style="stop-color:#791C12"/>
</linearGradient>
<path style="fill-rule:evenodd;clip-rule:evenodd;fill:url(#SVGID_00000053525750584881366750000013047667621821161633_);" d="
	M145.1,71l38,5.3c-2-8.6-8.2-14.1-18.8-15.9L145.1,71z"/>
</svg>
