<?xml version="1.0" encoding="utf-8"?>
<!-- Generator: Adobe Illustrator 26.3.1, SVG Export Plug-In . SVG Version: 6.00 Build 0)  -->
<svg version="1.1" id="Layer_1" xmlns="http://www.w3.org/2000/svg" xmlns:xlink="http://www.w3.org/1999/xlink" x="0px" y="0px"
	 viewBox="0 0 244 244" style="enable-background:new 0 0 244 244;" xml:space="preserve">
<style type="text/css">
	.st0{fill:url(#SVGID_1_);}
	.st1{fill:none;stroke:url(#SVGID_00000075861623907167927250000016451905932909512380_);stroke-width:8;stroke-opacity:0.5;}
	.st2{fill-rule:evenodd;clip-rule:evenodd;fill:url(#SVGID_00000166670146537101735900000000617433039625988739_);}
	.st3{fill-rule:evenodd;clip-rule:evenodd;fill:url(#SVGID_00000058557891056752416850000002284422793611913654_);}
</style>
<g>
	
		<linearGradient id="SVGID_1_" gradientUnits="userSpaceOnUse" x1="82.1508" y1="253.5031" x2="170.9188" y2="5.1179" gradientTransform="matrix(1 0 0 -1 0 264)">
		<stop  offset="0" style="stop-color:#322D37"/>
		<stop  offset="1" style="stop-color:#18151B"/>
	</linearGradient>
	<path class="st0" d="M0,64c0-22.4,0-33.6,4.4-42.2c3.8-7.5,10-13.6,17.5-17.5C30.4,0,41.6,0,64,0h116c22.4,0,33.6,0,42.2,4.4
		c7.5,3.8,13.6,10,17.5,17.5C244,30.4,244,41.6,244,64v116c0,22.4,0,33.6-4.4,42.2c-3.8,7.5-10,13.6-17.5,17.5
		c-8.6,4.4-19.8,4.4-42.2,4.4H64c-22.4,0-33.6,0-42.2-4.4c-7.5-3.8-13.6-10-17.5-17.5C0,213.6,0,202.4,0,180V64z"/>
	
		<linearGradient id="SVGID_00000114033803432609972450000005376804142610863256_" gradientUnits="userSpaceOnUse" x1="83.0467" y1="254.9274" x2="166.3887" y2="13.3153" gradientTransform="matrix(1 0 0 -1 0 264)">
		<stop  offset="0" style="stop-color:#F3F3F3"/>
		<stop  offset="1" style="stop-color:#8F8F95"/>
	</linearGradient>
	
		<path style="fill:none;stroke:url(#SVGID_00000114033803432609972450000005376804142610863256_);stroke-width:8;stroke-opacity:0.5;" d="
		M240,64v116c0,11.3,0,19.5-0.5,25.9c-0.5,6.4-1.5,10.8-3.4,14.4c-3.5,6.8-9,12.3-15.7,15.7c-3.6,1.8-8,2.9-14.4,3.4
		c-6.5,0.5-14.7,0.5-25.9,0.5H64c-11.3,0-19.5,0-25.9-0.5c-6.4-0.5-10.8-1.5-14.4-3.4c-6.8-3.5-12.3-9-15.7-15.7
		c-1.8-3.6-2.9-8-3.4-14.4C4,199.5,4,191.3,4,180V64c0-11.3,0-19.5,0.5-25.9c0.5-6.4,1.5-10.8,3.4-14.4c3.5-6.8,9-12.3,15.7-15.7
		c3.6-1.8,8-2.9,14.4-3.4C44.5,4,52.7,4,64,4h116c11.3,0,19.5,0,25.9,0.5c6.4,0.5,10.8,1.5,14.4,3.4c6.8,3.5,12.3,9,15.7,15.7
		c1.8,3.6,2.9,8,3.4,14.4C240,44.5,240,52.7,240,64z"/>
</g>
<linearGradient id="SVGID_00000131350697082977488680000001440495070265979014_" gradientUnits="userSpaceOnUse" x1="100.2682" y1="204.0551" x2="145.6961" y2="72.357" gradientTransform="matrix(1 0 0 -1 0 264)">
	<stop  offset="0" style="stop-color:#4C4C4C"/>
	<stop  offset="1" style="stop-color:#1B1B1F"/>
</linearGradient>
<path style="fill-rule:evenodd;clip-rule:evenodd;fill:url(#SVGID_00000131350697082977488680000001440495070265979014_);" d="
	M164.8,105.1c0.9-2,3.2-2.9,5.2-2c2,0.9,2.9,3.2,2,5.2c-0.9,2-3.2,2.9-5.2,2C164.8,109.4,163.9,107.1,164.8,105.1z M118.6,67.9
	c1.6-1.5,4.1-1.5,5.6,0.1c1.5,1.6,1.5,4.1-0.1,5.6c-1.6,1.5-4.1,1.5-5.6-0.1C116.9,71.9,117,69.4,118.6,67.9z M170.1,121.1
	c0,1.2,0,2.4-0.1,3.6h-5c-0.5,0-0.7,0.3-0.7,0.8v2.3c0,5.4-3,6.6-5.7,6.9c-2.5,0.3-5.3-1.1-5.7-2.6c-1.5-8.4-4-10.2-7.9-13.3
	c4.9-3.1,10-7.7,10-13.8c0-6.6-4.5-10.8-7.6-12.8c-4.3-2.9-9.1-3.4-10.4-3.4H85.3c7-7.8,16.5-13.3,27.2-15.3l6.1,6.4
	c1.4,1.4,3.6,1.5,5.1,0.1l6.8-6.5c14.3,2.7,26.3,11.5,33.3,23.7l-4.7,10.5c-0.8,1.8,0,3.9,1.8,4.8l9,4
	C170.1,117.8,170.1,119.4,170.1,121.1z M110.5,112.8v-9.2h16.4c0.8,0,6,1,6,4.8c0,3.2-3.9,4.3-7.2,4.3L110.5,112.8L110.5,112.8z
	 M73.2,115.8l8.5-3.8c1.8-0.8,2.6-2.9,1.8-4.8l-1.8-4h6.9v31.1H74.7c-1.2-4.2-1.9-8.7-1.9-13.3C72.9,119.3,73,117.6,73.2,115.8z
	 M77.8,104.9c0.9,2,0,4.3-2,5.2c-2,0.9-4.3,0-5.2-2c-0.9-2,0-4.3,2-5.2C74.6,102,76.9,102.9,77.8,104.9z M92.9,166
	c-2.1,0.5-4.2-0.9-4.7-3c-0.5-2.1,0.9-4.2,3-4.7c2.1-0.5,4.2,0.9,4.7,3C96.3,163.4,95,165.5,92.9,166z M147.8,153.3
	c-1.9-0.4-3.9,0.8-4.3,2.8l-2,9.3c-6.1,2.8-12.9,4.3-20.1,4.3s-14.3-1.6-20.5-4.5l-2-9.3c-0.4-1.9-2.3-3.2-4.3-2.8l-8.2,1.8
	c-1.5-1.6-2.9-3.2-4.2-5h39.7c0.5,0,0.7-0.1,0.7-0.5v-14.1c0-0.4-0.3-0.5-0.7-0.5h-11.6V126h12.6c1.1,0,6.1,0.3,7.7,6.7
	c0.5,2,1.6,8.3,2.3,10.4c0.7,2.3,3.8,6.9,7,6.9H160c0.2,0,0.5,0,0.7-0.1c-1.4,1.9-2.9,3.6-4.5,5.3L147.8,153.3z M149.7,166.2
	c-2.1-0.5-3.5-2.6-3-4.7s2.6-3.5,4.7-3c2.1,0.5,3.5,2.6,3,4.7C154,165.3,151.9,166.6,149.7,166.2z M187.1,119.9l-5.6-3.5
	c0-0.5-0.1-1.1-0.2-1.6l4.8-4.5c0.5-0.5,0.7-1.1,0.6-1.8c-0.1-0.6-0.6-1.2-1.2-1.4l-6.1-2.3c-0.2-0.5-0.3-1.1-0.5-1.6l3.8-5.3
	c0.4-0.5,0.5-1.2,0.2-1.9c-0.2-0.6-0.8-1-1.5-1.2l-6.5-1.1c-0.2-0.5-0.5-1-0.8-1.4l2.7-6c0.3-0.6,0.2-1.3-0.2-1.9
	c-0.4-0.6-1-0.9-1.7-0.9l-6.6,0.2c-0.3-0.4-0.7-0.8-1-1.3l1.5-6.4c0.2-0.6,0-1.3-0.5-1.8c-0.5-0.5-1.1-0.7-1.8-0.5l-6.4,1.5
	c-0.4-0.3-0.8-0.7-1.3-1l0.2-6.6c0-0.7-0.3-1.3-0.9-1.7c-0.6-0.4-1.3-0.4-1.9-0.2l-6,2.7c-0.5-0.3-1-0.5-1.5-0.8l-1.1-6.5
	c-0.1-0.7-0.5-1.2-1.2-1.5c-0.6-0.3-1.3-0.2-1.9,0.2l-5.3,3.8c-0.5-0.2-1.1-0.3-1.6-0.5l-2.3-6.2c-0.2-0.6-0.8-1.1-1.4-1.2
	c-0.6-0.1-1.3,0.1-1.8,0.6l-4.5,4.8c-0.5-0.1-1.1-0.1-1.6-0.2l-3.5-5.6c-0.3-0.6-1-0.9-1.6-0.9c-0.7,0-1.3,0.3-1.6,0.9l-3.5,5.6
	c-0.5,0-1.1,0.1-1.6,0.2l-4.5-4.8c-0.5-0.5-1.1-0.7-1.8-0.6c-0.6,0.1-1.2,0.6-1.4,1.2l-2.3,6.1c-0.5,0.2-1.1,0.3-1.6,0.5l-5.3-3.8
	c-0.5-0.4-1.2-0.5-1.9-0.2c-0.6,0.2-1,0.8-1.2,1.5L93.8,68c-0.5,0.2-1,0.5-1.5,0.8l-6-2.7c-0.6-0.3-1.3-0.2-1.9,0.2
	c-0.6,0.4-0.9,1-0.9,1.7l0.2,6.6c-0.4,0.3-0.8,0.7-1.3,1L76.3,74c-0.6-0.2-1.3,0-1.8,0.5C74,75,73.8,75.6,74,76.3l1.5,6.4
	c-0.3,0.4-0.7,0.8-1,1.3l-6.6-0.2c-0.7,0-1.3,0.3-1.7,0.9c-0.4,0.6-0.4,1.3-0.2,1.9l2.7,6c-0.3,0.5-0.5,1-0.8,1.5l-6.5,1
	c-0.7,0.1-1.2,0.5-1.5,1.2c-0.2,0.6-0.2,1.3,0.2,1.9l3.8,5.3c-0.2,0.5-0.3,1.1-0.5,1.6l-6.1,2.3c-0.6,0.2-1.1,0.8-1.2,1.4
	c-0.1,0.6,0.1,1.3,0.6,1.8l4.8,4.5c-0.1,0.5-0.1,1.1-0.2,1.6l-5.6,3.5c-0.6,0.4-0.9,1-0.9,1.6s0.3,1.3,0.9,1.6l5.6,3.5
	c0,0.5,0.1,1.1,0.2,1.6l-4.8,4.5c-0.5,0.5-0.7,1.1-0.6,1.8c0.1,0.6,0.6,1.2,1.2,1.4l6.1,2.3c0.2,0.5,0.3,1.1,0.5,1.6l-3.8,5.3
	c-0.4,0.5-0.5,1.2-0.2,1.9c0.3,0.6,0.8,1.1,1.5,1.2l6.5,1.1c0.2,0.5,0.5,1,0.8,1.5l-2.7,6c-0.3,0.6-0.2,1.3,0.2,1.9
	c0.4,0.6,1,0.9,1.7,0.9l6.6-0.2c0.3,0.4,0.7,0.8,1,1.3l-1.5,6.4c-0.2,0.6,0,1.3,0.5,1.8c0.5,0.5,1.1,0.7,1.8,0.5l6.4-1.5
	c0.4,0.4,0.8,0.7,1.3,1l-0.2,6.6c0,0.7,0.3,1.3,0.9,1.7c0.6,0.4,1.3,0.4,1.9,0.2l6-2.7c0.5,0.3,1,0.5,1.4,0.8l1.1,6.5
	c0.1,0.7,0.5,1.2,1.2,1.5c0.6,0.3,1.3,0.2,1.9-0.2l5.3-3.8c0.5,0.2,1,0.3,1.6,0.5l2.3,6.1c0.2,0.6,0.8,1.1,1.4,1.2
	c0.6,0.1,1.3-0.1,1.8-0.6l4.5-4.8c0.5,0.1,1.1,0.1,1.6,0.2l3.5,5.6c0.3,0.6,1,0.9,1.6,0.9c0.7,0,1.3-0.3,1.6-0.9l3.5-5.6
	c0.5,0,1.1-0.1,1.6-0.2l4.5,4.8c0.5,0.5,1.1,0.7,1.8,0.6c0.6-0.1,1.2-0.6,1.4-1.2l2.3-6.1c0.5-0.2,1.1-0.3,1.6-0.5l5.3,3.8
	c0.5,0.4,1.2,0.5,1.9,0.2c0.6-0.2,1.1-0.8,1.2-1.5l1.1-6.5c0.5-0.2,1-0.5,1.5-0.8l6,2.7c0.6,0.3,1.3,0.2,1.9-0.2
	c0.6-0.4,0.9-1,0.9-1.7l-0.2-6.6c0.4-0.3,0.8-0.7,1.3-1l6.4,1.5c0.7,0.2,1.3,0,1.8-0.5c0.5-0.5,0.7-1.1,0.5-1.8l-1.5-6.4
	c0.3-0.4,0.7-0.8,1-1.3l6.6,0.2c0.7,0,1.3-0.3,1.7-0.9c0.4-0.6,0.4-1.3,0.2-1.9l-2.7-6c0.3-0.5,0.5-1,0.8-1.5l6.5-1
	c0.7-0.1,1.2-0.5,1.5-1.2c0.3-0.6,0.2-1.3-0.2-1.9l-3.8-5.3c0.2-0.5,0.3-1.1,0.5-1.6l6.1-2.3c0.6-0.2,1.1-0.8,1.2-1.4
	c0.1-0.6-0.1-1.3-0.6-1.8l-4.8-4.5c0.1-0.5,0.1-1.1,0.2-1.6l5.6-3.5c0.6-0.3,0.9-1,0.9-1.6S187.7,120.2,187.1,119.9z"/>
<linearGradient id="SVGID_00000101804108888834035360000014602309561747299465_" gradientUnits="userSpaceOnUse" x1="100.2682" y1="204.0551" x2="145.6961" y2="72.357" gradientTransform="matrix(1 0 0 -1 0 264)">
	<stop  offset="0" style="stop-color:#F3F3F3"/>
	<stop  offset="1" style="stop-color:#8F8F95"/>
</linearGradient>
<path style="fill-rule:evenodd;clip-rule:evenodd;fill:url(#SVGID_00000101804108888834035360000014602309561747299465_);" d="
	M164.8,105.1c0.9-2,3.2-2.9,5.2-2c2,0.9,2.9,3.2,2,5.2c-0.9,2-3.2,2.9-5.2,2C164.8,109.4,163.9,107.1,164.8,105.1z M118.6,67.9
	c1.6-1.5,4.1-1.5,5.6,0.1c1.5,1.6,1.5,4.1-0.1,5.6c-1.6,1.5-4.1,1.5-5.6-0.1C116.9,71.9,117,69.4,118.6,67.9z M170.1,121.1
	c0,1.2,0,2.4-0.1,3.6h-5c-0.5,0-0.7,0.3-0.7,0.8v2.3c0,5.4-3,6.6-5.7,6.9c-2.5,0.3-5.3-1.1-5.7-2.6c-1.5-8.4-4-10.2-7.9-13.3
	c4.9-3.1,10-7.7,10-13.8c0-6.6-4.5-10.8-7.6-12.8c-4.3-2.9-9.1-3.4-10.4-3.4H85.3c7-7.8,16.5-13.3,27.2-15.3l6.1,6.4
	c1.4,1.4,3.6,1.5,5.1,0.1l6.8-6.5c14.3,2.7,26.3,11.5,33.3,23.7l-4.7,10.5c-0.8,1.8,0,3.9,1.8,4.8l9,4
	C170.1,117.8,170.1,119.4,170.1,121.1z M110.5,112.8v-9.2h16.4c0.8,0,6,1,6,4.8c0,3.2-3.9,4.3-7.2,4.3L110.5,112.8L110.5,112.8z
	 M73.2,115.8l8.5-3.8c1.8-0.8,2.6-2.9,1.8-4.8l-1.8-4h6.9v31.1H74.7c-1.2-4.2-1.9-8.7-1.9-13.3C72.9,119.3,73,117.6,73.2,115.8z
	 M77.8,104.9c0.9,2,0,4.3-2,5.2c-2,0.9-4.3,0-5.2-2c-0.9-2,0-4.3,2-5.2C74.6,102,76.9,102.9,77.8,104.9z M92.9,166
	c-2.1,0.5-4.2-0.9-4.7-3c-0.5-2.1,0.9-4.2,3-4.7c2.1-0.5,4.2,0.9,4.7,3C96.3,163.4,95,165.5,92.9,166z M147.8,153.3
	c-1.9-0.4-3.9,0.8-4.3,2.8l-2,9.3c-6.1,2.8-12.9,4.3-20.1,4.3s-14.3-1.6-20.5-4.5l-2-9.3c-0.4-1.9-2.3-3.2-4.3-2.8l-8.2,1.8
	c-1.5-1.6-2.9-3.2-4.2-5h39.7c0.5,0,0.7-0.1,0.7-0.5v-14.1c0-0.4-0.3-0.5-0.7-0.5h-11.6V126h12.6c1.1,0,6.1,0.3,7.7,6.7
	c0.5,2,1.6,8.3,2.3,10.4c0.7,2.3,3.8,6.9,7,6.9H160c0.2,0,0.5,0,0.7-0.1c-1.4,1.9-2.9,3.6-4.5,5.3L147.8,153.3z M149.7,166.2
	c-2.1-0.5-3.5-2.6-3-4.7s2.6-3.5,4.7-3c2.1,0.5,3.5,2.6,3,4.7C154,165.3,151.9,166.6,149.7,166.2z M187.1,119.9l-5.6-3.5
	c0-0.5-0.1-1.1-0.2-1.6l4.8-4.5c0.5-0.5,0.7-1.1,0.6-1.8c-0.1-0.6-0.6-1.2-1.2-1.4l-6.1-2.3c-0.2-0.5-0.3-1.1-0.5-1.6l3.8-5.3
	c0.4-0.5,0.5-1.2,0.2-1.9c-0.2-0.6-0.8-1-1.5-1.2l-6.5-1.1c-0.2-0.5-0.5-1-0.8-1.4l2.7-6c0.3-0.6,0.2-1.3-0.2-1.9
	c-0.4-0.6-1-0.9-1.7-0.9l-6.6,0.2c-0.3-0.4-0.7-0.8-1-1.3l1.5-6.4c0.2-0.6,0-1.3-0.5-1.8c-0.5-0.5-1.1-0.7-1.8-0.5l-6.4,1.5
	c-0.4-0.3-0.8-0.7-1.3-1l0.2-6.6c0-0.7-0.3-1.3-0.9-1.7c-0.6-0.4-1.3-0.4-1.9-0.2l-6,2.7c-0.5-0.3-1-0.5-1.5-0.8l-1.1-6.5
	c-0.1-0.7-0.5-1.2-1.2-1.5c-0.6-0.3-1.3-0.2-1.9,0.2l-5.3,3.8c-0.5-0.2-1.1-0.3-1.6-0.5l-2.3-6.2c-0.2-0.6-0.8-1.1-1.4-1.2
	c-0.6-0.1-1.3,0.1-1.8,0.6l-4.5,4.8c-0.5-0.1-1.1-0.1-1.6-0.2l-3.5-5.6c-0.3-0.6-1-0.9-1.6-0.9c-0.7,0-1.3,0.3-1.6,0.9l-3.5,5.6
	c-0.5,0-1.1,0.1-1.6,0.2l-4.5-4.8c-0.5-0.5-1.1-0.7-1.8-0.6c-0.6,0.1-1.2,0.6-1.4,1.2l-2.3,6.1c-0.5,0.2-1.1,0.3-1.6,0.5l-5.3-3.8
	c-0.5-0.4-1.2-0.5-1.9-0.2c-0.6,0.2-1,0.8-1.2,1.5L93.8,68c-0.5,0.2-1,0.5-1.5,0.8l-6-2.7c-0.6-0.3-1.3-0.2-1.9,0.2
	c-0.6,0.4-0.9,1-0.9,1.7l0.2,6.6c-0.4,0.3-0.8,0.7-1.3,1L76.3,74c-0.6-0.2-1.3,0-1.8,0.5C74,75,73.8,75.6,74,76.3l1.5,6.4
	c-0.3,0.4-0.7,0.8-1,1.3l-6.6-0.2c-0.7,0-1.3,0.3-1.7,0.9c-0.4,0.6-0.4,1.3-0.2,1.9l2.7,6c-0.3,0.5-0.5,1-0.8,1.5l-6.5,1
	c-0.7,0.1-1.2,0.5-1.5,1.2c-0.2,0.6-0.2,1.3,0.2,1.9l3.8,5.3c-0.2,0.5-0.3,1.1-0.5,1.6l-6.1,2.3c-0.6,0.2-1.1,0.8-1.2,1.4
	c-0.1,0.6,0.1,1.3,0.6,1.8l4.8,4.5c-0.1,0.5-0.1,1.1-0.2,1.6l-5.6,3.5c-0.6,0.4-0.9,1-0.9,1.6s0.3,1.3,0.9,1.6l5.6,3.5
	c0,0.5,0.1,1.1,0.2,1.6l-4.8,4.5c-0.5,0.5-0.7,1.1-0.6,1.8c0.1,0.6,0.6,1.2,1.2,1.4l6.1,2.3c0.2,0.5,0.3,1.1,0.5,1.6l-3.8,5.3
	c-0.4,0.5-0.5,1.2-0.2,1.9c0.3,0.6,0.8,1.1,1.5,1.2l6.5,1.1c0.2,0.5,0.5,1,0.8,1.5l-2.7,6c-0.3,0.6-0.2,1.3,0.2,1.9
	c0.4,0.6,1,0.9,1.7,0.9l6.6-0.2c0.3,0.4,0.7,0.8,1,1.3l-1.5,6.4c-0.2,0.6,0,1.3,0.5,1.8c0.5,0.5,1.1,0.7,1.8,0.5l6.4-1.5
	c0.4,0.4,0.8,0.7,1.3,1l-0.2,6.6c0,0.7,0.3,1.3,0.9,1.7c0.6,0.4,1.3,0.4,1.9,0.2l6-2.7c0.5,0.3,1,0.5,1.4,0.8l1.1,6.5
	c0.1,0.7,0.5,1.2,1.2,1.5c0.6,0.3,1.3,0.2,1.9-0.2l5.3-3.8c0.5,0.2,1,0.3,1.6,0.5l2.3,6.1c0.2,0.6,0.8,1.1,1.4,1.2
	c0.6,0.1,1.3-0.1,1.8-0.6l4.5-4.8c0.5,0.1,1.1,0.1,1.6,0.2l3.5,5.6c0.3,0.6,1,0.9,1.6,0.9c0.7,0,1.3-0.3,1.6-0.9l3.5-5.6
	c0.5,0,1.1-0.1,1.6-0.2l4.5,4.8c0.5,0.5,1.1,0.7,1.8,0.6c0.6-0.1,1.2-0.6,1.4-1.2l2.3-6.1c0.5-0.2,1.1-0.3,1.6-0.5l5.3,3.8
	c0.5,0.4,1.2,0.5,1.9,0.2c0.6-0.2,1.1-0.8,1.2-1.5l1.1-6.5c0.5-0.2,1-0.5,1.5-0.8l6,2.7c0.6,0.3,1.3,0.2,1.9-0.2
	c0.6-0.4,0.9-1,0.9-1.7l-0.2-6.6c0.4-0.3,0.8-0.7,1.3-1l6.4,1.5c0.7,0.2,1.3,0,1.8-0.5c0.5-0.5,0.7-1.1,0.5-1.8l-1.5-6.4
	c0.3-0.4,0.7-0.8,1-1.3l6.6,0.2c0.7,0,1.3-0.3,1.7-0.9c0.4-0.6,0.4-1.3,0.2-1.9l-2.7-6c0.3-0.5,0.5-1,0.8-1.5l6.5-1
	c0.7-0.1,1.2-0.5,1.5-1.2c0.3-0.6,0.2-1.3-0.2-1.9l-3.8-5.3c0.2-0.5,0.3-1.1,0.5-1.6l6.1-2.3c0.6-0.2,1.1-0.8,1.2-1.4
	c0.1-0.6-0.1-1.3-0.6-1.8l-4.8-4.5c0.1-0.5,0.1-1.1,0.2-1.6l5.6-3.5c0.6-0.3,0.9-1,0.9-1.6S187.7,120.2,187.1,119.9z"/>
</svg>
