<?xml version="1.0" encoding="utf-8"?>
<!-- Generator: Adobe Illustrator 26.3.1, SVG Export Plug-In . SVG Version: 6.00 Build 0)  -->
<svg version="1.1" id="Layer_1" xmlns="http://www.w3.org/2000/svg" xmlns:xlink="http://www.w3.org/1999/xlink" x="0px" y="0px"
	 viewBox="0 0 244 244" style="enable-background:new 0 0 244 244;" xml:space="preserve">
<style type="text/css">
	.st0{fill:url(#SVGID_1_);}
	.st1{fill:url(#SVGID_00000075126362375809083050000002083911855439263908_);}
	.st2{fill:none;stroke:#F05138;stroke-width:8;stroke-opacity:0.5;}
	.st3{fill:#F05138;}
	.st4{fill:#FFFFFF;}
</style>
<g>
	
		<linearGradient id="SVGID_1_" gradientUnits="userSpaceOnUse" x1="87.4594" y1="246.5483" x2="164.2744" y2="14.0418" gradientTransform="matrix(1 0 0 -1 0 264)">
		<stop  offset="0" style="stop-color:#FFFFFF"/>
		<stop  offset="1" style="stop-color:#D7D7D7"/>
	</linearGradient>
	<path class="st0" d="M0,64c0-22.4,0-33.6,4.4-42.2c3.8-7.5,10-13.6,17.5-17.5C30.4,0,41.6,0,64,0h116c22.4,0,33.6,0,42.2,4.4
		c7.5,3.8,13.6,10,17.5,17.5C244,30.4,244,41.6,244,64v116c0,22.4,0,33.6-4.4,42.2c-3.8,7.5-10,13.6-17.5,17.5
		c-8.6,4.4-19.8,4.4-42.2,4.4H64c-22.4,0-33.6,0-42.2-4.4c-7.5-3.8-13.6-10-17.5-17.5C0,213.6,0,202.4,0,180V64z"/>
	
		<linearGradient id="SVGID_00000171692655604753506110000007491613866804132537_" gradientUnits="userSpaceOnUse" x1="82.1508" y1="253.5031" x2="170.9188" y2="5.1179" gradientTransform="matrix(1 0 0 -1 0 264)">
		<stop  offset="0" style="stop-color:#322D37"/>
		<stop  offset="1" style="stop-color:#18151B"/>
	</linearGradient>
	<path style="fill:url(#SVGID_00000171692655604753506110000007491613866804132537_);" d="M0,64c0-22.4,0-33.6,4.4-42.2
		c3.8-7.5,10-13.6,17.5-17.5C30.4,0,41.6,0,64,0h116c22.4,0,33.6,0,42.2,4.4c7.5,3.8,13.6,10,17.5,17.5C244,30.4,244,41.6,244,64
		v116c0,22.4,0,33.6-4.4,42.2c-3.8,7.5-10,13.6-17.5,17.5c-8.6,4.4-19.8,4.4-42.2,4.4H64c-22.4,0-33.6,0-42.2-4.4
		c-7.5-3.8-13.6-10-17.5-17.5C0,213.6,0,202.4,0,180V64z"/>
	<path class="st2" d="M4,64c0-11.3,0-19.5,0.5-25.9c0.5-6.4,1.5-10.8,3.4-14.4c3.5-6.8,9-12.3,15.7-15.7c3.6-1.8,8-2.9,14.4-3.4
		C44.5,4,52.7,4,64,4h116c11.3,0,19.5,0,25.9,0.5c6.4,0.5,10.8,1.5,14.4,3.4c6.8,3.5,12.3,9,15.7,15.7c1.8,3.6,2.9,8,3.4,14.4
		C240,44.5,240,52.7,240,64v116c0,11.3,0,19.5-0.5,25.9c-0.5,6.4-1.5,10.8-3.4,14.4c-3.5,6.8-9,12.3-15.7,15.7
		c-3.6,1.8-8,2.9-14.4,3.4c-6.5,0.5-14.7,0.5-25.9,0.5H64c-11.3,0-19.5,0-25.9-0.5c-6.4-0.5-10.8-1.5-14.4-3.4
		c-6.8-3.5-12.3-9-15.7-15.7c-1.8-3.6-2.9-8-3.4-14.4C4,199.5,4,191.3,4,180V64z"/>
</g>
<path class="st3" d="M182,94.8c0-1.2,0-2.4-0.1-3.6c-0.1-2.6-0.2-5.3-0.7-7.9c-0.5-2.7-1.3-5.1-2.5-7.5c-1.2-2.4-2.8-4.5-4.7-6.4
	c-1.9-1.9-4-3.5-6.4-4.7c-2.4-1.2-4.9-2-7.5-2.5c-2.6-0.5-5.3-0.6-7.9-0.7c-1.2,0-2.4,0-3.6-0.1c-1.4,0-2.9,0-4.3,0H99.1
	c-1.4,0-2.9,0-4.3,0c-1.2,0-2.4,0-3.6,0.1c-0.7,0-1.3,0-2,0.1c-2,0.1-4,0.3-5.9,0.6c-2,0.4-3.9,0.9-5.7,1.6
	c-0.6,0.2-1.2,0.5-1.8,0.8c-1.8,0.9-3.4,2-5,3.3c-0.5,0.4-1,0.9-1.5,1.4c-1.9,1.9-3.5,4-4.7,6.4c-1.2,2.4-2,4.9-2.5,7.5
	c-0.5,2.6-0.6,5.3-0.7,7.9c0,1.2,0,2.4-0.1,3.6c0,1.4,0,2.8,0,4.3v45.1c0,1.4,0,2.9,0,4.3c0,1.2,0,2.4,0.1,3.6
	c0.1,2.6,0.2,5.3,0.7,7.9c0.5,2.7,1.3,5.1,2.5,7.5c1.2,2.4,2.8,4.5,4.7,6.4c1.9,1.9,4,3.5,6.4,4.7c2.4,1.2,4.9,2,7.5,2.5
	c2.6,0.5,5.3,0.6,7.9,0.7c1.2,0,2.4,0,3.6,0.1c1.4,0,2.9,0,4.3,0h45.1c1.4,0,2.9,0,4.3,0c1.2,0,2.4,0,3.6-0.1
	c2.6-0.1,5.3-0.2,7.9-0.7c2.7-0.5,5.1-1.3,7.5-2.5c2.4-1.2,4.5-2.8,6.4-4.7c1.9-1.9,3.5-4,4.7-6.4c1.2-2.4,2-4.9,2.5-7.5
	c0.5-2.6,0.6-5.3,0.7-7.9c0-1.2,0-2.4,0.1-3.6c0-1.4,0-2.9,0-4.3V99.1C182,97.7,182,96.2,182,94.8L182,94.8z"/>
<path class="st4" d="M157,135.8c0.1-0.4,0.3-0.9,0.4-1.4c5-19.9-7.2-43.5-27.9-55.9c9.1,12.3,13.1,27.2,9.5,40.2
	c-0.3,1.2-0.7,2.3-1.1,3.4c-0.5-0.3-1-0.7-1.8-1.1c0,0-20.6-12.7-42.8-35.2c-0.6-0.6,11.9,17.8,26,32.8c-6.7-3.7-25.2-17.3-37-28
	c1.4,2.4,3.2,4.7,5.1,7c9.8,12.4,22.6,27.8,38,39.6c-10.8,6.6-26,7.1-41.2,0c-3.8-1.8-7.3-3.9-10.5-6.3
	c6.4,10.3,16.3,19.1,28.3,24.3c14.4,6.2,28.6,5.7,39.3,0.1c0,0,0.1-0.1,0.2-0.1c0.4-0.2,0.9-0.5,1.3-0.7c5.1-2.7,15.2-5.3,20.6,5.2
	C164.5,162.3,167.3,148.6,157,135.8L157,135.8z"/>
</svg>
