<?xml version="1.0" encoding="utf-8"?>
<!-- Generator: Adobe Illustrator 26.3.1, SVG Export Plug-In . SVG Version: 6.00 Build 0)  -->
<svg version="1.1" id="Layer_1" xmlns="http://www.w3.org/2000/svg" xmlns:xlink="http://www.w3.org/1999/xlink" x="0px" y="0px"
	 viewBox="0 0 244 244" style="enable-background:new 0 0 244 244;" xml:space="preserve">
<style type="text/css">
	.st0{fill:url(#SVGID_1_);}
	.st1{fill:url(#SVGID_00000123407510436767095470000000672308941912086417_);}
	.st2{fill:none;stroke:#654FF0;stroke-width:8;stroke-opacity:0.5;}
	.st3{clip-path:url(#SVGID_00000070088671350745554210000002799033842360580010_);}
	.st4{fill:#654FF0;}
	.st5{fill:#FFFFFF;}
</style>
<g>
	
		<linearGradient id="SVGID_1_" gradientUnits="userSpaceOnUse" x1="87.4594" y1="246.5483" x2="164.2744" y2="14.0418" gradientTransform="matrix(1 0 0 -1 0 264)">
		<stop  offset="0" style="stop-color:#FFFFFF"/>
		<stop  offset="1" style="stop-color:#D7D7D7"/>
	</linearGradient>
	<path class="st0" d="M0,64c0-22.4,0-33.6,4.4-42.2c3.8-7.5,10-13.6,17.5-17.5C30.4,0,41.6,0,64,0h116c22.4,0,33.6,0,42.2,4.4
		c7.5,3.8,13.6,10,17.5,17.5C244,30.4,244,41.6,244,64v116c0,22.4,0,33.6-4.4,42.2c-3.8,7.5-10,13.6-17.5,17.5
		c-8.6,4.4-19.8,4.4-42.2,4.4H64c-22.4,0-33.6,0-42.2-4.4c-7.5-3.8-13.6-10-17.5-17.5C0,213.6,0,202.4,0,180V64z"/>
	
		<linearGradient id="SVGID_00000127020622919269479190000018348522255040119729_" gradientUnits="userSpaceOnUse" x1="82.1508" y1="253.5031" x2="170.9188" y2="5.1179" gradientTransform="matrix(1 0 0 -1 0 264)">
		<stop  offset="0" style="stop-color:#322D37"/>
		<stop  offset="1" style="stop-color:#18151B"/>
	</linearGradient>
	<path style="fill:url(#SVGID_00000127020622919269479190000018348522255040119729_);" d="M0,64c0-22.4,0-33.6,4.4-42.2
		c3.8-7.5,10-13.6,17.5-17.5C30.4,0,41.6,0,64,0h116c22.4,0,33.6,0,42.2,4.4c7.5,3.8,13.6,10,17.5,17.5C244,30.4,244,41.6,244,64
		v116c0,22.4,0,33.6-4.4,42.2c-3.8,7.5-10,13.6-17.5,17.5c-8.6,4.4-19.8,4.4-42.2,4.4H64c-22.4,0-33.6,0-42.2-4.4
		c-7.5-3.8-13.6-10-17.5-17.5C0,213.6,0,202.4,0,180V64z"/>
	<path class="st2" d="M4,64c0-11.3,0-19.5,0.5-25.9c0.5-6.4,1.5-10.8,3.4-14.4c3.5-6.8,9-12.3,15.7-15.7c3.6-1.8,8-2.9,14.4-3.4
		C44.5,4,52.7,4,64,4h116c11.3,0,19.5,0,25.9,0.5c6.4,0.5,10.8,1.5,14.4,3.4c6.8,3.5,12.3,9,15.7,15.7c1.8,3.6,2.9,8,3.4,14.4
		C240,44.5,240,52.7,240,64v116c0,11.3,0,19.5-0.5,25.9c-0.5,6.4-1.5,10.8-3.4,14.4c-3.5,6.8-9,12.3-15.7,15.7
		c-3.6,1.8-8,2.9-14.4,3.4c-6.5,0.5-14.7,0.5-25.9,0.5H64c-11.3,0-19.5,0-25.9-0.5c-6.4-0.5-10.8-1.5-14.4-3.4
		c-6.8-3.5-12.3-9-15.7-15.7c-1.8-3.6-2.9-8-3.4-14.4C4,199.5,4,191.3,4,180V64z"/>
</g>
<g>
	<defs>
		<rect id="SVGID_00000047778710313026366300000014438291039498430346_" x="65" y="65" width="114" height="114"/>
	</defs>
	<clipPath id="SVGID_00000133514082725376447780000004291998102866269619_">
		<use xlink:href="#SVGID_00000047778710313026366300000014438291039498430346_"  style="overflow:visible;"/>
	</clipPath>
	<g style="clip-path:url(#SVGID_00000133514082725376447780000004291998102866269619_);">
		<path class="st4" d="M135,65v0.6c0,7.2-5.9,13.1-13.1,13.1s-13.1-5.9-13.1-13.1V65H65v114h114V65H135z"/>
		<path class="st5" d="M91.5,126.4H99l5.2,27.5h0.1l6.2-27.5h7.1l5.6,27.8h0.1l5.9-27.8h7.4l-9.6,40.4h-7.5l-5.6-27.5h-0.1
			l-5.9,27.5h-7.6L91.5,126.4z M145.1,126.4H157l11.8,40.4H161l-2.6-9h-13.6l-2,9h-7.6L145.1,126.4z M149.6,136.4l-3.3,14.8h10.3
			l-3.8-14.8H149.6z"/>
	</g>
</g>
</svg>
