<?xml version="1.0" encoding="utf-8"?>
<!-- Generator: Adobe Illustrator 26.3.1, SVG Export Plug-In . SVG Version: 6.00 Build 0)  -->
<svg version="1.1" id="Layer_1" xmlns="http://www.w3.org/2000/svg" xmlns:xlink="http://www.w3.org/1999/xlink" x="0px" y="0px"
	 viewBox="0 0 1920 1080" style="enable-background:new 0 0 1920 1080;" xml:space="preserve">
<style type="text/css">
	.st0{opacity:0.7;}
	.st1{fill-rule:evenodd;clip-rule:evenodd;fill:url(#SVGID_1_);}
	
		.st2{fill:none;stroke:url(#SVGID_00000028300491272902116450000001092597166390633097_);stroke-width:8.3713;stroke-linejoin:bevel;stroke-miterlimit:10;stroke-opacity:0.4;}
	.st3{fill-rule:evenodd;clip-rule:evenodd;fill:url(#SVGID_00000080900670868512734780000012690763966461687685_);}
	.st4{fill-rule:evenodd;clip-rule:evenodd;fill:url(#SVGID_00000060025071958467842400000001862684533550503324_);}
	
		.st5{fill-rule:evenodd;clip-rule:evenodd;fill:url(#SVGID_00000121980590448895447320000013506576059798273937_);fill-opacity:0.4;}
	.st6{fill-rule:evenodd;clip-rule:evenodd;fill:url(#SVGID_00000176735219321207437170000001887919949406380728_);}
	.st7{fill-rule:evenodd;clip-rule:evenodd;fill:url(#SVGID_00000059285134626405038110000009022632769833952441_);}
	.st8{fill:url(#SVGID_00000048471996461767943190000017795435682484160904_);fill-opacity:0.4;}
	.st9{fill:url(#SVGID_00000155839485690458355160000011620288645507555981_);fill-opacity:0.4;}
	.st10{fill:url(#SVGID_00000047046436916550836280000017663714892026187927_);fill-opacity:0.4;}
	.st11{fill:url(#SVGID_00000055683068878085036630000009782568831708365500_);fill-opacity:0.4;}
	.st12{fill:url(#SVGID_00000125592151887425037560000009736197314978715568_);fill-opacity:0.4;}
	.st13{fill:url(#SVGID_00000079461795244433357810000010619889547721968569_);fill-opacity:0.4;}
	.st14{fill:url(#SVGID_00000181051645335987394530000006957363683480707494_);fill-opacity:0.4;}
	.st15{fill:url(#SVGID_00000127744117467386950580000013059298352712046772_);fill-opacity:0.4;}
	.st16{fill:url(#SVGID_00000067955229893409056740000007039695201553182858_);fill-opacity:0.4;}
	.st17{opacity:0.6;}
	.st18{fill:url(#SVGID_00000011737835915873917850000007918123708089734812_);}
	
		.st19{fill:none;stroke:url(#SVGID_00000006671718694219904650000011463151995958178468_);stroke-width:5.8119;stroke-linejoin:bevel;stroke-miterlimit:10;stroke-opacity:0.4;}
	.st20{fill:url(#SVGID_00000090972901784090478300000000804522940844371858_);}
	.st21{fill:url(#SVGID_00000179647300786353328700000003264562508773908867_);}
	.st22{fill-rule:evenodd;clip-rule:evenodd;fill:url(#SVGID_00000124875449132300014940000014745626137000448412_);}
	.st23{fill-rule:evenodd;clip-rule:evenodd;fill:url(#SVGID_00000119086378809812619080000002829254272949931190_);}
	.st24{opacity:0.9;}
	.st25{fill:url(#SVGID_00000006680039129808422760000003578276283503573159_);}
	
		.st26{opacity:0.3;fill:none;stroke:url(#SVGID_00000024000691178607113370000009119066358328815802_);stroke-width:9.555;stroke-linejoin:bevel;stroke-miterlimit:10;enable-background:new    ;}
	.st27{fill-rule:evenodd;clip-rule:evenodd;fill:url(#SVGID_00000009591838206117824760000000087174649140553612_);}
	.st28{opacity:0.3;fill:url(#SVGID_00000071535276244315632150000002197223180763795898_);enable-background:new    ;}
	.st29{opacity:0.3;fill:url(#SVGID_00000040554363782016915410000007805108519676380578_);enable-background:new    ;}
	.st30{opacity:0.3;fill:url(#SVGID_00000157271945400991090770000000365886468190272957_);enable-background:new    ;}
	.st31{opacity:0.3;fill:url(#SVGID_00000126297233417601780130000001570559822939935398_);enable-background:new    ;}
	.st32{fill:url(#SVGID_00000059992296889722016030000006306607500343508104_);}
	.st33{opacity:0.4;}
	.st34{fill:url(#SVGID_00000018950916455709579370000002261865036529929860_);}
	.st35{fill:url(#SVGID_00000152246014138101702410000017682183876328989882_);}
	.st36{fill:url(#SVGID_00000109023939110160765920000016795658313447968943_);}
	.st37{fill:url(#SVGID_00000037681876097831794200000010165037737095192983_);}
	.st38{fill:url(#SVGID_00000100380588034090335590000015816749856765427624_);}
	.st39{fill-rule:evenodd;clip-rule:evenodd;fill:#FFFFFF;filter:url(#Adobe_OpacityMaskFilter);}
	
		.st40{mask:url(#path-6-inside-1_1_11512_00000146490053352094917050000003353918802289482882_);fill:url(#SVGID_00000080206743001735858570000000650504498570666943_);fill-opacity:0.4;}
	.st41{fill-rule:evenodd;clip-rule:evenodd;fill:url(#SVGID_00000135661733826791005340000000128405753419279521_);}
	.st42{fill-rule:evenodd;clip-rule:evenodd;fill:url(#SVGID_00000066485261161799816490000009590021130574526852_);}
	.st43{fill-rule:evenodd;clip-rule:evenodd;fill:url(#SVGID_00000051356994523793836610000003810123370918648741_);}
	.st44{opacity:0.3;}
	
		.st45{fill-rule:evenodd;clip-rule:evenodd;fill:#FFFFFF;filter:url(#Adobe_OpacityMaskFilter_00000015346188296336356440000017254108722261913274_);}
	
		.st46{mask:url(#path-2-inside-1_208_1384_00000127735955667219051320000000188062743217041561_);fill:url(#SVGID_00000010286361308779219750000000889189170393230746_);}
	
		.st47{fill-rule:evenodd;clip-rule:evenodd;fill:#FFFFFF;filter:url(#Adobe_OpacityMaskFilter_00000159457799883254465010000006560924034224787605_);}
	
		.st48{mask:url(#path-4-inside-2_208_1384_00000182495533118952427790000012121409470731494550_);fill:url(#SVGID_00000049221589976143080120000014189276831852328637_);}
	.st49{fill-rule:evenodd;clip-rule:evenodd;fill:url(#SVGID_00000070090256136256202100000002318091515348747161_);}
	.st50{opacity:0.3;fill:url(#SVGID_00000101810109993411838960000016794734777307184782_);enable-background:new    ;}
	.st51{fill-rule:evenodd;clip-rule:evenodd;fill:url(#SVGID_00000094619443504401536800000011496497724888122508_);}
	.st52{fill:url(#SVGID_00000076603920689197145740000008157802641802788229_);}
	.st53{opacity:0.3;fill:url(#SVGID_00000108291061274176432770000010525697978323693442_);enable-background:new    ;}
	.st54{fill-rule:evenodd;clip-rule:evenodd;fill:url(#SVGID_00000074414815009989798120000010922796662216283032_);}
	.st55{opacity:0.3;fill:url(#SVGID_00000000205832927934891030000010096607694680063899_);enable-background:new    ;}
	.st56{opacity:0.3;fill:url(#SVGID_00000147204626682520435780000009115914084215894451_);enable-background:new    ;}
	.st57{opacity:0.3;fill:url(#SVGID_00000008110563331076129140000004511079421962680978_);enable-background:new    ;}
	.st58{opacity:0.3;fill:url(#SVGID_00000017492538462387993430000000616014709284904357_);enable-background:new    ;}
	.st59{opacity:0.45;}
	.st60{fill:url(#SVGID_00000055665860143963214780000003137060200789415050_);}
	
		.st61{fill:none;stroke:url(#SVGID_00000093140976384326174660000016331237672775119543_);stroke-width:9.555;stroke-linejoin:bevel;stroke-miterlimit:10;stroke-opacity:0.3;}
	.st62{fill:url(#SVGID_00000115496861267486706870000014145654277292228523_);}
	.st63{fill:url(#SVGID_00000143609624620709453690000011531792726760716459_);}
	.st64{fill-rule:evenodd;clip-rule:evenodd;fill:url(#SVGID_00000068660743705824715830000005653196093001595543_);}
	.st65{fill-rule:evenodd;clip-rule:evenodd;fill:url(#SVGID_00000139271467755132223040000005215937055821889666_);}
</style>
<g class="st0">
	<g>
		
			<linearGradient id="SVGID_1_" gradientUnits="userSpaceOnUse" x1="14.929" y1="1108.8743" x2="112.8452" y2="894.0598" gradientTransform="matrix(1 0 0 -1 0 1549.89)">
			<stop  offset="0" style="stop-color:#322D37"/>
			<stop  offset="1" style="stop-color:#18151B"/>
		</linearGradient>
		<path class="st1" d="M-26.7,468.4c0-13.2,0-19.9,2-25.3c3.2-8.2,9.7-14.9,17.9-17.9c5.4-2,11.9-2,25.3-2H88c17.4,0,26,0,32.7,3.3
			c5.9,3,10.5,7.7,13.6,13.6c3.3,6.7,3.3,15.2,3.3,32.7v93.8c0,1,0,1.5,0,2c0,0.5,0.2,0.7,0.3,1.2c0.2,0.5,0.3,1,0.8,2.2
			c2.7,6,4.2,12.7,4.2,19.8c0,4.7-0.7,9.2-1.8,13.4c-1,3.5-1.5,5.2-1.5,6.4s0.2,1.8,0.8,3c0.5,1,1.5,2,3.5,4l1.5,1.5
			c6.7,6.7,6.7,17.6,0,24.3c-6.7,6.7-17.6,6.7-24.3,0l-2.5-2.5c-2-2-2.8-2.8-3.9-3.3c-1-0.5-1.7-0.7-2.8-0.8c-1.2,0-2.8,0.3-6.2,1.2
			c-3.7,0.8-7.5,1.3-11.4,1.3c-6,0-11.9-1.2-17.2-3.2c-1-0.3-1.5-0.5-1.8-0.7c-0.3-0.2-0.7-0.2-1-0.2c-0.3,0-0.8,0-1.7,0H22.7
			c-17.4,0-26,0-32.7-3.3c-5.9-3-10.5-7.7-13.6-13.6c-3.3-6.7-3.3-15.2-3.3-32.7v-118H-26.7z"/>
	</g>
	
		<linearGradient id="SVGID_00000067948385749839468360000012594392509636849076_" gradientUnits="userSpaceOnUse" x1="85.1506" y1="980.2999" x2="107.5353" y2="934.5387" gradientTransform="matrix(1 0 0 -1 0 1549.89)">
		<stop  offset="0" style="stop-color:#FF00A0"/>
		<stop  offset="1" style="stop-color:#9600FF"/>
	</linearGradient>
	
		<path style="fill:none;stroke:url(#SVGID_00000067948385749839468360000012594392509636849076_);stroke-width:8.3713;stroke-linejoin:bevel;stroke-miterlimit:10;stroke-opacity:0.4;" d="
		M120.3,592.5c0,12.9-10.7,23.6-23.9,23.6c-13.2,0-23.9-10.5-23.9-23.6s10.7-23.6,23.9-23.6C109.7,568.9,120.3,579.4,120.3,592.5z"
		/>
	
		<linearGradient id="SVGID_00000171688215343173330550000017971613770754626690_" gradientUnits="userSpaceOnUse" x1="65.5302" y1="1087.3765" x2="104.6054" y2="923.0416" gradientTransform="matrix(1 0 0 -1 0 1549.89)">
		<stop  offset="0" style="stop-color:#4C4C4C"/>
		<stop  offset="1" style="stop-color:#1B1B1F"/>
	</linearGradient>
	<path style="fill-rule:evenodd;clip-rule:evenodd;fill:url(#SVGID_00000171688215343173330550000017971613770754626690_);" d="
		M71.7,592.5c0-13.7,11.1-24.8,24.8-24.8s24.8,11.1,24.8,24.8c0,13.7-11.1,24.8-24.8,24.8C82.8,617.3,71.7,606.2,71.7,592.5z
		 M96.5,559C78.1,559,63,573.9,63,592.5c0,18.4,14.9,33.5,33.5,33.5c7.2,0,13.9-2.3,19.4-6.2l14.9,14.9c1.7,1.7,4.4,1.7,6,0
		c1.7-1.7,1.7-4.4,0-6l-14.7-14.7c4.9-5.9,7.7-13.2,7.7-21.3C130,574.1,114.9,559,96.5,559z"/>
	
		<linearGradient id="SVGID_00000097498439137781028240000014584953021420985478_" gradientUnits="userSpaceOnUse" x1="85.9849" y1="987.0605" x2="112.6855" y2="911.3188" gradientTransform="matrix(1 0 0 -1 0 1549.89)">
		<stop  offset="0" style="stop-color:#F3F3F3"/>
		<stop  offset="1" style="stop-color:#8F8F95"/>
	</linearGradient>
	<path style="fill-rule:evenodd;clip-rule:evenodd;fill:url(#SVGID_00000097498439137781028240000014584953021420985478_);" d="
		M71.7,592.5c0-13.7,11.1-24.8,24.8-24.8s24.8,11.1,24.8,24.8c0,13.7-11.1,24.8-24.8,24.8C82.8,617.3,71.7,606.2,71.7,592.5z
		 M96.5,559C78.1,559,63,573.9,63,592.5c0,18.4,14.9,33.5,33.5,33.5c7.2,0,13.9-2.3,19.4-6.2l14.9,14.9c1.7,1.7,4.4,1.7,6,0
		c1.7-1.7,1.7-4.4,0-6l-14.7-14.7c4.9-5.9,7.7-13.2,7.7-21.3C130,574.1,114.9,559,96.5,559z"/>
	
		<linearGradient id="SVGID_00000041291551767025362290000004220139273436555149_" gradientUnits="userSpaceOnUse" x1="13.5089" y1="1082.6052" x2="97.7767" y2="958.1329" gradientTransform="matrix(1 0 0 -1 0 1549.89)">
		<stop  offset="0" style="stop-color:#FF00A0"/>
		<stop  offset="1" style="stop-color:#9600FF"/>
	</linearGradient>
	
		<path style="fill-rule:evenodd;clip-rule:evenodd;fill:url(#SVGID_00000041291551767025362290000004220139273436555149_);fill-opacity:0.4;" d="
		M110.6,557V455c0-2.3-2-4.4-4.4-4.4H37.7H5.1c-2.3,0-4.4,2-4.4,4.4v149c0,2.3,2,4.4,4.4,4.4h56.4c1.7,3.7,4,7.2,6.9,10H5.1
		c-7.9,0-14.4-6.4-14.4-14.4V455c0-7.9,6.4-14.4,14.4-14.4h32.7h68.5c7.9,0,14.4,6.4,14.4,14.4v108
		C117.6,560.5,114.3,558.5,110.6,557z"/>
	
		<linearGradient id="SVGID_00000068676034471628936440000007816551924773850041_" gradientUnits="userSpaceOnUse" x1="18.8193" y1="1099.8295" x2="97.656" y2="929.8958" gradientTransform="matrix(1 0 0 -1 0 1549.89)">
		<stop  offset="0" style="stop-color:#4C4C4C"/>
		<stop  offset="1" style="stop-color:#1B1B1F"/>
	</linearGradient>
	<path style="fill-rule:evenodd;clip-rule:evenodd;fill:url(#SVGID_00000068676034471628936440000007816551924773850041_);" d="
		M5.1,436.3c-10.4,0-18.8,8.4-18.8,18.8v149c0,10.4,8.4,18.8,18.8,18.8h68c-3.2-2.5-6-5.4-8.4-8.7H4.9c-5.5,0-10-4.5-10-10V455
		c0-5.5,4.5-10,10-10h101.3c5.5,0,10,4.5,10,10v104.8c3.2,2,6.2,4.4,8.7,7v-112c0-10.4-8.4-18.8-18.8-18.8H5.1V436.3z"/>
	
		<linearGradient id="SVGID_00000138550172599856596820000005008771556043291011_" gradientUnits="userSpaceOnUse" x1="18.8193" y1="1099.8295" x2="97.656" y2="929.8958" gradientTransform="matrix(1 0 0 -1 0 1549.89)">
		<stop  offset="0" style="stop-color:#F3F3F3"/>
		<stop  offset="1" style="stop-color:#8F8F95"/>
	</linearGradient>
	<path style="fill-rule:evenodd;clip-rule:evenodd;fill:url(#SVGID_00000138550172599856596820000005008771556043291011_);" d="
		M5.1,436.3c-10.4,0-18.8,8.4-18.8,18.8v149c0,10.4,8.4,18.8,18.8,18.8h68c-3.2-2.5-6-5.4-8.4-8.7H4.9c-5.5,0-10-4.5-10-10V455
		c0-5.5,4.5-10,10-10h101.3c5.5,0,10,4.5,10,10v104.8c3.2,2,6.2,4.4,8.7,7v-112c0-10.4-8.4-18.8-18.8-18.8H5.1V436.3z"/>
	
		<linearGradient id="SVGID_00000078739029767665784310000003982272917490734770_" gradientUnits="userSpaceOnUse" x1="25.2519" y1="1076.2246" x2="26.7772" y2="1068.2653" gradientTransform="matrix(1 0 0 -1 0 1549.89)">
		<stop  offset="0" style="stop-color:#FF00A0"/>
		<stop  offset="1" style="stop-color:#9600FF"/>
	</linearGradient>
	<path style="fill:url(#SVGID_00000078739029767665784310000003982272917490734770_);fill-opacity:0.4;" d="M19.6,473.6h12.7
		c2.2,0,4,1.8,4,4l0,0c0,2.2-1.8,4-4,4H19.6c-2.2,0-4-1.8-4-4l0,0C15.6,475.4,17.5,473.6,19.6,473.6z"/>
	
		<linearGradient id="SVGID_00000001660500569831996060000000351178626075417783_" gradientUnits="userSpaceOnUse" x1="44.9356" y1="1035.9557" x2="45.7723" y2="1027.7905" gradientTransform="matrix(1 0 0 -1 0 1549.89)">
		<stop  offset="0" style="stop-color:#FF00A0"/>
		<stop  offset="1" style="stop-color:#9600FF"/>
	</linearGradient>
	<path style="fill:url(#SVGID_00000001660500569831996060000000351178626075417783_);fill-opacity:0.4;" d="M29.9,514h31
		c2.2,0,4,1.8,4,4l0,0c0,2.2-1.8,4-4,4h-31c-2.2,0-4-1.8-4-4l0,0C25.7,515.8,27.5,514,29.9,514z"/>
	
		<linearGradient id="SVGID_00000146459226305820538590000016991326767683370915_" gradientUnits="userSpaceOnUse" x1="39.8921" y1="1062.8008" x2="41.2895" y2="1054.7946" gradientTransform="matrix(1 0 0 -1 0 1549.89)">
		<stop  offset="0" style="stop-color:#FF00A0"/>
		<stop  offset="1" style="stop-color:#9600FF"/>
	</linearGradient>
	<path style="fill:url(#SVGID_00000146459226305820538590000016991326767683370915_);fill-opacity:0.4;" d="M33.2,487h14.7
		c2.2,0,4,1.8,4,4l0,0c0,2.2-1.8,4-4,4H33.2c-2.2,0-4-1.8-4-4l0,0C29.2,488.8,30.9,487,33.2,487z"/>
	
		<linearGradient id="SVGID_00000147922821571421115440000007760382571024360861_" gradientUnits="userSpaceOnUse" x1="26.3096" y1="1022.3873" x2="27.7082" y2="1014.381" gradientTransform="matrix(1 0 0 -1 0 1549.89)">
		<stop  offset="0" style="stop-color:#FF00A0"/>
		<stop  offset="1" style="stop-color:#9600FF"/>
	</linearGradient>
	<path style="fill:url(#SVGID_00000147922821571421115440000007760382571024360861_);fill-opacity:0.4;" d="M19.6,527.5h14.7
		c2.2,0,4,1.8,4,4l0,0c0,2.2-1.8,4-4,4H19.6c-2.2,0-4-1.8-4-4l0,0C15.6,529.2,17.5,527.5,19.6,527.5z"/>
	
		<linearGradient id="SVGID_00000156584137343936584660000004891878920836535690_" gradientUnits="userSpaceOnUse" x1="58.6533" y1="1049.4106" x2="59.5031" y2="1041.2477" gradientTransform="matrix(1 0 0 -1 0 1549.89)">
		<stop  offset="0" style="stop-color:#FF00A0"/>
		<stop  offset="1" style="stop-color:#9600FF"/>
	</linearGradient>
	<path style="fill:url(#SVGID_00000156584137343936584660000004891878920836535690_);fill-opacity:0.4;" d="M43.9,500.6h30.3
		c2.2,0,4,1.8,4,4l0,0c0,2.2-1.8,4-4,4H43.9c-2.2,0-4-1.8-4-4l0,0C39.9,502.4,41.7,500.6,43.9,500.6z"/>
	
		<linearGradient id="SVGID_00000096049555922351961020000006139861687985233310_" gradientUnits="userSpaceOnUse" x1="44.9297" y1="982.0964" x2="45.7663" y2="973.9311" gradientTransform="matrix(1 0 0 -1 0 1549.89)">
		<stop  offset="0" style="stop-color:#FF00A0"/>
		<stop  offset="1" style="stop-color:#9600FF"/>
	</linearGradient>
	<path style="fill:url(#SVGID_00000096049555922351961020000006139861687985233310_);fill-opacity:0.4;" d="M29.9,567.9h31
		c2.2,0,4,1.8,4,4l0,0c0,2.2-1.8,4-4,4h-31c-2.2,0-4-1.8-4-4l0,0C25.7,569.7,27.5,567.9,29.9,567.9z"/>
	
		<linearGradient id="SVGID_00000010303972912547399920000010837102547916035990_" gradientUnits="userSpaceOnUse" x1="47.2497" y1="1008.9366" x2="48.6485" y2="1000.9304" gradientTransform="matrix(1 0 0 -1 0 1549.89)">
		<stop  offset="0" style="stop-color:#FF00A0"/>
		<stop  offset="1" style="stop-color:#9600FF"/>
	</linearGradient>
	<path style="fill:url(#SVGID_00000010303972912547399920000010837102547916035990_);fill-opacity:0.4;" d="M40.6,540.9h14.7
		c2.2,0,4,1.8,4,4l0,0c0,2.2-1.8,4-4,4H40.6c-2.2,0-4-1.8-4-4l0,0C36.6,542.8,38.4,540.9,40.6,540.9z"/>
	
		<linearGradient id="SVGID_00000152949454806253943410000000538928560902300843_" gradientUnits="userSpaceOnUse" x1="26.328" y1="968.5319" x2="27.7267" y2="960.5256" gradientTransform="matrix(1 0 0 -1 0 1549.89)">
		<stop  offset="0" style="stop-color:#FF00A0"/>
		<stop  offset="1" style="stop-color:#9600FF"/>
	</linearGradient>
	<path style="fill:url(#SVGID_00000152949454806253943410000000538928560902300843_);fill-opacity:0.4;" d="M19.6,581.3h14.7
		c2.2,0,4,1.8,4,4l0,0c0,2.2-1.8,4-4,4H19.6c-2.2,0-4-1.8-4-4l0,0C15.6,583.1,17.5,581.3,19.6,581.3z"/>
	
		<linearGradient id="SVGID_00000012471071097857099890000017663555499353582238_" gradientUnits="userSpaceOnUse" x1="56.2439" y1="995.4392" x2="57.769" y2="987.4813" gradientTransform="matrix(1 0 0 -1 0 1549.89)">
		<stop  offset="0" style="stop-color:#FF00A0"/>
		<stop  offset="1" style="stop-color:#9600FF"/>
	</linearGradient>
	<path style="fill:url(#SVGID_00000012471071097857099890000017663555499353582238_);fill-opacity:0.4;" d="M50.6,554.3h12.7
		c2.2,0,4,1.8,4,4l0,0c0,2.2-1.8,4-4,4H50.6c-2.2,0-4-1.8-4-4l0,0C46.6,556.2,48.4,554.3,50.6,554.3z"/>
</g>
<g class="st17">
	<g>
		
			<linearGradient id="SVGID_00000130632625881694830780000015108816748392211879_" gradientUnits="userSpaceOnUse" x1="435.6029" y1="1325.4222" x2="483.8346" y2="1221.2051" gradientTransform="matrix(1 0 0 -1 0 1549.89)">
			<stop  offset="0" style="stop-color:#322D37"/>
			<stop  offset="1" style="stop-color:#18151B"/>
		</linearGradient>
		<path style="fill:url(#SVGID_00000130632625881694830780000015108816748392211879_);" d="M414.7,255.8c0-3.9,0-5.9,0.4-7.7
			c0.4-1.6,1-3.2,1.9-4.6c1-1.6,2.4-3,5.1-5.8l13.9-13.9c2.8-2.8,4.2-4.2,5.8-5.2c1.4-0.9,3-1.5,4.7-1.9c1.8-0.4,3.8-0.4,7.8-0.4
			h22.1c8.2,0,12.3,0,15.4,1.6c2.8,1.4,5,3.6,6.4,6.4c1.6,3.1,1.6,7.2,1.6,15.4V303c0,8.2,0,12.3-1.6,15.4c-1.4,2.8-3.6,5-6.4,6.4
			c-3.1,1.6-7.2,1.6-15.4,1.6h-38.2c-8.2,0-12.3,0-15.4-1.6c-2.8-1.4-5-3.6-6.4-6.4c-1.6-3.1-1.6-7.2-1.6-15.4L414.7,255.8
			L414.7,255.8z"/>
	</g>
	
		<linearGradient id="SVGID_00000181781277873672029370000003353309357755552426_" gradientUnits="userSpaceOnUse" x1="435.4529" y1="1311.3071" x2="479.5312" y2="1246.1964" gradientTransform="matrix(1 0 0 -1 0 1549.89)">
		<stop  offset="0" style="stop-color:#FF00A0"/>
		<stop  offset="1" style="stop-color:#9600FF"/>
	</linearGradient>
	
		<path style="fill:none;stroke:url(#SVGID_00000181781277873672029370000003353309357755552426_);stroke-width:5.8119;stroke-linejoin:bevel;stroke-miterlimit:10;stroke-opacity:0.4;" d="
		M426.2,254c0-2.1,0.8-4.2,2.4-5.7l-1.7-1.7l1.7,1.7l18.3-18.3c1.5-1.5,3.5-2.4,5.7-2.4h31.6c2.5,0,4.5,2,4.5,4.5v78.1
		c0,2.5-2,4.5-4.5,4.5h-53.4c-2.5,0-4.5-2-4.5-4.5V254H426.2z"/>
	
		<linearGradient id="SVGID_00000030449911606098509530000009571727121322482873_" gradientUnits="userSpaceOnUse" x1="454.9837" y1="1286.5563" x2="458.4204" y2="1262.8455" gradientTransform="matrix(1 0 0 -1 0 1549.89)">
		<stop  offset="0" style="stop-color:#4C4C4C"/>
		<stop  offset="1" style="stop-color:#1B1B1F"/>
	</linearGradient>
	<path style="fill:url(#SVGID_00000030449911606098509530000009571727121322482873_);" d="M434.2,279c0,0.2,0,0.4-0.1,0.6
		s-0.2,0.3-0.3,0.5c-0.1,0.1-0.3,0.2-0.5,0.3c-0.2,0.1-0.4,0.1-0.6,0.1c-0.4,0-0.8-0.1-1.1-0.4c-0.3-0.3-0.4-0.6-0.4-1.1
		c0-0.2,0-0.4,0.1-0.6s0.2-0.3,0.3-0.5c0.1-0.1,0.3-0.3,0.5-0.3c0.2-0.1,0.4-0.1,0.6-0.1s0.4,0,0.6,0.1s0.3,0.2,0.5,0.3
		c0.1,0.1,0.3,0.3,0.3,0.5C434.2,278.6,434.2,278.8,434.2,279z M440,274.7c0.4,0,0.7,0.1,1,0.2s0.6,0.3,0.9,0.5s0.5,0.5,0.6,0.8
		c0.2,0.3,0.2,0.7,0.2,1c0,0.5-0.1,1-0.3,1.4c-0.2,0.4-0.5,0.7-0.9,1c-0.3,0.3-0.8,0.5-1.2,0.6c-0.5,0.2-0.9,0.2-1.4,0.2
		s-1-0.1-1.5-0.2s-0.9-0.3-1.2-0.6c-0.4-0.3-0.6-0.6-0.8-1c-0.2-0.4-0.3-0.9-0.3-1.4h2.6c0,0.4,0.1,0.7,0.4,0.8
		c0.3,0.1,0.5,0.2,0.8,0.2s0.6-0.1,0.8-0.2c0.3-0.2,0.4-0.4,0.4-0.7c0-0.2-0.1-0.4-0.4-0.6s-0.6-0.3-1-0.3c-0.5-0.1-0.9-0.2-1.3-0.3
		c-0.4-0.2-0.8-0.4-1.2-0.6c-0.3-0.2-0.6-0.5-0.8-0.8c-0.2-0.3-0.3-0.7-0.3-1c0-0.5,0.1-0.9,0.3-1.3c0.2-0.4,0.5-0.7,0.8-1
		c0.4-0.3,0.7-0.5,1.2-0.6c0.5-0.2,0.9-0.2,1.4-0.2s1,0.1,1.4,0.2c0.5,0.1,0.8,0.3,1.2,0.6c0.3,0.3,0.6,0.6,0.8,1
		c0.2,0.4,0.3,0.8,0.3,1.4H440c0-0.2,0-0.4-0.1-0.5s-0.1-0.2-0.2-0.3c-0.1-0.1-0.2-0.1-0.4-0.2c-0.1,0-0.3-0.1-0.4-0.1
		c-0.3,0-0.6,0.1-0.8,0.2c-0.2,0.1-0.3,0.3-0.3,0.6c0,0.1,0.1,0.3,0.2,0.4s0.3,0.2,0.5,0.3c0.2,0.1,0.4,0.2,0.7,0.2
		C439.4,274.6,439.7,274.7,440,274.7z M446.6,270.9v4.7c0,0.4,0,0.7,0.1,1s0.2,0.6,0.4,0.8c0.2,0.2,0.4,0.4,0.7,0.6
		c0.3,0.1,0.6,0.2,1,0.2s0.7-0.1,0.9-0.2c0.3-0.1,0.5-0.3,0.7-0.6c0.2-0.2,0.3-0.5,0.4-0.8s0.1-0.7,0.1-1v-4.7h2.6v4.7
		c0,0.7-0.1,1.3-0.3,1.9c-0.2,0.6-0.5,1.1-1,1.6c-0.4,0.5-0.9,0.8-1.5,1.1c-0.6,0.3-1.2,0.4-1.9,0.4c-0.7,0-1.4-0.1-2-0.4
		s-1.1-0.6-1.5-1.1s-0.7-1-1-1.6c-0.2-0.6-0.3-1.2-0.3-1.9v-4.7H446.6z M455,275.6c0-0.7,0.1-1.3,0.4-1.9c0.2-0.6,0.6-1.1,1-1.6
		s0.9-0.8,1.5-1.1c0.6-0.3,1.3-0.4,2-0.4h0.4v2.4c-0.4,0-0.7,0.1-1,0.2s-0.6,0.3-0.8,0.6c-0.2,0.2-0.4,0.5-0.6,0.8
		c-0.1,0.3-0.2,0.7-0.2,1v4.7H455V275.6z M461.3,275.6c0-0.7,0.1-1.3,0.3-1.9c0.2-0.6,0.5-1.1,0.9-1.6s0.9-0.8,1.5-1.1
		c0.6-0.3,1.2-0.4,2-0.4c0.7,0,1.3,0.1,1.9,0.4s1.1,0.7,1.5,1.2c0.4-0.5,0.9-0.9,1.5-1.2c0.6-0.3,1.2-0.4,1.9-0.4
		c0.7,0,1.4,0.1,2,0.4s1.1,0.6,1.5,1.1s0.7,1,0.9,1.6c0.2,0.6,0.3,1.3,0.3,1.9v4.7h-2.6v-4.7c0-0.4,0-0.7-0.1-1s-0.2-0.6-0.4-0.8
		c-0.2-0.2-0.4-0.4-0.7-0.6c-0.3-0.1-0.6-0.2-0.9-0.2c-0.4,0-0.7,0.1-0.9,0.2c-0.3,0.1-0.5,0.3-0.6,0.6c-0.2,0.2-0.3,0.5-0.4,0.8
		s-0.1,0.7-0.1,1v4.7h-2.6v-4.7c0-0.4,0-0.7-0.1-1s-0.2-0.6-0.4-0.8c-0.2-0.2-0.4-0.4-0.7-0.6c-0.3-0.1-0.6-0.2-0.9-0.2
		c-0.4,0-0.7,0.1-0.9,0.2c-0.3,0.1-0.5,0.3-0.6,0.6c-0.2,0.2-0.3,0.5-0.4,0.8s-0.1,0.7-0.1,1v4.7h-2.6v-4.7H461.3z M479.1,267.7h2.6
		v12.6h-2.6V267.7z"/>
	
		<linearGradient id="SVGID_00000083777209746318355170000006469799351610796972_" gradientUnits="userSpaceOnUse" x1="454.9837" y1="1286.5563" x2="458.4204" y2="1262.8455" gradientTransform="matrix(1 0 0 -1 0 1549.89)">
		<stop  offset="0" style="stop-color:#F3F3F3"/>
		<stop  offset="1" style="stop-color:#8F8F95"/>
	</linearGradient>
	<path style="fill:url(#SVGID_00000083777209746318355170000006469799351610796972_);" d="M434.2,279c0,0.2,0,0.4-0.1,0.6
		s-0.2,0.3-0.3,0.5c-0.1,0.1-0.3,0.2-0.5,0.3c-0.2,0.1-0.4,0.1-0.6,0.1c-0.4,0-0.8-0.1-1.1-0.4c-0.3-0.3-0.4-0.6-0.4-1.1
		c0-0.2,0-0.4,0.1-0.6s0.2-0.3,0.3-0.5c0.1-0.1,0.3-0.3,0.5-0.3c0.2-0.1,0.4-0.1,0.6-0.1s0.4,0,0.6,0.1s0.3,0.2,0.5,0.3
		c0.1,0.1,0.3,0.3,0.3,0.5C434.2,278.6,434.2,278.8,434.2,279z M440,274.7c0.4,0,0.7,0.1,1,0.2s0.6,0.3,0.9,0.5s0.5,0.5,0.6,0.8
		c0.2,0.3,0.2,0.7,0.2,1c0,0.5-0.1,1-0.3,1.4c-0.2,0.4-0.5,0.7-0.9,1c-0.3,0.3-0.8,0.5-1.2,0.6c-0.5,0.2-0.9,0.2-1.4,0.2
		s-1-0.1-1.5-0.2s-0.9-0.3-1.2-0.6c-0.4-0.3-0.6-0.6-0.8-1c-0.2-0.4-0.3-0.9-0.3-1.4h2.6c0,0.4,0.1,0.7,0.4,0.8
		c0.3,0.1,0.5,0.2,0.8,0.2s0.6-0.1,0.8-0.2c0.3-0.2,0.4-0.4,0.4-0.7c0-0.2-0.1-0.4-0.4-0.6s-0.6-0.3-1-0.3c-0.5-0.1-0.9-0.2-1.3-0.3
		c-0.4-0.2-0.8-0.4-1.2-0.6c-0.3-0.2-0.6-0.5-0.8-0.8c-0.2-0.3-0.3-0.7-0.3-1c0-0.5,0.1-0.9,0.3-1.3c0.2-0.4,0.5-0.7,0.8-1
		c0.4-0.3,0.7-0.5,1.2-0.6c0.5-0.2,0.9-0.2,1.4-0.2s1,0.1,1.4,0.2c0.5,0.1,0.8,0.3,1.2,0.6c0.3,0.3,0.6,0.6,0.8,1
		c0.2,0.4,0.3,0.8,0.3,1.4H440c0-0.2,0-0.4-0.1-0.5s-0.1-0.2-0.2-0.3c-0.1-0.1-0.2-0.1-0.4-0.2c-0.1,0-0.3-0.1-0.4-0.1
		c-0.3,0-0.6,0.1-0.8,0.2c-0.2,0.1-0.3,0.3-0.3,0.6c0,0.1,0.1,0.3,0.2,0.4s0.3,0.2,0.5,0.3c0.2,0.1,0.4,0.2,0.7,0.2
		C439.4,274.6,439.7,274.7,440,274.7z M446.6,270.9v4.7c0,0.4,0,0.7,0.1,1s0.2,0.6,0.4,0.8c0.2,0.2,0.4,0.4,0.7,0.6
		c0.3,0.1,0.6,0.2,1,0.2s0.7-0.1,0.9-0.2c0.3-0.1,0.5-0.3,0.7-0.6c0.2-0.2,0.3-0.5,0.4-0.8s0.1-0.7,0.1-1v-4.7h2.6v4.7
		c0,0.7-0.1,1.3-0.3,1.9c-0.2,0.6-0.5,1.1-1,1.6c-0.4,0.5-0.9,0.8-1.5,1.1c-0.6,0.3-1.2,0.4-1.9,0.4c-0.7,0-1.4-0.1-2-0.4
		s-1.1-0.6-1.5-1.1s-0.7-1-1-1.6c-0.2-0.6-0.3-1.2-0.3-1.9v-4.7H446.6z M455,275.6c0-0.7,0.1-1.3,0.4-1.9c0.2-0.6,0.6-1.1,1-1.6
		s0.9-0.8,1.5-1.1c0.6-0.3,1.3-0.4,2-0.4h0.4v2.4c-0.4,0-0.7,0.1-1,0.2s-0.6,0.3-0.8,0.6c-0.2,0.2-0.4,0.5-0.6,0.8
		c-0.1,0.3-0.2,0.7-0.2,1v4.7H455V275.6z M461.3,275.6c0-0.7,0.1-1.3,0.3-1.9c0.2-0.6,0.5-1.1,0.9-1.6s0.9-0.8,1.5-1.1
		c0.6-0.3,1.2-0.4,2-0.4c0.7,0,1.3,0.1,1.9,0.4s1.1,0.7,1.5,1.2c0.4-0.5,0.9-0.9,1.5-1.2c0.6-0.3,1.2-0.4,1.9-0.4
		c0.7,0,1.4,0.1,2,0.4s1.1,0.6,1.5,1.1s0.7,1,0.9,1.6c0.2,0.6,0.3,1.3,0.3,1.9v4.7h-2.6v-4.7c0-0.4,0-0.7-0.1-1s-0.2-0.6-0.4-0.8
		c-0.2-0.2-0.4-0.4-0.7-0.6c-0.3-0.1-0.6-0.2-0.9-0.2c-0.4,0-0.7,0.1-0.9,0.2c-0.3,0.1-0.5,0.3-0.6,0.6c-0.2,0.2-0.3,0.5-0.4,0.8
		s-0.1,0.7-0.1,1v4.7h-2.6v-4.7c0-0.4,0-0.7-0.1-1s-0.2-0.6-0.4-0.8c-0.2-0.2-0.4-0.4-0.7-0.6c-0.3-0.1-0.6-0.2-0.9-0.2
		c-0.4,0-0.7,0.1-0.9,0.2c-0.3,0.1-0.5,0.3-0.6,0.6c-0.2,0.2-0.3,0.5-0.4,0.8s-0.1,0.7-0.1,1v4.7h-2.6v-4.7H461.3z M479.1,267.7h2.6
		v12.6h-2.6V267.7z"/>
	
		<linearGradient id="SVGID_00000051365397637121853400000008779436227283202745_" gradientUnits="userSpaceOnUse" x1="438.0617" y1="1319.5427" x2="478.9492" y2="1231.9438" gradientTransform="matrix(1 0 0 -1 0 1549.89)">
		<stop  offset="0" style="stop-color:#4C4C4C"/>
		<stop  offset="1" style="stop-color:#1B1B1F"/>
	</linearGradient>
	<path style="fill-rule:evenodd;clip-rule:evenodd;fill:url(#SVGID_00000051365397637121853400000008779436227283202745_);" d="
		M450.2,227.6c0.7-0.2,1.5-0.3,2.2-0.3h31.2c2.7,0,4.9,2.2,4.9,4.9v78.1c0,2.7-2.2,4.9-4.9,4.9h-53c-2.7,0-4.9-2.2-4.9-4.9V254
		c0-0.8,0.1-1.5,0.3-2.3c0.1,0,0.3,0,0.4,0h18.1c3.1,0,5.6-2.5,5.6-5.6L450.2,227.6L450.2,227.6z M446,230.3l-17.3,17.3h15.9
		c0.8,0,1.4-0.6,1.4-1.4V230.3z M452.5,223.1c-3.3,0-6.5,1.3-8.9,3.7l-18.3,18.3c-2.4,2.4-3.7,5.5-3.7,8.9v56.4c0,5,4.1,9.1,9.1,9.1
		h53c5,0,9.1-4.1,9.1-9.1v-78.1c0-5-4.1-9.1-9.1-9.1L452.5,223.1L452.5,223.1z"/>
	
		<linearGradient id="SVGID_00000008854047364019928800000016837863435643392649_" gradientUnits="userSpaceOnUse" x1="438.0617" y1="1319.5427" x2="478.9492" y2="1231.9438" gradientTransform="matrix(1 0 0 -1 0 1549.89)">
		<stop  offset="0" style="stop-color:#F3F3F3"/>
		<stop  offset="1" style="stop-color:#8F8F95"/>
	</linearGradient>
	<path style="fill-rule:evenodd;clip-rule:evenodd;fill:url(#SVGID_00000008854047364019928800000016837863435643392649_);" d="
		M450.2,227.6c0.7-0.2,1.5-0.3,2.2-0.3h31.2c2.7,0,4.9,2.2,4.9,4.9v78.1c0,2.7-2.2,4.9-4.9,4.9h-53c-2.7,0-4.9-2.2-4.9-4.9V254
		c0-0.8,0.1-1.5,0.3-2.3c0.1,0,0.3,0,0.4,0h18.1c3.1,0,5.6-2.5,5.6-5.6L450.2,227.6L450.2,227.6z M446,230.3l-17.3,17.3h15.9
		c0.8,0,1.4-0.6,1.4-1.4V230.3z M452.5,223.1c-3.3,0-6.5,1.3-8.9,3.7l-18.3,18.3c-2.4,2.4-3.7,5.5-3.7,8.9v56.4c0,5,4.1,9.1,9.1,9.1
		h53c5,0,9.1-4.1,9.1-9.1v-78.1c0-5-4.1-9.1-9.1-9.1L452.5,223.1L452.5,223.1z"/>
</g>
<g class="st24">
	<g>
		
			<linearGradient id="SVGID_00000135650933483972796640000013621530191860843148_" gradientUnits="userSpaceOnUse" x1="325.4231" y1="605.5622" x2="397.3041" y2="423.1207" gradientTransform="matrix(1 0 0 -1 0 1549.89)">
			<stop  offset="0" style="stop-color:#322D37"/>
			<stop  offset="1" style="stop-color:#18151B"/>
		</linearGradient>
		<path style="fill:url(#SVGID_00000135650933483972796640000013621530191860843148_);" d="M274.4,980.3c0-7.7,0-11.6,0.6-14.8
			c2.7-15.6,14.9-27.7,30.5-30.5c3.2-0.6,7.1-0.6,14.8-0.6h60.6c21,0,31.5,0,39.6,4.1c7.1,3.6,12.8,9.3,16.4,16.4
			c4.1,8,4.1,18.5,4.1,39.6v63.5c0,21,0,31.5-4.1,39.6c-3.6,7.1-9.3,12.8-16.4,16.4c-8,4.1-18.5,4.1-39.6,4.1h-46.4
			c-21,0-31.5,0-39.6-4.1c-7.1-3.6-12.8-9.3-16.4-16.4c-4.1-8-4.1-18.5-4.1-39.6V980.3z"/>
	</g>
	
		<linearGradient id="SVGID_00000006675207357809351670000003227588382165250203_" gradientUnits="userSpaceOnUse" x1="325.4099" y1="581.2261" x2="389.8549" y2="466.0169" gradientTransform="matrix(1 0 0 -1 0 1549.89)">
		<stop  offset="0" style="stop-color:#FF00A0"/>
		<stop  offset="1" style="stop-color:#9600FF"/>
	</linearGradient>
	
		<path style="opacity:0.3;fill:none;stroke:url(#SVGID_00000006675207357809351670000003227588382165250203_);stroke-width:9.555;stroke-linejoin:bevel;stroke-miterlimit:10;enable-background:new    ;" d="
		M312.6,957h90.1c8.7,0,15.7,7,15.7,15.7v107.2c0,8.7-7,15.7-15.7,15.7h-90.1c-8.7,0-15.7-7-15.7-15.7V972.7
		C296.9,964,304,957,312.6,957z"/>
	
		<linearGradient id="SVGID_00000040537096427594538490000018137943427730961802_" gradientUnits="userSpaceOnUse" x1="330.3927" y1="594.0339" x2="388.7057" y2="443.4364" gradientTransform="matrix(1 0 0 -1 0 1549.89)">
		<stop  offset="0" style="stop-color:#F3F3F3"/>
		<stop  offset="1" style="stop-color:#8F8F95"/>
	</linearGradient>
	<path style="fill-rule:evenodd;clip-rule:evenodd;fill:url(#SVGID_00000040537096427594538490000018137943427730961802_);" d="
		M312.6,948.1c-13.6,0-24.6,11-24.6,24.6V989v17.1v19.8v17.1v36.9c0,13.6,11,24.6,24.6,24.6h90.1c13.6,0,24.6-11,24.6-24.6V1043
		v-17.1v-19.8V989v-16.4c0-13.6-11-24.6-24.6-24.6L312.6,948.1L312.6,948.1z M419.1,989v-16.4c0-9-7.3-16.4-16.4-16.4h-90.1
		c-9,0-16.4,7.3-16.4,16.4V989v17.1c0,9,7.3,16.4,16.4,16.4h90.1c9,0,16.4-7.3,16.4-16.4V989z M419.1,1024.4
		c-4.3,3.9-10.1,6.3-16.4,6.3h-90.1c-6.3,0-12-2.4-16.4-6.3v1.5v17.1c0,9,7.3,16.4,16.4,16.4h90.1c9,0,16.4-7.3,16.4-16.4v-17.1
		V1024.4z M296.3,1079.8v-18.5c4.3,3.9,10.1,6.3,16.4,6.3h90.1c6.3,0,12-2.4,16.4-6.3v18.5c0,9-7.3,16.4-16.4,16.4h-90.1
		C303.6,1096.2,296.3,1088.9,296.3,1079.8z"/>
	
		<linearGradient id="SVGID_00000071545942547944317370000013254071962695559552_" gradientUnits="userSpaceOnUse" x1="314.4346" y1="508.9545" x2="317.7599" y2="502.2366" gradientTransform="matrix(1 0 0 -1 0 1549.89)">
		<stop  offset="0" style="stop-color:#FF00A0"/>
		<stop  offset="1" style="stop-color:#9600FF"/>
	</linearGradient>
	
		<circle style="opacity:0.3;fill:url(#SVGID_00000071545942547944317370000013254071962695559552_);enable-background:new    ;" cx="316.1" cy="1044.3" r="4.1"/>
	
		<linearGradient id="SVGID_00000069365299966408947890000001102580462051130787_" gradientUnits="userSpaceOnUse" x1="329.4377" y1="508.9487" x2="332.7626" y2="502.2307" gradientTransform="matrix(1 0 0 -1 0 1549.89)">
		<stop  offset="0" style="stop-color:#FF00A0"/>
		<stop  offset="1" style="stop-color:#9600FF"/>
	</linearGradient>
	
		<circle style="opacity:0.3;fill:url(#SVGID_00000069365299966408947890000001102580462051130787_);enable-background:new    ;" cx="331.1" cy="1044.3" r="4.1"/>
	
		<linearGradient id="SVGID_00000059304142721266430070000004289045764715657888_" gradientUnits="userSpaceOnUse" x1="314.4377" y1="474.149" x2="317.7629" y2="467.4299" gradientTransform="matrix(1 0 0 -1 0 1549.89)">
		<stop  offset="0" style="stop-color:#FF00A0"/>
		<stop  offset="1" style="stop-color:#9600FF"/>
	</linearGradient>
	
		<circle style="opacity:0.3;fill:url(#SVGID_00000059304142721266430070000004289045764715657888_);enable-background:new    ;" cx="316.1" cy="1079.1" r="4.1"/>
	
		<linearGradient id="SVGID_00000128468285410648001590000004662407831480985248_" gradientUnits="userSpaceOnUse" x1="329.4407" y1="474.1431" x2="332.7657" y2="467.4241" gradientTransform="matrix(1 0 0 -1 0 1549.89)">
		<stop  offset="0" style="stop-color:#FF00A0"/>
		<stop  offset="1" style="stop-color:#9600FF"/>
	</linearGradient>
	
		<circle style="opacity:0.3;fill:url(#SVGID_00000128468285410648001590000004662407831480985248_);enable-background:new    ;" cx="331.1" cy="1079.1" r="4.1"/>
	
		<linearGradient id="SVGID_00000106122377590070488020000004560650159017360032_" gradientUnits="userSpaceOnUse" x1="352.4923" y1="579.6853" x2="362.2813" y2="534.1443" gradientTransform="matrix(1 0 0 -1 0 1549.89)">
		<stop  offset="0" style="stop-color:#F3F3F3"/>
		<stop  offset="1" style="stop-color:#8F8F95"/>
	</linearGradient>
	<path style="fill:url(#SVGID_00000106122377590070488020000004560650159017360032_);" d="M336.3,988.5c0.8,0.2,1.6,0.4,2.4,0.8
		c0.8,0.3,1.5,0.8,2.1,1.4c0.6,0.6,1.1,1.2,1.5,2s0.6,1.6,0.6,2.6c0,1.2-0.2,2.3-0.7,3.3c-0.4,1-1.1,1.9-1.9,2.6
		c-0.8,0.7-1.8,1.3-3,1.7s-2.5,0.6-3.9,0.6c-1.3,0-2.5-0.2-3.7-0.7c-1.1-0.5-2.1-1.1-3-1.9c-0.8-0.8-1.5-1.7-1.9-2.8
		c-0.5-1-0.7-2.1-0.7-3.3h5.3c0.1,1.1,0.5,2,1.2,2.7s1.6,1.1,2.7,1.1c1.3,0,2.3-0.3,3-0.9c0.8-0.6,1.2-1.4,1.2-2.4
		c0-0.5-0.1-0.9-0.4-1.3c-0.2-0.3-0.6-0.6-1.1-0.9c-0.5-0.2-1.1-0.5-1.8-0.6c-0.7-0.2-1.5-0.4-2.4-0.6c-1-0.2-1.9-0.5-2.8-0.9
		s-1.7-0.8-2.4-1.3c-0.7-0.5-1.2-1.1-1.6-1.8s-0.6-1.5-0.6-2.4c0-1.1,0.2-2.2,0.6-3.1c0.4-0.9,1-1.7,1.8-2.4s1.7-1.2,2.8-1.6
		c1.1-0.4,2.4-0.6,3.7-0.6c1.2,0,2.4,0.2,3.5,0.6c1.1,0.4,2,0.9,2.9,1.6c0.8,0.7,1.5,1.5,2,2.4s0.7,1.9,0.7,3H337
		c-0.2-0.8-0.7-1.4-1.4-1.9c-0.7-0.5-1.4-0.8-2.3-0.8c-1,0-1.9,0.3-2.6,0.8s-1.1,1.1-1.1,1.8c0,0.4,0.2,0.8,0.5,1.2
		c0.4,0.3,0.9,0.6,1.5,0.9c0.6,0.3,1.3,0.5,2.1,0.7C334.6,988.2,335.5,988.4,336.3,988.5z M368.4,990.6c0,1.8-0.3,3.4-0.9,4.9
		s-1.4,2.8-2.6,3.9c-1.1,1.1-2.5,1.9-4.1,2.6c-1.6,0.6-3.4,0.9-5.4,0.9h-9.9v-24.6h9.9c1.9,0,3.7,0.3,5.3,0.9c1.6,0.6,3,1.5,4.1,2.6
		c1.2,1.1,2,2.4,2.7,3.9C368.1,987.2,368.4,988.9,368.4,990.6z M355.6,998c1,0,2-0.2,2.9-0.6c0.9-0.4,1.7-0.9,2.3-1.6
		c0.7-0.7,1.2-1.5,1.6-2.4s0.6-1.8,0.6-2.9s-0.2-2-0.6-2.9s-0.9-1.7-1.6-2.3c-0.7-0.7-1.4-1.2-2.3-1.6c-0.9-0.4-1.8-0.6-2.9-0.6H351
		V998H355.6z M370.8,1002.9v-24.6h10.9c1.1,0,2.1,0.2,3.1,0.5c1,0.4,1.8,0.9,2.5,1.5s1.2,1.4,1.6,2.3c0.4,0.9,0.6,1.9,0.6,3
		c0,0.8-0.2,1.6-0.6,2.3s-0.9,1.3-1.5,1.8c1.1,0.6,1.9,1.4,2.5,2.5c0.6,1,0.9,2.1,0.9,3.3c0,1.1-0.2,2.1-0.6,3s-0.9,1.7-1.6,2.3
		s-1.5,1.1-2.4,1.5c-0.9,0.3-1.9,0.5-3,0.5h-12.4V1002.9z M376.3,983.3v4.6h5.3c0.7,0,1.3-0.2,1.7-0.6c0.5-0.5,0.7-1,0.7-1.7
		s-0.2-1.2-0.7-1.6c-0.5-0.4-1.1-0.6-1.7-0.6h-5.3V983.3z M376.3,992.7v5.3h6.6c0.7,0,1.3-0.3,1.7-0.8c0.5-0.5,0.7-1.2,0.7-1.8
		c0-0.7-0.2-1.3-0.7-1.8c-0.5-0.6-1.1-0.9-1.7-0.9H376.3z"/>
</g>
<g class="st33">
	<g>
		
			<linearGradient id="SVGID_00000098197682138143377750000003490629760976328347_" gradientUnits="userSpaceOnUse" x1="1773.998" y1="646.219" x2="1820.5724" y2="781.546" gradientTransform="matrix(0.7071 0.7071 -0.7071 0.7071 814.5962 -1494.0077)">
			<stop  offset="0" style="stop-color:#322D37"/>
			<stop  offset="1" style="stop-color:#18151B"/>
		</linearGradient>
		<path style="fill:url(#SVGID_00000098197682138143377750000003490629760976328347_);" d="M1609.6,207.3l43.1,43.1
			c14.8,14.8,14.8,38.9,0,53.7l-43.1,43.1c-14.8,14.8-38.9,14.8-53.7,0l-43.1-43.1c-14.8-14.8-14.8-38.9,0-53.7l43.1-43.1
			C1570.9,192.4,1594.9,192.4,1609.6,207.3z"/>
	</g>
	
		<linearGradient id="SVGID_00000109005403165042525180000014184977755755168913_" gradientUnits="userSpaceOnUse" x1="1575.1458" y1="-256.6202" x2="1586.2562" y2="-235.3826" gradientTransform="matrix(1 0 0 1 0 472)">
		<stop  offset="0" style="stop-color:#F3F3F3"/>
		<stop  offset="1" style="stop-color:#8F8F95"/>
	</linearGradient>
	<path style="fill:url(#SVGID_00000109005403165042525180000014184977755755168913_);" d="M1581.6,217.1h2.8l6.3,14.4h-3.6l-1.1-2.6
		h-6.2l-1.1,2.6h-3.6L1581.6,217.1z M1580.9,226.4h4.1l-2.1-5L1580.9,226.4z"/>
	
		<linearGradient id="SVGID_00000020385270146335180140000013268827813191955883_" gradientUnits="userSpaceOnUse" x1="1630.7103" y1="-205.0643" x2="1641.8202" y2="-183.8266" gradientTransform="matrix(1 0 0 1 0 472)">
		<stop  offset="0" style="stop-color:#F3F3F3"/>
		<stop  offset="1" style="stop-color:#8F8F95"/>
	</linearGradient>
	<path style="fill:url(#SVGID_00000020385270146335180140000013268827813191955883_);" d="M1643.5,279.8c-0.3,0.8-0.7,1.5-1.1,2
		c-0.5,0.7-1.1,1.2-1.7,1.6c-0.7,0.4-1.3,0.8-2.1,1.1c-0.8,0.3-1.6,0.4-2.4,0.4c-1.1,0-2.1-0.1-3-0.5c-0.9-0.4-1.7-0.9-2.5-1.6
		c-0.7-0.7-1.3-1.5-1.7-2.4c-0.4-0.9-0.7-1.8-0.7-2.9c0-1.1,0.3-2,0.7-2.9c0.4-0.9,0.9-1.7,1.7-2.4c0.7-0.7,1.6-1.2,2.5-1.6
		c0.9-0.4,2-0.7,3-0.7c0.8,0,1.7,0.1,2.4,0.4c0.8,0.3,1.5,0.5,2.1,1.1c0.7,0.4,1.2,0.9,1.7,1.6c0.5,0.7,0.8,1.3,1.1,2h-3.4
		c-0.4-0.7-0.9-1.2-1.6-1.6c-0.7-0.4-1.5-0.7-2.2-0.7c-0.7,0-1.2,0.1-1.8,0.4c-0.5,0.3-1.1,0.5-1.4,1.1c-0.4,0.4-0.8,0.9-1.1,1.5
		c-0.3,0.5-0.4,1.2-0.4,1.8c0,0.7,0.1,1.2,0.4,1.8c0.3,0.5,0.5,1.1,1.1,1.5c0.4,0.4,0.9,0.8,1.4,1.1s1.2,0.4,1.8,0.4
		c0.8,0,1.6-0.1,2.2-0.5c0.7-0.4,1.2-0.9,1.6-1.6h3.4V279.8z"/>
	
		<linearGradient id="SVGID_00000006702749920311793260000014267021712785302163_" gradientUnits="userSpaceOnUse" x1="1577.1722" y1="-146.0092" x2="1589.8494" y2="-137.1968" gradientTransform="matrix(1 0 0 1 0 472)">
		<stop  offset="0" style="stop-color:#F3F3F3"/>
		<stop  offset="1" style="stop-color:#8F8F95"/>
	</linearGradient>
	<path style="fill:url(#SVGID_00000006702749920311793260000014267021712785302163_);" d="M1584.9,337.4h-3.2v-14.4h3.2V337.4z"/>
	
		<linearGradient id="SVGID_00000043434961304246216470000003258734419995378878_" gradientUnits="userSpaceOnUse" x1="1523.8325" y1="-204.3082" x2="1535.2327" y2="-183.5058" gradientTransform="matrix(1 0 0 1 0 472)">
		<stop  offset="0" style="stop-color:#F3F3F3"/>
		<stop  offset="1" style="stop-color:#8F8F95"/>
	</linearGradient>
	<path style="fill:url(#SVGID_00000043434961304246216470000003258734419995378878_);" d="M1537.1,277.3c0,1.1-0.1,2-0.5,2.9
		c-0.4,0.9-0.8,1.6-1.5,2.2c-0.7,0.7-1.5,1.2-2.4,1.5c-0.9,0.4-2,0.5-3.2,0.5h-5.8v-14.4h5.8c1.2,0,2.1,0.1,3,0.5
		c0.9,0.4,1.7,0.9,2.4,1.5c0.7,0.7,1.2,1.5,1.6,2.2C1537,275.2,1537.1,276.3,1537.1,277.3z M1529.6,281.5c0.7,0,1.2-0.1,1.7-0.4
		c0.5-0.3,0.9-0.5,1.3-0.9c0.4-0.4,0.7-0.9,0.9-1.3c0.3-0.5,0.4-1.1,0.4-1.7c0-0.7-0.1-1.2-0.4-1.7c-0.3-0.5-0.5-0.9-0.9-1.3
		c-0.4-0.4-0.8-0.7-1.3-0.9s-1.1-0.4-1.7-0.4h-2.8v8.6L1529.6,281.5L1529.6,281.5z"/>
	<defs>
		<filter id="Adobe_OpacityMaskFilter" filterUnits="userSpaceOnUse" x="1557.4" y="254.1" width="53.1" height="49.2">
			<feColorMatrix  type="matrix" values="1 0 0 0 0  0 1 0 0 0  0 0 1 0 0  0 0 0 1 0"/>
		</filter>
	</defs>
	
		<mask maskUnits="userSpaceOnUse" x="1557.4" y="254.1" width="53.1" height="49.2" id="path-6-inside-1_1_11512_00000146490053352094917050000003353918802289482882_">
		<path class="st39" d="M1591.1,261.1h-2.8v2.8v9.8c0,1.5,1.2,2.8,2.8,2.8c1.6,0,2.8-1.2,2.8-2.8v-3.7c3.7,5.1,3.3,12.4-1.3,17
			c-5.1,5.1-13.4,5.1-18.6,0c-5.1-5.1-5.1-13.4,0-18.6c1.1-1.1,1.1-2.8,0-3.8c-1.1-1.1-2.8-1.1-3.8,0c-7.3,7.3-7.3,19,0,26.2
			c7.3,7.3,19,7.3,26.2,0c6.6-6.6,7.3-17,1.7-24.3h2.9c1.5,0,2.8-1.2,2.8-2.8s-1.2-2.8-2.8-2.8h-9.9V261.1z"/>
	</mask>
	
		<linearGradient id="SVGID_00000016788508788926071400000007882927526392287877_" gradientUnits="userSpaceOnUse" x1="1580.4858" y1="-208.554" x2="1591.892" y2="-179.8325" gradientTransform="matrix(1 0 0 1 0 472)">
		<stop  offset="0" style="stop-color:#FF00A0"/>
		<stop  offset="1" style="stop-color:#9600FF"/>
	</linearGradient>
	
		<path style="mask:url(#path-6-inside-1_1_11512_00000146490053352094917050000003353918802289482882_);fill:url(#SVGID_00000016788508788926071400000007882927526392287877_);fill-opacity:0.4;" d="
		M1588.3,261.1v-7l-7,7H1588.3z M1593.8,269.9l5.7-4.1l-12.7,4.1H1593.8z M1573.8,286.9l-5,4.9l0,0L1573.8,286.9z M1573.8,268.3
		l-5-4.9l0,0L1573.8,268.3z M1573.8,264.5l-5,4.9l0,0L1573.8,264.5z M1570,264.5l5,4.9L1570,264.5z M1570,290.8l5-4.9l0,0
		L1570,290.8z M1596.2,290.8l4.9,5l0,0L1596.2,290.8z M1598,266.5v-7l-5.5,11.2L1598,266.5z M1588.3,268.1h2.8v-14h-2.8V268.1z
		 M1595.3,263.9v-2.8h-14v2.8H1595.3z M1595.3,273.6v-9.8h-14v9.8H1595.3z M1591.1,269.4c2.4,0,4.2,1.8,4.2,4.2h-14
		c0,5.4,4.4,9.8,9.8,9.8V269.4z M1586.7,273.6c0-2.4,1.8-4.2,4.2-4.2v14c5.4,0,9.8-4.4,9.8-9.8H1586.7z M1586.7,269.9v3.7h14v-3.7
		H1586.7z M1597.4,291.9c7.1-7.1,7.8-18.1,2.1-26l-11.3,8.2c1.7,2.4,1.5,5.8-0.7,7.9L1597.4,291.9z M1568.9,291.9
		c7.9,7.9,20.6,7.9,28.5,0l-9.9-9.9c-2.4,2.4-6.3,2.4-8.7,0L1568.9,291.9z M1568.9,263.5c-7.9,7.9-7.9,20.6,0,28.5l9.9-9.9
		c-2.4-2.4-2.4-6.3,0-8.7L1568.9,263.5z M1568.9,269.4c-1.7-1.7-1.7-4.4,0-6.1l9.9,9.9c3.8-3.8,3.8-9.9,0-13.7L1568.9,269.4z
		 M1574.8,269.4c-1.7,1.7-4.4,1.7-6.1,0l9.9-9.9c-3.8-3.8-9.9-3.8-13.7,0L1574.8,269.4z M1574.8,285.9c-4.5-4.5-4.5-11.9,0-16.3
		l-9.9-9.9c-10,10-10,26.2,0,36.1L1574.8,285.9z M1591.3,285.9c-4.5,4.5-11.9,4.5-16.3,0l-9.9,9.9c10,10,26.2,10,36.1,0
		L1591.3,285.9z M1592.4,270.7c3.4,4.5,3,10.9-1.1,15.2l9.9,9.9c9.1-9.1,9.9-23.3,2.4-33.4L1592.4,270.7z M1600.8,259.5h-2.9v14h2.9
		V259.5z M1596.6,263.9c0-2.4,1.8-4.2,4.2-4.2v14c5.4,0,9.8-4.4,9.8-9.8H1596.6z M1600.8,268.1c-2.4,0-4.2-1.8-4.2-4.2h14
		c0-5.4-4.4-9.8-9.8-9.8V268.1z M1591.1,268.1h9.8v-14h-9.8V268.1z"/>
	
		<linearGradient id="SVGID_00000078043553021251860790000012530433122939268283_" gradientUnits="userSpaceOnUse" x1="1559.5663" y1="-262.0361" x2="1609.1874" y2="-118.1828" gradientTransform="matrix(1 0 0 1 0 472)">
		<stop  offset="0" style="stop-color:#4C4C4C"/>
		<stop  offset="1" style="stop-color:#1B1B1F"/>
	</linearGradient>
	<path style="fill-rule:evenodd;clip-rule:evenodd;fill:url(#SVGID_00000078043553021251860790000012530433122939268283_);" d="
		M1568.6,224.2c0-7.9,6.3-14.2,14.2-14.2c7.9,0,14.2,6.3,14.2,14.2s-6.3,14.2-14.2,14.2C1575,238.4,1568.6,232.1,1568.6,224.2z
		 M1582.9,204.5c-10.9,0-19.6,8.8-19.6,19.6c0,5,1.8,9.5,4.9,13.1l-25.2,25.2c-3.4-3-8-4.9-13.1-4.9c-10.9,0-19.6,8.8-19.6,19.6
		c0,10.8,8.8,19.6,19.6,19.6c4.6,0,8.8-1.6,12.1-4.2l25.3,25.3c-2.6,3.3-4.2,7.5-4.2,12.1c0,10.9,8.8,19.6,19.6,19.6
		c10.8,0,19.6-8.8,19.6-19.6c0-4.2-1.3-8.2-3.7-11.5l25.4-25.4c3.2,2.2,7.1,3.7,11.5,3.7c10.9,0,19.6-8.8,19.6-19.6
		c0-10.8-8.8-19.6-19.6-19.6c-4.6,0-9,1.6-12.4,4.4l-25.2-25.2c2.8-3.4,4.4-7.6,4.4-12.4C1602.5,213.4,1593.7,204.5,1582.9,204.5z
		 M1594.2,240.3c-3.2,2.2-7.1,3.6-11.3,3.6c-4,0-7.5-1.2-10.7-3.2l-25.7,25.7c2,3,3.2,6.7,3.2,10.7c0,4.4-1.4,8.3-3.8,11.6
		l25.4,25.4c3.3-2.4,7.3-3.8,11.6-3.8c4.6,0,9,1.6,12.3,4.4l25.2-25.2c-2.6-3.4-4.4-7.6-4.4-12.3c0-4.2,1.3-8.2,3.6-11.3
		L1594.2,240.3z M1568.6,330c0-7.9,6.3-14.2,14.2-14.2c7.9,0,14.2,6.3,14.2,14.2s-6.3,14.2-14.2,14.2
		C1575,344.4,1568.6,337.9,1568.6,330z M1650.1,277.2c0-7.9-6.3-14.2-14.2-14.2s-14.2,6.3-14.2,14.2s6.3,14.2,14.2,14.2
		C1643.7,291.4,1650.1,285.1,1650.1,277.2z M1529.9,262.9c7.9,0,14.2,6.3,14.2,14.2s-6.3,14.2-14.2,14.2c-7.9,0-14.2-6.3-14.2-14.2
		S1522.1,262.9,1529.9,262.9z"/>
	
		<linearGradient id="SVGID_00000082365135071078065120000003709584857529914551_" gradientUnits="userSpaceOnUse" x1="1560.4686" y1="-262.5871" x2="1606.0024" y2="-124.1114" gradientTransform="matrix(1 0 0 1 0 472)">
		<stop  offset="0" style="stop-color:#F3F3F3"/>
		<stop  offset="1" style="stop-color:#8F8F95"/>
	</linearGradient>
	<path style="fill-rule:evenodd;clip-rule:evenodd;fill:url(#SVGID_00000082365135071078065120000003709584857529914551_);" d="
		M1568.6,224.2c0-7.9,6.3-14.2,14.2-14.2c7.9,0,14.2,6.3,14.2,14.2s-6.3,14.2-14.2,14.2C1575,238.4,1568.6,232.1,1568.6,224.2z
		 M1582.9,204.5c-10.9,0-19.6,8.8-19.6,19.6c0,5,1.8,9.5,4.9,13.1l-25.2,25.2c-3.4-3-8-4.9-13.1-4.9c-10.9,0-19.6,8.8-19.6,19.6
		c0,10.8,8.8,19.6,19.6,19.6c4.6,0,8.8-1.6,12.1-4.2l25.3,25.3c-2.6,3.3-4.2,7.5-4.2,12.1c0,10.9,8.8,19.6,19.6,19.6
		c10.8,0,19.6-8.8,19.6-19.6c0-4.2-1.3-8.2-3.7-11.5l25.4-25.4c3.2,2.2,7.1,3.7,11.5,3.7c10.9,0,19.6-8.8,19.6-19.6
		c0-10.8-8.8-19.6-19.6-19.6c-4.6,0-9,1.6-12.4,4.4l-25.2-25.2c2.8-3.4,4.4-7.6,4.4-12.4C1602.5,213.4,1593.7,204.5,1582.9,204.5z
		 M1594.2,240.3c-3.2,2.2-7.1,3.6-11.3,3.6c-4,0-7.5-1.2-10.7-3.2l-25.7,25.7c2,3,3.2,6.7,3.2,10.7c0,4.4-1.4,8.3-3.8,11.6
		l25.4,25.4c3.3-2.4,7.3-3.8,11.6-3.8c4.6,0,9,1.6,12.3,4.4l25.2-25.2c-2.6-3.4-4.4-7.6-4.4-12.3c0-4.2,1.3-8.2,3.6-11.3
		L1594.2,240.3z M1568.6,330c0-7.9,6.3-14.2,14.2-14.2c7.9,0,14.2,6.3,14.2,14.2s-6.3,14.2-14.2,14.2
		C1575,344.4,1568.6,337.9,1568.6,330z M1650.1,277.2c0-7.9-6.3-14.2-14.2-14.2s-14.2,6.3-14.2,14.2s6.3,14.2,14.2,14.2
		C1643.7,291.4,1650.1,285.1,1650.1,277.2z M1529.9,262.9c7.9,0,14.2,6.3,14.2,14.2s-6.3,14.2-14.2,14.2c-7.9,0-14.2-6.3-14.2-14.2
		S1522.1,262.9,1529.9,262.9z"/>
</g>
<g class="st24">
	<g>
		
			<linearGradient id="SVGID_00000145763376896152625490000004537475504033418135_" gradientUnits="userSpaceOnUse" x1="1801.3075" y1="731.1011" x2="1842.9414" y2="547.124" gradientTransform="matrix(1 0 0 -1 0 1313.89)">
			<stop  offset="0" style="stop-color:#322D37"/>
			<stop  offset="1" style="stop-color:#18151B"/>
		</linearGradient>
		<path style="fill-rule:evenodd;clip-rule:evenodd;fill:url(#SVGID_00000145763376896152625490000004537475504033418135_);" d="
			M1907.6,748.2h-152c-34.5,0-62.5-28-62.5-62.5c0-26.4,16.3-48.9,39.4-58.1c2.6-1,3.8-1.5,4.6-2c0.8-0.5,1.1-0.8,1.7-1.5
			s1.2-1.8,2.4-4.2c12.8-23.8,38-40.1,66.9-40.1c27.9,0,52.3,15,65.4,37.4c1.5,2.6,2.3,3.9,2.9,4.6c0.8,0.8,1,1,2,1.5
			c0.8,0.5,2.4,0.9,5.5,1.8c9.6,2.8,17.9,8.3,24.3,15.6c1.9,2.2,2.8,3.2,3.4,3.7c0.8,0.6,0.9,0.7,1.9,1.1c0.7,0.3,2.1,0.6,4.9,1.2
			c23.2,5,40.5,25.5,40.5,50.2c0,28.2-22.7,51.1-50.9,51.3l0,0l0,0h-0.2C1907.7,748.2,1907.6,748.2,1907.6,748.2
			C1907.8,748.2,1907.7,748.2,1907.6,748.2z"/>
	</g>
	<g class="st44">
		<defs>
			
				<filter id="Adobe_OpacityMaskFilter_00000121992828732007614070000001850109193916992131_" filterUnits="userSpaceOnUse" x="1693" y="579.7" width="266.2" height="168.6">
				<feColorMatrix  type="matrix" values="1 0 0 0 0  0 1 0 0 0  0 0 1 0 0  0 0 0 1 0"/>
			</filter>
		</defs>
		
			<mask maskUnits="userSpaceOnUse" x="1693" y="579.7" width="266.2" height="168.6" id="path-2-inside-1_208_1384_00000127735955667219051320000000188062743217041561_">
			
				<path style="fill-rule:evenodd;clip-rule:evenodd;fill:#FFFFFF;filter:url(#Adobe_OpacityMaskFilter_00000121992828732007614070000001850109193916992131_);" d="
				M1907.6,731.6h-152c-25.3,0-45.9-20.5-45.9-45.9c0-23.6,17.8-43,40.7-45.6c0.3,0,0.6-0.3,0.7-0.6c7-24.8,29.9-43,57-43
				s49.9,18.2,57,43c0.1,0.4,0.5,0.7,0.9,0.6c1.3-0.1,2.5-0.2,3.8-0.2c14.7,0,27.2,9.3,32.1,22.3c0.1,0.4,0.5,0.6,0.9,0.6
				c1.6-0.2,3.3-0.4,4.9-0.4c19.1,0,34.6,15.5,34.6,34.6c0,19-15.3,34.4-34.2,34.6l0,0l0,0h-0.2c-0.1,0-0.1,0-0.2,0
				C1907.8,731.6,1907.7,731.6,1907.6,731.6z"/>
		</mask>
		
			<linearGradient id="SVGID_00000014618641896563953540000010209419329397585038_" gradientUnits="userSpaceOnUse" x1="1859.8425" y1="535.5922" x2="1790.4636" y2="712.0001" gradientTransform="matrix(1 0 0 -1 0 1313.89)">
			<stop  offset="0" style="stop-color:#FF00A0"/>
			<stop  offset="1" style="stop-color:#9600FF"/>
		</linearGradient>
		
			<path style="mask:url(#path-2-inside-1_208_1384_00000127735955667219051320000000188062743217041561_);fill:url(#SVGID_00000014618641896563953540000010209419329397585038_);" d="
			M1907.6,731.6l0.1-16.7h-0.1V731.6z M1908,731.6v-16.7h-0.1L1908,731.6z M1902,662.1l15.6-5.8L1902,662.1z M1902.9,662.7
			l-2.4-16.5L1902.9,662.7z M1908.3,731.6l-0.2-16.7L1908.3,731.6z M1865.1,639.4l-16,4.6L1865.1,639.4z M1866.1,640l-1.9-16.6
			L1866.1,640z M1750.5,640.1l-1.9-16.6L1750.5,640.1z M1751.2,639.5l16,4.5L1751.2,639.5z M1907.6,714.9h-152v33.4h152V714.9z
			 M1755.6,714.9c-16.1,0-29.2-13.1-29.2-29.2H1693c0,34.5,28,62.6,62.5,62.6L1755.6,714.9L1755.6,714.9z M1726.4,685.7
			c0-15,11.3-27.4,25.9-29l-3.7-33.2c-31.2,3.5-55.5,30-55.5,62.2H1726.4z M1767.2,644c5.1-17.9,21.5-30.9,40.9-30.9v-33.4
			c-34.8,0-64,23.3-73,55.2L1767.2,644z M1808.2,613.1c19.4,0,35.8,13,40.9,30.9l32.1-9.1c-9-31.8-38.3-55.1-73-55.1V613.1z
			 M1867.9,656.6c0.6-0.1,1.3-0.1,2-0.1v-33.4c-1.9,0-3.8,0.1-5.7,0.3L1867.9,656.6z M1869.9,656.5c7.5,0,14,4.7,16.4,11.4
			l31.3-11.6c-7.2-19.4-25.8-33.2-47.7-33.2L1869.9,656.5L1869.9,656.5z M1905.3,679.2c0.8-0.1,1.7-0.2,2.6-0.2v-33.4
			c-2.5,0-4.9,0.2-7.3,0.5L1905.3,679.2z M1907.8,679c9.9,0,17.9,8,17.9,17.9h33.4c0-28.3-23-51.3-51.3-51.3V679z M1925.8,696.9
			c0,9.8-7.9,17.8-17.7,17.9l0.4,33.4c28-0.3,50.7-23.2,50.7-51.3L1925.8,696.9L1925.8,696.9z M1908.3,714.9h-0.2v33.4h0.2V714.9z
			 M1907.9,714.9L1907.9,714.9l-0.1,33.4c0.1,0,0.2,0,0.3,0L1907.9,714.9z M1907.8,714.9L1907.8,714.9l-0.3,33.4c0.1,0,0.2,0,0.3,0
			V714.9L1907.8,714.9z M1891.6,731.6c0-9.2,7.5-16.7,16.7-16.7v33.4c9.2,0,16.7-7.5,16.7-16.7H1891.6z M1886.3,667.9
			c2.9,7.7,10.7,12.4,18.9,11.3l-4.7-33c7.4-1.1,14.5,3.2,17.1,10.2L1886.3,667.9z M1908.1,714.9c-9,0.1-16.5,7.4-16.5,16.7h33.4
			c0,9.3-7.5,16.6-16.5,16.7L1908.1,714.9z M1849.1,644c2.4,8.3,10.4,13.6,18.8,12.6l-3.7-33.2c7.6-0.9,14.8,3.9,17,11.4L1849.1,644
			z M1752.3,656.7c7-0.8,13-5.8,14.9-12.6l-32.1-9.1c1.8-6.2,7.1-10.7,13.5-11.4L1752.3,656.7z"/>
	</g>
	<defs>
		
			<filter id="Adobe_OpacityMaskFilter_00000049933264175260564220000008455670631784844966_" filterUnits="userSpaceOnUse" x="1699.7" y="586.4" width="252.7" height="155.2">
			<feColorMatrix  type="matrix" values="1 0 0 0 0  0 1 0 0 0  0 0 1 0 0  0 0 0 1 0"/>
		</filter>
	</defs>
	
		<mask maskUnits="userSpaceOnUse" x="1699.7" y="586.4" width="252.7" height="155.2" id="path-4-inside-2_208_1384_00000182495533118952427790000012121409470731494550_">
		
			<path style="fill-rule:evenodd;clip-rule:evenodd;fill:#FFFFFF;filter:url(#Adobe_OpacityMaskFilter_00000049933264175260564220000008455670631784844966_);" d="
			M1907.6,731.6h-152c-25.3,0-45.9-20.5-45.9-45.9c0-23.6,17.8-43,40.7-45.6c0.3,0,0.6-0.3,0.7-0.6c7-24.8,29.9-43,57-43
			s49.9,18.2,57,43c0.1,0.4,0.5,0.7,0.9,0.6c1.3-0.1,2.5-0.2,3.8-0.2c14.7,0,27.2,9.3,32.1,22.3c0.1,0.4,0.5,0.6,0.9,0.6
			c1.6-0.2,3.3-0.4,4.9-0.4c19.1,0,34.6,15.5,34.6,34.6c0,19-15.3,34.4-34.2,34.6l0,0l0,0h-0.2c-0.1,0-0.1,0-0.2,0
			C1907.8,731.6,1907.7,731.6,1907.6,731.6z"/>
	</mask>
	
		<linearGradient id="SVGID_00000165209047603935602000000011585639826709670301_" gradientUnits="userSpaceOnUse" x1="1807.2191" y1="716.0823" x2="1836.0468" y2="572.1509" gradientTransform="matrix(1 0 0 -1 0 1313.89)">
		<stop  offset="0" style="stop-color:#F3F3F3"/>
		<stop  offset="1" style="stop-color:#8F8F95"/>
	</linearGradient>
	
		<path style="mask:url(#path-4-inside-2_208_1384_00000182495533118952427790000012121409470731494550_);fill:url(#SVGID_00000165209047603935602000000011585639826709670301_);" d="
		M1907.6,731.6l0.1-10l0,0l0,0L1907.6,731.6L1907.6,731.6z M1908,731.6v-10l0,0l0,0V731.6z M1902,662.1l9.4-3.5L1902,662.1z
		 M1902.9,662.7l-1.4-9.9L1902.9,662.7z M1908.3,731.6l-0.1-10L1908.3,731.6z M1865.1,639.4l-9.6,2.7L1865.1,639.4z M1866.1,640
		l-1.1-9.9L1866.1,640z M1750.5,640.1l-1.1-9.9L1750.5,640.1z M1751.2,639.5l9.6,2.7L1751.2,639.5z M1907.6,721.5h-152v20h152V721.5
		z M1755.6,721.5c-19.8,0-35.9-16.1-35.9-35.9h-20c0,30.9,25,55.9,55.9,55.9V721.5z M1719.8,685.7c0-18.4,13.9-33.6,31.8-35.6
		l-2.2-19.9c-27.9,3.1-49.6,26.8-49.6,55.5H1719.8z M1760.8,642.2c5.8-20.6,24.8-35.8,47.3-35.8v-20c-31.7,0-58.4,21.3-66.6,50.3
		L1760.8,642.2z M1808.2,606.5c22.5,0,41.5,15.1,47.3,35.7l19.3-5.5c-8.3-29-34.9-50.2-66.6-50.2L1808.2,606.5L1808.2,606.5z
		 M1867.2,650c0.9-0.1,1.8-0.2,2.7-0.2v-20c-1.7,0-3.3,0.1-5,0.3L1867.2,650z M1869.9,649.8c10.4,0,19.3,6.6,22.7,15.8l18.8-7
		c-6.2-16.8-22.4-28.8-41.5-28.8V649.8z M1904.3,672.6c1.1-0.2,2.3-0.2,3.5-0.2v-20c-2.2,0-4.3,0.2-6.4,0.5L1904.3,672.6z
		 M1907.8,672.3c13.6,0,24.6,11,24.6,24.6h20c0-24.6-20-44.6-44.6-44.6V672.3z M1932.4,696.9c0,13.5-10.9,24.4-24.3,24.6l0.2,20
		c24.4-0.3,44.1-20.2,44.1-44.6H1932.4z M1908.3,721.5h-0.2v20h0.2V721.5z M1908,721.5L1908,721.5l-0.1,20c0.1,0,0.2,0,0.3,0
		L1908,721.5z M1907.8,721.5L1907.8,721.5l-0.2,20c0.1,0,0.2,0,0.3,0v-20H1907.8z M1898.2,731.6c0-5.5,4.5-10,10-10v20
		c5.5,0,10-4.5,10-10H1898.2z M1892.6,665.6c1.8,4.8,6.7,7.7,11.7,7l-2.8-19.8c4.3-0.6,8.4,1.8,9.9,5.9L1892.6,665.6z M1908.1,721.5
		c-5.4,0.1-9.9,4.4-9.9,10h20c0,5.6-4.5,9.9-9.9,10L1908.1,721.5z M1855.5,642.2c1.5,5.1,6.4,8.4,11.7,7.8l-2.2-19.9
		c4.4-0.5,8.6,2.3,9.8,6.6L1855.5,642.2z M1751.6,650c4.4-0.5,8-3.6,9.2-7.8l-19.3-5.5c1-3.6,4.1-6.2,7.8-6.6L1751.6,650z"/>
</g>
<g class="st44">
	<g>
		
			<linearGradient id="SVGID_00000071523208881876897520000008843592227071710859_" gradientUnits="userSpaceOnUse" x1="833.2219" y1="174.6889" x2="874.7751" y2="66.887" gradientTransform="matrix(1 0 0 -1 0 1077.89)">
			<stop  offset="0" style="stop-color:#322D37"/>
			<stop  offset="1" style="stop-color:#18151B"/>
		</linearGradient>
		<path style="fill-rule:evenodd;clip-rule:evenodd;fill:url(#SVGID_00000071523208881876897520000008843592227071710859_);" d="
			M805.8,912.5c-0.3,1.7-0.3,3.7-0.3,7.8v40.6c0,11,0,16.5,2.1,20.7c1.9,3.7,4.9,6.7,8.6,8.6c4.2,2.1,9.7,2.1,20.7,2.1H855
			c1.1,0,1.7,0,2.1,0.1c0.5,0.1,0.7,0.3,1.1,0.5c0.4,0.3,0.8,0.8,1.7,1.9c4.7,5.7,11.8,9.3,19.8,9.3c14.2,0,25.7-11.5,25.7-25.7
			c0-8.3-4-15.7-10.1-20.4c-1.2-0.9-1.7-1.3-2-1.7c-0.3-0.4-0.4-0.7-0.6-1.2c-0.1-0.5-0.1-1.1-0.1-2.2v-25.1c0-11,0-16.5-2.1-20.7
			c-1.9-3.7-4.9-6.7-8.6-8.6c-4.2-2.1-9.7-2.1-20.7-2.1h-31.7c-4,0-6.1,0-7.8,0.3C813.6,898,807.2,904.4,805.8,912.5z"/>
	</g>
	
		<linearGradient id="SVGID_00000101084276292115834580000017208644628940413610_" gradientUnits="userSpaceOnUse" x1="832.2076" y1="163.7217" x2="865.9281" y2="103.4385" gradientTransform="matrix(1 0 0 -1 0 1077.89)">
		<stop  offset="0" style="stop-color:#FF00A0"/>
		<stop  offset="1" style="stop-color:#9600FF"/>
	</linearGradient>
	<path style="opacity:0.3;fill:url(#SVGID_00000101084276292115834580000017208644628940413610_);enable-background:new    ;" d="
		M872.6,983.1h-47.1c-5.9,0-10.7-4.8-10.7-10.7v-56.1c0-5.9,4.8-10.7,10.7-10.7h47.1c5.9,0,10.7,4.8,10.7,10.7v56.1
		C883.4,978.2,878.5,983.1,872.6,983.1z M825.5,910.6c-3.2,0-5.7,2.6-5.7,5.7v56.1c0,3.2,2.6,5.7,5.7,5.7h47.1
		c3.2,0,5.7-2.6,5.7-5.7v-56.1c0-3.2-2.6-5.7-5.7-5.7H825.5z"/>
	
		<linearGradient id="SVGID_00000155833995847276531720000006457633879936334511_" gradientUnits="userSpaceOnUse" x1="834.8036" y1="170.417" x2="865.3185" y2="91.6108" gradientTransform="matrix(1 0 0 -1 0 1077.89)">
		<stop  offset="0" style="stop-color:#F3F3F3"/>
		<stop  offset="1" style="stop-color:#8F8F95"/>
	</linearGradient>
	<path style="fill-rule:evenodd;clip-rule:evenodd;fill:url(#SVGID_00000155833995847276531720000006457633879936334511_);" d="
		M825.5,903.4c-7.1,0-12.9,5.8-12.9,12.9v8.6v8.9v10.4v8.9v19.3c0,7.1,5.8,12.9,12.9,12.9h47.1c7.1,0,12.9-5.8,12.9-12.9v-19.3v-8.9
		v-10.4v-8.9v-8.6c0-7.1-5.8-12.9-12.9-12.9H825.5z M881.2,924.8v-8.6c0-4.7-3.8-8.6-8.6-8.6h-47.1c-4.7,0-8.6,3.8-8.6,8.6v8.6v8.9
		c0,4.7,3.8,8.6,8.6,8.6h47.1c4.7,0,8.6-3.8,8.6-8.6V924.8z M881.2,943.4c-2.3,2-5.3,3.3-8.6,3.3h-47.1c-3.3,0-6.3-1.2-8.6-3.3v0.8
		v8.9c0,4.7,3.8,8.6,8.6,8.6h47.1c4.7,0,8.6-3.8,8.6-8.6v-8.9V943.4z M816.9,972.3v-9.7c2.3,2,5.3,3.3,8.6,3.3h47.1
		c3.3,0,6.3-1.2,8.6-3.3v9.7c0,4.7-3.8,8.6-8.6,8.6h-47.1C820.8,980.9,816.9,977.1,816.9,972.3z"/>
	
		<linearGradient id="SVGID_00000054231355556705054250000017460807423653781422_" gradientUnits="userSpaceOnUse" x1="876.5562" y1="121.3599" x2="882.8702" y2="78.5026" gradientTransform="matrix(1 0 0 -1 0 1077.89)">
		<stop  offset="0" style="stop-color:#242027"/>
		<stop  offset="1" style="stop-color:#1A171D"/>
	</linearGradient>
	<circle style="fill:url(#SVGID_00000054231355556705054250000017460807423653781422_);" cx="879.8" cy="978.4" r="21.4"/>
	
		<linearGradient id="SVGID_00000016077542252727816200000002919976923619549356_" gradientUnits="userSpaceOnUse" x1="873.1127" y1="112.9478" x2="886.4496" y2="86.0009" gradientTransform="matrix(1 0 0 -1 0 1077.89)">
		<stop  offset="0" style="stop-color:#FF00A0"/>
		<stop  offset="1" style="stop-color:#9600FF"/>
	</linearGradient>
	<path style="opacity:0.3;fill:url(#SVGID_00000016077542252727816200000002919976923619549356_);enable-background:new    ;" d="
		M879.8,994.8c-9.1,0-16.4-7.4-16.4-16.4s7.4-16.4,16.4-16.4s16.4,7.4,16.4,16.4S888.8,994.8,879.8,994.8z M879.8,967
		c-6.3,0-11.4,5.1-11.4,11.4c0,6.3,5.1,11.4,11.4,11.4s11.4-5.1,11.4-11.4C891.2,972.1,886.1,967,879.8,967z"/>
	
		<linearGradient id="SVGID_00000000212548924362476780000006675265608952076472_" gradientUnits="userSpaceOnUse" x1="867.0317" y1="148.9969" x2="884.9047" y2="79.5738" gradientTransform="matrix(1 0 0 -1 0 1077.89)">
		<stop  offset="0" style="stop-color:#F3F3F3"/>
		<stop  offset="1" style="stop-color:#8F8F95"/>
	</linearGradient>
	<path style="fill-rule:evenodd;clip-rule:evenodd;fill:url(#SVGID_00000000212548924362476780000006675265608952076472_);" d="
		M865.5,978.4c0-7.9,6.4-14.3,14.3-14.3c7.9,0,14.3,6.4,14.3,14.3c0,7.9-6.4,14.3-14.3,14.3C871.9,992.7,865.5,986.3,865.5,978.4z
		 M879.8,959.8c-10.3,0-18.6,8.3-18.6,18.6c0,10.3,8.3,18.6,18.6,18.6c10.3,0,18.6-8.3,18.6-18.6C898.4,968.2,890,959.8,879.8,959.8
		z M880.3,971.1c0-1.2-1-2.1-2.1-2.1c-1.2,0-2.1,1-2.1,2.1v9.8v2.1h2.1h8.8c1.2,0,2.1-1,2.1-2.1c0-1.2-1-2.1-2.1-2.1h-6.6V971.1z"/>
	
		<linearGradient id="SVGID_00000146501613937921656020000002112462121430120880_" gradientUnits="userSpaceOnUse" x1="826.4105" y1="125.8768" x2="828.1505" y2="122.3613" gradientTransform="matrix(1 0 0 -1 0 1077.89)">
		<stop  offset="0" style="stop-color:#FF00A0"/>
		<stop  offset="1" style="stop-color:#9600FF"/>
	</linearGradient>
	
		<circle style="opacity:0.3;fill:url(#SVGID_00000146501613937921656020000002112462121430120880_);enable-background:new    ;" cx="827.3" cy="953.8" r="2.1"/>
	
		<linearGradient id="SVGID_00000046299672974424181640000001463370213640032162_" gradientUnits="userSpaceOnUse" x1="834.2674" y1="125.8768" x2="836.0075" y2="122.3613" gradientTransform="matrix(1 0 0 -1 0 1077.89)">
		<stop  offset="0" style="stop-color:#FF00A0"/>
		<stop  offset="1" style="stop-color:#9600FF"/>
	</linearGradient>
	
		<circle style="opacity:0.3;fill:url(#SVGID_00000046299672974424181640000001463370213640032162_);enable-background:new    ;" cx="835.1" cy="953.8" r="2.1"/>
	
		<linearGradient id="SVGID_00000181064597583508258340000007136211222698063276_" gradientUnits="userSpaceOnUse" x1="826.4103" y1="107.6626" x2="828.1504" y2="104.1467" gradientTransform="matrix(1 0 0 -1 0 1077.89)">
		<stop  offset="0" style="stop-color:#FF00A0"/>
		<stop  offset="1" style="stop-color:#9600FF"/>
	</linearGradient>
	
		<circle style="opacity:0.3;fill:url(#SVGID_00000181064597583508258340000007136211222698063276_);enable-background:new    ;" cx="827.3" cy="972" r="2.1"/>
	
		<linearGradient id="SVGID_00000062177222892042703490000007068977203663182754_" gradientUnits="userSpaceOnUse" x1="834.2673" y1="107.6626" x2="836.0074" y2="104.1467" gradientTransform="matrix(1 0 0 -1 0 1077.89)">
		<stop  offset="0" style="stop-color:#FF00A0"/>
		<stop  offset="1" style="stop-color:#9600FF"/>
	</linearGradient>
	
		<circle style="opacity:0.3;fill:url(#SVGID_00000062177222892042703490000007068977203663182754_);enable-background:new    ;" cx="835.1" cy="972" r="2.1"/>
</g>
<g class="st59">
	<g>
		
			<linearGradient id="SVGID_00000144309287645734334770000003427895281417408407_" gradientUnits="userSpaceOnUse" x1="1398.6028" y1="736.405" x2="1456.3712" y2="611.5907" gradientTransform="matrix(1 0 0 -1 0 1549.89)">
			<stop  offset="0" style="stop-color:#322D37"/>
			<stop  offset="1" style="stop-color:#18151B"/>
		</linearGradient>
		<path style="fill:url(#SVGID_00000144309287645734334770000003427895281417408407_);" d="M1373.7,850.9c0-4.7,0-7,0.5-9.2
			c0.5-2,1.2-3.8,2.3-5.5c1.2-1.9,2.8-3.6,6.1-6.9l16.6-16.7c3.3-3.3,5-5,6.9-6.2c1.7-1.1,3.6-1.8,5.6-2.3c2.2-0.5,4.6-0.5,9.3-0.5
			h26.5c9.8,0,14.7,0,18.5,1.9c3.3,1.7,6,4.4,7.7,7.7c1.9,3.8,1.9,8.7,1.9,18.5v75.9c0,9.8,0,14.7-1.9,18.5c-1.7,3.3-4.4,6-7.7,7.7
			c-3.8,1.9-8.7,1.9-18.5,1.9h-45.8c-9.8,0-14.7,0-18.5-1.9c-3.3-1.7-6-4.4-7.7-7.7c-1.9-3.8-1.9-8.7-1.9-18.5L1373.7,850.9
			L1373.7,850.9z"/>
	</g>
	
		<linearGradient id="SVGID_00000061455810322792759250000016548238389552211383_" gradientUnits="userSpaceOnUse" x1="1397.7866" y1="720.4628" x2="1451.7466" y2="640.7578" gradientTransform="matrix(1 0 0 -1 0 1549.89)">
		<stop  offset="0" style="stop-color:#FF00A0"/>
		<stop  offset="1" style="stop-color:#9600FF"/>
	</linearGradient>
	
		<path style="fill:none;stroke:url(#SVGID_00000061455810322792759250000016548238389552211383_);stroke-width:9.555;stroke-linejoin:bevel;stroke-miterlimit:10;stroke-opacity:0.3;" d="
		M1387.5,848.7c0-2.5,1-5,2.8-6.8l21.9-21.9c1.8-1.8,4.2-2.8,6.8-2.8h37.8c3,0,5.4,2.4,5.4,5.4v93.6c0,3-2.4,5.4-5.4,5.4h-63.9
		c-3,0-5.4-2.4-5.4-5.4V848.7L1387.5,848.7z"/>
	
		<linearGradient id="SVGID_00000016076947034078209050000007077746357895680167_" gradientUnits="userSpaceOnUse" x1="1421.5869" y1="689.8765" x2="1426.3162" y2="661.5" gradientTransform="matrix(1 0 0 -1 0 1549.89)">
		<stop  offset="0" style="stop-color:#4C4C4C"/>
		<stop  offset="1" style="stop-color:#1B1B1F"/>
	</linearGradient>
	<path style="fill:url(#SVGID_00000016076947034078209050000007077746357895680167_);" d="M1400.7,878.8c0,0.3,0,0.5-0.1,0.7
		s-0.2,0.4-0.4,0.6c-0.2,0.2-0.3,0.3-0.6,0.4c-0.2,0.1-0.4,0.1-0.7,0.1c-0.5,0-0.9-0.2-1.3-0.5c-0.3-0.3-0.5-0.8-0.5-1.3
		c0-0.3,0-0.5,0.1-0.7s0.2-0.4,0.4-0.6c0.2-0.2,0.4-0.3,0.6-0.4c0.2-0.1,0.5-0.1,0.7-0.1s0.5,0,0.7,0.1s0.4,0.2,0.6,0.4
		s0.3,0.3,0.4,0.6C1400.7,878.3,1400.7,878.5,1400.7,878.8z M1407.6,873.6c0.4,0,0.8,0.1,1.2,0.3c0.4,0.2,0.8,0.4,1.1,0.6
		c0.3,0.3,0.6,0.6,0.8,1c0.2,0.4,0.3,0.8,0.3,1.3c0,0.6-0.1,1.1-0.4,1.6s-0.6,0.9-1,1.2s-0.9,0.6-1.5,0.7c-0.5,0.2-1.1,0.3-1.7,0.3
		s-1.2-0.1-1.7-0.3c-0.6-0.2-1.1-0.4-1.5-0.7s-0.8-0.7-1-1.2c-0.3-0.5-0.4-1-0.4-1.6h3.1c0,0.5,0.2,0.8,0.5,1s0.7,0.3,1,0.3
		s0.7-0.1,1-0.3s0.5-0.5,0.5-0.8s-0.2-0.5-0.5-0.7s-0.7-0.3-1.2-0.4c-0.5-0.1-1.1-0.2-1.6-0.4s-1-0.4-1.4-0.7s-0.7-0.6-1-1
		c-0.2-0.4-0.4-0.8-0.4-1.3c0-0.6,0.1-1.1,0.4-1.5c0.2-0.5,0.6-0.8,1-1.2c0.4-0.3,0.9-0.6,1.4-0.7c0.5-0.2,1.1-0.3,1.7-0.3
		s1.2,0.1,1.7,0.3s1,0.4,1.4,0.8c0.4,0.3,0.7,0.7,1,1.2c0.2,0.5,0.4,1,0.4,1.6h-3.1c0-0.2,0-0.4-0.1-0.6c-0.1-0.2-0.2-0.3-0.3-0.4
		c-0.1-0.1-0.3-0.2-0.4-0.2c-0.2,0-0.3-0.1-0.5-0.1c-0.3,0-0.7,0.1-0.9,0.2c-0.3,0.1-0.4,0.4-0.4,0.8c0,0.2,0.1,0.3,0.2,0.5
		c0.2,0.1,0.4,0.3,0.6,0.4c0.3,0.1,0.5,0.2,0.8,0.3C1406.9,873.5,1407.2,873.6,1407.6,873.6z M1415.6,869v5.6c0,0.4,0,0.8,0.1,1.2
		s0.3,0.7,0.5,1s0.5,0.5,0.8,0.7s0.7,0.3,1.1,0.3s0.8-0.1,1.1-0.3c0.3-0.2,0.6-0.4,0.8-0.7c0.2-0.3,0.4-0.6,0.5-1s0.2-0.8,0.2-1.2
		V869h3.1v5.6c0,0.8-0.1,1.6-0.4,2.3s-0.6,1.4-1.1,1.9s-1.1,1-1.8,1.3c-0.7,0.3-1.5,0.5-2.3,0.5c-0.9,0-1.7-0.2-2.4-0.5
		c-0.7-0.3-1.3-0.8-1.8-1.3s-0.9-1.2-1.2-1.9c-0.3-0.7-0.4-1.5-0.4-2.3V869H1415.6z M1425.5,874.6c0-0.8,0.1-1.6,0.4-2.3
		s0.7-1.4,1.2-1.9s1.1-1,1.8-1.3c0.7-0.3,1.5-0.5,2.4-0.5h0.4v2.8c-0.4,0-0.8,0.1-1.2,0.3c-0.4,0.2-0.7,0.4-1,0.7s-0.5,0.6-0.7,1
		s-0.3,0.8-0.3,1.2v5.6h-3.1L1425.5,874.6L1425.5,874.6z M1432.5,874.6c0-0.8,0.2-1.6,0.5-2.3s0.8-1.4,1.3-1.9s1.2-1,2-1.3
		s1.6-0.5,2.4-0.5c0.9,0,1.7,0.2,2.4,0.5c0.8,0.3,1.4,0.7,2,1.3s1,1.2,1.3,1.9s0.5,1.5,0.5,2.3v9.4h-3.1v-4.7
		c-0.4,0.4-0.9,0.7-1.4,0.9s-1.1,0.3-1.7,0.3c-0.8,0-1.7-0.2-2.4-0.5c-0.8-0.3-1.4-0.8-2-1.3s-1-1.2-1.3-1.9
		C1432.7,876.2,1432.5,875.5,1432.5,874.6z M1435.7,874.6c0,0.4,0.1,0.8,0.3,1.2c0.2,0.4,0.4,0.7,0.7,1s0.6,0.5,1,0.7
		s0.8,0.3,1.2,0.3s0.8-0.1,1.2-0.3c0.4-0.2,0.7-0.4,1-0.7s0.5-0.6,0.7-1s0.3-0.8,0.3-1.2s-0.1-0.8-0.3-1.2c-0.2-0.4-0.4-0.7-0.7-1
		c-0.3-0.3-0.6-0.5-1-0.7s-0.8-0.3-1.2-0.3s-0.8,0.1-1.2,0.3c-0.4,0.2-0.7,0.4-1,0.7s-0.5,0.6-0.7,1
		C1435.8,873.8,1435.7,874.2,1435.7,874.6z M1447,865.2h3.1v15h-3.1V865.2z"/>
	
		<linearGradient id="SVGID_00000037671619933323494720000015196757035023898000_" gradientUnits="userSpaceOnUse" x1="1421.5869" y1="689.8765" x2="1426.3162" y2="661.5" gradientTransform="matrix(1 0 0 -1 0 1549.89)">
		<stop  offset="0" style="stop-color:#F3F3F3"/>
		<stop  offset="1" style="stop-color:#8F8F95"/>
	</linearGradient>
	<path style="fill:url(#SVGID_00000037671619933323494720000015196757035023898000_);" d="M1400.7,878.8c0,0.3,0,0.5-0.1,0.7
		s-0.2,0.4-0.4,0.6c-0.2,0.2-0.3,0.3-0.6,0.4c-0.2,0.1-0.4,0.1-0.7,0.1c-0.5,0-0.9-0.2-1.3-0.5c-0.3-0.3-0.5-0.8-0.5-1.3
		c0-0.3,0-0.5,0.1-0.7s0.2-0.4,0.4-0.6c0.2-0.2,0.4-0.3,0.6-0.4c0.2-0.1,0.5-0.1,0.7-0.1s0.5,0,0.7,0.1s0.4,0.2,0.6,0.4
		s0.3,0.3,0.4,0.6C1400.7,878.3,1400.7,878.5,1400.7,878.8z M1407.6,873.6c0.4,0,0.8,0.1,1.2,0.3c0.4,0.2,0.8,0.4,1.1,0.6
		c0.3,0.3,0.6,0.6,0.8,1c0.2,0.4,0.3,0.8,0.3,1.3c0,0.6-0.1,1.1-0.4,1.6s-0.6,0.9-1,1.2s-0.9,0.6-1.5,0.7c-0.5,0.2-1.1,0.3-1.7,0.3
		s-1.2-0.1-1.7-0.3c-0.6-0.2-1.1-0.4-1.5-0.7s-0.8-0.7-1-1.2c-0.3-0.5-0.4-1-0.4-1.6h3.1c0,0.5,0.2,0.8,0.5,1s0.7,0.3,1,0.3
		s0.7-0.1,1-0.3s0.5-0.5,0.5-0.8s-0.2-0.5-0.5-0.7s-0.7-0.3-1.2-0.4c-0.5-0.1-1.1-0.2-1.6-0.4s-1-0.4-1.4-0.7s-0.7-0.6-1-1
		c-0.2-0.4-0.4-0.8-0.4-1.3c0-0.6,0.1-1.1,0.4-1.5c0.2-0.5,0.6-0.8,1-1.2c0.4-0.3,0.9-0.6,1.4-0.7c0.5-0.2,1.1-0.3,1.7-0.3
		s1.2,0.1,1.7,0.3s1,0.4,1.4,0.8c0.4,0.3,0.7,0.7,1,1.2c0.2,0.5,0.4,1,0.4,1.6h-3.1c0-0.2,0-0.4-0.1-0.6c-0.1-0.2-0.2-0.3-0.3-0.4
		c-0.1-0.1-0.3-0.2-0.4-0.2c-0.2,0-0.3-0.1-0.5-0.1c-0.3,0-0.7,0.1-0.9,0.2c-0.3,0.1-0.4,0.4-0.4,0.8c0,0.2,0.1,0.3,0.2,0.5
		c0.2,0.1,0.4,0.3,0.6,0.4c0.3,0.1,0.5,0.2,0.8,0.3C1406.9,873.5,1407.2,873.6,1407.6,873.6z M1415.6,869v5.6c0,0.4,0,0.8,0.1,1.2
		s0.3,0.7,0.5,1s0.5,0.5,0.8,0.7s0.7,0.3,1.1,0.3s0.8-0.1,1.1-0.3c0.3-0.2,0.6-0.4,0.8-0.7c0.2-0.3,0.4-0.6,0.5-1s0.2-0.8,0.2-1.2
		V869h3.1v5.6c0,0.8-0.1,1.6-0.4,2.3s-0.6,1.4-1.1,1.9s-1.1,1-1.8,1.3c-0.7,0.3-1.5,0.5-2.3,0.5c-0.9,0-1.7-0.2-2.4-0.5
		c-0.7-0.3-1.3-0.8-1.8-1.3s-0.9-1.2-1.2-1.9c-0.3-0.7-0.4-1.5-0.4-2.3V869H1415.6z M1425.5,874.6c0-0.8,0.1-1.6,0.4-2.3
		s0.7-1.4,1.2-1.9s1.1-1,1.8-1.3c0.7-0.3,1.5-0.5,2.4-0.5h0.4v2.8c-0.4,0-0.8,0.1-1.2,0.3c-0.4,0.2-0.7,0.4-1,0.7s-0.5,0.6-0.7,1
		s-0.3,0.8-0.3,1.2v5.6h-3.1L1425.5,874.6L1425.5,874.6z M1432.5,874.6c0-0.8,0.2-1.6,0.5-2.3s0.8-1.4,1.3-1.9s1.2-1,2-1.3
		s1.6-0.5,2.4-0.5c0.9,0,1.7,0.2,2.4,0.5c0.8,0.3,1.4,0.7,2,1.3s1,1.2,1.3,1.9s0.5,1.5,0.5,2.3v9.4h-3.1v-4.7
		c-0.4,0.4-0.9,0.7-1.4,0.9s-1.1,0.3-1.7,0.3c-0.8,0-1.7-0.2-2.4-0.5c-0.8-0.3-1.4-0.8-2-1.3s-1-1.2-1.3-1.9
		C1432.7,876.2,1432.5,875.5,1432.5,874.6z M1435.7,874.6c0,0.4,0.1,0.8,0.3,1.2c0.2,0.4,0.4,0.7,0.7,1s0.6,0.5,1,0.7
		s0.8,0.3,1.2,0.3s0.8-0.1,1.2-0.3c0.4-0.2,0.7-0.4,1-0.7s0.5-0.6,0.7-1s0.3-0.8,0.3-1.2s-0.1-0.8-0.3-1.2c-0.2-0.4-0.4-0.7-0.7-1
		c-0.3-0.3-0.6-0.5-1-0.7s-0.8-0.3-1.2-0.3s-0.8,0.1-1.2,0.3c-0.4,0.2-0.7,0.4-1,0.7s-0.5,0.6-0.7,1
		C1435.8,873.8,1435.7,874.2,1435.7,874.6z M1447,865.2h3.1v15h-3.1V865.2z"/>
	
		<linearGradient id="SVGID_00000070828260114139065090000005268622445730958783_" gradientUnits="userSpaceOnUse" x1="1401.8707" y1="729.5107" x2="1450.8314" y2="624.5992" gradientTransform="matrix(1 0 0 -1 0 1549.89)">
		<stop  offset="0" style="stop-color:#4C4C4C"/>
		<stop  offset="1" style="stop-color:#1B1B1F"/>
	</linearGradient>
	<path style="fill-rule:evenodd;clip-rule:evenodd;fill:url(#SVGID_00000070828260114139065090000005268622445730958783_);" d="
		M1416.3,817.2c0.9-0.2,1.8-0.4,2.7-0.4h37.4c3.2,0,5.8,2.6,5.8,5.8v93.6c0,3.2-2.6,5.8-5.8,5.8h-63.5c-3.2,0-5.8-2.6-5.8-5.8v-67.5
		c0-0.9,0.1-1.8,0.4-2.7c0.1,0,0.3,0,0.5,0h21.7c3.7,0,6.7-3,6.7-6.7L1416.3,817.2L1416.3,817.2z M1411.3,820.3l-20.7,20.7h19
		c0.9,0,1.7-0.7,1.7-1.7V820.3z M1419,811.8c-4,0-7.8,1.6-10.6,4.4l-21.9,21.9c-2.8,2.8-4.4,6.6-4.4,10.6v67.5
		c0,6,4.9,10.9,10.9,10.9h63.5c6,0,10.9-4.9,10.9-10.9v-93.6c0-6-4.9-10.9-10.9-10.9L1419,811.8L1419,811.8z"/>
	
		<linearGradient id="SVGID_00000165945390708458985230000016077174754893562003_" gradientUnits="userSpaceOnUse" x1="1401.8707" y1="729.5107" x2="1450.8314" y2="624.5992" gradientTransform="matrix(1 0 0 -1 0 1549.89)">
		<stop  offset="0" style="stop-color:#F3F3F3"/>
		<stop  offset="1" style="stop-color:#8F8F95"/>
	</linearGradient>
	<path style="fill-rule:evenodd;clip-rule:evenodd;fill:url(#SVGID_00000165945390708458985230000016077174754893562003_);" d="
		M1416.3,817.2c0.9-0.2,1.8-0.4,2.7-0.4h37.4c3.2,0,5.8,2.6,5.8,5.8v93.6c0,3.2-2.6,5.8-5.8,5.8h-63.5c-3.2,0-5.8-2.6-5.8-5.8v-67.5
		c0-0.9,0.1-1.8,0.4-2.7c0.1,0,0.3,0,0.5,0h21.7c3.7,0,6.7-3,6.7-6.7L1416.3,817.2L1416.3,817.2z M1411.3,820.3l-20.7,20.7h19
		c0.9,0,1.7-0.7,1.7-1.7V820.3z M1419,811.8c-4,0-7.8,1.6-10.6,4.4l-21.9,21.9c-2.8,2.8-4.4,6.6-4.4,10.6v67.5
		c0,6,4.9,10.9,10.9,10.9h63.5c6,0,10.9-4.9,10.9-10.9v-93.6c0-6-4.9-10.9-10.9-10.9L1419,811.8L1419,811.8z"/>
</g>
</svg>
