<?xml version="1.0" encoding="utf-8"?>
<!-- Generator: Adobe Illustrator 26.3.1, SVG Export Plug-In . SVG Version: 6.00 Build 0)  -->
<svg version="1.1" id="Layer_1" xmlns="http://www.w3.org/2000/svg" xmlns:xlink="http://www.w3.org/1999/xlink" x="0px" y="0px"
	 viewBox="0 0 1920 1080" style="enable-background:new 0 0 1920 1080;" xml:space="preserve">
<style type="text/css">
	.st0{opacity:0.6;clip-path:url(#SVGID_00000132084609090358486890000016635274101502054064_);}
	.st1{fill-rule:evenodd;clip-rule:evenodd;fill:url(#SVGID_00000158030121730026913160000003794840159983495080_);}
	
		.st2{fill:none;stroke:url(#SVGID_00000142878500252673387080000005388745224750295188_);stroke-width:8.3713;stroke-linejoin:bevel;stroke-miterlimit:10;stroke-opacity:0.4;}
	.st3{fill-rule:evenodd;clip-rule:evenodd;fill:url(#SVGID_00000016039258925521182680000004694350863228045233_);}
	.st4{fill-rule:evenodd;clip-rule:evenodd;fill:url(#SVGID_00000119824884014909548050000012710703348751651477_);}
	
		.st5{fill-rule:evenodd;clip-rule:evenodd;fill:url(#SVGID_00000119080874478171955830000015627566435230463667_);fill-opacity:0.4;}
	.st6{fill-rule:evenodd;clip-rule:evenodd;fill:url(#SVGID_00000147923403589505466960000005482284979641180346_);}
	.st7{fill-rule:evenodd;clip-rule:evenodd;fill:url(#SVGID_00000057135534839533416910000011856874139319019397_);}
	.st8{fill:url(#SVGID_00000081635091685973493770000001437185538279019451_);fill-opacity:0.4;}
	.st9{fill:url(#SVGID_00000094585090114632441740000011976567053707422643_);fill-opacity:0.4;}
	.st10{fill:url(#SVGID_00000144339641119292538410000018107415462751599235_);fill-opacity:0.4;}
	.st11{fill:url(#SVGID_00000164479226378003570300000018101838118478979484_);fill-opacity:0.4;}
	.st12{fill:url(#SVGID_00000183206823250992614430000018332768145668941475_);fill-opacity:0.4;}
	.st13{fill:url(#SVGID_00000104692761494699266750000016750157305039752347_);fill-opacity:0.4;}
	.st14{fill:url(#SVGID_00000132081671797551141070000013702597756527599495_);fill-opacity:0.4;}
	.st15{fill:url(#SVGID_00000070084471830669187960000014069997882678365102_);fill-opacity:0.4;}
	.st16{fill:url(#SVGID_00000085210044721886961540000000032528233031280798_);fill-opacity:0.4;}
	.st17{opacity:0.45;clip-path:url(#SVGID_00000149357703829109415310000012546016714241648273_);}
	.st18{fill:url(#SVGID_00000026150774618113750540000017465091057575642761_);}
	
		.st19{fill:none;stroke:url(#SVGID_00000076581437110368598990000018314462553396982920_);stroke-width:9.555;stroke-linejoin:bevel;stroke-miterlimit:10;stroke-opacity:0.3;}
	.st20{fill:url(#SVGID_00000141423213455714354930000007755888551628160918_);}
	.st21{fill:url(#SVGID_00000182502902099632043000000000771493621576354186_);}
	.st22{fill-rule:evenodd;clip-rule:evenodd;fill:url(#SVGID_00000174561855156153823080000010396721670232876203_);}
	.st23{fill-rule:evenodd;clip-rule:evenodd;fill:url(#SVGID_00000116915072923297321670000014616219286813011625_);}
	.st24{opacity:0.6;clip-path:url(#SVGID_00000058571599110051060900000002336793669961574277_);}
	.st25{fill:url(#SVGID_00000161621665053399139520000010588669283859491757_);}
	
		.st26{fill:none;stroke:url(#SVGID_00000147933109218888653980000008375780653968853413_);stroke-width:5.8119;stroke-linejoin:bevel;stroke-miterlimit:10;stroke-opacity:0.4;}
	.st27{fill:url(#SVGID_00000083074510930466101130000012144370171520510645_);}
	.st28{fill:url(#SVGID_00000088845979700398960000000004890433493101960833_);}
	.st29{fill-rule:evenodd;clip-rule:evenodd;fill:url(#SVGID_00000012437254948031791040000016023124557185510585_);}
	.st30{fill-rule:evenodd;clip-rule:evenodd;fill:url(#SVGID_00000145770064948232412770000003652559301770140337_);}
	.st31{clip-path:url(#SVGID_00000083066304664744967640000002109793462773710264_);}
	.st32{fill:url(#SVGID_00000120553432576748249090000015094870715556101295_);}
	
		.st33{opacity:0.3;fill:none;stroke:url(#SVGID_00000001642933935780799570000000632554944679088310_);stroke-width:9.555;stroke-linejoin:bevel;stroke-miterlimit:10;enable-background:new    ;}
	.st34{fill-rule:evenodd;clip-rule:evenodd;fill:url(#SVGID_00000106126359756752014990000011393155678981798288_);}
	.st35{opacity:0.3;fill:url(#SVGID_00000083068488643409380240000006521074870863493791_);enable-background:new    ;}
	.st36{opacity:0.3;fill:url(#SVGID_00000055690983455576655570000007922858585799493526_);enable-background:new    ;}
	.st37{opacity:0.3;fill:url(#SVGID_00000060740691217742618610000014837756820882757275_);enable-background:new    ;}
	.st38{opacity:0.3;fill:url(#SVGID_00000002344771646739546240000000144534227334802103_);enable-background:new    ;}
	.st39{fill:url(#SVGID_00000028316798881450162540000015495367052392284064_);}
	.st40{opacity:0.4;clip-path:url(#SVGID_00000165213375667368719240000016314515490736012677_);}
	.st41{fill-rule:evenodd;clip-rule:evenodd;fill:url(#SVGID_00000078760843378061413620000011365816019795585413_);}
	
		.st42{fill:none;stroke:url(#SVGID_00000178925717440588780920000011377674860213327760_);stroke-width:4.9765;stroke-linejoin:bevel;stroke-miterlimit:10;stroke-opacity:0.4;}
	.st43{fill-rule:evenodd;clip-rule:evenodd;fill:url(#SVGID_00000060738030346712379580000004447737139423862679_);}
	.st44{fill-rule:evenodd;clip-rule:evenodd;fill:url(#SVGID_00000118386568997044132340000004406320884850175126_);}
	.st45{fill:url(#SVGID_00000150812758579008013820000012224180451227157641_);fill-opacity:0.4;}
	.st46{fill:url(#SVGID_00000101071329700847402550000014589471208262446234_);fill-opacity:0.4;}
	.st47{fill:url(#SVGID_00000096743387309912049610000006514756631776142770_);fill-opacity:0.4;}
	.st48{fill:url(#SVGID_00000080179305202086638190000014051485404388015007_);fill-opacity:0.4;}
	.st49{fill-rule:evenodd;clip-rule:evenodd;fill:url(#SVGID_00000047746468623912128700000001209504608052747683_);}
	.st50{fill-rule:evenodd;clip-rule:evenodd;fill:url(#SVGID_00000037675291645391848440000017724357383431813812_);}
	.st51{opacity:0.4;}
	.st52{fill:url(#SVGID_00000145776793709360038510000004193525884071194753_);}
	.st53{fill:url(#SVGID_00000018926073780558826950000010942073482736397244_);}
	.st54{fill:url(#SVGID_00000150815903423172518340000015888434061250751138_);}
	.st55{fill:url(#SVGID_00000160896565224207175880000014735559626002996625_);}
	.st56{fill:url(#SVGID_00000179647528366894110040000000868464409401596051_);}
	.st57{fill-rule:evenodd;clip-rule:evenodd;fill:#FFFFFF;filter:url(#Adobe_OpacityMaskFilter);}
	
		.st58{mask:url(#path-6-inside-1_1_11512_00000146490053352094917050000003353918802289482882_);fill:url(#SVGID_00000040554809868453198370000014423445061260775060_);fill-opacity:0.4;}
	.st59{fill-rule:evenodd;clip-rule:evenodd;fill:url(#SVGID_00000037674749892337943860000001312681164435183541_);}
	.st60{fill-rule:evenodd;clip-rule:evenodd;fill:url(#SVGID_00000061472415762568988950000006626331034263405184_);}
	.st61{opacity:0.8;clip-path:url(#SVGID_00000048475720183274259840000008533935284538255002_);}
	.st62{fill-rule:evenodd;clip-rule:evenodd;fill:url(#SVGID_00000122687000071194112240000002323331923952273028_);}
	
		.st63{fill:none;stroke:url(#SVGID_00000031190215322320127010000006031299101992861591_);stroke-width:8.2406;stroke-linejoin:bevel;stroke-miterlimit:10;stroke-opacity:0.4;}
	
		.st64{fill:none;stroke:url(#SVGID_00000055671567319184431880000007096267017808304806_);stroke-width:8.2406;stroke-linejoin:bevel;stroke-miterlimit:10;stroke-opacity:0.4;}
	
		.st65{fill:none;stroke:url(#SVGID_00000121969148597220138670000010693001941524570498_);stroke-width:8.2406;stroke-linejoin:bevel;stroke-miterlimit:10;stroke-opacity:0.4;}
	.st66{fill-rule:evenodd;clip-rule:evenodd;fill:url(#SVGID_00000083076772738622403340000011443684668691655081_);}
	.st67{fill-rule:evenodd;clip-rule:evenodd;fill:url(#SVGID_00000008141349353697297680000014332513949737212073_);}
	.st68{opacity:0.9;clip-path:url(#SVGID_00000096027082508006764330000000902358314169083821_);}
	.st69{fill-rule:evenodd;clip-rule:evenodd;fill:url(#SVGID_00000015344559397337604090000006466408217886043304_);}
	.st70{opacity:0.3;}
	
		.st71{fill-rule:evenodd;clip-rule:evenodd;fill:#FFFFFF;filter:url(#Adobe_OpacityMaskFilter_00000104705744613761574570000008631763196735371171_);}
	
		.st72{mask:url(#path-2-inside-1_208_1384_00000127735955667219051320000000188062743217041561_);fill:url(#SVGID_00000070085780939525376740000005666800187305690014_);}
	
		.st73{fill-rule:evenodd;clip-rule:evenodd;fill:#FFFFFF;filter:url(#Adobe_OpacityMaskFilter_00000041294214195666094890000016780893598029379220_);}
	
		.st74{mask:url(#path-4-inside-2_208_1384_00000182495533118952427790000012121409470731494550_);fill:url(#SVGID_00000080910341866845655870000007269527462838506137_);}
</style>
<g>
	<g>
		<g>
			<g>
				<defs>
					<rect id="SVGID_1_" y="0" width="1920" height="1080"/>
				</defs>
				<clipPath id="SVGID_00000072961250862355974610000012675059159665098388_">
					<use xlink:href="#SVGID_1_"  style="overflow:visible;"/>
				</clipPath>
				<g style="opacity:0.6;clip-path:url(#SVGID_00000072961250862355974610000012675059159665098388_);">
					<g>
						
							<linearGradient id="SVGID_00000104703213109757701100000015137736425869204880_" gradientUnits="userSpaceOnUse" x1="166.4825" y1="950.7505" x2="224.9592" y2="822.4607" gradientTransform="matrix(1 0 0 -1 0 1549.89)">
							<stop  offset="0" style="stop-color:#322D37"/>
							<stop  offset="1" style="stop-color:#18151B"/>
						</linearGradient>
						
							<path style="fill-rule:evenodd;clip-rule:evenodd;fill:url(#SVGID_00000104703213109757701100000015137736425869204880_);" d="
							M141.6,615.5c0-7.9,0-11.9,1.2-15.1c1.9-4.9,5.8-8.9,10.7-10.7c3.2-1.2,7.1-1.2,15.1-1.2h41.5c10.4,0,15.5,0,19.5,2
							c3.5,1.8,6.3,4.6,8.1,8.1c2,4,2,9.1,2,19.5v56c0,0.6,0,0.9,0,1.2s0.1,0.4,0.2,0.7c0.1,0.3,0.2,0.6,0.5,1.3
							c1.6,3.6,2.5,7.6,2.5,11.8c0,2.8-0.4,5.5-1.1,8c-0.6,2.1-0.9,3.1-0.9,3.8s0.1,1.1,0.5,1.8c0.3,0.6,0.9,1.2,2.1,2.4l0.9,0.9
							c4,4,4,10.5,0,14.5s-10.5,4-14.5,0l-1.5-1.5c-1.2-1.2-1.7-1.7-2.3-2s-1-0.4-1.7-0.5c-0.7,0-1.7,0.2-3.7,0.7
							c-2.2,0.5-4.5,0.8-6.8,0.8c-3.6,0-7.1-0.7-10.3-1.9c-0.6-0.2-0.9-0.3-1.1-0.4c-0.2-0.1-0.4-0.1-0.6-0.1c-0.2,0-0.5,0-1,0
							h-29.8c-10.4,0-15.5,0-19.5-2c-3.5-1.8-6.3-4.6-8.1-8.1c-2-4-2-9.1-2-19.5v-70.5H141.6z"/>
					</g>
					
						<linearGradient id="SVGID_00000075143186205193968530000002600109148286506390_" gradientUnits="userSpaceOnUse" x1="207.7423" y1="875.349" x2="222.4655" y2="845.2503" gradientTransform="matrix(1 0 0 -1 0 1549.89)">
						<stop  offset="0" style="stop-color:#FF00A0"/>
						<stop  offset="1" style="stop-color:#9600FF"/>
					</linearGradient>
					
						<path style="fill:none;stroke:url(#SVGID_00000075143186205193968530000002600109148286506390_);stroke-width:8.3713;stroke-linejoin:bevel;stroke-miterlimit:10;stroke-opacity:0.4;" d="
						M229.4,689.6c0,7.7-6.4,14.1-14.3,14.1c-7.9,0-14.3-6.3-14.3-14.1s6.4-14.1,14.3-14.1C223.1,675.5,229.4,681.8,229.4,689.6z"/>
					
						<linearGradient id="SVGID_00000156567455187247527250000006810391426508036517_" gradientUnits="userSpaceOnUse" x1="196.7021" y1="937.9117" x2="220.0383" y2="839.769" gradientTransform="matrix(1 0 0 -1 0 1549.89)">
						<stop  offset="0" style="stop-color:#4C4C4C"/>
						<stop  offset="1" style="stop-color:#1B1B1F"/>
					</linearGradient>
					<path style="fill-rule:evenodd;clip-rule:evenodd;fill:url(#SVGID_00000156567455187247527250000006810391426508036517_);" d="
						M200.4,689.6c0-8.2,6.6-14.8,14.8-14.8s14.8,6.6,14.8,14.8s-6.6,14.8-14.8,14.8C207,704.4,200.4,697.8,200.4,689.6z
						 M215.2,669.6c-11,0-20,8.9-20,20c0,11,8.9,20,20,20c4.3,0,8.3-1.4,11.6-3.7l8.9,8.9c1,1,2.6,1,3.6,0s1-2.6,0-3.6l-8.8-8.8
						c2.9-3.5,4.6-7.9,4.6-12.7C235.2,678.6,226.2,669.6,215.2,669.6z"/>
					
						<linearGradient id="SVGID_00000049191055334598471020000013290275341927516050_" gradientUnits="userSpaceOnUse" x1="208.9179" y1="878.0018" x2="224.8638" y2="832.768" gradientTransform="matrix(1 0 0 -1 0 1549.89)">
						<stop  offset="0" style="stop-color:#F3F3F3"/>
						<stop  offset="1" style="stop-color:#8F8F95"/>
					</linearGradient>
					<path style="fill-rule:evenodd;clip-rule:evenodd;fill:url(#SVGID_00000049191055334598471020000013290275341927516050_);" d="
						M200.4,689.6c0-8.2,6.6-14.8,14.8-14.8s14.8,6.6,14.8,14.8s-6.6,14.8-14.8,14.8C207,704.4,200.4,697.8,200.4,689.6z
						 M215.2,669.6c-11,0-20,8.9-20,20c0,11,8.9,20,20,20c4.3,0,8.3-1.4,11.6-3.7l8.9,8.9c1,1,2.6,1,3.6,0s1-2.6,0-3.6l-8.8-8.8
						c2.9-3.5,4.6-7.9,4.6-12.7C235.2,678.6,226.2,669.6,215.2,669.6z"/>
					
						<linearGradient id="SVGID_00000156568509843536769480000012027929036720653200_" gradientUnits="userSpaceOnUse" x1="165.6344" y1="935.0623" x2="215.9601" y2="860.7259" gradientTransform="matrix(1 0 0 -1 0 1549.89)">
						<stop  offset="0" style="stop-color:#FF00A0"/>
						<stop  offset="1" style="stop-color:#9600FF"/>
					</linearGradient>
					
						<path style="fill-rule:evenodd;clip-rule:evenodd;fill:url(#SVGID_00000156568509843536769480000012027929036720653200_);fill-opacity:0.4;" d="
						M223.6,668.4v-60.9c0-1.4-1.2-2.6-2.6-2.6h-40.9h-19.5c-1.4,0-2.6,1.2-2.6,2.6v89c0,1.4,1.2,2.6,2.6,2.6h33.7
						c1,2.2,2.4,4.3,4.1,6h-37.8c-4.7,0-8.6-3.8-8.6-8.6v-89c0-4.7,3.8-8.6,8.6-8.6h19.5H221c4.7,0,8.6,3.8,8.6,8.6V672
						C227.8,670.5,225.8,669.3,223.6,668.4z"/>
					
						<linearGradient id="SVGID_00000032616765996999314360000009933352830663656382_" gradientUnits="userSpaceOnUse" x1="168.8058" y1="945.3488" x2="215.888" y2="843.8624" gradientTransform="matrix(1 0 0 -1 0 1549.89)">
						<stop  offset="0" style="stop-color:#4C4C4C"/>
						<stop  offset="1" style="stop-color:#1B1B1F"/>
					</linearGradient>
					<path style="fill-rule:evenodd;clip-rule:evenodd;fill:url(#SVGID_00000032616765996999314360000009933352830663656382_);" d="
						M160.6,596.3c-6.2,0-11.2,5-11.2,11.2v89c0,6.2,5,11.2,11.2,11.2h40.6c-1.9-1.5-3.6-3.2-5-5.2h-35.7c-3.3,0-6-2.7-6-6v-89
						c0-3.3,2.7-6,6-6H221c3.3,0,6,2.7,6,6v62.6c1.9,1.2,3.7,2.6,5.2,4.2v-66.9c0-6.2-5-11.2-11.2-11.2h-60.4V596.3z"/>
					
						<linearGradient id="SVGID_00000022531166250421900970000015101391787900353676_" gradientUnits="userSpaceOnUse" x1="168.8058" y1="945.3488" x2="215.888" y2="843.8624" gradientTransform="matrix(1 0 0 -1 0 1549.89)">
						<stop  offset="0" style="stop-color:#F3F3F3"/>
						<stop  offset="1" style="stop-color:#8F8F95"/>
					</linearGradient>
					<path style="fill-rule:evenodd;clip-rule:evenodd;fill:url(#SVGID_00000022531166250421900970000015101391787900353676_);" d="
						M160.6,596.3c-6.2,0-11.2,5-11.2,11.2v89c0,6.2,5,11.2,11.2,11.2h40.6c-1.9-1.5-3.6-3.2-5-5.2h-35.7c-3.3,0-6-2.7-6-6v-89
						c0-3.3,2.7-6,6-6H221c3.3,0,6,2.7,6,6v62.6c1.9,1.2,3.7,2.6,5.2,4.2v-66.9c0-6.2-5-11.2-11.2-11.2h-60.4V596.3z"/>
					
						<linearGradient id="SVGID_00000084515983194732421790000011268205718441533362_" gradientUnits="userSpaceOnUse" x1="172.6474" y1="931.2517" x2="173.5583" y2="926.4983" gradientTransform="matrix(1 0 0 -1 0 1549.89)">
						<stop  offset="0" style="stop-color:#FF00A0"/>
						<stop  offset="1" style="stop-color:#9600FF"/>
					</linearGradient>
					<path style="fill:url(#SVGID_00000084515983194732421790000011268205718441533362_);fill-opacity:0.4;" d="M169.3,618.6h7.6
						c1.3,0,2.4,1.1,2.4,2.4l0,0c0,1.3-1.1,2.4-2.4,2.4h-7.6c-1.3,0-2.4-1.1-2.4-2.4l0,0C166.9,619.7,168,618.6,169.3,618.6z"/>
					
						<linearGradient id="SVGID_00000037652178453392977140000006919935308286656685_" gradientUnits="userSpaceOnUse" x1="184.4028" y1="907.2026" x2="184.9025" y2="902.3263" gradientTransform="matrix(1 0 0 -1 0 1549.89)">
						<stop  offset="0" style="stop-color:#FF00A0"/>
						<stop  offset="1" style="stop-color:#9600FF"/>
					</linearGradient>
					<path style="fill:url(#SVGID_00000037652178453392977140000006919935308286656685_);fill-opacity:0.4;" d="M175.4,642.7h18.5
						c1.3,0,2.4,1.1,2.4,2.4l0,0c0,1.3-1.1,2.4-2.4,2.4h-18.5c-1.3,0-2.4-1.1-2.4-2.4l0,0C172.9,643.8,174,642.7,175.4,642.7z"/>
					
						<linearGradient id="SVGID_00000179612669926602645420000004491067835027932304_" gradientUnits="userSpaceOnUse" x1="181.3907" y1="923.2348" x2="182.2253" y2="918.4534" gradientTransform="matrix(1 0 0 -1 0 1549.89)">
						<stop  offset="0" style="stop-color:#FF00A0"/>
						<stop  offset="1" style="stop-color:#9600FF"/>
					</linearGradient>
					<path style="fill:url(#SVGID_00000179612669926602645420000004491067835027932304_);fill-opacity:0.4;" d="M177.4,626.6h8.8
						c1.3,0,2.4,1.1,2.4,2.4l0,0c0,1.3-1.1,2.4-2.4,2.4h-8.8c-1.3,0-2.4-1.1-2.4-2.4l0,0C175,627.7,176,626.6,177.4,626.6z"/>
					
						<linearGradient id="SVGID_00000029743729336074101380000000389901529918483101_" gradientUnits="userSpaceOnUse" x1="173.2791" y1="899.0994" x2="174.1144" y2="894.318" gradientTransform="matrix(1 0 0 -1 0 1549.89)">
						<stop  offset="0" style="stop-color:#FF00A0"/>
						<stop  offset="1" style="stop-color:#9600FF"/>
					</linearGradient>
					<path style="fill:url(#SVGID_00000029743729336074101380000000389901529918483101_);fill-opacity:0.4;" d="M169.3,650.8h8.8
						c1.3,0,2.4,1.1,2.4,2.4l0,0c0,1.3-1.1,2.4-2.4,2.4h-8.8c-1.3,0-2.4-1.1-2.4-2.4l0,0C166.9,651.8,168,650.8,169.3,650.8z"/>
					
						<linearGradient id="SVGID_00000127019807698621479470000002594094477187603074_" gradientUnits="userSpaceOnUse" x1="192.5951" y1="915.2381" x2="193.1026" y2="910.3631" gradientTransform="matrix(1 0 0 -1 0 1549.89)">
						<stop  offset="0" style="stop-color:#FF00A0"/>
						<stop  offset="1" style="stop-color:#9600FF"/>
					</linearGradient>
					<path style="fill:url(#SVGID_00000127019807698621479470000002594094477187603074_);fill-opacity:0.4;" d="M183.8,634.7h18.1
						c1.3,0,2.4,1.1,2.4,2.4l0,0c0,1.3-1.1,2.4-2.4,2.4h-18.1c-1.3,0-2.4-1.1-2.4-2.4l0,0C181.4,635.8,182.5,634.7,183.8,634.7z"/>
					
						<linearGradient id="SVGID_00000163065993455936131250000002305145889673469873_" gradientUnits="userSpaceOnUse" x1="184.3993" y1="875.0372" x2="184.8989" y2="870.1608" gradientTransform="matrix(1 0 0 -1 0 1549.89)">
						<stop  offset="0" style="stop-color:#FF00A0"/>
						<stop  offset="1" style="stop-color:#9600FF"/>
					</linearGradient>
					<path style="fill:url(#SVGID_00000163065993455936131250000002305145889673469873_);fill-opacity:0.4;" d="M175.4,674.9h18.5
						c1.3,0,2.4,1.1,2.4,2.4l0,0c0,1.3-1.1,2.4-2.4,2.4h-18.5c-1.3,0-2.4-1.1-2.4-2.4l0,0C172.9,676,174,674.9,175.4,674.9z"/>
					
						<linearGradient id="SVGID_00000044860683708099281980000003666715954565713544_" gradientUnits="userSpaceOnUse" x1="185.7848" y1="891.0665" x2="186.6202" y2="886.2851" gradientTransform="matrix(1 0 0 -1 0 1549.89)">
						<stop  offset="0" style="stop-color:#FF00A0"/>
						<stop  offset="1" style="stop-color:#9600FF"/>
					</linearGradient>
					<path style="fill:url(#SVGID_00000044860683708099281980000003666715954565713544_);fill-opacity:0.4;" d="M181.8,658.8h8.8
						c1.3,0,2.4,1.1,2.4,2.4l0,0c0,1.3-1.1,2.4-2.4,2.4h-8.8c-1.3,0-2.4-1.1-2.4-2.4l0,0C179.4,659.9,180.5,658.8,181.8,658.8z"/>
					
						<linearGradient id="SVGID_00000107585200407049308920000015113896021103684503_" gradientUnits="userSpaceOnUse" x1="173.2901" y1="866.9363" x2="174.1254" y2="862.1549" gradientTransform="matrix(1 0 0 -1 0 1549.89)">
						<stop  offset="0" style="stop-color:#FF00A0"/>
						<stop  offset="1" style="stop-color:#9600FF"/>
					</linearGradient>
					<path style="fill:url(#SVGID_00000107585200407049308920000015113896021103684503_);fill-opacity:0.4;" d="M169.3,682.9h8.8
						c1.3,0,2.4,1.1,2.4,2.4l0,0c0,1.3-1.1,2.4-2.4,2.4h-8.8c-1.3,0-2.4-1.1-2.4-2.4l0,0C166.9,684,168,682.9,169.3,682.9z"/>
					
						<linearGradient id="SVGID_00000155141282329689195040000004503468540711456898_" gradientUnits="userSpaceOnUse" x1="191.1562" y1="883.0057" x2="192.067" y2="878.2531" gradientTransform="matrix(1 0 0 -1 0 1549.89)">
						<stop  offset="0" style="stop-color:#FF00A0"/>
						<stop  offset="1" style="stop-color:#9600FF"/>
					</linearGradient>
					<path style="fill:url(#SVGID_00000155141282329689195040000004503468540711456898_);fill-opacity:0.4;" d="M187.8,666.8h7.6
						c1.3,0,2.4,1.1,2.4,2.4l0,0c0,1.3-1.1,2.4-2.4,2.4h-7.6c-1.3,0-2.4-1.1-2.4-2.4l0,0C185.4,667.9,186.5,666.8,187.8,666.8z"/>
				</g>
			</g>
		</g>
	</g>
</g>
<g>
</g>
<g>
	<g>
		<g>
			<g>
				<defs>
					<rect id="SVGID_00000118360556860905824390000009622585247539908486_" y="0" width="1920" height="1080"/>
				</defs>
				<clipPath id="SVGID_00000020368409172999940780000005004253108084304550_">
					<use xlink:href="#SVGID_00000118360556860905824390000009622585247539908486_"  style="overflow:visible;"/>
				</clipPath>
				<g style="opacity:0.45;clip-path:url(#SVGID_00000020368409172999940780000005004253108084304550_);">
					<g>
						
							<linearGradient id="SVGID_00000049219700560721771550000006580412373442703261_" gradientUnits="userSpaceOnUse" x1="1338.6028" y1="766.405" x2="1396.3712" y2="641.5907" gradientTransform="matrix(1 0 0 -1 0 1549.89)">
							<stop  offset="0" style="stop-color:#322D37"/>
							<stop  offset="1" style="stop-color:#18151B"/>
						</linearGradient>
						<path style="fill:url(#SVGID_00000049219700560721771550000006580412373442703261_);" d="M1313.7,820.9c0-4.7,0-7,0.5-9.2
							c0.5-2,1.2-3.8,2.3-5.5c1.2-1.9,2.8-3.6,6.1-6.9l16.6-16.7c3.3-3.3,5-5,6.9-6.2c1.7-1.1,3.6-1.8,5.6-2.3
							c2.2-0.5,4.6-0.5,9.3-0.5h26.5c9.8,0,14.7,0,18.5,1.9c3.3,1.7,6,4.4,7.7,7.7c1.9,3.8,1.9,8.7,1.9,18.5v75.9
							c0,9.8,0,14.7-1.9,18.5c-1.7,3.3-4.4,6-7.7,7.7c-3.8,1.9-8.7,1.9-18.5,1.9h-45.8c-9.8,0-14.7,0-18.5-1.9
							c-3.3-1.7-6-4.4-7.7-7.7c-1.9-3.8-1.9-8.7-1.9-18.5L1313.7,820.9L1313.7,820.9z"/>
					</g>
					
						<linearGradient id="SVGID_00000023239499699568020070000017006842140395217033_" gradientUnits="userSpaceOnUse" x1="1337.7866" y1="750.4628" x2="1391.7466" y2="670.7578" gradientTransform="matrix(1 0 0 -1 0 1549.89)">
						<stop  offset="0" style="stop-color:#FF00A0"/>
						<stop  offset="1" style="stop-color:#9600FF"/>
					</linearGradient>
					
						<path style="fill:none;stroke:url(#SVGID_00000023239499699568020070000017006842140395217033_);stroke-width:9.555;stroke-linejoin:bevel;stroke-miterlimit:10;stroke-opacity:0.3;" d="
						M1327.5,818.7c0-2.5,1-5,2.8-6.8l21.9-21.9c1.8-1.8,4.2-2.8,6.8-2.8h37.8c3,0,5.4,2.4,5.4,5.4v93.6c0,3-2.4,5.4-5.4,5.4h-63.9
						c-3,0-5.4-2.4-5.4-5.4V818.7L1327.5,818.7z"/>
					
						<linearGradient id="SVGID_00000147185102483091182070000002603539632585148849_" gradientUnits="userSpaceOnUse" x1="1361.5869" y1="719.8765" x2="1366.3162" y2="691.5" gradientTransform="matrix(1 0 0 -1 0 1549.89)">
						<stop  offset="0" style="stop-color:#4C4C4C"/>
						<stop  offset="1" style="stop-color:#1B1B1F"/>
					</linearGradient>
					<path style="fill:url(#SVGID_00000147185102483091182070000002603539632585148849_);" d="M1340.7,848.8c0,0.3,0,0.5-0.1,0.7
						s-0.2,0.4-0.4,0.6c-0.2,0.2-0.3,0.3-0.6,0.4c-0.2,0.1-0.4,0.1-0.7,0.1c-0.5,0-0.9-0.2-1.3-0.5c-0.3-0.3-0.5-0.8-0.5-1.3
						c0-0.3,0-0.5,0.1-0.7s0.2-0.4,0.4-0.6c0.2-0.2,0.4-0.3,0.6-0.4c0.2-0.1,0.5-0.1,0.7-0.1s0.5,0,0.7,0.1s0.4,0.2,0.6,0.4
						s0.3,0.3,0.4,0.6C1340.7,848.3,1340.7,848.5,1340.7,848.8z M1347.6,843.6c0.4,0,0.8,0.1,1.2,0.3c0.4,0.2,0.8,0.4,1.1,0.6
						c0.3,0.3,0.6,0.6,0.8,1c0.2,0.4,0.3,0.8,0.3,1.3c0,0.6-0.1,1.1-0.4,1.6s-0.6,0.9-1,1.2s-0.9,0.6-1.5,0.7
						c-0.5,0.2-1.1,0.3-1.7,0.3s-1.2-0.1-1.7-0.3c-0.6-0.2-1.1-0.4-1.5-0.7s-0.8-0.7-1-1.2c-0.3-0.5-0.4-1-0.4-1.6h3.1
						c0,0.5,0.2,0.8,0.5,1s0.7,0.3,1,0.3s0.7-0.1,1-0.3s0.5-0.5,0.5-0.8s-0.2-0.5-0.5-0.7s-0.7-0.3-1.2-0.4
						c-0.5-0.1-1.1-0.2-1.6-0.4s-1-0.4-1.4-0.7s-0.7-0.6-1-1c-0.2-0.4-0.4-0.8-0.4-1.3c0-0.6,0.1-1.1,0.4-1.5c0.2-0.5,0.6-0.8,1-1.2
						c0.4-0.3,0.9-0.6,1.4-0.7c0.5-0.2,1.1-0.3,1.7-0.3s1.2,0.1,1.7,0.3s1,0.4,1.4,0.8c0.4,0.3,0.7,0.7,1,1.2c0.2,0.5,0.4,1,0.4,1.6
						h-3.1c0-0.2,0-0.4-0.1-0.6c-0.1-0.2-0.2-0.3-0.3-0.4c-0.1-0.1-0.3-0.2-0.4-0.2c-0.2,0-0.3-0.1-0.5-0.1c-0.3,0-0.7,0.1-0.9,0.2
						c-0.3,0.1-0.4,0.4-0.4,0.8c0,0.2,0.1,0.3,0.2,0.5c0.2,0.1,0.4,0.3,0.6,0.4c0.3,0.1,0.5,0.2,0.8,0.3
						C1346.9,843.5,1347.2,843.6,1347.6,843.6z M1355.6,839v5.6c0,0.4,0,0.8,0.1,1.2s0.3,0.7,0.5,1s0.5,0.5,0.8,0.7s0.7,0.3,1.1,0.3
						s0.8-0.1,1.1-0.3c0.3-0.2,0.6-0.4,0.8-0.7c0.2-0.3,0.4-0.6,0.5-1s0.2-0.8,0.2-1.2V839h3.1v5.6c0,0.8-0.1,1.6-0.4,2.3
						s-0.6,1.4-1.1,1.9s-1.1,1-1.8,1.3c-0.7,0.3-1.5,0.5-2.3,0.5c-0.9,0-1.7-0.2-2.4-0.5c-0.7-0.3-1.3-0.8-1.8-1.3s-0.9-1.2-1.2-1.9
						c-0.3-0.7-0.4-1.5-0.4-2.3V839H1355.6z M1365.5,844.6c0-0.8,0.1-1.6,0.4-2.3s0.7-1.4,1.2-1.9s1.1-1,1.8-1.3
						c0.7-0.3,1.5-0.5,2.4-0.5h0.4v2.8c-0.4,0-0.8,0.1-1.2,0.3c-0.4,0.2-0.7,0.4-1,0.7s-0.5,0.6-0.7,1s-0.3,0.8-0.3,1.2v5.6h-3.1
						L1365.5,844.6L1365.5,844.6z M1372.5,844.6c0-0.8,0.2-1.6,0.5-2.3s0.8-1.4,1.3-1.9s1.2-1,2-1.3s1.6-0.5,2.4-0.5
						c0.9,0,1.7,0.2,2.4,0.5c0.8,0.3,1.4,0.7,2,1.3s1,1.2,1.3,1.9s0.5,1.5,0.5,2.3v9.4h-3.1v-4.7c-0.4,0.4-0.9,0.7-1.4,0.9
						s-1.1,0.3-1.7,0.3c-0.8,0-1.7-0.2-2.4-0.5c-0.8-0.3-1.4-0.8-2-1.3s-1-1.2-1.3-1.9C1372.7,846.2,1372.5,845.5,1372.5,844.6z
						 M1375.7,844.6c0,0.4,0.1,0.8,0.3,1.2c0.2,0.4,0.4,0.7,0.7,1s0.6,0.5,1,0.7s0.8,0.3,1.2,0.3s0.8-0.1,1.2-0.3
						c0.4-0.2,0.7-0.4,1-0.7s0.5-0.6,0.7-1s0.3-0.8,0.3-1.2s-0.1-0.8-0.3-1.2c-0.2-0.4-0.4-0.7-0.7-1c-0.3-0.3-0.6-0.5-1-0.7
						s-0.8-0.3-1.2-0.3s-0.8,0.1-1.2,0.3c-0.4,0.2-0.7,0.4-1,0.7s-0.5,0.6-0.7,1C1375.8,843.8,1375.7,844.2,1375.7,844.6z
						 M1387,835.2h3.1v15h-3.1V835.2z"/>
					
						<linearGradient id="SVGID_00000121957578769748588740000015108367929709780914_" gradientUnits="userSpaceOnUse" x1="1361.5869" y1="719.8765" x2="1366.3162" y2="691.5" gradientTransform="matrix(1 0 0 -1 0 1549.89)">
						<stop  offset="0" style="stop-color:#F3F3F3"/>
						<stop  offset="1" style="stop-color:#8F8F95"/>
					</linearGradient>
					<path style="fill:url(#SVGID_00000121957578769748588740000015108367929709780914_);" d="M1340.7,848.8c0,0.3,0,0.5-0.1,0.7
						s-0.2,0.4-0.4,0.6c-0.2,0.2-0.3,0.3-0.6,0.4c-0.2,0.1-0.4,0.1-0.7,0.1c-0.5,0-0.9-0.2-1.3-0.5c-0.3-0.3-0.5-0.8-0.5-1.3
						c0-0.3,0-0.5,0.1-0.7s0.2-0.4,0.4-0.6c0.2-0.2,0.4-0.3,0.6-0.4c0.2-0.1,0.5-0.1,0.7-0.1s0.5,0,0.7,0.1s0.4,0.2,0.6,0.4
						s0.3,0.3,0.4,0.6C1340.7,848.3,1340.7,848.5,1340.7,848.8z M1347.6,843.6c0.4,0,0.8,0.1,1.2,0.3c0.4,0.2,0.8,0.4,1.1,0.6
						c0.3,0.3,0.6,0.6,0.8,1c0.2,0.4,0.3,0.8,0.3,1.3c0,0.6-0.1,1.1-0.4,1.6s-0.6,0.9-1,1.2s-0.9,0.6-1.5,0.7
						c-0.5,0.2-1.1,0.3-1.7,0.3s-1.2-0.1-1.7-0.3c-0.6-0.2-1.1-0.4-1.5-0.7s-0.8-0.7-1-1.2c-0.3-0.5-0.4-1-0.4-1.6h3.1
						c0,0.5,0.2,0.8,0.5,1s0.7,0.3,1,0.3s0.7-0.1,1-0.3s0.5-0.5,0.5-0.8s-0.2-0.5-0.5-0.7s-0.7-0.3-1.2-0.4
						c-0.5-0.1-1.1-0.2-1.6-0.4s-1-0.4-1.4-0.7s-0.7-0.6-1-1c-0.2-0.4-0.4-0.8-0.4-1.3c0-0.6,0.1-1.1,0.4-1.5c0.2-0.5,0.6-0.8,1-1.2
						c0.4-0.3,0.9-0.6,1.4-0.7c0.5-0.2,1.1-0.3,1.7-0.3s1.2,0.1,1.7,0.3s1,0.4,1.4,0.8c0.4,0.3,0.7,0.7,1,1.2c0.2,0.5,0.4,1,0.4,1.6
						h-3.1c0-0.2,0-0.4-0.1-0.6c-0.1-0.2-0.2-0.3-0.3-0.4c-0.1-0.1-0.3-0.2-0.4-0.2c-0.2,0-0.3-0.1-0.5-0.1c-0.3,0-0.7,0.1-0.9,0.2
						c-0.3,0.1-0.4,0.4-0.4,0.8c0,0.2,0.1,0.3,0.2,0.5c0.2,0.1,0.4,0.3,0.6,0.4c0.3,0.1,0.5,0.2,0.8,0.3
						C1346.9,843.5,1347.2,843.6,1347.6,843.6z M1355.6,839v5.6c0,0.4,0,0.8,0.1,1.2s0.3,0.7,0.5,1s0.5,0.5,0.8,0.7s0.7,0.3,1.1,0.3
						s0.8-0.1,1.1-0.3c0.3-0.2,0.6-0.4,0.8-0.7c0.2-0.3,0.4-0.6,0.5-1s0.2-0.8,0.2-1.2V839h3.1v5.6c0,0.8-0.1,1.6-0.4,2.3
						s-0.6,1.4-1.1,1.9s-1.1,1-1.8,1.3c-0.7,0.3-1.5,0.5-2.3,0.5c-0.9,0-1.7-0.2-2.4-0.5c-0.7-0.3-1.3-0.8-1.8-1.3s-0.9-1.2-1.2-1.9
						c-0.3-0.7-0.4-1.5-0.4-2.3V839H1355.6z M1365.5,844.6c0-0.8,0.1-1.6,0.4-2.3s0.7-1.4,1.2-1.9s1.1-1,1.8-1.3
						c0.7-0.3,1.5-0.5,2.4-0.5h0.4v2.8c-0.4,0-0.8,0.1-1.2,0.3c-0.4,0.2-0.7,0.4-1,0.7s-0.5,0.6-0.7,1s-0.3,0.8-0.3,1.2v5.6h-3.1
						L1365.5,844.6L1365.5,844.6z M1372.5,844.6c0-0.8,0.2-1.6,0.5-2.3s0.8-1.4,1.3-1.9s1.2-1,2-1.3s1.6-0.5,2.4-0.5
						c0.9,0,1.7,0.2,2.4,0.5c0.8,0.3,1.4,0.7,2,1.3s1,1.2,1.3,1.9s0.5,1.5,0.5,2.3v9.4h-3.1v-4.7c-0.4,0.4-0.9,0.7-1.4,0.9
						s-1.1,0.3-1.7,0.3c-0.8,0-1.7-0.2-2.4-0.5c-0.8-0.3-1.4-0.8-2-1.3s-1-1.2-1.3-1.9C1372.7,846.2,1372.5,845.5,1372.5,844.6z
						 M1375.7,844.6c0,0.4,0.1,0.8,0.3,1.2c0.2,0.4,0.4,0.7,0.7,1s0.6,0.5,1,0.7s0.8,0.3,1.2,0.3s0.8-0.1,1.2-0.3
						c0.4-0.2,0.7-0.4,1-0.7s0.5-0.6,0.7-1s0.3-0.8,0.3-1.2s-0.1-0.8-0.3-1.2c-0.2-0.4-0.4-0.7-0.7-1c-0.3-0.3-0.6-0.5-1-0.7
						s-0.8-0.3-1.2-0.3s-0.8,0.1-1.2,0.3c-0.4,0.2-0.7,0.4-1,0.7s-0.5,0.6-0.7,1C1375.8,843.8,1375.7,844.2,1375.7,844.6z
						 M1387,835.2h3.1v15h-3.1V835.2z"/>
					
						<linearGradient id="SVGID_00000067928243764660158420000012473884317077732499_" gradientUnits="userSpaceOnUse" x1="1341.8707" y1="759.5107" x2="1390.8314" y2="654.5992" gradientTransform="matrix(1 0 0 -1 0 1549.89)">
						<stop  offset="0" style="stop-color:#4C4C4C"/>
						<stop  offset="1" style="stop-color:#1B1B1F"/>
					</linearGradient>
					<path style="fill-rule:evenodd;clip-rule:evenodd;fill:url(#SVGID_00000067928243764660158420000012473884317077732499_);" d="
						M1356.3,787.2c0.9-0.2,1.8-0.4,2.7-0.4h37.4c3.2,0,5.8,2.6,5.8,5.8v93.6c0,3.2-2.6,5.8-5.8,5.8h-63.5c-3.2,0-5.8-2.6-5.8-5.8
						v-67.5c0-0.9,0.1-1.8,0.4-2.7c0.1,0,0.3,0,0.5,0h21.7c3.7,0,6.7-3,6.7-6.7L1356.3,787.2L1356.3,787.2z M1351.3,790.3
						l-20.7,20.7h19c0.9,0,1.7-0.7,1.7-1.7V790.3z M1359,781.8c-4,0-7.8,1.6-10.6,4.4l-21.9,21.9c-2.8,2.8-4.4,6.6-4.4,10.6v67.5
						c0,6,4.9,10.9,10.9,10.9h63.5c6,0,10.9-4.9,10.9-10.9v-93.6c0-6-4.9-10.9-10.9-10.9L1359,781.8L1359,781.8z"/>
					
						<linearGradient id="SVGID_00000060020821201165822170000003314513379996733343_" gradientUnits="userSpaceOnUse" x1="1341.8707" y1="759.5107" x2="1390.8314" y2="654.5992" gradientTransform="matrix(1 0 0 -1 0 1549.89)">
						<stop  offset="0" style="stop-color:#F3F3F3"/>
						<stop  offset="1" style="stop-color:#8F8F95"/>
					</linearGradient>
					<path style="fill-rule:evenodd;clip-rule:evenodd;fill:url(#SVGID_00000060020821201165822170000003314513379996733343_);" d="
						M1356.3,787.2c0.9-0.2,1.8-0.4,2.7-0.4h37.4c3.2,0,5.8,2.6,5.8,5.8v93.6c0,3.2-2.6,5.8-5.8,5.8h-63.5c-3.2,0-5.8-2.6-5.8-5.8
						v-67.5c0-0.9,0.1-1.8,0.4-2.7c0.1,0,0.3,0,0.5,0h21.7c3.7,0,6.7-3,6.7-6.7L1356.3,787.2L1356.3,787.2z M1351.3,790.3
						l-20.7,20.7h19c0.9,0,1.7-0.7,1.7-1.7V790.3z M1359,781.8c-4,0-7.8,1.6-10.6,4.4l-21.9,21.9c-2.8,2.8-4.4,6.6-4.4,10.6v67.5
						c0,6,4.9,10.9,10.9,10.9h63.5c6,0,10.9-4.9,10.9-10.9v-93.6c0-6-4.9-10.9-10.9-10.9L1359,781.8L1359,781.8z"/>
				</g>
			</g>
		</g>
	</g>
</g>
<g>
	<g>
		<g>
			<g>
				<defs>
					<rect id="SVGID_00000042706639667091302450000004873650662968423320_" y="0" width="1920" height="1080"/>
				</defs>
				<clipPath id="SVGID_00000156571258997364243640000017799620828071001014_">
					<use xlink:href="#SVGID_00000042706639667091302450000004873650662968423320_"  style="overflow:visible;"/>
				</clipPath>
				<g style="opacity:0.6;clip-path:url(#SVGID_00000156571258997364243640000017799620828071001014_);">
					<g>
						
							<linearGradient id="SVGID_00000110450200627944652610000010617256648802258335_" gradientUnits="userSpaceOnUse" x1="435.6029" y1="1325.4222" x2="483.8346" y2="1221.2051" gradientTransform="matrix(1 0 0 -1 0 1549.89)">
							<stop  offset="0" style="stop-color:#322D37"/>
							<stop  offset="1" style="stop-color:#18151B"/>
						</linearGradient>
						<path style="fill:url(#SVGID_00000110450200627944652610000010617256648802258335_);" d="M414.7,255.8c0-3.9,0-5.9,0.4-7.7
							c0.4-1.6,1-3.2,1.9-4.6c1-1.6,2.4-3,5.1-5.8l13.9-13.9c2.8-2.8,4.2-4.2,5.8-5.2c1.4-0.9,3-1.5,4.7-1.9
							c1.8-0.4,3.8-0.4,7.8-0.4h22.1c8.2,0,12.3,0,15.4,1.6c2.8,1.4,5,3.6,6.4,6.4c1.6,3.1,1.6,7.2,1.6,15.4V303
							c0,8.2,0,12.3-1.6,15.4c-1.4,2.8-3.6,5-6.4,6.4c-3.1,1.6-7.2,1.6-15.4,1.6h-38.2c-8.2,0-12.3,0-15.4-1.6
							c-2.8-1.4-5-3.6-6.4-6.4c-1.6-3.1-1.6-7.2-1.6-15.4L414.7,255.8L414.7,255.8z"/>
					</g>
					
						<linearGradient id="SVGID_00000062181618579077712690000016032769420372893102_" gradientUnits="userSpaceOnUse" x1="435.4529" y1="1311.3071" x2="479.5312" y2="1246.1964" gradientTransform="matrix(1 0 0 -1 0 1549.89)">
						<stop  offset="0" style="stop-color:#FF00A0"/>
						<stop  offset="1" style="stop-color:#9600FF"/>
					</linearGradient>
					
						<path style="fill:none;stroke:url(#SVGID_00000062181618579077712690000016032769420372893102_);stroke-width:5.8119;stroke-linejoin:bevel;stroke-miterlimit:10;stroke-opacity:0.4;" d="
						M426.2,254c0-2.1,0.8-4.2,2.4-5.7l-1.7-1.7l1.7,1.7l18.3-18.3c1.5-1.5,3.5-2.4,5.7-2.4h31.6c2.5,0,4.5,2,4.5,4.5v78.1
						c0,2.5-2,4.5-4.5,4.5h-53.4c-2.5,0-4.5-2-4.5-4.5V254H426.2z"/>
					
						<linearGradient id="SVGID_00000048498035852611935270000015152928342044831106_" gradientUnits="userSpaceOnUse" x1="454.9837" y1="1286.5563" x2="458.4204" y2="1262.8455" gradientTransform="matrix(1 0 0 -1 0 1549.89)">
						<stop  offset="0" style="stop-color:#4C4C4C"/>
						<stop  offset="1" style="stop-color:#1B1B1F"/>
					</linearGradient>
					<path style="fill:url(#SVGID_00000048498035852611935270000015152928342044831106_);" d="M434.2,279c0,0.2,0,0.4-0.1,0.6
						s-0.2,0.3-0.3,0.5c-0.1,0.1-0.3,0.2-0.5,0.3c-0.2,0.1-0.4,0.1-0.6,0.1c-0.4,0-0.8-0.1-1.1-0.4c-0.3-0.3-0.4-0.6-0.4-1.1
						c0-0.2,0-0.4,0.1-0.6s0.2-0.3,0.3-0.5c0.1-0.1,0.3-0.3,0.5-0.3c0.2-0.1,0.4-0.1,0.6-0.1s0.4,0,0.6,0.1s0.3,0.2,0.5,0.3
						c0.1,0.1,0.3,0.3,0.3,0.5C434.2,278.6,434.2,278.8,434.2,279z M440,274.7c0.4,0,0.7,0.1,1,0.2s0.6,0.3,0.9,0.5s0.5,0.5,0.6,0.8
						c0.2,0.3,0.2,0.7,0.2,1c0,0.5-0.1,1-0.3,1.4c-0.2,0.4-0.5,0.7-0.9,1c-0.3,0.3-0.8,0.5-1.2,0.6c-0.5,0.2-0.9,0.2-1.4,0.2
						s-1-0.1-1.5-0.2s-0.9-0.3-1.2-0.6c-0.4-0.3-0.6-0.6-0.8-1c-0.2-0.4-0.3-0.9-0.3-1.4h2.6c0,0.4,0.1,0.7,0.4,0.8
						c0.3,0.1,0.5,0.2,0.8,0.2s0.6-0.1,0.8-0.2c0.3-0.2,0.4-0.4,0.4-0.7c0-0.2-0.1-0.4-0.4-0.6s-0.6-0.3-1-0.3
						c-0.5-0.1-0.9-0.2-1.3-0.3c-0.4-0.2-0.8-0.4-1.2-0.6c-0.3-0.2-0.6-0.5-0.8-0.8c-0.2-0.3-0.3-0.7-0.3-1c0-0.5,0.1-0.9,0.3-1.3
						c0.2-0.4,0.5-0.7,0.8-1c0.4-0.3,0.7-0.5,1.2-0.6c0.5-0.2,0.9-0.2,1.4-0.2s1,0.1,1.4,0.2c0.5,0.1,0.8,0.3,1.2,0.6
						c0.3,0.3,0.6,0.6,0.8,1c0.2,0.4,0.3,0.8,0.3,1.4H440c0-0.2,0-0.4-0.1-0.5s-0.1-0.2-0.2-0.3c-0.1-0.1-0.2-0.1-0.4-0.2
						c-0.1,0-0.3-0.1-0.4-0.1c-0.3,0-0.6,0.1-0.8,0.2c-0.2,0.1-0.3,0.3-0.3,0.6c0,0.1,0.1,0.3,0.2,0.4s0.3,0.2,0.5,0.3
						c0.2,0.1,0.4,0.2,0.7,0.2C439.4,274.6,439.7,274.7,440,274.7z M446.6,270.9v4.7c0,0.4,0,0.7,0.1,1s0.2,0.6,0.4,0.8
						c0.2,0.2,0.4,0.4,0.7,0.6c0.3,0.1,0.6,0.2,1,0.2s0.7-0.1,0.9-0.2c0.3-0.1,0.5-0.3,0.7-0.6c0.2-0.2,0.3-0.5,0.4-0.8
						s0.1-0.7,0.1-1v-4.7h2.6v4.7c0,0.7-0.1,1.3-0.3,1.9c-0.2,0.6-0.5,1.1-1,1.6c-0.4,0.5-0.9,0.8-1.5,1.1c-0.6,0.3-1.2,0.4-1.9,0.4
						c-0.7,0-1.4-0.1-2-0.4s-1.1-0.6-1.5-1.1s-0.7-1-1-1.6c-0.2-0.6-0.3-1.2-0.3-1.9v-4.7H446.6z M455,275.6c0-0.7,0.1-1.3,0.4-1.9
						c0.2-0.6,0.6-1.1,1-1.6s0.9-0.8,1.5-1.1c0.6-0.3,1.3-0.4,2-0.4h0.4v2.4c-0.4,0-0.7,0.1-1,0.2s-0.6,0.3-0.8,0.6
						c-0.2,0.2-0.4,0.5-0.6,0.8c-0.1,0.3-0.2,0.7-0.2,1v4.7H455V275.6z M461.3,275.6c0-0.7,0.1-1.3,0.3-1.9c0.2-0.6,0.5-1.1,0.9-1.6
						s0.9-0.8,1.5-1.1c0.6-0.3,1.2-0.4,2-0.4c0.7,0,1.3,0.1,1.9,0.4s1.1,0.7,1.5,1.2c0.4-0.5,0.9-0.9,1.5-1.2
						c0.6-0.3,1.2-0.4,1.9-0.4c0.7,0,1.4,0.1,2,0.4s1.1,0.6,1.5,1.1s0.7,1,0.9,1.6c0.2,0.6,0.3,1.3,0.3,1.9v4.7h-2.6v-4.7
						c0-0.4,0-0.7-0.1-1s-0.2-0.6-0.4-0.8c-0.2-0.2-0.4-0.4-0.7-0.6c-0.3-0.1-0.6-0.2-0.9-0.2c-0.4,0-0.7,0.1-0.9,0.2
						c-0.3,0.1-0.5,0.3-0.6,0.6c-0.2,0.2-0.3,0.5-0.4,0.8s-0.1,0.7-0.1,1v4.7h-2.6v-4.7c0-0.4,0-0.7-0.1-1s-0.2-0.6-0.4-0.8
						c-0.2-0.2-0.4-0.4-0.7-0.6c-0.3-0.1-0.6-0.2-0.9-0.2c-0.4,0-0.7,0.1-0.9,0.2c-0.3,0.1-0.5,0.3-0.6,0.6
						c-0.2,0.2-0.3,0.5-0.4,0.8s-0.1,0.7-0.1,1v4.7h-2.6v-4.7H461.3z M479.1,267.7h2.6v12.6h-2.6V267.7z"/>
					
						<linearGradient id="SVGID_00000023979595975705095000000017317984299043662773_" gradientUnits="userSpaceOnUse" x1="454.9837" y1="1286.5563" x2="458.4204" y2="1262.8455" gradientTransform="matrix(1 0 0 -1 0 1549.89)">
						<stop  offset="0" style="stop-color:#F3F3F3"/>
						<stop  offset="1" style="stop-color:#8F8F95"/>
					</linearGradient>
					<path style="fill:url(#SVGID_00000023979595975705095000000017317984299043662773_);" d="M434.2,279c0,0.2,0,0.4-0.1,0.6
						s-0.2,0.3-0.3,0.5c-0.1,0.1-0.3,0.2-0.5,0.3c-0.2,0.1-0.4,0.1-0.6,0.1c-0.4,0-0.8-0.1-1.1-0.4c-0.3-0.3-0.4-0.6-0.4-1.1
						c0-0.2,0-0.4,0.1-0.6s0.2-0.3,0.3-0.5c0.1-0.1,0.3-0.3,0.5-0.3c0.2-0.1,0.4-0.1,0.6-0.1s0.4,0,0.6,0.1s0.3,0.2,0.5,0.3
						c0.1,0.1,0.3,0.3,0.3,0.5C434.2,278.6,434.2,278.8,434.2,279z M440,274.7c0.4,0,0.7,0.1,1,0.2s0.6,0.3,0.9,0.5s0.5,0.5,0.6,0.8
						c0.2,0.3,0.2,0.7,0.2,1c0,0.5-0.1,1-0.3,1.4c-0.2,0.4-0.5,0.7-0.9,1c-0.3,0.3-0.8,0.5-1.2,0.6c-0.5,0.2-0.9,0.2-1.4,0.2
						s-1-0.1-1.5-0.2s-0.9-0.3-1.2-0.6c-0.4-0.3-0.6-0.6-0.8-1c-0.2-0.4-0.3-0.9-0.3-1.4h2.6c0,0.4,0.1,0.7,0.4,0.8
						c0.3,0.1,0.5,0.2,0.8,0.2s0.6-0.1,0.8-0.2c0.3-0.2,0.4-0.4,0.4-0.7c0-0.2-0.1-0.4-0.4-0.6s-0.6-0.3-1-0.3
						c-0.5-0.1-0.9-0.2-1.3-0.3c-0.4-0.2-0.8-0.4-1.2-0.6c-0.3-0.2-0.6-0.5-0.8-0.8c-0.2-0.3-0.3-0.7-0.3-1c0-0.5,0.1-0.9,0.3-1.3
						c0.2-0.4,0.5-0.7,0.8-1c0.4-0.3,0.7-0.5,1.2-0.6c0.5-0.2,0.9-0.2,1.4-0.2s1,0.1,1.4,0.2c0.5,0.1,0.8,0.3,1.2,0.6
						c0.3,0.3,0.6,0.6,0.8,1c0.2,0.4,0.3,0.8,0.3,1.4H440c0-0.2,0-0.4-0.1-0.5s-0.1-0.2-0.2-0.3c-0.1-0.1-0.2-0.1-0.4-0.2
						c-0.1,0-0.3-0.1-0.4-0.1c-0.3,0-0.6,0.1-0.8,0.2c-0.2,0.1-0.3,0.3-0.3,0.6c0,0.1,0.1,0.3,0.2,0.4s0.3,0.2,0.5,0.3
						c0.2,0.1,0.4,0.2,0.7,0.2C439.4,274.6,439.7,274.7,440,274.7z M446.6,270.9v4.7c0,0.4,0,0.7,0.1,1s0.2,0.6,0.4,0.8
						c0.2,0.2,0.4,0.4,0.7,0.6c0.3,0.1,0.6,0.2,1,0.2s0.7-0.1,0.9-0.2c0.3-0.1,0.5-0.3,0.7-0.6c0.2-0.2,0.3-0.5,0.4-0.8
						s0.1-0.7,0.1-1v-4.7h2.6v4.7c0,0.7-0.1,1.3-0.3,1.9c-0.2,0.6-0.5,1.1-1,1.6c-0.4,0.5-0.9,0.8-1.5,1.1c-0.6,0.3-1.2,0.4-1.9,0.4
						c-0.7,0-1.4-0.1-2-0.4s-1.1-0.6-1.5-1.1s-0.7-1-1-1.6c-0.2-0.6-0.3-1.2-0.3-1.9v-4.7H446.6z M455,275.6c0-0.7,0.1-1.3,0.4-1.9
						c0.2-0.6,0.6-1.1,1-1.6s0.9-0.8,1.5-1.1c0.6-0.3,1.3-0.4,2-0.4h0.4v2.4c-0.4,0-0.7,0.1-1,0.2s-0.6,0.3-0.8,0.6
						c-0.2,0.2-0.4,0.5-0.6,0.8c-0.1,0.3-0.2,0.7-0.2,1v4.7H455V275.6z M461.3,275.6c0-0.7,0.1-1.3,0.3-1.9c0.2-0.6,0.5-1.1,0.9-1.6
						s0.9-0.8,1.5-1.1c0.6-0.3,1.2-0.4,2-0.4c0.7,0,1.3,0.1,1.9,0.4s1.1,0.7,1.5,1.2c0.4-0.5,0.9-0.9,1.5-1.2
						c0.6-0.3,1.2-0.4,1.9-0.4c0.7,0,1.4,0.1,2,0.4s1.1,0.6,1.5,1.1s0.7,1,0.9,1.6c0.2,0.6,0.3,1.3,0.3,1.9v4.7h-2.6v-4.7
						c0-0.4,0-0.7-0.1-1s-0.2-0.6-0.4-0.8c-0.2-0.2-0.4-0.4-0.7-0.6c-0.3-0.1-0.6-0.2-0.9-0.2c-0.4,0-0.7,0.1-0.9,0.2
						c-0.3,0.1-0.5,0.3-0.6,0.6c-0.2,0.2-0.3,0.5-0.4,0.8s-0.1,0.7-0.1,1v4.7h-2.6v-4.7c0-0.4,0-0.7-0.1-1s-0.2-0.6-0.4-0.8
						c-0.2-0.2-0.4-0.4-0.7-0.6c-0.3-0.1-0.6-0.2-0.9-0.2c-0.4,0-0.7,0.1-0.9,0.2c-0.3,0.1-0.5,0.3-0.6,0.6
						c-0.2,0.2-0.3,0.5-0.4,0.8s-0.1,0.7-0.1,1v4.7h-2.6v-4.7H461.3z M479.1,267.7h2.6v12.6h-2.6V267.7z"/>
					
						<linearGradient id="SVGID_00000070085004018122250150000014556453411350265021_" gradientUnits="userSpaceOnUse" x1="438.0617" y1="1319.5427" x2="478.9492" y2="1231.9438" gradientTransform="matrix(1 0 0 -1 0 1549.89)">
						<stop  offset="0" style="stop-color:#4C4C4C"/>
						<stop  offset="1" style="stop-color:#1B1B1F"/>
					</linearGradient>
					<path style="fill-rule:evenodd;clip-rule:evenodd;fill:url(#SVGID_00000070085004018122250150000014556453411350265021_);" d="
						M450.2,227.6c0.7-0.2,1.5-0.3,2.2-0.3h31.2c2.7,0,4.9,2.2,4.9,4.9v78.1c0,2.7-2.2,4.9-4.9,4.9h-53c-2.7,0-4.9-2.2-4.9-4.9V254
						c0-0.8,0.1-1.5,0.3-2.3c0.1,0,0.3,0,0.4,0h18.1c3.1,0,5.6-2.5,5.6-5.6L450.2,227.6L450.2,227.6z M446,230.3l-17.3,17.3h15.9
						c0.8,0,1.4-0.6,1.4-1.4V230.3z M452.5,223.1c-3.3,0-6.5,1.3-8.9,3.7l-18.3,18.3c-2.4,2.4-3.7,5.5-3.7,8.9v56.4
						c0,5,4.1,9.1,9.1,9.1h53c5,0,9.1-4.1,9.1-9.1v-78.1c0-5-4.1-9.1-9.1-9.1L452.5,223.1L452.5,223.1z"/>
					
						<linearGradient id="SVGID_00000088851586960098784800000014443760577961983645_" gradientUnits="userSpaceOnUse" x1="438.0617" y1="1319.5427" x2="478.9492" y2="1231.9438" gradientTransform="matrix(1 0 0 -1 0 1549.89)">
						<stop  offset="0" style="stop-color:#F3F3F3"/>
						<stop  offset="1" style="stop-color:#8F8F95"/>
					</linearGradient>
					<path style="fill-rule:evenodd;clip-rule:evenodd;fill:url(#SVGID_00000088851586960098784800000014443760577961983645_);" d="
						M450.2,227.6c0.7-0.2,1.5-0.3,2.2-0.3h31.2c2.7,0,4.9,2.2,4.9,4.9v78.1c0,2.7-2.2,4.9-4.9,4.9h-53c-2.7,0-4.9-2.2-4.9-4.9V254
						c0-0.8,0.1-1.5,0.3-2.3c0.1,0,0.3,0,0.4,0h18.1c3.1,0,5.6-2.5,5.6-5.6L450.2,227.6L450.2,227.6z M446,230.3l-17.3,17.3h15.9
						c0.8,0,1.4-0.6,1.4-1.4V230.3z M452.5,223.1c-3.3,0-6.5,1.3-8.9,3.7l-18.3,18.3c-2.4,2.4-3.7,5.5-3.7,8.9v56.4
						c0,5,4.1,9.1,9.1,9.1h53c5,0,9.1-4.1,9.1-9.1v-78.1c0-5-4.1-9.1-9.1-9.1L452.5,223.1L452.5,223.1z"/>
				</g>
			</g>
		</g>
	</g>
</g>
<g>
	<g>
		<g>
			<g>
				<defs>
					<rect id="SVGID_00000031913595340472825990000004979782599446895782_" y="0" width="1920" height="1080"/>
				</defs>
				<clipPath id="SVGID_00000169535413527078014290000000628264484954454178_">
					<use xlink:href="#SVGID_00000031913595340472825990000004979782599446895782_"  style="overflow:visible;"/>
				</clipPath>
			</g>
		</g>
	</g>
</g>
<g>
	<g>
		<g>
			<g>
				<defs>
					<rect id="SVGID_00000033332615218934728130000006657872899226492043_" y="0" width="1920" height="1080"/>
				</defs>
				<clipPath id="SVGID_00000004514544856302431110000015680136706250866325_">
					<use xlink:href="#SVGID_00000033332615218934728130000006657872899226492043_"  style="overflow:visible;"/>
				</clipPath>
			</g>
		</g>
	</g>
</g>
<g>
	<g>
		<g>
			<g>
				<defs>
					<rect id="SVGID_00000132067125186113001580000005736992675058231208_" y="0" width="1920" height="1080"/>
				</defs>
				<clipPath id="SVGID_00000016060958383647484860000003873070390743131308_">
					<use xlink:href="#SVGID_00000132067125186113001580000005736992675058231208_"  style="overflow:visible;"/>
				</clipPath>
				<g style="clip-path:url(#SVGID_00000016060958383647484860000003873070390743131308_);">
					<g>
						
							<linearGradient id="SVGID_00000050645059706658563360000005141243274650089404_" gradientUnits="userSpaceOnUse" x1="325.4231" y1="605.5622" x2="397.3041" y2="423.1207" gradientTransform="matrix(1 0 0 -1 0 1549.89)">
							<stop  offset="0" style="stop-color:#322D37"/>
							<stop  offset="1" style="stop-color:#18151B"/>
						</linearGradient>
						<path style="fill:url(#SVGID_00000050645059706658563360000005141243274650089404_);" d="M274.4,980.3c0-7.7,0-11.6,0.6-14.8
							c2.7-15.6,14.9-27.7,30.5-30.5c3.2-0.6,7.1-0.6,14.8-0.6h60.6c21,0,31.5,0,39.6,4.1c7.1,3.6,12.8,9.3,16.4,16.4
							c4.1,8,4.1,18.5,4.1,39.6v63.5c0,21,0,31.5-4.1,39.6c-3.6,7.1-9.3,12.8-16.4,16.4c-8,4.1-18.5,4.1-39.6,4.1h-46.4
							c-21,0-31.5,0-39.6-4.1c-7.1-3.6-12.8-9.3-16.4-16.4c-4.1-8-4.1-18.5-4.1-39.6V980.3z"/>
					</g>
					
						<linearGradient id="SVGID_00000154414758935803544150000000005468230848486016_" gradientUnits="userSpaceOnUse" x1="325.4099" y1="581.2261" x2="389.8549" y2="466.0169" gradientTransform="matrix(1 0 0 -1 0 1549.89)">
						<stop  offset="0" style="stop-color:#FF00A0"/>
						<stop  offset="1" style="stop-color:#9600FF"/>
					</linearGradient>
					
						<path style="opacity:0.3;fill:none;stroke:url(#SVGID_00000154414758935803544150000000005468230848486016_);stroke-width:9.555;stroke-linejoin:bevel;stroke-miterlimit:10;enable-background:new    ;" d="
						M312.6,957h90.1c8.7,0,15.7,7,15.7,15.7v107.2c0,8.7-7,15.7-15.7,15.7h-90.1c-8.7,0-15.7-7-15.7-15.7V972.7
						C296.9,964,304,957,312.6,957z"/>
					
						<linearGradient id="SVGID_00000048463630951213409020000009134482334552784529_" gradientUnits="userSpaceOnUse" x1="330.3927" y1="594.0339" x2="388.7057" y2="443.4364" gradientTransform="matrix(1 0 0 -1 0 1549.89)">
						<stop  offset="0" style="stop-color:#F3F3F3"/>
						<stop  offset="1" style="stop-color:#8F8F95"/>
					</linearGradient>
					<path style="fill-rule:evenodd;clip-rule:evenodd;fill:url(#SVGID_00000048463630951213409020000009134482334552784529_);" d="
						M312.6,948.1c-13.6,0-24.6,11-24.6,24.6V989v17.1v19.8v17.1v36.9c0,13.6,11,24.6,24.6,24.6h90.1c13.6,0,24.6-11,24.6-24.6V1043
						v-17.1v-19.8V989v-16.4c0-13.6-11-24.6-24.6-24.6L312.6,948.1L312.6,948.1z M419.1,989v-16.4c0-9-7.3-16.4-16.4-16.4h-90.1
						c-9,0-16.4,7.3-16.4,16.4V989v17.1c0,9,7.3,16.4,16.4,16.4h90.1c9,0,16.4-7.3,16.4-16.4V989z M419.1,1024.4
						c-4.3,3.9-10.1,6.3-16.4,6.3h-90.1c-6.3,0-12-2.4-16.4-6.3v1.5v17.1c0,9,7.3,16.4,16.4,16.4h90.1c9,0,16.4-7.3,16.4-16.4v-17.1
						V1024.4z M296.3,1079.8v-18.5c4.3,3.9,10.1,6.3,16.4,6.3h90.1c6.3,0,12-2.4,16.4-6.3v18.5c0,9-7.3,16.4-16.4,16.4h-90.1
						C303.6,1096.2,296.3,1088.9,296.3,1079.8z"/>
					
						<linearGradient id="SVGID_00000116932712990386099670000015648100588157574829_" gradientUnits="userSpaceOnUse" x1="314.4346" y1="508.9545" x2="317.7599" y2="502.2366" gradientTransform="matrix(1 0 0 -1 0 1549.89)">
						<stop  offset="0" style="stop-color:#FF00A0"/>
						<stop  offset="1" style="stop-color:#9600FF"/>
					</linearGradient>
					
						<circle style="opacity:0.3;fill:url(#SVGID_00000116932712990386099670000015648100588157574829_);enable-background:new    ;" cx="316.1" cy="1044.3" r="4.1"/>
					
						<linearGradient id="SVGID_00000078026689379823353360000014049808240847265199_" gradientUnits="userSpaceOnUse" x1="329.4377" y1="508.9487" x2="332.7626" y2="502.2307" gradientTransform="matrix(1 0 0 -1 0 1549.89)">
						<stop  offset="0" style="stop-color:#FF00A0"/>
						<stop  offset="1" style="stop-color:#9600FF"/>
					</linearGradient>
					
						<circle style="opacity:0.3;fill:url(#SVGID_00000078026689379823353360000014049808240847265199_);enable-background:new    ;" cx="331.1" cy="1044.3" r="4.1"/>
					
						<linearGradient id="SVGID_00000123433211674345563790000001329960437618371765_" gradientUnits="userSpaceOnUse" x1="314.4377" y1="474.149" x2="317.7629" y2="467.4299" gradientTransform="matrix(1 0 0 -1 0 1549.89)">
						<stop  offset="0" style="stop-color:#FF00A0"/>
						<stop  offset="1" style="stop-color:#9600FF"/>
					</linearGradient>
					
						<circle style="opacity:0.3;fill:url(#SVGID_00000123433211674345563790000001329960437618371765_);enable-background:new    ;" cx="316.1" cy="1079.1" r="4.1"/>
					
						<linearGradient id="SVGID_00000181772454351461091400000014270311861131987615_" gradientUnits="userSpaceOnUse" x1="329.4407" y1="474.1431" x2="332.7657" y2="467.4241" gradientTransform="matrix(1 0 0 -1 0 1549.89)">
						<stop  offset="0" style="stop-color:#FF00A0"/>
						<stop  offset="1" style="stop-color:#9600FF"/>
					</linearGradient>
					
						<circle style="opacity:0.3;fill:url(#SVGID_00000181772454351461091400000014270311861131987615_);enable-background:new    ;" cx="331.1" cy="1079.1" r="4.1"/>
					
						<linearGradient id="SVGID_00000100362450956163373570000010949742818353531572_" gradientUnits="userSpaceOnUse" x1="352.4923" y1="579.6853" x2="362.2813" y2="534.1443" gradientTransform="matrix(1 0 0 -1 0 1549.89)">
						<stop  offset="0" style="stop-color:#F3F3F3"/>
						<stop  offset="1" style="stop-color:#8F8F95"/>
					</linearGradient>
					<path style="fill:url(#SVGID_00000100362450956163373570000010949742818353531572_);" d="M336.3,988.5c0.8,0.2,1.6,0.4,2.4,0.8
						c0.8,0.3,1.5,0.8,2.1,1.4c0.6,0.6,1.1,1.2,1.5,2s0.6,1.6,0.6,2.6c0,1.2-0.2,2.3-0.7,3.3c-0.4,1-1.1,1.9-1.9,2.6
						c-0.8,0.7-1.8,1.3-3,1.7s-2.5,0.6-3.9,0.6c-1.3,0-2.5-0.2-3.7-0.7c-1.1-0.5-2.1-1.1-3-1.9c-0.8-0.8-1.5-1.7-1.9-2.8
						c-0.5-1-0.7-2.1-0.7-3.3h5.3c0.1,1.1,0.5,2,1.2,2.7s1.6,1.1,2.7,1.1c1.3,0,2.3-0.3,3-0.9c0.8-0.6,1.2-1.4,1.2-2.4
						c0-0.5-0.1-0.9-0.4-1.3c-0.2-0.3-0.6-0.6-1.1-0.9c-0.5-0.2-1.1-0.5-1.8-0.6c-0.7-0.2-1.5-0.4-2.4-0.6c-1-0.2-1.9-0.5-2.8-0.9
						s-1.7-0.8-2.4-1.3c-0.7-0.5-1.2-1.1-1.6-1.8s-0.6-1.5-0.6-2.4c0-1.1,0.2-2.2,0.6-3.1c0.4-0.9,1-1.7,1.8-2.4s1.7-1.2,2.8-1.6
						c1.1-0.4,2.4-0.6,3.7-0.6c1.2,0,2.4,0.2,3.5,0.6c1.1,0.4,2,0.9,2.9,1.6c0.8,0.7,1.5,1.5,2,2.4s0.7,1.9,0.7,3H337
						c-0.2-0.8-0.7-1.4-1.4-1.9c-0.7-0.5-1.4-0.8-2.3-0.8c-1,0-1.9,0.3-2.6,0.8s-1.1,1.1-1.1,1.8c0,0.4,0.2,0.8,0.5,1.2
						c0.4,0.3,0.9,0.6,1.5,0.9c0.6,0.3,1.3,0.5,2.1,0.7C334.6,988.2,335.5,988.4,336.3,988.5z M368.4,990.6c0,1.8-0.3,3.4-0.9,4.9
						s-1.4,2.8-2.6,3.9c-1.1,1.1-2.5,1.9-4.1,2.6c-1.6,0.6-3.4,0.9-5.4,0.9h-9.9v-24.6h9.9c1.9,0,3.7,0.3,5.3,0.9
						c1.6,0.6,3,1.5,4.1,2.6c1.2,1.1,2,2.4,2.7,3.9C368.1,987.2,368.4,988.9,368.4,990.6z M355.6,998c1,0,2-0.2,2.9-0.6
						c0.9-0.4,1.7-0.9,2.3-1.6c0.7-0.7,1.2-1.5,1.6-2.4s0.6-1.8,0.6-2.9s-0.2-2-0.6-2.9s-0.9-1.7-1.6-2.3c-0.7-0.7-1.4-1.2-2.3-1.6
						c-0.9-0.4-1.8-0.6-2.9-0.6H351V998H355.6z M370.8,1002.9v-24.6h10.9c1.1,0,2.1,0.2,3.1,0.5c1,0.4,1.8,0.9,2.5,1.5
						s1.2,1.4,1.6,2.3c0.4,0.9,0.6,1.9,0.6,3c0,0.8-0.2,1.6-0.6,2.3s-0.9,1.3-1.5,1.8c1.1,0.6,1.9,1.4,2.5,2.5
						c0.6,1,0.9,2.1,0.9,3.3c0,1.1-0.2,2.1-0.6,3s-0.9,1.7-1.6,2.3s-1.5,1.1-2.4,1.5c-0.9,0.3-1.9,0.5-3,0.5h-12.4V1002.9z
						 M376.3,983.3v4.6h5.3c0.7,0,1.3-0.2,1.7-0.6c0.5-0.5,0.7-1,0.7-1.7s-0.2-1.2-0.7-1.6c-0.5-0.4-1.1-0.6-1.7-0.6h-5.3V983.3z
						 M376.3,992.7v5.3h6.6c0.7,0,1.3-0.3,1.7-0.8c0.5-0.5,0.7-1.2,0.7-1.8c0-0.7-0.2-1.3-0.7-1.8c-0.5-0.6-1.1-0.9-1.7-0.9H376.3z"
						/>
				</g>
			</g>
		</g>
	</g>
</g>
<g>
	<g>
		<g>
			<g>
				<defs>
					<rect id="SVGID_00000103258828362540328960000012251178101129237897_" y="0" width="1920" height="1080"/>
				</defs>
				<clipPath id="SVGID_00000029028160027425583310000015409509241605817732_">
					<use xlink:href="#SVGID_00000103258828362540328960000012251178101129237897_"  style="overflow:visible;"/>
				</clipPath>
				<g style="opacity:0.4;clip-path:url(#SVGID_00000029028160027425583310000015409509241605817732_);">
					<g>
						
							<linearGradient id="SVGID_00000170999918011376420070000013454567128712374202_" gradientUnits="userSpaceOnUse" x1="823.8333" y1="655.5228" x2="879.2604" y2="533.2116" gradientTransform="matrix(1 0 0 -1 0 1549.89)">
							<stop  offset="0" style="stop-color:#322D37"/>
							<stop  offset="1" style="stop-color:#18151B"/>
						</linearGradient>
						
							<path style="fill-rule:evenodd;clip-rule:evenodd;fill:url(#SVGID_00000170999918011376420070000013454567128712374202_);" d="
							M800.5,919.1c-0.5,2-0.5,4.2-0.5,8.4v51.7c0,9,0,13.5,1.7,16.9c1.5,3,4,5.5,7,7c3.4,1.8,7.9,1.8,16.9,1.8h21.1
							c1.2,0,1.8,0,2.2,0.1c0.5,0.1,0.7,0.2,1.1,0.5c0.4,0.2,1,0.9,2.2,2.1c1.3,1.3,2.8,2.4,4.4,3.2c3.4,1.7,7.8,1.7,16.7,1.7h2.3
							c9,0,13.5,0,16.9-1.7c3-1.5,5.5-4,7-7c1.7-3.4,1.7-7.9,1.7-16.9v-2.3c0-8.9,0-13.3-1.7-16.7c-0.9-1.8-2.1-3.3-3.5-4.6
							c-1.3-1.2-2-1.8-2.2-2.2c-0.3-0.4-0.4-0.6-0.5-1.2c-0.1-0.5-0.1-1.1-0.1-2.3v-47.8c0-9,0-13.5-1.8-16.9c-1.5-3-4-5.5-7-7
							c-3.4-1.7-7.9-1.7-16.9-1.7h-24.3c-4.3,0-6.5,0-8.5,0.5c-1.8,0.4-3.5,1.1-5.1,2.1c-1.8,1.1-3.3,2.6-6.3,5.7l-15.2,15.3l0,0
							c-3,3-4.5,4.6-5.6,6.3C801.7,915.6,801,917.3,800.5,919.1z"/>
					</g>
					
						<linearGradient id="SVGID_00000127039054838623004460000009146448329711012543_" gradientUnits="userSpaceOnUse" x1="823.067" y1="640.5307" x2="870.7332" y2="570.1343" gradientTransform="matrix(1 0 0 -1 0 1549.89)">
						<stop  offset="0" style="stop-color:#FF00A0"/>
						<stop  offset="1" style="stop-color:#9600FF"/>
					</linearGradient>
					
						<path style="fill:none;stroke:url(#SVGID_00000127039054838623004460000009146448329711012543_);stroke-width:4.9765;stroke-linejoin:bevel;stroke-miterlimit:10;stroke-opacity:0.4;" d="
						M852.4,992.3h-34c-3.2,0-5.7-2.6-5.7-5.7v-58.3c0-3,1.2-6,3.4-8.1l20-20c2.2-2.2,5.1-3.4,8.1-3.4h31.2c3.2,0,5.7,2.6,5.7,5.7
						v42v19.1"/>
					
						<linearGradient id="SVGID_00000121273613206117290230000001304577414680727957_" gradientUnits="userSpaceOnUse" x1="868.4423" y1="581.7297" x2="881.6136" y2="543.7532" gradientTransform="matrix(1 0 0 -1 0 1549.89)">
						<stop  offset="0" style="stop-color:#4C4C4C"/>
						<stop  offset="1" style="stop-color:#1B1B1F"/>
					</linearGradient>
					<path style="fill-rule:evenodd;clip-rule:evenodd;fill:url(#SVGID_00000121273613206117290230000001304577414680727957_);" d="
						M864.3,966.7c-4.9,0-8.8,3.9-8.8,8.8v1.9v2.1v6.3v2.1v8.4c0,4.9,3.9,8.8,8.8,8.8h20.6c4.9,0,8.8-3.9,8.8-8.8v-8.4v-2.1v-6.3
						v-2.1v-1.9c0-4.9-3.9-8.8-8.8-8.8H864.3z M889.1,977.4v-1.9c0-2.3-1.9-4.2-4.2-4.2h-20.6c-2.3,0-4.2,1.9-4.2,4.2v1.9v2.1
						c0,2.3,1.9,4.2,4.2,4.2h20.6c2.3,0,4.2-1.9,4.2-4.2V977.4z M889.1,987.2c-1.2,0.7-2.7,1.1-4.2,1.1h-20.6c-1.5,0-3-0.4-4.2-1.1
						v0.7c0,2.3,1.9,4.2,4.2,4.2h20.6c2.3,0,4.2-1.9,4.2-4.2V987.2z M860.1,996.3v-0.7c1.2,0.7,2.7,1.1,4.2,1.1h20.6
						c1.5,0,3-0.4,4.2-1.1v0.7c0,2.3-1.9,4.2-4.2,4.2h-20.6C862,1000.5,860.1,998.6,860.1,996.3z"/>
					
						<linearGradient id="SVGID_00000176022564609999871130000003052540548706534052_" gradientUnits="userSpaceOnUse" x1="868.4423" y1="581.7297" x2="881.6136" y2="543.7532" gradientTransform="matrix(1 0 0 -1 0 1549.89)">
						<stop  offset="0" style="stop-color:#F3F3F3"/>
						<stop  offset="1" style="stop-color:#8F8F95"/>
					</linearGradient>
					<path style="fill-rule:evenodd;clip-rule:evenodd;fill:url(#SVGID_00000176022564609999871130000003052540548706534052_);" d="
						M864.3,966.7c-4.9,0-8.8,3.9-8.8,8.8v1.9v2.1v6.3v2.1v8.4c0,4.9,3.9,8.8,8.8,8.8h20.6c4.9,0,8.8-3.9,8.8-8.8v-8.4v-2.1v-6.3
						v-2.1v-1.9c0-4.9-3.9-8.8-8.8-8.8H864.3z M889.1,977.4v-1.9c0-2.3-1.9-4.2-4.2-4.2h-20.6c-2.3,0-4.2,1.9-4.2,4.2v1.9v2.1
						c0,2.3,1.9,4.2,4.2,4.2h20.6c2.3,0,4.2-1.9,4.2-4.2V977.4z M889.1,987.2c-1.2,0.7-2.7,1.1-4.2,1.1h-20.6c-1.5,0-3-0.4-4.2-1.1
						v0.7c0,2.3,1.9,4.2,4.2,4.2h20.6c2.3,0,4.2-1.9,4.2-4.2V987.2z M860.1,996.3v-0.7c1.2,0.7,2.7,1.1,4.2,1.1h20.6
						c1.5,0,3-0.4,4.2-1.1v0.7c0,2.3-1.9,4.2-4.2,4.2h-20.6C862,1000.5,860.1,998.6,860.1,996.3z"/>
					
						<linearGradient id="SVGID_00000010989230023749376430000013710902251193061306_" gradientUnits="userSpaceOnUse" x1="833.1292" y1="621.4204" x2="833.5593" y2="616.7766" gradientTransform="matrix(1 0 0 -1 0 1549.89)">
						<stop  offset="0" style="stop-color:#FF00A0"/>
						<stop  offset="1" style="stop-color:#9600FF"/>
					</linearGradient>
					<path style="fill:url(#SVGID_00000010989230023749376430000013710902251193061306_);fill-opacity:0.4;" d="M823.4,928.5h19.9
						c1.3,0,2.3,1,2.3,2.3l0,0c0,1.3-1,2.3-2.3,2.3h-19.9c-1.3,0-2.3-1-2.3-2.3l0,0C821.1,929.5,822.1,928.5,823.4,928.5z"/>
					
						<linearGradient id="SVGID_00000075864653530208142960000003297240535963709108_" gradientUnits="userSpaceOnUse" x1="833.1321" y1="598.4886" x2="833.5623" y2="593.8447" gradientTransform="matrix(1 0 0 -1 0 1549.89)">
						<stop  offset="0" style="stop-color:#FF00A0"/>
						<stop  offset="1" style="stop-color:#9600FF"/>
					</linearGradient>
					<path style="fill:url(#SVGID_00000075864653530208142960000003297240535963709108_);fill-opacity:0.4;" d="M823.4,951.4h19.9
						c1.3,0,2.3,1,2.3,2.3l0,0c0,1.3-1,2.3-2.3,2.3h-19.9c-1.3,0-2.3-1-2.3-2.3l0,0C821.1,952.5,822.1,951.4,823.4,951.4z"/>
					
						<linearGradient id="SVGID_00000029019963077286165970000004673674782083921322_" gradientUnits="userSpaceOnUse" x1="828.6162" y1="613.7526" x2="829.2828" y2="609.1658" gradientTransform="matrix(1 0 0 -1 0 1549.89)">
						<stop  offset="0" style="stop-color:#FF00A0"/>
						<stop  offset="1" style="stop-color:#9600FF"/>
					</linearGradient>
					<path style="fill:url(#SVGID_00000029019963077286165970000004673674782083921322_);fill-opacity:0.4;" d="M823.4,936.1h11.1
						c1.3,0,2.3,1,2.3,2.3l0,0c0,1.3-1,2.3-2.3,2.3h-11.1c-1.3,0-2.3-1-2.3-2.3l0,0C821.1,937.2,822.1,936.1,823.4,936.1z"/>
					
						<linearGradient id="SVGID_00000008134177977831799530000018385007742944835207_" gradientUnits="userSpaceOnUse" x1="839.498" y1="606.1526" x2="839.7883" y2="601.485" gradientTransform="matrix(1 0 0 -1 0 1549.89)">
						<stop  offset="0" style="stop-color:#FF00A0"/>
						<stop  offset="1" style="stop-color:#9600FF"/>
					</linearGradient>
					<path style="fill:url(#SVGID_00000008134177977831799530000018385007742944835207_);fill-opacity:0.4;" d="M823.4,943.8h32.5
						c1.3,0,2.3,1,2.3,2.3l0,0c0,1.3-1,2.3-2.3,2.3h-32.5c-1.3,0-2.3-1-2.3-2.3l0,0C821.1,944.8,822.1,943.8,823.4,943.8z"/>
					
						<linearGradient id="SVGID_00000067940826236840444350000009965162593385585298_" gradientUnits="userSpaceOnUse" x1="825.6161" y1="650.142" x2="870.4095" y2="554.1619" gradientTransform="matrix(1 0 0 -1 0 1549.89)">
						<stop  offset="0" style="stop-color:#4C4C4C"/>
						<stop  offset="1" style="stop-color:#1B1B1F"/>
					</linearGradient>
					<path style="fill-rule:evenodd;clip-rule:evenodd;fill:url(#SVGID_00000067940826236840444350000009965162593385585298_);" d="
						M841.5,896.4c-0.8,0-1.7,0.1-2.5,0.3V917c0,3.4-2.7,6.1-6.1,6.1H813c-0.1,0-0.3,0-0.4,0c-0.2,0.8-0.3,1.6-0.3,2.5v61.8
						c0,3,2.4,5.4,5.3,5.4h34.8v4.6h-34.8c-5.5,0-9.9-4.4-9.9-9.9v-61.8c0-3.6,1.5-7.1,4-9.7l20-20c2.6-2.6,6.1-4,9.7-4h34.2
						c5.5,0,9.9,4.4,9.9,9.9v61.9h-4.6v-61.9c0-3-2.4-5.4-5.4-5.4L841.5,896.4L841.5,896.4z M815.5,918.6l18.9-18.9V917
						c0,0.8-0.7,1.5-1.5,1.5L815.5,918.6L815.5,918.6z"/>
					
						<linearGradient id="SVGID_00000113318331885091750530000016665636841512347264_" gradientUnits="userSpaceOnUse" x1="825.6161" y1="650.142" x2="870.4095" y2="554.1619" gradientTransform="matrix(1 0 0 -1 0 1549.89)">
						<stop  offset="0" style="stop-color:#F3F3F3"/>
						<stop  offset="1" style="stop-color:#8F8F95"/>
					</linearGradient>
					<path style="fill-rule:evenodd;clip-rule:evenodd;fill:url(#SVGID_00000113318331885091750530000016665636841512347264_);" d="
						M841.5,896.4c-0.8,0-1.7,0.1-2.5,0.3V917c0,3.4-2.7,6.1-6.1,6.1H813c-0.1,0-0.3,0-0.4,0c-0.2,0.8-0.3,1.6-0.3,2.5v61.8
						c0,3,2.4,5.4,5.3,5.4h34.8v4.6h-34.8c-5.5,0-9.9-4.4-9.9-9.9v-61.8c0-3.6,1.5-7.1,4-9.7l20-20c2.6-2.6,6.1-4,9.7-4h34.2
						c5.5,0,9.9,4.4,9.9,9.9v61.9h-4.6v-61.9c0-3-2.4-5.4-5.4-5.4L841.5,896.4L841.5,896.4z M815.5,918.6l18.9-18.9V917
						c0,0.8-0.7,1.5-1.5,1.5L815.5,918.6L815.5,918.6z"/>
				</g>
			</g>
		</g>
	</g>
</g>
<g class="st51">
	<g>
		
			<linearGradient id="SVGID_00000021082882523795671480000005077271114498036880_" gradientUnits="userSpaceOnUse" x1="1773.998" y1="646.219" x2="1820.5724" y2="781.546" gradientTransform="matrix(0.7071 0.7071 -0.7071 0.7071 814.5962 -1494.0077)">
			<stop  offset="0" style="stop-color:#322D37"/>
			<stop  offset="1" style="stop-color:#18151B"/>
		</linearGradient>
		<path style="fill:url(#SVGID_00000021082882523795671480000005077271114498036880_);" d="M1609.6,207.3l43.1,43.1
			c14.8,14.8,14.8,38.9,0,53.7l-43.1,43.1c-14.8,14.8-38.9,14.8-53.7,0l-43.1-43.1c-14.8-14.8-14.8-38.9,0-53.7l43.1-43.1
			C1570.9,192.4,1594.9,192.4,1609.6,207.3z"/>
	</g>
	
		<linearGradient id="SVGID_00000103985196175473738180000007072741637061361572_" gradientUnits="userSpaceOnUse" x1="1575.1458" y1="-256.6202" x2="1586.2562" y2="-235.3826" gradientTransform="matrix(1 0 0 1 0 472)">
		<stop  offset="0" style="stop-color:#F3F3F3"/>
		<stop  offset="1" style="stop-color:#8F8F95"/>
	</linearGradient>
	<path style="fill:url(#SVGID_00000103985196175473738180000007072741637061361572_);" d="M1581.6,217.1h2.8l6.3,14.4h-3.6l-1.1-2.6
		h-6.2l-1.1,2.6h-3.6L1581.6,217.1z M1580.9,226.4h4.1l-2.1-5L1580.9,226.4z"/>
	
		<linearGradient id="SVGID_00000158027269815223393720000010549538874952841608_" gradientUnits="userSpaceOnUse" x1="1630.7103" y1="-205.0643" x2="1641.8202" y2="-183.8266" gradientTransform="matrix(1 0 0 1 0 472)">
		<stop  offset="0" style="stop-color:#F3F3F3"/>
		<stop  offset="1" style="stop-color:#8F8F95"/>
	</linearGradient>
	<path style="fill:url(#SVGID_00000158027269815223393720000010549538874952841608_);" d="M1643.5,279.8c-0.3,0.8-0.7,1.5-1.1,2
		c-0.5,0.7-1.1,1.2-1.7,1.6c-0.7,0.4-1.3,0.8-2.1,1.1c-0.8,0.3-1.6,0.4-2.4,0.4c-1.1,0-2.1-0.1-3-0.5c-0.9-0.4-1.7-0.9-2.5-1.6
		c-0.7-0.7-1.3-1.5-1.7-2.4c-0.4-0.9-0.7-1.8-0.7-2.9c0-1.1,0.3-2,0.7-2.9c0.4-0.9,0.9-1.7,1.7-2.4c0.7-0.7,1.6-1.2,2.5-1.6
		c0.9-0.4,2-0.7,3-0.7c0.8,0,1.7,0.1,2.4,0.4c0.8,0.3,1.5,0.5,2.1,1.1c0.7,0.4,1.2,0.9,1.7,1.6c0.5,0.7,0.8,1.3,1.1,2h-3.4
		c-0.4-0.7-0.9-1.2-1.6-1.6c-0.7-0.4-1.5-0.7-2.2-0.7c-0.7,0-1.2,0.1-1.8,0.4c-0.5,0.3-1.1,0.5-1.4,1.1c-0.4,0.4-0.8,0.9-1.1,1.5
		c-0.3,0.5-0.4,1.2-0.4,1.8c0,0.7,0.1,1.2,0.4,1.8c0.3,0.5,0.5,1.1,1.1,1.5c0.4,0.4,0.9,0.8,1.4,1.1s1.2,0.4,1.8,0.4
		c0.8,0,1.6-0.1,2.2-0.5c0.7-0.4,1.2-0.9,1.6-1.6h3.4V279.8z"/>
	
		<linearGradient id="SVGID_00000183958993096183076490000007400937130940858558_" gradientUnits="userSpaceOnUse" x1="1577.1722" y1="-146.0092" x2="1589.8494" y2="-137.1968" gradientTransform="matrix(1 0 0 1 0 472)">
		<stop  offset="0" style="stop-color:#F3F3F3"/>
		<stop  offset="1" style="stop-color:#8F8F95"/>
	</linearGradient>
	<path style="fill:url(#SVGID_00000183958993096183076490000007400937130940858558_);" d="M1584.9,337.4h-3.2v-14.4h3.2V337.4z"/>
	
		<linearGradient id="SVGID_00000041267854745023889340000010028097556626051472_" gradientUnits="userSpaceOnUse" x1="1523.8325" y1="-204.3082" x2="1535.2327" y2="-183.5058" gradientTransform="matrix(1 0 0 1 0 472)">
		<stop  offset="0" style="stop-color:#F3F3F3"/>
		<stop  offset="1" style="stop-color:#8F8F95"/>
	</linearGradient>
	<path style="fill:url(#SVGID_00000041267854745023889340000010028097556626051472_);" d="M1537.1,277.3c0,1.1-0.1,2-0.5,2.9
		c-0.4,0.9-0.8,1.6-1.5,2.2c-0.7,0.7-1.5,1.2-2.4,1.5c-0.9,0.4-2,0.5-3.2,0.5h-5.8v-14.4h5.8c1.2,0,2.1,0.1,3,0.5
		c0.9,0.4,1.7,0.9,2.4,1.5c0.7,0.7,1.2,1.5,1.6,2.2C1537,275.2,1537.1,276.3,1537.1,277.3z M1529.6,281.5c0.7,0,1.2-0.1,1.7-0.4
		c0.5-0.3,0.9-0.5,1.3-0.9c0.4-0.4,0.7-0.9,0.9-1.3c0.3-0.5,0.4-1.1,0.4-1.7c0-0.7-0.1-1.2-0.4-1.7c-0.3-0.5-0.5-0.9-0.9-1.3
		c-0.4-0.4-0.8-0.7-1.3-0.9s-1.1-0.4-1.7-0.4h-2.8v8.6L1529.6,281.5L1529.6,281.5z"/>
	<defs>
		<filter id="Adobe_OpacityMaskFilter" filterUnits="userSpaceOnUse" x="1557.4" y="254.1" width="53.1" height="49.2">
			<feColorMatrix  type="matrix" values="1 0 0 0 0  0 1 0 0 0  0 0 1 0 0  0 0 0 1 0"/>
		</filter>
	</defs>
	
		<mask maskUnits="userSpaceOnUse" x="1557.4" y="254.1" width="53.1" height="49.2" id="path-6-inside-1_1_11512_00000146490053352094917050000003353918802289482882_">
		<path class="st57" d="M1591.1,261.1h-2.8v2.8v9.8c0,1.5,1.2,2.8,2.8,2.8c1.6,0,2.8-1.2,2.8-2.8v-3.7c3.7,5.1,3.3,12.4-1.3,17
			c-5.1,5.1-13.4,5.1-18.6,0c-5.1-5.1-5.1-13.4,0-18.6c1.1-1.1,1.1-2.8,0-3.8c-1.1-1.1-2.8-1.1-3.8,0c-7.3,7.3-7.3,19,0,26.2
			c7.3,7.3,19,7.3,26.2,0c6.6-6.6,7.3-17,1.7-24.3h2.9c1.5,0,2.8-1.2,2.8-2.8s-1.2-2.8-2.8-2.8h-9.9V261.1z"/>
	</mask>
	
		<linearGradient id="SVGID_00000182529898566576863160000006539674291582132902_" gradientUnits="userSpaceOnUse" x1="1580.4858" y1="-208.554" x2="1591.892" y2="-179.8325" gradientTransform="matrix(1 0 0 1 0 472)">
		<stop  offset="0" style="stop-color:#FF00A0"/>
		<stop  offset="1" style="stop-color:#9600FF"/>
	</linearGradient>
	
		<path style="mask:url(#path-6-inside-1_1_11512_00000146490053352094917050000003353918802289482882_);fill:url(#SVGID_00000182529898566576863160000006539674291582132902_);fill-opacity:0.4;" d="
		M1588.3,261.1v-7l-7,7H1588.3z M1593.8,269.9l5.7-4.1l-12.7,4.1H1593.8z M1573.8,286.9l-5,4.9l0,0L1573.8,286.9z M1573.8,268.3
		l-5-4.9l0,0L1573.8,268.3z M1573.8,264.5l-5,4.9l0,0L1573.8,264.5z M1570,264.5l5,4.9L1570,264.5z M1570,290.8l5-4.9l0,0
		L1570,290.8z M1596.2,290.8l4.9,5l0,0L1596.2,290.8z M1598,266.5v-7l-5.5,11.2L1598,266.5z M1588.3,268.1h2.8v-14h-2.8V268.1z
		 M1595.3,263.9v-2.8h-14v2.8H1595.3z M1595.3,273.6v-9.8h-14v9.8H1595.3z M1591.1,269.4c2.4,0,4.2,1.8,4.2,4.2h-14
		c0,5.4,4.4,9.8,9.8,9.8V269.4z M1586.7,273.6c0-2.4,1.8-4.2,4.2-4.2v14c5.4,0,9.8-4.4,9.8-9.8H1586.7z M1586.7,269.9v3.7h14v-3.7
		H1586.7z M1597.4,291.9c7.1-7.1,7.8-18.1,2.1-26l-11.3,8.2c1.7,2.4,1.5,5.8-0.7,7.9L1597.4,291.9z M1568.9,291.9
		c7.9,7.9,20.6,7.9,28.5,0l-9.9-9.9c-2.4,2.4-6.3,2.4-8.7,0L1568.9,291.9z M1568.9,263.5c-7.9,7.9-7.9,20.6,0,28.5l9.9-9.9
		c-2.4-2.4-2.4-6.3,0-8.7L1568.9,263.5z M1568.9,269.4c-1.7-1.7-1.7-4.4,0-6.1l9.9,9.9c3.8-3.8,3.8-9.9,0-13.7L1568.9,269.4z
		 M1574.8,269.4c-1.7,1.7-4.4,1.7-6.1,0l9.9-9.9c-3.8-3.8-9.9-3.8-13.7,0L1574.8,269.4z M1574.8,285.9c-4.5-4.5-4.5-11.9,0-16.3
		l-9.9-9.9c-10,10-10,26.2,0,36.1L1574.8,285.9z M1591.3,285.9c-4.5,4.5-11.9,4.5-16.3,0l-9.9,9.9c10,10,26.2,10,36.1,0
		L1591.3,285.9z M1592.4,270.7c3.4,4.5,3,10.9-1.1,15.2l9.9,9.9c9.1-9.1,9.9-23.3,2.4-33.4L1592.4,270.7z M1600.8,259.5h-2.9v14h2.9
		V259.5z M1596.6,263.9c0-2.4,1.8-4.2,4.2-4.2v14c5.4,0,9.8-4.4,9.8-9.8H1596.6z M1600.8,268.1c-2.4,0-4.2-1.8-4.2-4.2h14
		c0-5.4-4.4-9.8-9.8-9.8V268.1z M1591.1,268.1h9.8v-14h-9.8V268.1z"/>
	
		<linearGradient id="SVGID_00000041296605241024102300000008452911511670707843_" gradientUnits="userSpaceOnUse" x1="1559.5663" y1="-262.0361" x2="1609.1874" y2="-118.1828" gradientTransform="matrix(1 0 0 1 0 472)">
		<stop  offset="0" style="stop-color:#4C4C4C"/>
		<stop  offset="1" style="stop-color:#1B1B1F"/>
	</linearGradient>
	<path style="fill-rule:evenodd;clip-rule:evenodd;fill:url(#SVGID_00000041296605241024102300000008452911511670707843_);" d="
		M1568.6,224.2c0-7.9,6.3-14.2,14.2-14.2c7.9,0,14.2,6.3,14.2,14.2s-6.3,14.2-14.2,14.2C1575,238.4,1568.6,232.1,1568.6,224.2z
		 M1582.9,204.5c-10.9,0-19.6,8.8-19.6,19.6c0,5,1.8,9.5,4.9,13.1l-25.2,25.2c-3.4-3-8-4.9-13.1-4.9c-10.9,0-19.6,8.8-19.6,19.6
		c0,10.8,8.8,19.6,19.6,19.6c4.6,0,8.8-1.6,12.1-4.2l25.3,25.3c-2.6,3.3-4.2,7.5-4.2,12.1c0,10.9,8.8,19.6,19.6,19.6
		c10.8,0,19.6-8.8,19.6-19.6c0-4.2-1.3-8.2-3.7-11.5l25.4-25.4c3.2,2.2,7.1,3.7,11.5,3.7c10.9,0,19.6-8.8,19.6-19.6
		c0-10.8-8.8-19.6-19.6-19.6c-4.6,0-9,1.6-12.4,4.4l-25.2-25.2c2.8-3.4,4.4-7.6,4.4-12.4C1602.5,213.4,1593.7,204.5,1582.9,204.5z
		 M1594.2,240.3c-3.2,2.2-7.1,3.6-11.3,3.6c-4,0-7.5-1.2-10.7-3.2l-25.7,25.7c2,3,3.2,6.7,3.2,10.7c0,4.4-1.4,8.3-3.8,11.6
		l25.4,25.4c3.3-2.4,7.3-3.8,11.6-3.8c4.6,0,9,1.6,12.3,4.4l25.2-25.2c-2.6-3.4-4.4-7.6-4.4-12.3c0-4.2,1.3-8.2,3.6-11.3
		L1594.2,240.3z M1568.6,330c0-7.9,6.3-14.2,14.2-14.2c7.9,0,14.2,6.3,14.2,14.2s-6.3,14.2-14.2,14.2
		C1575,344.4,1568.6,337.9,1568.6,330z M1650.1,277.2c0-7.9-6.3-14.2-14.2-14.2s-14.2,6.3-14.2,14.2s6.3,14.2,14.2,14.2
		C1643.7,291.4,1650.1,285.1,1650.1,277.2z M1529.9,262.9c7.9,0,14.2,6.3,14.2,14.2s-6.3,14.2-14.2,14.2c-7.9,0-14.2-6.3-14.2-14.2
		S1522.1,262.9,1529.9,262.9z"/>
	
		<linearGradient id="SVGID_00000048477587626896039240000016183874546423654073_" gradientUnits="userSpaceOnUse" x1="1560.4686" y1="-262.5871" x2="1606.0024" y2="-124.1114" gradientTransform="matrix(1 0 0 1 0 472)">
		<stop  offset="0" style="stop-color:#F3F3F3"/>
		<stop  offset="1" style="stop-color:#8F8F95"/>
	</linearGradient>
	<path style="fill-rule:evenodd;clip-rule:evenodd;fill:url(#SVGID_00000048477587626896039240000016183874546423654073_);" d="
		M1568.6,224.2c0-7.9,6.3-14.2,14.2-14.2c7.9,0,14.2,6.3,14.2,14.2s-6.3,14.2-14.2,14.2C1575,238.4,1568.6,232.1,1568.6,224.2z
		 M1582.9,204.5c-10.9,0-19.6,8.8-19.6,19.6c0,5,1.8,9.5,4.9,13.1l-25.2,25.2c-3.4-3-8-4.9-13.1-4.9c-10.9,0-19.6,8.8-19.6,19.6
		c0,10.8,8.8,19.6,19.6,19.6c4.6,0,8.8-1.6,12.1-4.2l25.3,25.3c-2.6,3.3-4.2,7.5-4.2,12.1c0,10.9,8.8,19.6,19.6,19.6
		c10.8,0,19.6-8.8,19.6-19.6c0-4.2-1.3-8.2-3.7-11.5l25.4-25.4c3.2,2.2,7.1,3.7,11.5,3.7c10.9,0,19.6-8.8,19.6-19.6
		c0-10.8-8.8-19.6-19.6-19.6c-4.6,0-9,1.6-12.4,4.4l-25.2-25.2c2.8-3.4,4.4-7.6,4.4-12.4C1602.5,213.4,1593.7,204.5,1582.9,204.5z
		 M1594.2,240.3c-3.2,2.2-7.1,3.6-11.3,3.6c-4,0-7.5-1.2-10.7-3.2l-25.7,25.7c2,3,3.2,6.7,3.2,10.7c0,4.4-1.4,8.3-3.8,11.6
		l25.4,25.4c3.3-2.4,7.3-3.8,11.6-3.8c4.6,0,9,1.6,12.3,4.4l25.2-25.2c-2.6-3.4-4.4-7.6-4.4-12.3c0-4.2,1.3-8.2,3.6-11.3
		L1594.2,240.3z M1568.6,330c0-7.9,6.3-14.2,14.2-14.2c7.9,0,14.2,6.3,14.2,14.2s-6.3,14.2-14.2,14.2
		C1575,344.4,1568.6,337.9,1568.6,330z M1650.1,277.2c0-7.9-6.3-14.2-14.2-14.2s-14.2,6.3-14.2,14.2s6.3,14.2,14.2,14.2
		C1643.7,291.4,1650.1,285.1,1650.1,277.2z M1529.9,262.9c7.9,0,14.2,6.3,14.2,14.2s-6.3,14.2-14.2,14.2c-7.9,0-14.2-6.3-14.2-14.2
		S1522.1,262.9,1529.9,262.9z"/>
</g>
<g>
	<g>
		<g>
			<g>
				<defs>
					<rect id="SVGID_00000177478129698403425390000001769007163169937596_" y="0" width="1920" height="1080"/>
				</defs>
				<clipPath id="SVGID_00000114072675099691032560000000042556558734744752_">
					<use xlink:href="#SVGID_00000177478129698403425390000001769007163169937596_"  style="overflow:visible;"/>
				</clipPath>
				<g style="opacity:0.8;clip-path:url(#SVGID_00000114072675099691032560000000042556558734744752_);">
					<g>
						
							<linearGradient id="SVGID_00000087404518699644928070000004143831965364612485_" gradientUnits="userSpaceOnUse" x1="31.752" y1="1430.2208" x2="111.7616" y2="1224.7726" gradientTransform="matrix(1 0 0 -1 0 1549.89)">
							<stop  offset="0" style="stop-color:#322D37"/>
							<stop  offset="1" style="stop-color:#18151B"/>
						</linearGradient>
						
							<path style="fill-rule:evenodd;clip-rule:evenodd;fill:url(#SVGID_00000087404518699644928070000004143831965364612485_);" d="
							M93.6,153.8c-0.4-0.2-0.5-0.7-0.4-1.1c1.2-3.4,1.9-7,1.9-10.7c0-17.6-14.3-31.9-31.9-31.9S31.3,124.4,31.3,142
							c0,0.1,0,0.2,0,0.2c0,2.4-4.2,5-6.3,3.8c-17.6-10.2-40.1-4.1-50.3,13.5s-4.1,40.1,13.5,50.3c2.7,1.6,5.6,2.8,8.5,3.6
							c1.4,0.4,2.4,1.6,2.4,3c0,1.5-1.1,2.7-2.5,3.1c-2.5,0.6-5,1.6-7.3,2.9c-13.3,7.7-17.9,24.7-10.2,38.1
							c7.7,13.3,24.7,17.9,38.1,10.2c2.7-1.5,5-3.5,7-5.7c0.9-1,2.4-1.4,3.6-0.7c1.2,0.7,1.7,2.1,1.2,3.4c-1.2,3.7-1.9,7.6-1.9,11.8
							c0,20.3,16.5,36.8,36.8,36.8s36.8-16.5,36.8-36.8c0-4.9-1-9.5-2.7-13.8c-0.1-0.3,0-0.7,0.3-0.9c0.3-0.2,0.8-0.1,1,0.2
							c2.6,4.1,6.3,7.6,10.7,10.1c15.2,8.8,34.7,3.6,43.5-11.7c8.8-15.2,3.6-34.7-11.7-43.5c-3.8-2.2-7.9-3.5-12.1-4
							c-1.1-0.1-2-1.1-2-2.2c0-1.1,0.8-1.9,1.8-2.1c3.9-0.7,7.7-2.1,11.4-4.2c17.3-10,23.2-32,13.2-49.3s-32-23.2-49.3-13.2
							c-4,2.3-7.4,5.3-10.1,8.6C94.4,153.9,93.9,154,93.6,153.8z"/>
					</g>
					
						<linearGradient id="SVGID_00000000195972362674155680000006316790240551999144_" gradientUnits="userSpaceOnUse" x1="54.8657" y1="1287.3129" x2="72.1329" y2="1252.4342" gradientTransform="matrix(1 0 0 -1 0 1549.89)">
						<stop  offset="0" style="stop-color:#FF00A0"/>
						<stop  offset="1" style="stop-color:#9600FF"/>
					</linearGradient>
					
						<path style="fill:none;stroke:url(#SVGID_00000000195972362674155680000006316790240551999144_);stroke-width:8.2406;stroke-linejoin:bevel;stroke-miterlimit:10;stroke-opacity:0.4;" d="
						M80.6,280c0,9.5-7.7,17.1-17.1,17.1c-9.5,0-17.1-7.7-17.1-17.1c0-9.5,7.7-17.1,17.1-17.1S80.6,270.6,80.6,280z"/>
					
						<linearGradient id="SVGID_00000171695764254593402450000014681069265892242590_" gradientUnits="userSpaceOnUse" x1="133.814" y1="1389.2341" x2="112.9718" y2="1357.9421" gradientTransform="matrix(1 0 0 -1 0 1549.89)">
						<stop  offset="0" style="stop-color:#FF00A0"/>
						<stop  offset="1" style="stop-color:#9600FF"/>
					</linearGradient>
					
						<path style="fill:none;stroke:url(#SVGID_00000171695764254593402450000014681069265892242590_);stroke-width:8.2406;stroke-linejoin:bevel;stroke-miterlimit:10;stroke-opacity:0.4;" d="
						M131.6,190.5c-7.8,4.5-17.9,1.8-22.4-6c-4.5-7.9-1.8-17.9,6-22.4c7.9-4.5,17.9-1.8,22.4,6C142.1,175.9,139.4,186,131.6,190.5z"
						/>
					
						<linearGradient id="SVGID_00000155104835273337792780000004861137550524017326_" gradientUnits="userSpaceOnUse" x1="25.872" y1="1370.6949" x2="-12.9673" y2="1373.1847" gradientTransform="matrix(1 0 0 -1 0 1549.89)">
						<stop  offset="0" style="stop-color:#FF00A0"/>
						<stop  offset="1" style="stop-color:#9600FF"/>
					</linearGradient>
					
						<path style="fill:none;stroke:url(#SVGID_00000155104835273337792780000004861137550524017326_);stroke-width:8.2406;stroke-linejoin:bevel;stroke-miterlimit:10;stroke-opacity:0.4;" d="
						M-2.1,192.8c-8.2-4.7-11-15.2-6.3-23.4s15.2-11,23.4-6.3s11,15.2,6.3,23.4S6.1,197.5-2.1,192.8z"/>
					
						<linearGradient id="SVGID_00000162331885476460671550000007816547532190613165_" gradientUnits="userSpaceOnUse" x1="35.8256" y1="1421.7151" x2="106.6442" y2="1239.1255" gradientTransform="matrix(1 0 0 -1 0 1549.89)">
						<stop  offset="0" style="stop-color:#4C4C4C"/>
						<stop  offset="1" style="stop-color:#1B1B1F"/>
					</linearGradient>
					<path style="fill-rule:evenodd;clip-rule:evenodd;fill:url(#SVGID_00000162331885476460671550000007816547532190613165_);" d="
						M63.5,128.4c-7.4,0-13.3,6-13.3,13.3s6,13.3,13.3,13.3s13.3-6,13.3-13.3S70.8,128.4,63.5,128.4z M42.2,141.7
						c0-11.7,9.5-21.3,21.3-21.3c11.7,0,21.3,9.5,21.3,21.3c0,10.4-7.4,19-17.3,20.9v28.6c4,0.8,7.6,2.8,10.4,5.7l21.4-12.4
						c-3.9-11.3,0.6-24.1,11.4-30.3c12.2-7,27.8-2.9,34.8,9.3s2.9,27.8-9.3,34.8c-11.3,6.5-25.5,3.4-33.1-6.8l-20.8,12
						c0.9,2.3,1.4,4.7,1.4,7.3s-0.5,5.1-1.4,7.4l27.5,15.8c6.4-8.2,18.1-10.7,27.4-5.3c10.2,5.9,13.7,18.9,7.8,29.1
						s-18.9,13.7-29.1,7.8c-8.7-5-12.5-15.2-9.8-24.5l-28.2-16.2c-2.8,2.8-6.3,4.8-10.3,5.6v23.6C80,256,89.7,266.9,89.7,280
						c0,14.5-11.7,26.2-26.2,26.2S37.3,294.5,37.3,280c0-13.1,9.6-24,22.2-25.9v-23.6c-4.7-0.9-8.8-3.5-11.7-7.1L19.9,240
						c2.6,7.6-0.5,16.3-7.7,20.4c-8.3,4.8-18.8,1.9-23.6-6.3c-4.8-8.3-1.9-18.8,6.3-23.6c6.9-4,15.4-2.7,20.8,2.7L44,216.4l0.1-0.1
						c-0.5-1.7-0.8-3.6-0.8-5.5c0-1.7,0.2-3.3,0.6-4.9L26,195.3c-8,9.2-21.7,11.7-32.6,5.4c-12.5-7.2-16.8-23.3-9.6-35.8
						C-9,152.3,7,148,19.6,155.3c11.7,6.8,16.3,21.2,10.8,33.3l17.1,10.1c2.9-3.8,7.1-6.6,12-7.5v-28.6
						C49.6,160.7,42.2,152.1,42.2,141.7z M73.2,203.8c0,0.1,0.1,0.2,0.1,0.3c0.1,0.2,0.3,0.4,0.4,0.6c1.1,1.8,1.7,3.9,1.7,6.2
						c0,6.7-5.4,12-12,12.1c0,0,0,0-0.1,0s0,0-0.1,0c-6.7,0-12-5.4-12-12.1c0-6.7,5.4-12.1,12.1-12.1
						C67.5,198.8,71,200.8,73.2,203.8z M45.2,280c0-10.1,8.2-18.3,18.3-18.3s18.3,8.2,18.3,18.3c0,10.1-8.2,18.3-18.3,18.3
						S45.2,290.1,45.2,280z M138.5,167.5c-4.8-8.4-15.6-11.3-24-6.4c-8.4,4.8-11.3,15.6-6.4,24c4.8,8.4,15.6,11.3,24,6.4
						C140.5,186.6,143.4,175.9,138.5,167.5z M-1.1,237.4c4.5-2.6,10.2-1,12.7,3.4c2.6,4.5,1,10.2-3.4,12.7c-4.5,2.6-10.2,1-12.7-3.4
						C-7.1,245.7-5.6,240-1.1,237.4z M137.8,253.8c3.7-6.4,1.5-14.5-4.9-18.2c-6.4-3.7-14.5-1.5-18.2,4.9s-1.5,14.5,4.9,18.2
						C126,262.4,134.1,260.2,137.8,253.8z M15.6,162.2c8.7,5,11.7,16.2,6.7,24.9s-16.2,11.7-24.9,6.7s-11.7-16.2-6.7-24.9
						C-4.3,160.1,6.9,157.1,15.6,162.2z"/>
					
						<linearGradient id="SVGID_00000094583891475155866860000006984224621952909459_" gradientUnits="userSpaceOnUse" x1="36.3188" y1="1422.0559" x2="104.7128" y2="1242.1594" gradientTransform="matrix(1 0 0 -1 0 1549.89)">
						<stop  offset="0" style="stop-color:#F3F3F3"/>
						<stop  offset="1" style="stop-color:#8F8F95"/>
					</linearGradient>
					<path style="fill-rule:evenodd;clip-rule:evenodd;fill:url(#SVGID_00000094583891475155866860000006984224621952909459_);" d="
						M63.5,128.4c-7.4,0-13.3,6-13.3,13.3s6,13.3,13.3,13.3s13.3-6,13.3-13.3S70.8,128.4,63.5,128.4z M42.2,141.7
						c0-11.7,9.5-21.3,21.3-21.3c11.7,0,21.3,9.5,21.3,21.3c0,10.4-7.4,19-17.3,20.9v28.6c4,0.8,7.6,2.8,10.4,5.7l21.4-12.4
						c-3.9-11.3,0.6-24.1,11.4-30.3c12.2-7,27.8-2.9,34.8,9.3s2.9,27.8-9.3,34.8c-11.3,6.5-25.5,3.4-33.1-6.8l-20.8,12
						c0.9,2.3,1.4,4.7,1.4,7.3s-0.5,5.1-1.4,7.4l27.5,15.8c6.4-8.2,18.1-10.7,27.4-5.3c10.2,5.9,13.7,18.9,7.8,29.1
						s-18.9,13.7-29.1,7.8c-8.7-5-12.5-15.2-9.8-24.5l-28.2-16.2c-2.8,2.8-6.3,4.8-10.3,5.6v23.6C80,256,89.7,266.9,89.7,280
						c0,14.5-11.7,26.2-26.2,26.2S37.3,294.5,37.3,280c0-13.1,9.6-24,22.2-25.9v-23.6c-4.7-0.9-8.8-3.5-11.7-7.1L19.9,240
						c2.6,7.6-0.5,16.3-7.7,20.4c-8.3,4.8-18.8,1.9-23.6-6.3c-4.8-8.3-1.9-18.8,6.3-23.6c6.9-4,15.4-2.7,20.8,2.7L44,216.4l0.1-0.1
						c-0.5-1.7-0.8-3.6-0.8-5.5c0-1.7,0.2-3.3,0.6-4.9L26,195.3c-8,9.2-21.7,11.7-32.6,5.4c-12.5-7.2-16.8-23.3-9.6-35.8
						C-9,152.3,7,148,19.6,155.3c11.7,6.8,16.3,21.2,10.8,33.3l17.1,10.1c2.9-3.8,7.1-6.6,12-7.5v-28.6
						C49.6,160.7,42.2,152.1,42.2,141.7z M73.2,203.8c0,0.1,0.1,0.2,0.1,0.3c0.1,0.2,0.3,0.4,0.4,0.6c1.1,1.8,1.7,3.9,1.7,6.2
						c0,6.7-5.4,12-12,12.1c0,0,0,0-0.1,0s0,0-0.1,0c-6.7,0-12-5.4-12-12.1c0-6.7,5.4-12.1,12.1-12.1
						C67.5,198.8,71,200.8,73.2,203.8z M45.2,280c0-10.1,8.2-18.3,18.3-18.3s18.3,8.2,18.3,18.3c0,10.1-8.2,18.3-18.3,18.3
						S45.2,290.1,45.2,280z M138.5,167.5c-4.8-8.4-15.6-11.3-24-6.4c-8.4,4.8-11.3,15.6-6.4,24c4.8,8.4,15.6,11.3,24,6.4
						C140.5,186.6,143.4,175.9,138.5,167.5z M-1.1,237.4c4.5-2.6,10.2-1,12.7,3.4c2.6,4.5,1,10.2-3.4,12.7c-4.5,2.6-10.2,1-12.7-3.4
						C-7.1,245.7-5.6,240-1.1,237.4z M137.8,253.8c3.7-6.4,1.5-14.5-4.9-18.2c-6.4-3.7-14.5-1.5-18.2,4.9s-1.5,14.5,4.9,18.2
						C126,262.4,134.1,260.2,137.8,253.8z M15.6,162.2c8.7,5,11.7,16.2,6.7,24.9s-16.2,11.7-24.9,6.7s-11.7-16.2-6.7-24.9
						C-4.3,160.1,6.9,157.1,15.6,162.2z"/>
				</g>
			</g>
		</g>
	</g>
</g>
<g>
	<g>
		<defs>
			<rect id="SVGID_00000126317869591342329400000008780236764060631183_" y="138.3" width="1920" height="1080"/>
		</defs>
		<clipPath id="SVGID_00000154399783206640840660000003556231337208694459_">
			<use xlink:href="#SVGID_00000126317869591342329400000008780236764060631183_"  style="overflow:visible;"/>
		</clipPath>
		<g style="opacity:0.9;clip-path:url(#SVGID_00000154399783206640840660000003556231337208694459_);">
			<g>
				
					<linearGradient id="SVGID_00000019669855743206064410000009154960492335938462_" gradientUnits="userSpaceOnUse" x1="1801.3075" y1="731.1011" x2="1842.9414" y2="547.124" gradientTransform="matrix(1 0 0 -1 0 1313.89)">
					<stop  offset="0" style="stop-color:#322D37"/>
					<stop  offset="1" style="stop-color:#18151B"/>
				</linearGradient>
				<path style="fill-rule:evenodd;clip-rule:evenodd;fill:url(#SVGID_00000019669855743206064410000009154960492335938462_);" d="
					M1907.6,748.2h-152c-34.5,0-62.5-28-62.5-62.5c0-26.4,16.3-48.9,39.4-58.1c2.6-1,3.8-1.5,4.6-2c0.8-0.5,1.1-0.8,1.7-1.5
					s1.2-1.8,2.4-4.2c12.8-23.8,38-40.1,66.9-40.1c27.9,0,52.3,15,65.4,37.4c1.5,2.6,2.3,3.9,2.9,4.6c0.8,0.8,1,1,2,1.5
					c0.8,0.5,2.4,0.9,5.5,1.8c9.6,2.8,17.9,8.3,24.3,15.6c1.9,2.2,2.8,3.2,3.4,3.7c0.8,0.6,0.9,0.7,1.9,1.1c0.7,0.3,2.1,0.6,4.9,1.2
					c23.2,5,40.5,25.5,40.5,50.2c0,28.2-22.7,51.1-50.9,51.3l0,0l0,0h-0.2C1907.7,748.2,1907.6,748.2,1907.6,748.2
					C1907.8,748.2,1907.7,748.2,1907.6,748.2z"/>
			</g>
			<g class="st70">
				<defs>
					
						<filter id="Adobe_OpacityMaskFilter_00000030473415622285164100000016611260052991057811_" filterUnits="userSpaceOnUse" x="1693" y="579.7" width="266.2" height="168.6">
						<feColorMatrix  type="matrix" values="1 0 0 0 0  0 1 0 0 0  0 0 1 0 0  0 0 0 1 0"/>
					</filter>
				</defs>
				
					<mask maskUnits="userSpaceOnUse" x="1693" y="579.7" width="266.2" height="168.6" id="path-2-inside-1_208_1384_00000127735955667219051320000000188062743217041561_">
					
						<path style="fill-rule:evenodd;clip-rule:evenodd;fill:#FFFFFF;filter:url(#Adobe_OpacityMaskFilter_00000030473415622285164100000016611260052991057811_);" d="
						M1907.6,731.6h-152c-25.3,0-45.9-20.5-45.9-45.9c0-23.6,17.8-43,40.7-45.6c0.3,0,0.6-0.3,0.7-0.6c7-24.8,29.9-43,57-43
						s49.9,18.2,57,43c0.1,0.4,0.5,0.7,0.9,0.6c1.3-0.1,2.5-0.2,3.8-0.2c14.7,0,27.2,9.3,32.1,22.3c0.1,0.4,0.5,0.6,0.9,0.6
						c1.6-0.2,3.3-0.4,4.9-0.4c19.1,0,34.6,15.5,34.6,34.6c0,19-15.3,34.4-34.2,34.6l0,0l0,0h-0.2c-0.1,0-0.1,0-0.2,0
						C1907.8,731.6,1907.7,731.6,1907.6,731.6z"/>
				</mask>
				
					<linearGradient id="SVGID_00000093863725543249509050000005581703875715025084_" gradientUnits="userSpaceOnUse" x1="1859.8425" y1="535.5922" x2="1790.4636" y2="712.0001" gradientTransform="matrix(1 0 0 -1 0 1313.89)">
					<stop  offset="0" style="stop-color:#FF00A0"/>
					<stop  offset="1" style="stop-color:#9600FF"/>
				</linearGradient>
				
					<path style="mask:url(#path-2-inside-1_208_1384_00000127735955667219051320000000188062743217041561_);fill:url(#SVGID_00000093863725543249509050000005581703875715025084_);" d="
					M1907.6,731.6l0.1-16.7h-0.1V731.6z M1908,731.6v-16.7h-0.1L1908,731.6z M1902,662.1l15.6-5.8L1902,662.1z M1902.9,662.7
					l-2.4-16.5L1902.9,662.7z M1908.3,731.6l-0.2-16.7L1908.3,731.6z M1865.1,639.4l-16,4.6L1865.1,639.4z M1866.1,640l-1.9-16.6
					L1866.1,640z M1750.5,640.1l-1.9-16.6L1750.5,640.1z M1751.2,639.5l16,4.5L1751.2,639.5z M1907.6,714.9h-152v33.4h152V714.9z
					 M1755.6,714.9c-16.1,0-29.2-13.1-29.2-29.2H1693c0,34.5,28,62.6,62.5,62.6L1755.6,714.9L1755.6,714.9z M1726.4,685.7
					c0-15,11.3-27.4,25.9-29l-3.7-33.2c-31.2,3.5-55.5,30-55.5,62.2H1726.4z M1767.2,644c5.1-17.9,21.5-30.9,40.9-30.9v-33.4
					c-34.8,0-64,23.3-73,55.2L1767.2,644z M1808.2,613.1c19.4,0,35.8,13,40.9,30.9l32.1-9.1c-9-31.8-38.3-55.1-73-55.1V613.1z
					 M1867.9,656.6c0.6-0.1,1.3-0.1,2-0.1v-33.4c-1.9,0-3.8,0.1-5.7,0.3L1867.9,656.6z M1869.9,656.5c7.5,0,14,4.7,16.4,11.4
					l31.3-11.6c-7.2-19.4-25.8-33.2-47.7-33.2L1869.9,656.5L1869.9,656.5z M1905.3,679.2c0.8-0.1,1.7-0.2,2.6-0.2v-33.4
					c-2.5,0-4.9,0.2-7.3,0.5L1905.3,679.2z M1907.8,679c9.9,0,17.9,8,17.9,17.9h33.4c0-28.3-23-51.3-51.3-51.3V679z M1925.8,696.9
					c0,9.8-7.9,17.8-17.7,17.9l0.4,33.4c28-0.3,50.7-23.2,50.7-51.3L1925.8,696.9L1925.8,696.9z M1908.3,714.9h-0.2v33.4h0.2V714.9z
					 M1907.9,714.9L1907.9,714.9l-0.1,33.4c0.1,0,0.2,0,0.3,0L1907.9,714.9z M1907.8,714.9L1907.8,714.9l-0.3,33.4
					c0.1,0,0.2,0,0.3,0V714.9L1907.8,714.9z M1891.6,731.6c0-9.2,7.5-16.7,16.7-16.7v33.4c9.2,0,16.7-7.5,16.7-16.7H1891.6z
					 M1886.3,667.9c2.9,7.7,10.7,12.4,18.9,11.3l-4.7-33c7.4-1.1,14.5,3.2,17.1,10.2L1886.3,667.9z M1908.1,714.9
					c-9,0.1-16.5,7.4-16.5,16.7h33.4c0,9.3-7.5,16.6-16.5,16.7L1908.1,714.9z M1849.1,644c2.4,8.3,10.4,13.6,18.8,12.6l-3.7-33.2
					c7.6-0.9,14.8,3.9,17,11.4L1849.1,644z M1752.3,656.7c7-0.8,13-5.8,14.9-12.6l-32.1-9.1c1.8-6.2,7.1-10.7,13.5-11.4
					L1752.3,656.7z"/>
			</g>
			<defs>
				
					<filter id="Adobe_OpacityMaskFilter_00000093139067256153066090000014379738785703639220_" filterUnits="userSpaceOnUse" x="1699.7" y="586.4" width="252.7" height="155.2">
					<feColorMatrix  type="matrix" values="1 0 0 0 0  0 1 0 0 0  0 0 1 0 0  0 0 0 1 0"/>
				</filter>
			</defs>
			
				<mask maskUnits="userSpaceOnUse" x="1699.7" y="586.4" width="252.7" height="155.2" id="path-4-inside-2_208_1384_00000182495533118952427790000012121409470731494550_">
				
					<path style="fill-rule:evenodd;clip-rule:evenodd;fill:#FFFFFF;filter:url(#Adobe_OpacityMaskFilter_00000093139067256153066090000014379738785703639220_);" d="
					M1907.6,731.6h-152c-25.3,0-45.9-20.5-45.9-45.9c0-23.6,17.8-43,40.7-45.6c0.3,0,0.6-0.3,0.7-0.6c7-24.8,29.9-43,57-43
					s49.9,18.2,57,43c0.1,0.4,0.5,0.7,0.9,0.6c1.3-0.1,2.5-0.2,3.8-0.2c14.7,0,27.2,9.3,32.1,22.3c0.1,0.4,0.5,0.6,0.9,0.6
					c1.6-0.2,3.3-0.4,4.9-0.4c19.1,0,34.6,15.5,34.6,34.6c0,19-15.3,34.4-34.2,34.6l0,0l0,0h-0.2c-0.1,0-0.1,0-0.2,0
					C1907.8,731.6,1907.7,731.6,1907.6,731.6z"/>
			</mask>
			
				<linearGradient id="SVGID_00000165223940946503126370000005307638208617003688_" gradientUnits="userSpaceOnUse" x1="1807.2191" y1="716.0823" x2="1836.0468" y2="572.1509" gradientTransform="matrix(1 0 0 -1 0 1313.89)">
				<stop  offset="0" style="stop-color:#F3F3F3"/>
				<stop  offset="1" style="stop-color:#8F8F95"/>
			</linearGradient>
			
				<path style="mask:url(#path-4-inside-2_208_1384_00000182495533118952427790000012121409470731494550_);fill:url(#SVGID_00000165223940946503126370000005307638208617003688_);" d="
				M1907.6,731.6l0.1-10l0,0l0,0L1907.6,731.6L1907.6,731.6z M1908,731.6v-10l0,0l0,0V731.6z M1902,662.1l9.4-3.5L1902,662.1z
				 M1902.9,662.7l-1.4-9.9L1902.9,662.7z M1908.3,731.6l-0.1-10L1908.3,731.6z M1865.1,639.4l-9.6,2.7L1865.1,639.4z M1866.1,640
				l-1.1-9.9L1866.1,640z M1750.5,640.1l-1.1-9.9L1750.5,640.1z M1751.2,639.5l9.6,2.7L1751.2,639.5z M1907.6,721.5h-152v20h152
				V721.5z M1755.6,721.5c-19.8,0-35.9-16.1-35.9-35.9h-20c0,30.9,25,55.9,55.9,55.9V721.5z M1719.8,685.7
				c0-18.4,13.9-33.6,31.8-35.6l-2.2-19.9c-27.9,3.1-49.6,26.8-49.6,55.5H1719.8z M1760.8,642.2c5.8-20.6,24.8-35.8,47.3-35.8v-20
				c-31.7,0-58.4,21.3-66.6,50.3L1760.8,642.2z M1808.2,606.5c22.5,0,41.5,15.1,47.3,35.7l19.3-5.5c-8.3-29-34.9-50.2-66.6-50.2
				L1808.2,606.5L1808.2,606.5z M1867.2,650c0.9-0.1,1.8-0.2,2.7-0.2v-20c-1.7,0-3.3,0.1-5,0.3L1867.2,650z M1869.9,649.8
				c10.4,0,19.3,6.6,22.7,15.8l18.8-7c-6.2-16.8-22.4-28.8-41.5-28.8V649.8z M1904.3,672.6c1.1-0.2,2.3-0.2,3.5-0.2v-20
				c-2.2,0-4.3,0.2-6.4,0.5L1904.3,672.6z M1907.8,672.3c13.6,0,24.6,11,24.6,24.6h20c0-24.6-20-44.6-44.6-44.6V672.3z
				 M1932.4,696.9c0,13.5-10.9,24.4-24.3,24.6l0.2,20c24.4-0.3,44.1-20.2,44.1-44.6H1932.4z M1908.3,721.5h-0.2v20h0.2V721.5z
				 M1908,721.5L1908,721.5l-0.1,20c0.1,0,0.2,0,0.3,0L1908,721.5z M1907.8,721.5L1907.8,721.5l-0.2,20c0.1,0,0.2,0,0.3,0v-20
				H1907.8z M1898.2,731.6c0-5.5,4.5-10,10-10v20c5.5,0,10-4.5,10-10H1898.2z M1892.6,665.6c1.8,4.8,6.7,7.7,11.7,7l-2.8-19.8
				c4.3-0.6,8.4,1.8,9.9,5.9L1892.6,665.6z M1908.1,721.5c-5.4,0.1-9.9,4.4-9.9,10h20c0,5.6-4.5,9.9-9.9,10L1908.1,721.5z
				 M1855.5,642.2c1.5,5.1,6.4,8.4,11.7,7.8l-2.2-19.9c4.4-0.5,8.6,2.3,9.8,6.6L1855.5,642.2z M1751.6,650c4.4-0.5,8-3.6,9.2-7.8
				l-19.3-5.5c1-3.6,4.1-6.2,7.8-6.6L1751.6,650z"/>
		</g>
	</g>
</g>
</svg>
